{
  "accessors": [
    {
      "name": "Mesh1 Group1 Model_1_positions",
      "componentType": 5126,
      "count": 24,
      "min": [
        2.5988399982452393,
        1.2633399846541903e-14,
        -3
      ],
      "max": [
        3,
        0.6299999952316284,
        -2.5988399982452393
      ],
      "type": "VEC3",
      "bufferView": 0,
      "byteOffset": 0
    },
    {
      "name": "Mesh1 Group1 Model_1_normals",
      "componentType": 5126,
      "count": 24,
      "min": [
        -0.7933530211448669,
        -1,
        -1
      ],
      "max": [
        1,
        1,
        0.7933530211448669
      ],
      "type": "VEC3",
      "bufferView": 0,
      "byteOffset": 1152
    },
    {
      "name": "Mesh1 Group1 Model_1_texcoords",
      "componentType": 5126,
      "count": 24,
      "min": [
        -3,
        -2
      ],
      "max": [
        3,
        1
      ],
      "type": "VEC2",
      "bufferView": 1,
      "byteOffset": 0
    },
    {
      "name": "Mesh1 Group1 Model_1_0_indices",
      "componentType": 5123,
      "count": 36,
      "min": [
        0
      ],
      "max": [
        23
      ],
      "type": "SCALAR",
      "bufferView": 2,
      "byteOffset": 0
    },
    {
      "name": "Mesh2 Group1 Model_1_positions",
      "componentType": 5126,
      "count": 24,
      "min": [
        9.818000362357693e-13,
        5.414340054451421e-15,
        -3
      ],
      "max": [
        0.4011639952659607,
        0.6299999952316284,
        -2.5988399982452393
      ],
      "type": "VEC3",
      "bufferView": 0,
      "byteOffset": 288
    },
    {
      "name": "Mesh2 Group1 Model_1_normals",
      "componentType": 5126,
      "count": 24,
      "min": [
        -1,
        -1,
        -1
      ],
      "max": [
        0.7933530211448669,
        1,
        0.7933530211448669
      ],
      "type": "VEC3",
      "bufferView": 0,
      "byteOffset": 1440
    },
    {
      "name": "Mesh2 Group1 Model_1_texcoords",
      "componentType": 5126,
      "count": 24,
      "min": [
        -3,
        -2
      ],
      "max": [
        2.347909927368164,
        1
      ],
      "type": "VEC2",
      "bufferView": 1,
      "byteOffset": 192
    },
    {
      "name": "Mesh2 Group1 Model_1_0_indices",
      "componentType": 5123,
      "count": 36,
      "min": [
        0
      ],
      "max": [
        23
      ],
      "type": "SCALAR",
      "bufferView": 2,
      "byteOffset": 72
    },
    {
      "name": "Mesh3 Group1 Model_1_positions",
      "componentType": 5126,
      "count": 24,
      "min": [
        0,
        0,
        -0.4011639952659607
      ],
      "max": [
        0.4011639952659607,
        0.6299999952316284,
        0
      ],
      "type": "VEC3",
      "bufferView": 0,
      "byteOffset": 576
    },
    {
      "name": "Mesh3 Group1 Model_1_normals",
      "componentType": 5126,
      "count": 24,
      "min": [
        -1,
        -1,
        -0.7933530211448669
      ],
      "max": [
        0.7933530211448669,
        1,
        1
      ],
      "type": "VEC3",
      "bufferView": 0,
      "byteOffset": 1728
    },
    {
      "name": "Mesh3 Group1 Model_1_texcoords",
      "componentType": 5126,
      "count": 24,
      "min": [
        -0.4011639952659607,
        0.3700000047683716
      ],
      "max": [
        0.4011639952659607,
        1
      ],
      "type": "VEC2",
      "bufferView": 1,
      "byteOffset": 384
    },
    {
      "name": "Mesh3 Group1 Model_1_0_indices",
      "componentType": 5123,
      "count": 36,
      "min": [
        0
      ],
      "max": [
        23
      ],
      "type": "SCALAR",
      "bufferView": 2,
      "byteOffset": 144
    },
    {
      "name": "Mesh4 Group1 Model_1_positions",
      "componentType": 5126,
      "count": 24,
      "min": [
        2.5988399982452393,
        2.526689964297158e-15,
        -0.4011639952659607
      ],
      "max": [
        3,
        0.6299999952316284,
        0
      ],
      "type": "VEC3",
      "bufferView": 0,
      "byteOffset": 864
    },
    {
      "name": "Mesh4 Group1 Model_1_normals",
      "componentType": 5126,
      "count": 24,
      "min": [
        -0.7933530211448669,
        -1,
        -0.7933530211448669
      ],
      "max": [
        1,
        1,
        1
      ],
      "type": "VEC3",
      "bufferView": 0,
      "byteOffset": 2016
    },
    {
      "name": "Mesh4 Group1 Model_1_texcoords",
      "componentType": 5126,
      "count": 24,
      "min": [
        -3,
        0.3700000047683716
      ],
      "max": [
        3,
        1
      ],
      "type": "VEC2",
      "bufferView": 1,
      "byteOffset": 576
    },
    {
      "name": "Mesh4 Group1 Model_1_0_indices",
      "componentType": 5123,
      "count": 36,
      "min": [
        0
      ],
      "max": [
        23
      ],
      "type": "SCALAR",
      "bufferView": 2,
      "byteOffset": 216
    }
  ],
  "asset": {
    "generator": "obj2gltf",
    "version": "2.0"
  },
  "buffers": [
    {
      "name": "roadTile_132",
      "byteLength": 3360,
      "uri": "data:application/octet-stream;base64,"
    }
  ],
  "bufferViews": [
    {
      "name": "bufferView_0",
      "buffer": 0,
      "byteLength": 2304,
      "byteOffset": 0,
      "byteStride": 12,
      "target": 34962
    },
    {
      "name": "bufferView_1",
      "buffer": 0,
      "byteLength": 768,
      "byteOffset": 2304,
      "byteStride": 8,
      "target": 34962
    },
    {
      "name": "bufferView_2",
      "buffer": 0,
      "byteLength": 288,
      "byteOffset": 3072,
      "target": 34963
    }
  ],
  "materials": [
    {
      "name": "Stone",
      "pbrMetallicRoughness": {
        "baseColorFactor": [
          0.847059,
          0.827451,
          0.74902,
          1
        ],
        "metallicFactor": 0,
        "roughnessFactor": 1
      },
      "emissiveFactor": [
        0,
        0,
        0
      ],
      "alphaMode": "OPAQUE",
      "doubleSided": false
    }
  ],
  "meshes": [
    {
      "name": "Mesh1 Group1 Model_1",
      "primitives": [
        {
          "attributes": {
            "POSITION": 0,
            "NORMAL": 1,
            "TEXCOORD_0": 2
          },
          "indices": 3,
          "material": 0,
          "mode": 4
        }
      ]
    },
    {
      "name": "Mesh2 Group1 Model_1",
      "primitives": [
        {
          "attributes": {
            "POSITION": 4,
            "NORMAL": 5,
            "TEXCOORD_0": 6
          },
          "indices": 7,
          "material": 0,
          "mode": 4
        }
      ]
    },
    {
      "name": "Mesh3 Group1 Model_1",
      "primitives": [
        {
          "attributes": {
            "POSITION": 8,
            "NORMAL": 9,
            "TEXCOORD_0": 10
          },
          "indices": 11,
          "material": 0,
          "mode": 4
        }
      ]
    },
    {
      "name": "Mesh4 Group1 Model_1",
      "primitives": [
        {
          "attributes": {
            "POSITION": 12,
            "NORMAL": 13,
            "TEXCOORD_0": 14
          },
          "indices": 15,
          "material": 0,
          "mode": 4
        }
      ]
    }
  ],
  "nodes": [
    {
      "name": "Mesh1 Group1 Model",
      "mesh": 0
    },
    {
      "name": "Mesh2 Group1 Model",
      "mesh": 1
    },
    {
      "name": "Mesh3 Group1 Model",
      "mesh": 2
    },
    {
      "name": "Mesh4 Group1 Model",
      "mesh": 3
    }
  ],
  "scene": 0,
  "scenes": [
    {
      "nodes": [
        0,
        1,
        2,
        3
      ]
    }
  ]
}
