{
  "accessors": [
    {
      "name": "Mesh1 Group1 Model_1_positions",
      "componentType": 5126,
      "count": 160,
      "min": [
        0,
        0,
        -3
      ],
      "max": [
        3,
        1.7300000190734863,
        0
      ],
      "type": "VEC3",
      "bufferView": 0,
      "byteOffset": 0
    },
    {
      "name": "Mesh1 Group1 Model_1_normals",
      "componentType": 5126,
      "count": 160,
      "min": [
        -1,
        -1,
        -1
      ],
      "max": [
        1,
        1,
        1
      ],
      "type": "VEC3",
      "bufferView": 0,
      "byteOffset": 1920
    },
    {
      "name": "Mesh1 Group1 Model_1_texcoords",
      "componentType": 5126,
      "count": 160,
      "min": [
        -3,
        -2
      ],
      "max": [
        3,
        1
      ],
      "type": "VEC2",
      "bufferView": 1,
      "byteOffset": 0
    },
    {
      "name": "Mesh1 Group1 Model_1_0_indices",
      "componentType": 5123,
      "count": 126,
      "min": [
        0
      ],
      "max": [
        159
      ],
      "type": "SCALAR",
      "bufferView": 2,
      "byteOffset": 0
    },
    {
      "name": "Mesh1 Group1 Model_1_1_indices",
      "componentType": 5123,
      "count": 150,
      "min": [
        40
      ],
      "max": [
        127
      ],
      "type": "SCALAR",
      "bufferView": 2,
      "byteOffset": 252
    },
    {
      "name": "Mesh1 Group1 Model_1_2_indices",
      "componentType": 5123,
      "count": 18,
      "min": [
        69
      ],
      "max": [
        113
      ],
      "type": "SCALAR",
      "bufferView": 2,
      "byteOffset": 552
    },
    {
      "name": "Mesh1 Group1 Model_1_3_indices",
      "componentType": 5123,
      "count": 18,
      "min": [
        144
      ],
      "max": [
        155
      ],
      "type": "SCALAR",
      "bufferView": 2,
      "byteOffset": 588
    }
  ],
  "asset": {
    "generator": "obj2gltf",
    "version": "2.0"
  },
  "buffers": [
    {
      "name": "roadTile_197",
      "byteLength": 5744,
      "uri": "data:application/octet-stream;base64,"
    }
  ],
  "bufferViews": [
    {
      "name": "bufferView_0",
      "buffer": 0,
      "byteLength": 3840,
      "byteOffset": 0,
      "byteStride": 12,
      "target": 34962
    },
    {
      "name": "bufferView_1",
      "buffer": 0,
      "byteLength": 1280,
      "byteOffset": 3840,
      "byteStride": 8,
      "target": 34962
    },
    {
      "name": "bufferView_2",
      "buffer": 0,
      "byteLength": 624,
      "byteOffset": 5120,
      "target": 34963
    }
  ],
  "materials": [
    {
      "name": "Stone",
      "pbrMetallicRoughness": {
        "baseColorFactor": [
          0.847059,
          0.827451,
          0.74902,
          1
        ],
        "metallicFactor": 0,
        "roughnessFactor": 1
      },
      "emissiveFactor": [
        0,
        0,
        0
      ],
      "alphaMode": "OPAQUE",
      "doubleSided": false
    },
    {
      "name": "Grass",
      "pbrMetallicRoughness": {
        "baseColorFactor": [
          0.541176,
          0.709804,
          0.286275,
          1
        ],
        "metallicFactor": 0,
        "roughnessFactor": 1
      },
      "emissiveFactor": [
        0,
        0,
        0
      ],
      "alphaMode": "OPAQUE",
      "doubleSided": false
    },
    {
      "name": "Water",
      "pbrMetallicRoughness": {
        "baseColorFactor": [
          0.690196,
          0.843137,
          0.964706,
          1
        ],
        "metallicFactor": 0,
        "roughnessFactor": 1
      },
      "emissiveFactor": [
        0,
        0,
        0
      ],
      "alphaMode": "OPAQUE",
      "doubleSided": false
    },
    {
      "name": "Asphalt",
      "pbrMetallicRoughness": {
        "baseColorFactor": [
          0.411765,
          0.411765,
          0.411765,
          1
        ],
        "metallicFactor": 0,
        "roughnessFactor": 1
      },
      "emissiveFactor": [
        0,
        0,
        0
      ],
      "alphaMode": "OPAQUE",
      "doubleSided": false
    }
  ],
  "meshes": [
    {
      "name": "Mesh1 Group1 Model_1",
      "primitives": [
        {
          "attributes": {
            "POSITION": 0,
            "NORMAL": 1,
            "TEXCOORD_0": 2
          },
          "indices": 3,
          "material": 0,
          "mode": 4
        },
        {
          "attributes": {
            "POSITION": 0,
            "NORMAL": 1,
            "TEXCOORD_0": 2
          },
          "indices": 4,
          "material": 1,
          "mode": 4
        },
        {
          "attributes": {
            "POSITION": 0,
            "NORMAL": 1,
            "TEXCOORD_0": 2
          },
          "indices": 5,
          "material": 2,
          "mode": 4
        },
        {
          "attributes": {
            "POSITION": 0,
            "NORMAL": 1,
            "TEXCOORD_0": 2
          },
          "indices": 6,
          "material": 3,
          "mode": 4
        }
      ]
    }
  ],
  "nodes": [
    {
      "name": "Mesh1 Group1 Model",
      "mesh": 0
    }
  ],
  "scene": 0,
  "scenes": [
    {
      "nodes": [
        0
      ]
    }
  ]
}
