mtllib Ground_Boost_Speed_Straight.mtl
o object1
g object1
v 0.00000000 0.00000000 -0.40000000
v 0.50000000 0.00000000 -0.40000000
v 0.50000000 0.00000000 -0.50000000
v -0.50000000 0.00000000 -0.50000000
v -0.50000000 0.00000000 0.00000000
v 0.00000000 0.00000000 0.40000000
v 0.50000000 0.00000000 0.40000000
v -0.00000000 0.00000000 0.00000000
v -0.50000000 0.00000000 0.50000000
v 0.50000000 0.00000000 0.50000000
vt 0.80000000 0.50000000
vt 0.80000000 0.00000000
vt 1.00000000 0.00000000
vt 1.00000000 1.00000000
vt 0.00000000 1.00000000
vt 1.00000000 0.00000000
vt 1.00000000 0.50000000
vt 0.50000000 1.00000000
vt 0.00000000 0.50000000
vt 0.00000000 0.00000000
vt 0.50000000 0.50000000
vt 0.20000000 0.50000000
vt 1.00000000 1.00000000
vt 0.00000000 1.00000000
vt 0.00000000 0.00000000
vt 0.20000000 0.00000000
vt 0.50000000 1.00000000
vt 0.00000000 0.00000000
vt 1.00000000 0.00000000
vn 0.00000000 1.00000000 0.00000000
vn 0.00000000 1.00000000 0.00000000
vn 0.00000000 1.00000000 0.00000000
vn 0.00000000 1.00000000 0.00000000
vn 0.00000000 1.00000000 0.00000000
vn 0.00000000 1.00000000 0.00000000
vn 0.00000000 1.00000000 0.00000000
vn 0.00000000 1.00000000 0.00000000
vn 0.00000000 1.00000000 0.00000000
vn 0.00000000 1.00000000 0.00000000
s 1
usemtl Dirt
f 1/1/1 2/2/2 3/3/3
f 8/17/8 7/18/7 2/19/2
f 10/15/10 7/16/7 6/12/6
f 6/12/6 5/13/5 9/14/9
f 6/12/6 9/14/9 10/15/10
f 1/1/1 3/3/3 4/4/4
f 4/4/4 5/5/5 1/1/1
usemtl Green_Boost_2
f 5/8/5 6/9/6 8/11/8
f 6/9/6 7/10/7 8/11/8
f 8/11/8 1/7/1 5/8/5
f 8/11/8 2/6/2 1/7/1
