mtllib Ground_Boost_Speed_Curve_4x4.mtl
o object1
g object1
v 1.22383048 0.00000000 -1.07206667
v 0.48756313 0.00000000 -1.07206667
v 0.48756313 0.00000000 -0.24614178
v 1.22383048 0.00000000 0.83579496
v 1.49060572 0.00000000 1.26711072
v 1.22383048 0.00000000 1.17655273
v 1.22383048 0.00000000 1.50000000
v 2.50000000 0.00000000 1.50000000
v 2.50000000 0.00000000 1.40000000
v 1.99094785 0.00000000 1.36663496
v 1.59413334 0.00000000 0.88074039
v 2.09536880 0.00000000 0.57347907
v 2.50000000 0.00000000 0.60000000
v 2.50000000 0.00000000 -1.07206667
v 1.22383048 0.00000000 0.39065631
v 1.31368136 0.00000000 0.36402655
v 1.69766096 0.00000000 0.49437006
v 1.22383048 0.00000000 0.70541849
v -1.07866495 0.00000000 -1.07206667
v -0.88074039 0.00000000 -1.59413334
v -0.36402655 0.00000000 -1.31368136
v -0.24487537 0.00000000 -1.07206667
v 2.50000000 0.00000000 -2.50000000
v -1.00000000 0.00000000 -2.50000000
v -0.57347907 0.00000000 -2.09536880
v -0.49437006 0.00000000 -1.69766096
v -0.97005701 0.00000000 -2.04315833
v -1.26711072 0.00000000 -1.49060572
v -1.36663496 0.00000000 -1.99094785
v -1.50000000 0.00000000 -2.50000000
v -1.50000000 0.00000000 -1.07206667
v -0.50281649 0.00000000 -1.07206667
v -0.73357836 0.00000000 -1.16060799
v -0.75444761 0.00000000 -1.07206667
v 1.16060799 0.00000000 0.73357836
v 0.48756313 0.00000000 -0.03730529
v 0.61283957 0.00000000 -0.04060465
v 0.95000000 0.00000000 0.18467875
v 0.48756313 0.00000000 0.25799294
v 0.48756313 0.00000000 0.66987878
v 0.55000000 0.00000000 0.87749907
v 0.48756313 0.00000000 0.83578009
v 0.48756313 0.00000000 1.50000000
v 1.00753461 0.00000000 1.10313018
v 0.75000000 0.00000000 0.53108891
v 0.12583043 0.00000000 0.59407803
v 0.02512627 0.00000000 -0.02512627
v -0.27299989 0.00000000 -0.24614178
v -0.25771645 0.00000000 0.25771645
v -0.59407803 0.00000000 -0.12583043
v -0.58193661 0.00000000 -0.24614178
v -1.50000000 0.00000000 -0.24614178
v -1.50000000 0.00000000 1.50000000
v 0.36933500 0.00000000 0.27673669
v -0.87749907 0.00000000 -0.55000000
v -1.10313018 0.00000000 -1.00753461
v -0.53108891 0.00000000 -0.75000000
v 0.04060465 0.00000000 -0.61283957
v 0.30796898 0.00000000 -0.30796898
v -0.27673669 0.00000000 -0.36933500
v -0.18467875 0.00000000 -0.95000000
v 2.04315833 0.00000000 0.97005701
vt 0.64301667 0.31904238
vt 0.64301667 0.50310922
vt 0.43653544 0.50310922
vt 0.16605126 0.31904238
vt 0.05822232 0.25234857
vt 0.08086182 0.31904238
vt 0.00000000 0.31904238
vt 0.00000000 0.00000000
vt 0.02500000 0.00000000
vt 0.03334126 0.12726304
vt 0.15481490 0.22646666
vt 0.23163023 0.10115780
vt 0.22500000 0.00000000
vt 0.64301667 0.00000000
vt 0.27733592 0.31904238
vt 0.28399336 0.29657966
vt 0.25140748 0.20058476
vt 0.19864538 0.31904238
vt 0.64301667 0.89466624
vt 0.77353334 0.84518510
vt 0.70342034 0.71600664
vt 0.64301667 0.68621884
vt 1.00000000 0.00000000
vt 1.00000000 0.87500000
vt 0.89884220 0.76836977
vt 0.79941524 0.74859252
vt 0.88578958 0.86751425
vt 0.74765143 0.94177768
vt 0.87273696 0.96665874
vt 1.00000000 0.87500000
vt 1.00000000 1.00000000
vt 0.64301667 1.00000000
vt 0.64301667 0.75070412
vt 0.66515200 0.80839459
vt 0.64301667 0.81361190
vt 0.19160541 0.33484800
vt 0.38432632 0.50310922
vt 0.38515116 0.47179011
vt 0.32883031 0.38750000
vt 0.31050176 0.50310922
vt 0.20753031 0.50310922
vt 0.15562523 0.48750000
vt 0.16605498 0.50310922
vt 0.00000000 0.50310922
vt 0.09921746 0.37311635
vt 0.24222777 0.43750000
vt 0.22648049 0.59354239
vt 0.38128157 0.61871843
vt 0.43653544 0.69324997
vt 0.31057089 0.68942911
vt 0.40645761 0.77351951
vt 0.43653544 0.77048415
vt 0.43653544 1.00000000
vt 0.00000000 1.00000000
vt 0.30581583 0.53266625
vt 0.51250000 0.84437477
vt 0.62688365 0.90078254
vt 0.56250000 0.75777223
vt 0.52820989 0.61484884
vt 0.45199224 0.54800776
vt 0.46733375 0.69418417
vt 0.61250000 0.67116969
vt 1.00000000 0.24213560
vt 0.73140214 0.80472805
vt 0.38309283 1.00000000
vt 0.58479886 0.40236403
vt 0.00000000 0.24566471
vt 0.43819558 0.00000000
vt 0.50000000 0.37964181
vt 0.50000000 0.65361506
vt 0.50000000 0.93445857
vt 0.50000000 0.02663747
vt 0.65435132 0.62783165
vt 0.75462097 0.00000000
vt 1.00000000 0.36454752
vt 0.98314093 1.00000000
vt 0.30870265 0.89111577
vt 0.00000000 0.43249147
vt 0.67476704 0.50000000
vt 0.99640633 0.50000000
vt 0.04544038 0.50000000
vt 0.22614035 0.50000000
vt 1.00000000 0.06982908
vt 0.86388986 0.70360266
vt 0.56135377 1.00000000
vt 0.62224989 0.35180133
vt 0.00000000 0.37288698
vt 0.38060992 0.00000000
vt 0.50000000 0.35594391
vt 0.50000000 0.01345985
vt 0.81500909 0.00000000
vt 1.00000000 0.59481332
vt 0.85566848 1.00000000
vt 0.59078918 0.43328575
vt 0.00000000 0.78150916
vt 0.18157836 0.27175818
vt 0.10027636 0.50000000
vt 0.47760306 0.50000000
vt 0.62197108 0.50000000
vt 0.97051243 0.50000000
vt 0.62824738 0.00000000
vt 1.00000000 0.55332146
vt 0.96791257 1.00000000
vt 0.52018403 0.49568552
vt 0.00000000 1.00000000
vt 0.04036805 0.43804958
vt 0.53742873 1.00000000
vt 0.00000000 0.00000000
vt 1.00000000 0.00000000
vt 0.54741008 0.54534689
vt 0.20512821 0.00000000
vt 0.59913464 0.09069379
vt 1.00000000 0.57967475
vt 0.49568552 1.00000000
vt 0.00000000 0.88590136
vn 0.00000000 1.00000000 0.00000000
vn 0.00000000 1.00000000 0.00000000
vn 0.00000000 1.00000000 0.00000000
vn 0.00000000 1.00000000 0.00000000
vn 0.00000000 1.00000000 0.00000000
vn 0.00000000 1.00000000 0.00000000
vn 0.00000000 1.00000000 0.00000000
vn 0.00000000 1.00000000 0.00000000
vn 0.00000000 1.00000000 0.00000000
vn 0.00000000 1.00000000 0.00000000
vn 0.00000000 1.00000000 0.00000000
vn 0.00000000 1.00000000 0.00000000
vn 0.00000000 1.00000000 0.00000000
vn 0.00000000 1.00000000 0.00000000
vn 0.00000000 1.00000000 0.00000000
vn 0.00000000 1.00000000 0.00000000
vn 0.00000000 1.00000000 0.00000000
vn 0.00000000 1.00000000 0.00000000
vn 0.00000000 1.00000000 0.00000000
vn 0.00000000 1.00000000 0.00000000
vn 0.00000000 1.00000000 0.00000000
vn 0.00000000 1.00000000 0.00000000
vn 0.00000000 1.00000000 0.00000000
vn 0.00000000 1.00000000 0.00000000
vn 0.00000000 1.00000000 0.00000000
vn 0.00000000 1.00000000 0.00000000
vn 0.00000000 1.00000000 0.00000000
vn 0.00000000 1.00000000 0.00000000
vn 0.00000000 1.00000000 0.00000000
vn 0.00000000 1.00000000 0.00000000
vn 0.00000000 1.00000000 0.00000000
vn 0.00000000 1.00000000 0.00000000
vn 0.00000000 1.00000000 0.00000000
vn 0.00000000 1.00000000 0.00000000
vn 0.00000000 1.00000000 0.00000000
vn 0.00000000 1.00000000 0.00000000
vn 0.00000000 1.00000000 0.00000000
vn 0.00000000 1.00000000 0.00000000
vn 0.00000000 1.00000000 0.00000000
vn 0.00000000 1.00000000 0.00000000
vn 0.00000000 1.00000000 0.00000000
vn 0.00000000 1.00000000 0.00000000
vn 0.00000000 1.00000000 0.00000000
vn 0.00000000 1.00000000 0.00000000
vn 0.00000000 1.00000000 0.00000000
vn 0.00000000 1.00000000 0.00000000
vn 0.00000000 1.00000000 0.00000000
vn 0.00000000 1.00000000 0.00000000
vn 0.00000000 1.00000000 0.00000000
vn 0.00000000 1.00000000 0.00000000
vn 0.00000000 1.00000000 0.00000000
vn 0.00000000 1.00000000 0.00000000
vn 0.00000000 1.00000000 0.00000000
vn 0.00000000 1.00000000 0.00000000
vn 0.00000000 1.00000000 0.00000000
vn 0.00000000 1.00000000 0.00000000
vn 0.00000000 1.00000000 0.00000000
vn 0.00000000 1.00000000 0.00000000
vn 0.00000000 1.00000000 0.00000000
vn 0.00000000 1.00000000 0.00000000
vn 0.00000000 1.00000000 0.00000000
vn 0.00000000 1.00000000 0.00000000
s 1
usemtl Dirt
f 5/5/5 6/6/6 7/7/7
f 43/44/43 7/7/7 44/45/44
f 59/60/59 48/49/48 3/3/3
f 45/46/45 40/41/40 41/42/41
f 59/60/59 60/61/60 48/49/48
f 47/48/47 3/3/3 48/49/48
f 47/48/47 48/49/48 49/50/49
f 53/54/53 49/50/49 50/51/50
f 50/51/50 51/52/51 53/54/53
f 47/48/47 36/37/36 3/3/3
f 3/3/3 36/37/36 37/38/37
f 58/59/58 3/3/3 61/62/61
f 53/54/53 46/47/46 49/50/49
f 21/21/21 22/22/22 2/2/2
f 2/2/2 1/1/1 23/23/23
f 23/23/23 24/24/24 25/25/25
f 46/47/46 47/48/47 49/50/49
f 39/40/39 54/55/54 40/41/40
f 28/28/28 31/32/31 20/20/20
f 38/39/38 39/40/39 40/41/40
f 45/46/45 38/39/38 40/41/40
f 45/46/45 15/15/15 38/39/38
f 55/56/55 56/57/56 52/53/52
f 53/54/53 43/44/43 46/47/46
f 56/57/56 19/19/19 52/53/52
f 19/19/19 31/32/31 52/53/52
f 31/32/31 19/19/19 20/20/20
f 28/28/28 30/31/30 31/32/31
f 28/28/28 29/29/29 30/31/30
f 26/26/26 27/27/27 20/20/20
f 27/27/27 28/28/28 20/20/20
f 43/44/43 42/43/42 46/47/46
f 41/42/41 43/44/43 45/46/45
f 29/29/29 24/30/24 30/31/30
f 15/15/15 1/1/1 38/39/38
f 41/42/41 42/43/42 43/44/43
f 43/44/43 44/45/44 45/46/45
f 14/14/14 16/16/16 17/17/17
f 17/17/17 4/4/4 11/11/11
f 7/7/7 6/6/6 44/45/44
f 8/8/8 9/9/9 10/10/10
f 62/107/62 9/108/9 13/109/13
f 25/25/25 21/21/21 23/23/23
f 4/4/4 5/5/5 11/11/11
f 5/5/5 10/10/10 11/11/11
f 11/11/11 14/14/14 17/17/17
f 11/11/11 12/12/12 14/14/14
f 12/12/12 13/13/13 14/14/14
f 5/5/5 8/8/8 10/10/10
f 17/17/17 18/18/18 4/4/4
f 14/14/14 15/15/15 16/16/16
f 1/1/1 37/38/37 38/39/38
f 1/1/1 14/14/14 23/23/23
f 14/14/14 1/1/1 15/15/15
f 5/5/5 7/7/7 8/8/8
f 18/18/18 35/36/35 4/4/4
f 25/25/25 26/26/26 21/21/21
f 26/26/26 20/20/20 21/21/21
f 21/21/21 2/2/2 23/23/23
f 32/33/32 34/35/34 55/56/55
f 32/33/32 33/34/33 34/35/34
f 2/2/2 22/22/22 61/62/61
f 3/3/3 2/2/2 61/62/61
f 1/1/1 3/3/3 37/38/37
f 1/1/1 2/2/2 3/3/3
f 58/59/58 59/60/59 3/3/3
f 61/62/61 57/58/57 58/59/58
f 61/62/61 32/33/32 57/58/57
f 32/33/32 55/56/55 57/58/57
f 55/56/55 51/52/51 57/58/57
f 55/56/55 52/53/52 51/52/51
f 51/52/51 52/53/52 53/54/53
usemtl Green_Boost_2
f 44/96/44 35/94/35 45/91/45
f 46/77/46 40/82/40 54/73/54
f 54/73/54 36/80/36 47/76/47
f 57/83/57 51/90/51 60/86/60
f 60/86/60 59/85/59 58/84/58
f 32/70/32 61/65/61 22/71/22
f 27/110/27 26/111/26 25/112/25
f 27/110/27 29/114/29 28/115/28
f 20/63/20 19/72/19 33/66/33
f 19/72/19 34/69/34 33/66/33
f 56/68/56 55/67/55 34/69/34
f 19/72/19 56/68/56 34/69/34
f 27/110/27 24/113/24 29/114/29
f 27/110/27 25/112/25 24/113/24
f 39/79/39 38/74/38 37/75/37
f 18/99/18 16/92/16 15/100/15
f 62/104/62 11/101/11 10/106/10
f 62/104/62 13/103/13 12/102/12
f 62/104/62 12/102/12 11/101/11
f 18/99/18 17/93/17 16/92/16
f 33/66/33 21/64/21 20/63/20
f 51/90/51 48/89/48 60/86/60
f 35/94/35 15/100/15 45/91/45
f 35/94/35 18/99/18 15/100/15
f 10/106/10 9/105/9 62/104/62
f 44/96/44 4/98/4 35/94/35
f 51/90/51 50/88/50 48/89/48
f 54/73/54 39/79/39 36/80/36
f 54/73/54 47/76/47 46/77/46
f 50/88/50 49/87/49 48/89/48
f 32/70/32 22/71/22 21/64/21
f 44/96/44 6/97/6 4/98/4
f 46/77/46 42/81/42 40/82/40
f 6/97/6 5/95/5 4/98/4
f 42/81/42 41/78/41 40/82/40
f 33/66/33 32/70/32 21/64/21
f 60/86/60 58/84/58 57/83/57
f 39/79/39 37/75/37 36/80/36
