mtllib Ground_Boost_Speed_Curve_3x3.mtl
o object1
g object1
v 0.21429892 0.00000000 0.00365912
v 0.21429892 0.00000000 0.25037868
v 0.33330251 0.00000000 0.24608619
v 0.69636479 0.00000000 0.44014702
v 0.21429892 0.00000000 0.55424277
v 0.21429892 0.00000000 0.80076121
v 0.39021805 0.00000000 1.17925064
v 0.21429892 0.00000000 1.08521991
v 0.21429892 0.00000000 1.50000000
v 1.50000000 0.00000000 1.50000000
v 1.50000000 0.00000000 1.40000000
v 0.93423807 0.00000000 1.34427731
v 0.54329142 0.00000000 0.80969883
v 1.09031032 0.00000000 0.55964909
v 1.50000000 0.00000000 0.60000000
v 1.50000000 0.00000000 0.00365912
v -0.89457984 0.00000000 0.00365912
v -0.80969883 0.00000000 -0.54329142
v -0.24608619 0.00000000 -0.33330251
v 0.01507576 0.00000000 -0.01507576
v -0.57867403 0.00000000 -0.11107442
v -0.57380777 0.00000000 0.00365912
v 1.50000000 0.00000000 -1.50000000
v -1.00000000 0.00000000 -1.50000000
v -0.55964909 0.00000000 -1.09031032
v -0.44014702 0.00000000 -0.69636479
v -0.95196320 0.00000000 -1.01227419
v -1.17925064 0.00000000 -0.39021805
v -1.34427731 0.00000000 -0.93423807
v -1.50000000 0.00000000 -1.50000000
v -1.50000000 0.00000000 0.00365912
v 0.11107442 0.00000000 0.57867403
v -0.55060967 0.00000000 0.55060967
v -0.91126188 0.00000000 0.11115368
v -1.50000000 0.00000000 1.50000000
v -0.11115368 0.00000000 0.91126188
v -0.26776695 0.00000000 0.26776695
v 1.01227419 0.00000000 0.95196320
vt 0.49878029 0.42856703
vt 0.41654044 0.42856703
vt 0.41797127 0.38889916
vt 0.35328433 0.26787840
vt 0.31525241 0.42856703
vt 0.23307960 0.42856703
vt 0.10691645 0.36992732
vt 0.13826003 0.42856703
vt 0.00000000 0.42856703
vt 0.00000000 0.00000000
vt 0.03333333 0.00000000
vt 0.05190756 0.18858731
vt 0.23010039 0.31890286
vt 0.31345030 0.13656323
vt 0.30000000 0.00000000
vt 0.49878029 0.00000000
vt 0.49878029 0.79819328
vt 0.68109714 0.76989961
vt 0.61110084 0.58202873
vt 0.50502525 0.49497475
vt 0.53702481 0.69289134
vt 0.49878029 0.69126926
vt 1.00000000 0.00000000
vt 1.00000000 0.83333333
vt 0.86343677 0.68654970
vt 0.73212160 0.64671567
vt 0.83742473 0.81732107
vt 0.63007268 0.89308355
vt 0.81141269 0.94809244
vt 1.00000000 0.83333333
vt 1.00000000 1.00000000
vt 0.49878029 1.00000000
vt 0.30710866 0.46297519
vt 0.31646344 0.68353656
vt 0.46294877 0.80375396
vt 0.00000000 1.00000000
vt 0.19624604 0.53705123
vt 0.41074435 0.58925565
vt 1.00000000 0.10963934
vt 0.80803666 0.71807046
vt 0.51712667 1.00000000
vt 0.60488475 0.35903523
vt 0.00000000 0.38933127
vt 0.40173284 0.00000000
vt 0.50000000 0.36428845
vt 0.50000000 0.01800859
vt 0.64359139 0.60706473
vt 0.79204005 0.00000000
vt 1.00000000 0.37656916
vt 0.97676640 1.00000000
vt 0.28718279 0.83756029
vt 0.00000000 0.31753622
vt 0.66977248 0.50000000
vt 0.99540006 0.50000000
vt 0.10076545 0.50000000
vt 0.40559778 0.50000000
vt 0.70244604 0.00000000
vt 1.00000000 0.57177171
vt 0.95198326 1.00000000
vt 0.53315442 0.49020442
vt 0.00000000 1.00000000
vt 0.06630883 0.40863713
vt 0.56004600 1.00000000
vt 0.00000000 0.00000000
vt 1.00000000 0.00000000
vt 0.56052105 0.56608675
vt 0.27586207 0.00000000
vt 0.63083768 0.13217351
vt 1.00000000 0.61921715
vt 0.49020442 1.00000000
vt 0.00000000 0.81747468
vn 0.00000000 1.00000000 0.00000000
vn 0.00000000 1.00000000 0.00000000
vn 0.00000000 1.00000000 0.00000000
vn 0.00000000 1.00000000 0.00000000
vn 0.00000000 1.00000000 0.00000000
vn 0.00000000 1.00000000 0.00000000
vn 0.00000000 1.00000000 0.00000000
vn 0.00000000 1.00000000 0.00000000
vn 0.00000000 1.00000000 0.00000000
vn 0.00000000 1.00000000 0.00000000
vn 0.00000000 1.00000000 0.00000000
vn 0.00000000 1.00000000 0.00000000
vn 0.00000000 1.00000000 0.00000000
vn 0.00000000 1.00000000 0.00000000
vn 0.00000000 1.00000000 0.00000000
vn 0.00000000 1.00000000 0.00000000
vn 0.00000000 1.00000000 0.00000000
vn 0.00000000 1.00000000 0.00000000
vn 0.00000000 1.00000000 0.00000000
vn 0.00000000 1.00000000 0.00000000
vn 0.00000000 1.00000000 0.00000000
vn 0.00000000 1.00000000 0.00000000
vn 0.00000000 1.00000000 0.00000000
vn 0.00000000 1.00000000 0.00000000
vn 0.00000000 1.00000000 0.00000000
vn 0.00000000 1.00000000 0.00000000
vn 0.00000000 1.00000000 0.00000000
vn 0.00000000 1.00000000 0.00000000
vn 0.00000000 1.00000000 0.00000000
vn 0.00000000 1.00000000 0.00000000
vn 0.00000000 1.00000000 0.00000000
vn 0.00000000 1.00000000 0.00000000
vn 0.00000000 1.00000000 0.00000000
vn 0.00000000 1.00000000 0.00000000
vn 0.00000000 1.00000000 0.00000000
vn 0.00000000 1.00000000 0.00000000
vn 0.00000000 1.00000000 0.00000000
vn 0.00000000 1.00000000 0.00000000
s 1
usemtl Dirt
f 1/1/1 2/2/2 3/3/3
f 13/13/13 14/14/14 16/16/16
f 13/13/13 4/4/4 6/6/6
f 13/13/13 16/16/16 4/4/4
f 5/5/5 32/33/32 6/6/6
f 37/38/37 22/22/22 33/34/33
f 33/34/33 31/32/31 35/36/35
f 34/35/34 17/17/17 31/32/31
f 12/12/12 9/9/9 10/10/10
f 4/4/4 5/5/5 6/6/6
f 37/38/37 2/2/2 1/1/1
f 18/18/18 27/27/27 28/28/28
f 19/19/19 1/1/1 26/26/26
f 29/29/29 24/30/24 30/31/30
f 23/23/23 24/24/24 25/25/25
f 23/23/23 25/25/25 26/26/26
f 19/19/19 20/20/20 1/1/1
f 20/20/20 22/22/22 1/1/1
f 1/1/1 23/23/23 26/26/26
f 18/18/18 26/26/26 27/27/27
f 18/18/18 19/19/19 26/26/26
f 29/29/29 30/31/30 31/32/31
f 31/32/31 28/28/28 29/29/29
f 31/32/31 18/18/18 28/28/28
f 31/32/31 17/17/17 18/18/18
f 33/34/33 34/35/34 31/32/31
f 1/1/1 16/16/16 23/23/23
f 16/16/16 1/1/1 4/4/4
f 1/1/1 3/3/3 4/4/4
f 20/20/20 21/21/21 22/22/22
f 35/36/35 36/37/36 33/34/33
f 35/36/35 9/9/9 36/37/36
f 37/38/37 1/1/1 22/22/22
f 14/14/14 15/15/15 16/16/16
f 38/63/38 11/64/11 15/65/15
f 10/10/10 11/11/11 12/12/12
f 12/12/12 7/7/7 9/9/9
f 7/7/7 8/8/8 9/9/9
f 36/37/36 37/38/37 33/34/33
f 9/9/9 8/8/8 36/37/36
f 12/12/12 13/13/13 7/7/7
f 13/13/13 6/6/6 7/7/7
usemtl Green_Boost_2
f 5/53/5 4/48/4 3/49/3
f 36/51/36 6/56/6 32/47/32
f 32/47/32 37/50/37 36/51/36
f 21/42/21 20/41/20 19/40/19
f 21/42/21 19/40/19 18/39/18
f 27/66/27 29/70/29 28/71/28
f 27/66/27 24/69/24 29/70/29
f 27/66/27 25/68/25 24/69/24
f 27/66/27 26/67/26 25/68/25
f 17/46/17 22/45/22 21/42/21
f 17/46/17 34/44/34 22/45/22
f 34/44/34 33/43/33 22/45/22
f 5/53/5 3/49/3 2/54/2
f 18/39/18 17/46/17 21/42/21
f 38/60/38 15/59/15 14/58/14
f 12/62/12 11/61/11 38/60/38
f 36/51/36 8/55/8 6/56/6
f 8/55/8 7/52/7 6/56/6
f 38/60/38 13/57/13 12/62/12
f 38/60/38 14/58/14 13/57/13
f 32/47/32 2/54/2 37/50/37
f 32/47/32 5/53/5 2/54/2
