mtllib Prop_Track_Sign_Upcoming_Curve_90.mtl
o object1
g object1
v -0.01290351 -0.00000000 0.02580703
v 0.01290351 -0.00000000 0.02580703
v 0.01290351 1.23873741 0.02580703
v -0.01290351 1.23873741 0.02580703
v -0.01290351 1.23873741 -0.02580703
v 0.01290351 1.23873741 -0.02580703
v -0.01290351 -0.00000000 -0.02580703
v 0.01290351 -0.00000000 -0.02580703
vt 0.00000000 0.00000000
vt 1.00000000 0.00000000
vt 1.00000000 1.00000000
vt 0.00000000 1.00000000
vt 0.00000000 0.00000000
vt 1.00000000 0.00000000
vt 1.00000000 1.00000000
vt 0.00000000 1.00000000
vt 0.00000000 0.00000000
vt 1.00000000 0.00000000
vt 1.00000000 1.00000000
vt 0.00000000 1.00000000
vt 0.00000000 0.00000000
vt 1.00000000 0.00000000
vt 1.00000000 1.00000000
vt 0.00000000 1.00000000
vt 0.00000000 0.00000000
vt 1.00000000 0.00000000
vt 1.00000000 1.00000000
vt 0.00000000 1.00000000
vn 0.00000000 0.00000000 1.00000000
vn 0.00000000 0.00000000 1.00000000
vn 0.00000000 0.00000000 1.00000000
vn 0.00000000 0.00000000 1.00000000
vn 0.00000000 1.00000000 0.00000000
vn 0.00000000 1.00000000 0.00000000
vn 0.00000000 1.00000000 0.00000000
vn 0.00000000 1.00000000 0.00000000
vn 0.00000000 0.00000000 -1.00000000
vn 0.00000000 0.00000000 -1.00000000
vn 0.00000000 0.00000000 -1.00000000
vn 0.00000000 0.00000000 -1.00000000
vn -1.00000000 0.00000000 0.00000000
vn -1.00000000 0.00000000 0.00000000
vn -1.00000000 0.00000000 0.00000000
vn -1.00000000 0.00000000 0.00000000
vn 1.00000000 0.00000000 0.00000000
vn 1.00000000 0.00000000 0.00000000
vn 1.00000000 0.00000000 0.00000000
vn 1.00000000 0.00000000 0.00000000
s 1
usemtl Iron_Grey
f 1/1/1 2/2/2 4/4/4
f 2/2/2 3/3/3 4/4/4
s 2
f 4/8/8 3/7/7 6/6/6
f 4/8/8 6/6/6 5/5/5
s 3
f 5/12/12 6/11/11 7/9/9
f 6/11/11 8/10/10 7/9/9
s 4
f 7/13/13 1/14/14 5/16/16
f 1/14/14 4/15/15 5/16/16
s 5
f 6/20/20 3/19/19 8/17/17
f 3/19/19 2/18/18 8/17/17
o object2
g object2
v 0.03275508 1.34196553 -0.15881249
v 0.03275508 1.34196553 0.15881249
v 0.01290351 1.34196553 0.15881249
v 0.01290351 1.34196553 -0.15881249
v 0.01290351 1.24270772 0.25807029
v 0.01290351 0.92508274 0.25807029
v 0.01290351 0.82582494 0.15881249
v 0.01290351 0.82582494 -0.15881249
v 0.01290351 0.92508274 -0.25807029
v 0.01290351 1.24270772 -0.25807029
v 0.01290351 1.33947682 -0.18089991
v 0.01290351 1.33213584 -0.20187898
v 0.01290351 1.32031055 -0.22069877
v 0.01290351 1.30459401 -0.23641532
v 0.01290351 1.28577422 -0.24824061
v 0.01290351 1.26479514 -0.25558158
v 0.01290351 0.90299532 -0.25558158
v 0.01290351 0.88201625 -0.24824061
v 0.01290351 0.86319646 -0.23641532
v 0.01290351 0.84747991 -0.22069877
v 0.01290351 0.83565462 -0.20187898
v 0.01290351 0.82831365 -0.18089991
v 0.01290351 0.82831365 0.18089991
v 0.01290351 0.83565462 0.20187898
v 0.01290351 0.84747991 0.22069877
v 0.01290351 0.86319646 0.23641532
v 0.01290351 0.88201625 0.24824061
v 0.01290351 0.90299532 0.25558158
v 0.01290351 1.26479514 0.25558158
v 0.01290351 1.28577422 0.24824061
v 0.01290351 1.30459401 0.23641532
v 0.01290351 1.32031055 0.22069877
v 0.01290351 1.33213584 0.20187898
v 0.01290351 1.33947682 0.18089991
v 0.03275508 0.82582494 0.15881249
v 0.03275508 0.82582494 -0.15881249
v 0.03275508 0.82831365 -0.18089991
v 0.03275508 0.83565462 -0.20187898
v 0.03275508 0.84747991 -0.22069877
v 0.03275508 0.86319646 -0.23641532
v 0.03275508 0.88201625 -0.24824061
v 0.03275508 0.90299532 -0.25558158
v 0.03275508 0.92508274 -0.25807029
v 0.03275508 1.24270772 -0.25807029
v 0.03275508 1.08389523 -0.25807029
v 0.03275508 1.24270772 0.25807029
v 0.03275508 0.92508274 0.25807029
v 0.03275508 1.08389523 0.25807029
v 0.03275508 0.90299532 0.25558158
v 0.03275508 0.88201625 0.24824061
v 0.03275508 0.86319646 0.23641532
v 0.03275508 0.84747991 0.22069877
v 0.03275508 0.83565462 0.20187898
v 0.03275508 0.82831365 0.18089991
v 0.03275508 1.33947682 -0.18089991
v 0.03275508 1.33213584 -0.20187898
v 0.03275508 1.32031055 -0.22069877
v 0.03275508 1.30459401 -0.23641532
v 0.03275508 1.28577422 -0.24824061
v 0.03275508 1.26479514 -0.25558158
v 0.03275508 1.08389566 -0.06892693
v 0.03275508 1.12359835 0.01985156
v 0.03275508 1.08389523 0.01985156
v 0.03275508 1.08389523 0.05161406
v 0.03275508 1.16330148 0.17866405
v 0.03275508 1.26255928 0.01985156
v 0.03275508 1.20300460 0.01985156
v 0.03275508 1.08389592 -0.16209070
v 0.03275508 1.00448899 -0.17866405
v 0.03275508 0.90523118 -0.17866405
v 0.03275508 0.90523118 -0.09925781
v 0.03275508 1.00448899 -0.09925781
v 0.03275508 1.06404367 0.01985156
v 0.03275508 1.10067665 -0.05039782
v 0.03275508 1.11322064 -0.02877425
v 0.03275508 1.12097506 -0.00500880
v 0.03275508 1.19769278 -0.02576361
v 0.03275508 1.18204117 -0.06893847
v 0.03275508 1.15688772 -0.10736115
v 0.03275508 1.12357843 -0.13897587
v 0.03275508 1.33947682 0.18089991
v 0.03275508 1.33213584 0.20187898
v 0.03275508 1.32031055 0.22069877
v 0.03275508 1.30459401 0.23641532
v 0.03275508 1.28577422 0.24824061
v 0.03275508 1.26479514 0.25558158
v 0.03275508 1.04504799 -0.17447655
v 0.03275508 1.03317671 -0.09575145
v 0.03275508 1.06017547 -0.08543878
vt 1.00000000 0.00000000
vt 1.00000000 1.00000000
vt 0.00000000 1.00000000
vt 0.00000000 0.00000000
vt 1.00000000 0.19230769
vt 1.00000000 0.80769231
vt 0.80769231 1.00000000
vt 0.19230769 1.00000000
vt 0.00000000 0.80769231
vt 0.00000000 0.19230769
vt 0.19230769 0.00000000
vt 0.80769231 0.00000000
vt 0.14951524 0.00482155
vt 0.10886866 0.01904438
vt 0.07240585 0.04195545
vt 0.04195545 0.07240585
vt 0.01904438 0.10886866
vt 0.00482155 0.14951524
vt 0.00482155 0.85048476
vt 0.01904438 0.89113134
vt 0.04195545 0.92759415
vt 0.07240585 0.95804455
vt 0.10886866 0.98095562
vt 0.14951524 0.99517845
vt 0.85048476 0.99517845
vt 0.89113134 0.98095562
vt 0.92759415 0.95804455
vt 0.95804455 0.92759415
vt 0.98095562 0.89113134
vt 0.99517845 0.85048476
vt 0.99517845 0.14951524
vt 0.98095562 0.10886866
vt 0.95804455 0.07240585
vt 0.92759415 0.04195545
vt 0.89113134 0.01904438
vt 0.85048476 0.00482155
vt 0.00000000 1.00000000
vt 0.00000000 0.00000000
vt 1.00000000 0.00000000
vt 1.00000000 1.00000000
vt 0.00000000 0.15223841
vt 0.00000000 0.00000000
vt 1.00000000 0.00000000
vt 1.00000000 0.15223841
vt 0.00000000 0.29490376
vt 1.00000000 0.29490376
vt 0.00000000 0.43221016
vt 1.00000000 0.43221016
vt 0.00000000 0.56778984
vt 1.00000000 0.56778984
vt 0.00000000 0.70509624
vt 1.00000000 0.70509624
vt 0.00000000 0.84776159
vt 1.00000000 0.84776159
vt 1.00000000 1.00000000
vt 0.00000000 1.00000000
vt 1.00000000 0.00000000
vt 1.00000000 1.00000000
vt 0.00000000 1.00000000
vt 0.00000000 0.00000000
vt 1.00000000 0.50000000
vt 0.00000000 1.00000000
vt 0.00000000 0.00000000
vt 1.00000000 0.00000000
vt 1.00000000 1.00000000
vt 1.00000000 0.50000000
vt 0.00000000 0.15223841
vt 0.00000000 0.00000000
vt 1.00000000 0.00000000
vt 1.00000000 0.15223841
vt 0.00000000 0.29490376
vt 1.00000000 0.29490376
vt 0.00000000 0.43221016
vt 1.00000000 0.43221016
vt 0.00000000 0.56778984
vt 1.00000000 0.56778984
vt 0.00000000 0.70509624
vt 1.00000000 0.70509624
vt 0.00000000 0.84776159
vt 1.00000000 0.84776159
vt 1.00000000 1.00000000
vt 0.00000000 1.00000000
vt 0.00000000 0.15223841
vt 0.00000000 0.00000000
vt 1.00000000 0.00000000
vt 1.00000000 0.15223841
vt 0.00000000 0.29490376
vt 1.00000000 0.29490376
vt 0.00000000 0.43221016
vt 1.00000000 0.43221016
vt 0.00000000 0.56778984
vt 1.00000000 0.56778984
vt 0.00000000 0.70509624
vt 1.00000000 0.70509624
vt 0.00000000 0.84776159
vt 1.00000000 0.84776159
vt 1.00000000 1.00000000
vt 0.00000000 1.00000000
vt 0.36645786 0.50000000
vt 0.53846154 0.42307692
vt 0.53846154 0.50000000
vt 0.60000000 0.50000000
vt 0.84615385 0.34615385
vt 0.53846154 0.15384615
vt 0.53846154 0.26923077
vt 0.18595775 0.50000000
vt 0.00000000 0.50000000
vt 0.00000000 0.19230769
vt 0.19230769 0.00000000
vt 0.80769231 0.00000000
vt 1.00000000 0.19230769
vt 1.00000000 0.50000000
vt 0.15384615 0.65384615
vt 0.15384615 0.84615385
vt 0.30769231 0.84615385
vt 0.30769231 0.65384615
vt 0.53846154 0.53846154
vt 1.00000000 0.80769231
vt 0.80769231 1.00000000
vt 0.19230769 1.00000000
vt 0.00000000 0.80769231
vt 0.40235645 0.46748671
vt 0.44425189 0.44318296
vt 0.49029667 0.42815924
vt 0.45008487 0.27952202
vt 0.36643499 0.30984636
vt 0.29199249 0.35858016
vt 0.23074026 0.42311555
vt 0.00482155 0.14951524
vt 0.01904438 0.10886866
vt 0.04195545 0.07240585
vt 0.07240585 0.04195545
vt 0.10886866 0.01904438
vt 0.14951524 0.00482155
vt 0.85048476 0.00482155
vt 0.89113134 0.01904438
vt 0.92759415 0.04195545
vt 0.95804455 0.07240585
vt 0.98095562 0.10886866
vt 0.99517845 0.14951524
vt 0.16195913 0.57526542
vt 0.31448566 0.59826518
vt 0.33446581 0.54595648
vt 0.99517845 0.85048476
vt 0.98095562 0.89113134
vt 0.95804455 0.92759415
vt 0.92759415 0.95804455
vt 0.89113134 0.98095562
vt 0.85048476 0.99517845
vt 0.14951524 0.99517845
vt 0.10886866 0.98095562
vt 0.07240585 0.95804455
vt 0.04195545 0.92759415
vt 0.01904438 0.89113134
vt 0.00482155 0.85048476
vt 0.55555556 0.00000000
vt 1.00000000 0.27777778
vt 0.55555556 0.55555556
vt 0.55555556 0.38888889
vt 0.22222222 0.72222222
vt 0.22222222 1.00000000
vt 0.00000000 1.00000000
vt 0.00000000 0.72222222
vt 0.55555556 0.16666667
vt 0.64444444 0.50000000
vt 0.55555556 0.50000000
vt 0.48598410 0.39623012
vt 0.41947505 0.41793115
vt 0.35895949 0.45303659
vt 0.30710475 0.49999911
vt 0.26089509 0.56638160
vt 0.23203498 0.64193863
vt 0.01171889 0.60871674
vt 0.04638105 0.49999951
vt 0.11106960 0.38894494
vt 0.19954478 0.29572698
vt 0.30707280 0.22533370
vt 0.42790042 0.18153207
vt 0.00000000 0.15223841
vt 0.00000000 0.00000000
vt 1.00000000 0.00000000
vt 1.00000000 0.15223841
vt 0.00000000 0.29490376
vt 1.00000000 0.29490376
vt 0.00000000 0.43221016
vt 1.00000000 0.43221016
vt 0.00000000 0.56778984
vt 1.00000000 0.56778984
vt 0.00000000 0.70509624
vt 1.00000000 0.70509624
vt 0.00000000 0.84776159
vt 1.00000000 0.84776159
vt 1.00000000 1.00000000
vt 0.00000000 1.00000000
vn 0.00000000 1.00000000 0.00000000
vn 0.00000000 1.00000000 0.00000000
vn 0.00000000 1.00000000 0.00000000
vn 0.00000000 1.00000000 0.00000000
vn -1.00000000 0.00000000 0.00000000
vn -1.00000000 0.00000000 0.00000000
vn -1.00000000 0.00000000 0.00000000
vn -1.00000000 0.00000000 0.00000000
vn -1.00000000 0.00000000 0.00000000
vn -1.00000000 0.00000000 0.00000000
vn -1.00000000 0.00000000 0.00000000
vn -1.00000000 0.00000000 0.00000000
vn -1.00000000 0.00000000 0.00000000
vn -1.00000000 0.00000000 0.00000000
vn -1.00000000 0.00000000 0.00000000
vn -1.00000000 0.00000000 0.00000000
vn -1.00000000 0.00000000 0.00000000
vn -1.00000000 0.00000000 0.00000000
vn -1.00000000 0.00000000 0.00000000
vn -1.00000000 0.00000000 0.00000000
vn -1.00000000 0.00000000 0.00000000
vn -1.00000000 0.00000000 0.00000000
vn -1.00000000 0.00000000 0.00000000
vn -1.00000000 0.00000000 0.00000000
vn -1.00000000 0.00000000 0.00000000
vn -1.00000000 0.00000000 0.00000000
vn -1.00000000 0.00000000 0.00000000
vn -1.00000000 0.00000000 0.00000000
vn -1.00000000 0.00000000 0.00000000
vn -1.00000000 0.00000000 0.00000000
vn -1.00000000 0.00000000 0.00000000
vn -1.00000000 0.00000000 0.00000000
vn -1.00000000 0.00000000 0.00000000
vn -1.00000000 0.00000000 0.00000000
vn -1.00000000 0.00000000 0.00000000
vn -1.00000000 0.00000000 0.00000000
vn 0.00000000 -1.00000000 0.00000000
vn 0.00000000 -1.00000000 0.00000000
vn 0.00000000 -1.00000000 0.00000000
vn 0.00000000 -1.00000000 0.00000000
vn 0.00000000 -0.97492795 -0.22252076
vn 0.00000000 -0.97492795 -0.22252076
vn 0.00000000 -0.90096925 -0.43388294
vn 0.00000000 -0.90096925 -0.43388294
vn 0.00000000 -0.78183166 -0.62348958
vn 0.00000000 -0.78183166 -0.62348958
vn 0.00000000 -0.62348958 -0.78183166
vn 0.00000000 -0.62348958 -0.78183166
vn 0.00000000 -0.43388294 -0.90096925
vn 0.00000000 -0.43388294 -0.90096925
vn 0.00000000 -0.22252076 -0.97492795
vn 0.00000000 -0.22252076 -0.97492795
vn 0.00000000 -0.00000000 -1.00000000
vn 0.00000000 -0.00000000 -1.00000000
vn 0.00000000 0.00000000 -1.00000000
vn 0.00000000 0.00000000 -1.00000000
vn 0.00000000 0.00000000 -1.00000000
vn 0.00000000 0.00000000 1.00000000
vn 0.00000000 0.00000000 1.00000000
vn 0.00000000 0.00000000 1.00000000
vn 0.00000000 0.00000000 1.00000000
vn 0.00000000 0.00000000 1.00000000
vn 0.00000000 -0.22252076 0.97492795
vn 0.00000000 -0.22252076 0.97492795
vn 0.00000000 -0.43388294 0.90096925
vn 0.00000000 -0.43388294 0.90096925
vn 0.00000000 -0.62348958 0.78183166
vn 0.00000000 -0.62348958 0.78183166
vn 0.00000000 -0.78183166 0.62348958
vn 0.00000000 -0.78183166 0.62348958
vn 0.00000000 -0.90096925 0.43388294
vn 0.00000000 -0.90096925 0.43388294
vn 0.00000000 -0.97492795 0.22252076
vn 0.00000000 -0.97492795 0.22252076
vn 0.00000000 0.97492795 -0.22252076
vn 0.00000000 0.97492795 -0.22252076
vn 0.00000000 0.90096925 -0.43388294
vn 0.00000000 0.90096925 -0.43388294
vn 0.00000000 0.78183166 -0.62348958
vn 0.00000000 0.78183166 -0.62348958
vn 0.00000000 0.62348958 -0.78183166
vn 0.00000000 0.62348958 -0.78183166
vn 0.00000000 0.43388294 -0.90096925
vn 0.00000000 0.43388294 -0.90096925
vn 0.00000000 0.22252076 -0.97492795
vn 0.00000000 0.22252076 -0.97492795
vn 1.00000000 0.00000000 0.00000000
vn 1.00000000 0.00000000 0.00000000
vn 1.00000000 0.00000000 0.00000000
vn 1.00000000 0.00000000 0.00000000
vn 1.00000000 0.00000000 0.00000000
vn 1.00000000 0.00000000 0.00000000
vn 1.00000000 0.00000000 0.00000000
vn 1.00000000 0.00000000 0.00000000
vn 1.00000000 0.00000000 0.00000000
vn 1.00000000 0.00000000 0.00000000
vn 1.00000000 0.00000000 0.00000000
vn 1.00000000 0.00000000 0.00000000
vn 1.00000000 0.00000000 0.00000000
vn 1.00000000 0.00000000 0.00000000
vn 1.00000000 0.00000000 0.00000000
vn 1.00000000 0.00000000 0.00000000
vn 1.00000000 0.00000000 0.00000000
vn 1.00000000 0.00000000 0.00000000
vn 1.00000000 0.00000000 0.00000000
vn 1.00000000 0.00000000 0.00000000
vn 1.00000000 0.00000000 0.00000000
vn 1.00000000 0.00000000 0.00000000
vn 1.00000000 0.00000000 0.00000000
vn 1.00000000 0.00000000 0.00000000
vn 1.00000000 0.00000000 0.00000000
vn 1.00000000 0.00000000 0.00000000
vn 1.00000000 0.00000000 0.00000000
vn 1.00000000 0.00000000 0.00000000
vn 1.00000000 0.00000000 0.00000000
vn 1.00000000 0.00000000 0.00000000
vn 1.00000000 0.00000000 0.00000000
vn 1.00000000 0.00000000 0.00000000
vn 1.00000000 0.00000000 0.00000000
vn 1.00000000 0.00000000 0.00000000
vn 1.00000000 0.00000000 0.00000000
vn 1.00000000 0.00000000 0.00000000
vn 1.00000000 0.00000000 0.00000000
vn 1.00000000 0.00000000 0.00000000
vn 1.00000000 0.00000000 0.00000000
vn 1.00000000 0.00000000 0.00000000
vn 1.00000000 0.00000000 0.00000000
vn 1.00000000 0.00000000 0.00000000
vn 1.00000000 0.00000000 0.00000000
vn 1.00000000 0.00000000 0.00000000
vn 1.00000000 0.00000000 0.00000000
vn 1.00000000 0.00000000 0.00000000
vn 1.00000000 0.00000000 0.00000000
vn 1.00000000 0.00000000 0.00000000
vn 1.00000000 0.00000000 0.00000000
vn 1.00000000 0.00000000 0.00000000
vn 1.00000000 0.00000000 0.00000000
vn 1.00000000 0.00000000 0.00000000
vn 1.00000000 0.00000000 0.00000000
vn 1.00000000 0.00000000 0.00000000
vn 1.00000000 0.00000000 0.00000000
vn 1.00000000 0.00000000 0.00000000
vn 1.00000000 0.00000000 0.00000000
vn 0.00000000 0.97492795 0.22252076
vn 0.00000000 0.97492795 0.22252076
vn 0.00000000 0.90096925 0.43388294
vn 0.00000000 0.90096925 0.43388294
vn 0.00000000 0.78183166 0.62348958
vn 0.00000000 0.78183166 0.62348958
vn 0.00000000 0.62348958 0.78183166
vn 0.00000000 0.62348958 0.78183166
vn 0.00000000 0.43388294 0.90096925
vn 0.00000000 0.43388294 0.90096925
vn 0.00000000 0.22252076 0.97492795
vn 0.00000000 0.22252076 0.97492795
s 1
usemtl Yellow
f 12/24/24 11/23/23 10/22/22
f 89/199/164 10/200/22 42/202/165
f 89/199/164 42/202/165 41/204/167
f 90/203/166 41/204/167 40/206/169
f 91/205/168 40/206/169 39/208/171
f 92/207/170 39/208/171 38/210/173
f 93/209/172 38/210/173 37/212/175
f 37/212/175 54/214/80 94/211/174
f 56/86/82 54/84/80 13/83/79
f 56/86/82 13/83/79 14/82/78
f 55/88/81 14/89/78 36/90/84
f 57/87/83 36/90/84 35/92/86
f 58/91/85 35/92/86 34/94/88
f 59/93/87 34/94/88 33/96/90
f 60/95/89 33/96/90 32/98/92
f 61/97/91 32/98/92 31/100/94
f 31/100/94 43/102/59 62/99/93
f 43/59/59 15/58/58 16/57/57
f 44/62/60 16/63/57 30/64/62
f 45/61/61 30/64/62 29/66/64
f 46/65/63 29/66/64 28/68/66
f 47/67/65 28/68/66 27/70/68
f 48/69/67 27/70/68 26/72/70
f 49/71/69 26/72/70 25/74/72
f 25/74/72 51/76/74 50/73/71
f 53/81/77 51/77/74 17/80/73
f 17/80/73 18/79/76 53/81/77
f 52/117/75 18/118/76 24/115/105
f 24/115/105 67/114/104 68/116/106
f 23/113/103 66/112/102 67/114/104
f 22/111/101 65/110/100 66/112/102
f 21/109/99 64/108/98 65/110/100
f 20/107/97 63/106/96 64/108/98
f 19/103/95 9/105/21 63/106/96
f 20/107/97 19/103/95 63/106/96
f 21/109/99 20/107/97 64/108/98
f 22/111/101 21/109/99 65/110/100
f 23/113/103 22/111/101 66/112/102
f 24/115/105 23/113/103 67/114/104
f 68/116/106 52/117/75 24/115/105
f 18/79/76 52/78/75 53/81/77
f 25/74/72 17/75/73 51/76/74
f 50/73/71 49/71/69 25/74/72
f 49/71/69 48/69/67 26/72/70
f 48/69/67 47/67/65 27/70/68
f 47/67/65 46/65/63 28/68/66
f 46/65/63 45/61/61 29/66/64
f 45/61/61 44/62/60 30/64/62
f 44/60/60 43/59/59 16/57/57
f 31/100/94 15/101/58 43/102/59
f 62/99/93 61/97/91 31/100/94
f 61/97/91 60/95/89 32/98/92
f 60/95/89 59/93/87 33/96/90
f 59/93/87 58/91/85 34/94/88
f 58/91/85 57/87/83 35/92/86
f 57/87/83 55/88/81 36/90/84
f 14/82/78 55/85/81 56/86/82
f 37/212/175 13/213/79 54/214/80
f 94/211/174 93/209/172 37/212/175
f 93/209/172 92/207/170 38/210/173
f 92/207/170 91/205/168 39/208/171
f 91/205/168 90/203/166 40/206/169
f 90/203/166 89/199/164 41/204/167
f 10/200/22 11/201/23 42/202/165
f 19/103/95 12/104/24 9/105/21
f 12/24/24 10/22/22 9/21/21
s 2
usemtl Grey_-_80
f 34/48/48 35/49/49 36/50/50
f 31/45/45 36/50/50 14/26/26
f 14/26/26 13/25/25 42/56/56
f 11/32/32 15/27/27 42/56/56
f 17/29/29 25/39/39 15/27/27
f 25/39/39 30/44/44 16/28/28
f 27/41/41 28/42/42 30/44/44
f 28/42/42 29/43/43 30/44/44
f 25/39/39 27/41/41 30/44/44
f 25/39/39 26/40/40 27/41/41
f 24/38/38 18/30/30 17/29/29
f 12/31/31 19/33/33 24/38/38
f 19/33/33 21/35/35 22/36/36
f 19/33/33 20/34/34 21/35/35
f 19/33/33 22/36/36 24/38/38
f 22/36/36 23/37/37 24/38/38
f 25/39/39 16/28/28 15/27/27
f 11/32/32 17/29/29 15/27/27
f 11/32/32 24/38/38 17/29/29
f 11/32/32 12/31/31 24/38/38
f 37/51/51 40/54/54 42/56/56
f 37/51/51 39/53/53 40/54/54
f 37/51/51 38/52/52 39/53/53
f 40/54/54 41/55/55 42/56/56
f 13/25/25 37/51/51 42/56/56
f 15/27/27 31/45/45 42/56/56
f 31/45/45 14/26/26 42/56/56
f 31/45/45 32/46/46 33/47/47
f 31/45/45 33/47/47 36/50/50
f 33/47/47 34/48/48 36/50/50
s 3
usemtl Yellow
f 84/144/132 70/120/108 71/121/109
f 80/136/124 96/162/150 81/137/125
f 62/169/157 43/139/127 81/137/125
f 43/139/127 44/140/128 79/135/123
f 96/162/150 97/163/151 81/137/125
f 97/163/151 69/119/107 81/137/125
f 81/137/125 72/122/110 62/169/157
f 72/122/110 55/138/126 62/169/157
f 72/122/110 56/132/120 55/138/126
f 74/124/112 52/128/116 68/149/137
f 74/124/112 86/146/134 52/128/116
f 56/132/120 72/122/110 73/123/111
f 54/131/119 56/132/120 73/123/111
f 89/155/143 94/160/148 54/131/119
f 91/157/145 92/158/146 94/160/148
f 92/158/146 93/159/147 94/160/148
f 89/155/143 91/157/145 94/160/148
f 89/155/143 90/156/144 91/157/145
f 69/119/107 71/121/109 81/137/125
f 68/149/137 9/129/117 10/130/118
f 68/149/137 63/154/142 9/129/117
f 65/152/140 64/153/141 63/154/142
f 68/149/137 65/152/140 63/154/142
f 68/149/137 66/151/139 65/152/140
f 68/149/137 67/150/138 66/151/139
f 68/149/137 10/130/118 74/124/112
f 10/130/118 89/155/143 74/124/112
f 89/155/143 54/131/119 74/124/112
f 54/131/119 73/123/111 74/124/112
f 74/124/112 75/125/113 85/145/133
f 74/124/112 85/145/133 86/146/134
f 86/146/134 87/147/135 52/128/116
f 69/119/107 82/142/130 71/121/109
f 87/147/135 88/148/136 52/128/116
f 88/148/136 53/127/115 52/128/116
f 82/142/130 83/143/131 71/121/109
f 88/148/136 76/126/114 53/127/115
f 83/143/131 84/144/132 71/121/109
f 53/127/115 76/126/114 95/161/149
f 53/127/115 95/161/149 77/133/121
f 51/141/129 77/133/121 78/134/122
f 45/170/158 46/171/159 78/134/122
f 46/171/159 47/172/160 78/134/122
f 47/172/160 48/173/161 78/134/122
f 48/173/161 49/174/162 78/134/122
f 49/174/162 50/175/163 78/134/122
f 50/175/163 51/141/129 78/134/122
f 51/141/129 53/127/115 77/133/121
f 44/140/128 78/134/122 79/135/123
f 44/140/128 45/170/158 78/134/122
f 55/138/126 57/164/152 62/169/157
f 57/164/152 58/165/153 59/166/154
f 57/164/152 59/166/154 62/169/157
f 59/166/154 60/167/155 62/169/157
f 60/167/155 61/168/156 62/169/157
f 43/139/127 79/135/123 81/137/125
f 79/135/123 80/136/124 81/137/125
usemtl Black
f 72/185/110 81/178/125 71/186/109
f 80/180/124 79/181/123 77/183/121
f 96/192/150 77/183/121 95/193/149
f 97/191/151 95/193/149 76/194/114
f 69/190/107 76/194/114 88/195/136
f 82/189/130 88/195/136 87/196/135
f 75/184/113 74/176/112 73/177/111
f 83/188/131 87/196/135 86/197/134
f 83/188/131 82/189/130 87/196/135
f 82/189/130 69/190/107 88/195/136
f 69/190/107 97/191/151 76/194/114
f 97/191/151 96/192/150 95/193/149
f 96/192/150 80/180/124 77/183/121
f 79/181/123 78/182/122 77/183/121
f 72/185/110 70/179/108 75/184/113
f 70/179/108 85/198/133 75/184/113
f 72/185/110 71/186/109 70/179/108
f 70/179/108 84/187/132 85/198/133
f 84/187/132 86/197/134 85/198/133
f 84/187/132 83/188/131 86/197/134
f 73/177/111 72/185/110 75/184/113
