mtllib Prop_Track_Ramp_Railing.mtl
o object1
g object1
v 1.88819660 0.00000000 0.42500000
v 1.78819660 -0.20000000 0.42500000
v -0.53731410 0.96275535 0.42500000
v -0.43731410 1.16275535 0.42500000
v -0.53731410 0.96275535 0.57500000
v -0.43731410 1.16275535 0.57500000
v 1.88819660 0.00000000 0.57500000
v 1.78819660 -0.20000000 0.57500000
vt 0.16666667 1.00000000
vt 0.00000000 0.95238095
vt 0.83333333 0.00000000
vt 1.00000000 0.04761905
vt 0.00000000 1.00000000
vt 0.00000000 0.00000000
vt 1.00000000 0.00000000
vt 1.00000000 1.00000000
vt 0.16666667 1.00000000
vt 0.00000000 0.95238095
vt 0.83333333 0.00000000
vt 1.00000000 0.04761905
vt 0.00000000 1.00000000
vt 0.00000000 0.00000000
vt 1.00000000 0.00000000
vt 1.00000000 1.00000000
vt 0.00000000 1.00000000
vt 0.00000000 0.00000000
vt 1.00000000 0.00000000
vt 1.00000000 1.00000000
vn 0.00000000 0.00000000 -1.00000000
vn 0.00000000 0.00000000 -1.00000000
vn 0.00000000 0.00000000 -1.00000000
vn 0.00000000 0.00000000 -1.00000000
vn -0.89442719 0.44721360 0.00000000
vn -0.89442719 0.44721360 0.00000000
vn -0.89442719 0.44721360 0.00000000
vn -0.89442719 0.44721360 0.00000000
vn 0.00000000 0.00000000 1.00000000
vn 0.00000000 0.00000000 1.00000000
vn 0.00000000 0.00000000 1.00000000
vn 0.00000000 0.00000000 1.00000000
vn 0.44721360 0.89442719 0.00000000
vn 0.44721360 0.89442719 0.00000000
vn 0.44721360 0.89442719 0.00000000
vn 0.44721360 0.89442719 0.00000000
vn -0.44721360 -0.89442719 0.00000000
vn -0.44721360 -0.89442719 0.00000000
vn -0.44721360 -0.89442719 0.00000000
vn -0.44721360 -0.89442719 0.00000000
s 1
usemtl Dark_Wood
f 4/4/4 1/1/1 2/2/2
f 2/2/2 3/3/3 4/4/4
s 2
f 4/5/5 3/6/6 6/8/8
f 3/6/6 5/7/7 6/8/8
s 3
f 8/10/10 7/9/9 6/12/12
f 6/12/12 5/11/11 8/10/10
s 4
f 1/13/13 4/14/14 7/16/16
f 4/14/14 6/15/15 7/16/16
s 5
f 3/17/17 2/18/18 8/19/19
f 3/17/17 8/19/19 5/20/20
