mtllib Prop_Track_Ramp.mtl
o object1
g object1
v -0.50000000 1.00000000 0.50000000
v -0.50000000 0.00000000 0.50000000
v 1.50000000 0.00000000 0.50000000
v -0.50000000 1.00000000 -0.50000000
v -0.50000000 0.00000000 -0.50000000
v 1.50000000 0.00000000 -0.50000000
vt 1.00000000 1.00000000
vt 0.00000000 1.00000000
vt 0.00000000 0.00000000
vt 0.00000000 1.00000000
vt 0.00000000 0.00000000
vt 1.00000000 0.00000000
vt 1.00000000 1.00000000
vt 1.00000000 1.00000000
vt 0.00000000 1.00000000
vt 0.00000000 0.00000000
vt 0.00000000 1.00000000
vt 0.00000000 0.00000000
vt 1.00000000 0.00000000
vt 1.00000000 1.00000000
vn 0.00000000 0.00000000 1.00000000
vn 0.00000000 0.00000000 1.00000000
vn 0.00000000 0.00000000 1.00000000
vn -1.00000000 0.00000000 0.00000000
vn -1.00000000 0.00000000 0.00000000
vn -1.00000000 0.00000000 0.00000000
vn -1.00000000 0.00000000 0.00000000
vn 0.00000000 0.00000000 -1.00000000
vn 0.00000000 0.00000000 -1.00000000
vn 0.00000000 0.00000000 -1.00000000
vn 0.44721360 0.89442719 0.00000000
vn 0.44721360 0.89442719 0.00000000
vn 0.44721360 0.89442719 0.00000000
vn 0.44721360 0.89442719 0.00000000
s 1
usemtl Medium_Wood
f 1/1/1 2/2/2 3/3/3
s 2
f 2/4/4 1/5/5 5/7/7
f 1/5/5 4/6/6 5/7/7
s 3
f 6/10/10 5/9/9 4/8/8
s 4
f 1/11/11 3/12/12 6/13/13
f 1/11/11 6/13/13 4/14/14
