mtllib Terrain_Cliff_Middle.mtl
o object1
g object1
v 0.50000000 0.80000000 -0.50000000
v 0.50000000 0.80000000 0.50000000
v -0.50000000 0.80000000 0.50000000
v -0.50000000 0.80000000 -0.50000000
vt 0.00000000 0.00000000
vt 1.00000000 0.00000000
vt 1.00000000 1.00000000
vt 0.00000000 1.00000000
vn 0.00000000 1.00000000 0.00000000
vn 0.00000000 1.00000000 0.00000000
vn 0.00000000 1.00000000 0.00000000
vn 0.00000000 1.00000000 0.00000000
s 1
usemtl Rock
f 4/4/4 3/3/3 2/2/2
f 4/4/4 2/2/2 1/1/1
o object2
g object2
v 0.50000000 1.90000000 -0.50000000
v 0.50000000 1.90000000 0.50000000
v -0.50000000 1.90000000 0.50000000
v -0.50000000 1.90000000 -0.50000000
vt 0.00000000 0.00000000
vt 1.00000000 0.00000000
vt 1.00000000 1.00000000
vt 0.00000000 1.00000000
vn 0.00000000 1.00000000 0.00000000
vn 0.00000000 1.00000000 0.00000000
vn 0.00000000 1.00000000 0.00000000
vn 0.00000000 1.00000000 0.00000000
s 1
usemtl Rock
f 8/8/8 7/7/7 6/6/6
f 8/8/8 6/6/6 5/5/5
