mtllib Terrain_Water_Corner_Inner_2x2.mtl
o object1
g object1
v 0.50000000 0.00000000 -0.50000000
v 0.50000000 0.00000000 1.50000000
v -1.50000000 0.00000000 1.50000000
v -1.50000000 0.00000000 -0.50000000
vt 0.00000000 0.00000000
vt 1.00000000 0.00000000
vt 1.00000000 1.00000000
vt 0.00000000 1.00000000
vn 0.00000000 1.00000000 0.00000000
vn 0.00000000 1.00000000 0.00000000
vn 0.00000000 1.00000000 0.00000000
vn 0.00000000 1.00000000 0.00000000
s 1
usemtl Water
f 4/4/4 3/3/3 2/2/2
f 4/4/4 2/2/2 1/1/1
o object2
g object2
v -1.50000000 0.50000000 -0.50000000
v -1.50000000 0.50000000 1.50000000
v 0.50000000 0.50000000 1.50000000
v 0.05494846 0.50000000 1.44985362
v -0.36777048 0.50000000 1.30193629
v -0.74698074 0.50000000 1.06366206
v -1.06366206 0.50000000 0.74698074
v -1.30193629 0.50000000 0.36777048
v -1.44985362 0.50000000 -0.05494846
v -1.10862923 0.45000000 -0.13283248
v -1.15000000 0.45000000 -0.50000000
v -0.98659744 0.45000000 0.21591065
v -0.79002120 0.45000000 0.52875911
v -0.52875911 0.45000000 0.79002120
v -0.21591065 0.45000000 0.98659744
v 0.13283248 0.45000000 1.10862923
v 0.50000000 0.45000000 1.15000000
v -0.81615119 0.30000000 -0.19959021
v -0.85000000 0.30000000 -0.50000000
v -0.71630700 0.30000000 0.08574507
v -0.55547189 0.30000000 0.34171200
v -0.34171200 0.30000000 0.55547189
v -0.08574507 0.30000000 0.71630700
v 0.19959021 0.30000000 0.81615119
v 0.50000000 0.30000000 0.85000000
v -0.27994145 -0.25000000 -0.32197938
v -0.30000000 -0.25000000 -0.50000000
v -0.22077452 -0.25000000 -0.15289181
v -0.12546482 -0.25000000 -0.00120771
v 0.00120771 -0.25000000 0.12546482
v 0.15289181 -0.25000000 0.22077452
v 0.32197938 -0.25000000 0.27994145
v 0.50000000 -0.25000000 0.30000000
v 0.01253660 -0.40000000 -0.38873711
v -0.00000000 -0.40000000 -0.50000000
v 0.04951593 -0.40000000 -0.28305738
v 0.10908448 -0.40000000 -0.18825482
v 0.18825482 -0.40000000 -0.10908448
v 0.28305738 -0.40000000 -0.04951593
v 0.38873711 -0.40000000 -0.01253660
v 0.50000000 -0.40000000 -0.00000000
vt 0.00000000 1.00000000
vt 0.00000000 0.00000000
vt 1.00000000 0.00000000
vt 0.77747924 0.02507205
vt 0.56611704 0.09903075
vt 0.37651043 0.21816833
vt 0.21816833 0.37651043
vt 0.09903075 0.56611704
vt 0.02507205 0.77747924
vt 0.15223841 1.00000000
vt 0.00000000 1.00000000
vt 0.00000000 0.00000000
vt 0.15223841 0.00000000
vt 0.29490376 1.00000000
vt 0.29490376 0.00000000
vt 0.43221016 1.00000000
vt 0.43221016 0.00000000
vt 0.56778984 1.00000000
vt 0.56778984 0.00000000
vt 0.70509624 1.00000000
vt 0.70509624 0.00000000
vt 0.84776159 1.00000000
vt 0.84776159 0.00000000
vt 1.00000000 0.00000000
vt 1.00000000 1.00000000
vt 0.15223841 1.00000000
vt 0.00000000 1.00000000
vt 0.00000000 0.00000000
vt 0.15223841 0.00000000
vt 0.29490376 1.00000000
vt 0.29490376 0.00000000
vt 0.43221016 1.00000000
vt 0.43221016 0.00000000
vt 0.56778984 1.00000000
vt 0.56778984 0.00000000
vt 0.70509624 1.00000000
vt 0.70509624 0.00000000
vt 0.84776159 1.00000000
vt 0.84776159 0.00000000
vt 1.00000000 0.00000000
vt 1.00000000 1.00000000
vt 0.15223841 1.00000000
vt 0.00000000 1.00000000
vt 0.00000000 0.00000000
vt 0.15223841 0.00000000
vt 0.29490376 1.00000000
vt 0.29490376 0.00000000
vt 0.43221016 1.00000000
vt 0.43221016 0.00000000
vt 0.56778984 1.00000000
vt 0.56778984 0.00000000
vt 0.70509624 1.00000000
vt 0.70509624 0.00000000
vt 0.84776159 1.00000000
vt 0.84776159 0.00000000
vt 1.00000000 0.00000000
vt 1.00000000 1.00000000
vt 0.15223841 1.00000000
vt 0.00000000 1.00000000
vt 0.00000000 0.00000000
vt 0.15223841 0.00000000
vt 0.29490376 1.00000000
vt 0.29490376 0.00000000
vt 0.43221016 1.00000000
vt 0.43221016 0.00000000
vt 0.56778984 1.00000000
vt 0.56778984 0.00000000
vt 0.70509624 1.00000000
vt 0.70509624 0.00000000
vt 0.84776159 1.00000000
vt 0.84776159 0.00000000
vt 1.00000000 0.00000000
vt 1.00000000 1.00000000
vn 0.00000000 1.00000000 0.00000000
vn 0.00000000 1.00000000 0.00000000
vn 0.00000000 1.00000000 0.00000000
vn 0.00000000 1.00000000 0.00000000
vn 0.00000000 1.00000000 0.00000000
vn 0.00000000 1.00000000 0.00000000
vn 0.00000000 1.00000000 0.00000000
vn 0.00000000 1.00000000 0.00000000
vn 0.00000000 1.00000000 0.00000000
vn 0.13787563 0.98994949 -0.03146919
vn 0.14142136 0.98994949 0.00000000
vn 0.14142136 0.98994949 0.00000000
vn 0.13787563 0.98994949 -0.03146919
vn 0.12741629 0.98994949 -0.06136031
vn 0.12741629 0.98994949 -0.06136031
vn 0.11056769 0.98994949 -0.08817474
vn 0.11056769 0.98994949 -0.08817474
vn 0.08817474 0.98994949 -0.11056769
vn 0.08817474 0.98994949 -0.11056769
vn 0.06136031 0.98994949 -0.12741629
vn 0.06136031 0.98994949 -0.12741629
vn 0.03146919 0.98994949 -0.13787563
vn 0.03146919 0.98994949 -0.13787563
vn 0.00000000 0.98994949 -0.14142136
vn 0.00000000 0.98994949 -0.14142136
vn 0.43600103 0.89442719 -0.09951431
vn 0.44721360 0.89442719 0.00000000
vn 0.44721360 0.89442719 0.00000000
vn 0.43600103 0.89442719 -0.09951431
vn 0.40292570 0.89442719 -0.19403835
vn 0.40292570 0.89442719 -0.19403835
vn 0.34964575 0.89442719 -0.27883302
vn 0.34964575 0.89442719 -0.27883302
vn 0.27883302 0.89442719 -0.34964575
vn 0.27883302 0.89442719 -0.34964575
vn 0.19403835 0.89442719 -0.40292570
vn 0.19403835 0.89442719 -0.40292570
vn 0.09951431 0.89442719 -0.43600103
vn 0.09951431 0.89442719 -0.43600103
vn 0.00000000 0.89442719 -0.44721360
vn 0.00000000 0.89442719 -0.44721360
vn 0.68937817 0.70710678 -0.15734594
vn 0.70710678 0.70710678 0.00000000
vn 0.70710678 0.70710678 0.00000000
vn 0.68937817 0.70710678 -0.15734594
vn 0.63708147 0.70710678 -0.30680157
vn 0.63708147 0.70710678 -0.30680157
vn 0.55283847 0.70710678 -0.44087371
vn 0.55283847 0.70710678 -0.44087371
vn 0.44087371 0.70710678 -0.55283847
vn 0.44087371 0.70710678 -0.55283847
vn 0.30680157 0.70710678 -0.63708147
vn 0.30680157 0.70710678 -0.63708147
vn 0.15734594 0.70710678 -0.68937817
vn 0.15734594 0.70710678 -0.68937817
vn 0.00000000 0.70710678 -0.70710678
vn 0.00000000 0.70710678 -0.70710678
vn 0.43600103 0.89442719 -0.09951431
vn 0.44721360 0.89442719 0.00000000
vn 0.44721360 0.89442719 0.00000000
vn 0.43600103 0.89442719 -0.09951431
vn 0.40292570 0.89442719 -0.19403835
vn 0.40292570 0.89442719 -0.19403835
vn 0.34964575 0.89442719 -0.27883302
vn 0.34964575 0.89442719 -0.27883302
vn 0.27883302 0.89442719 -0.34964575
vn 0.27883302 0.89442719 -0.34964575
vn 0.19403835 0.89442719 -0.40292570
vn 0.19403835 0.89442719 -0.40292570
vn 0.09951431 0.89442719 -0.43600103
vn 0.09951431 0.89442719 -0.43600103
vn 0.00000000 0.89442719 -0.44721360
vn 0.00000000 0.89442719 -0.44721360
s 1
usemtl Grass
f 13/13/13 5/5/5 6/6/6
f 6/6/6 7/7/7 8/8/8
f 8/8/8 9/9/9 6/6/6
f 9/9/9 10/10/10 6/6/6
f 10/10/10 11/11/11 6/6/6
f 11/11/11 12/12/12 6/6/6
f 12/12/12 13/13/13 6/6/6
s 2
f 14/14/14 15/15/15 5/16/16
f 14/14/14 13/17/17 12/19/19
f 16/18/18 12/19/19 11/21/21
f 17/20/20 11/21/21 10/23/23
f 18/22/22 10/23/23 9/25/25
f 19/24/24 9/25/25 8/27/27
f 8/27/27 21/29/29 20/26/26
f 8/27/27 7/28/28 21/29/29
f 20/26/26 19/24/24 8/27/27
f 19/24/24 18/22/22 9/25/25
f 18/22/22 17/20/20 10/23/23
f 17/20/20 16/18/18 11/21/21
f 16/18/18 14/14/14 12/19/19
f 14/14/14 5/16/16 13/17/17
s 3
f 22/30/30 23/31/31 14/33/33
f 23/31/31 15/32/32 14/33/33
f 22/30/30 14/33/33 16/35/35
f 24/34/34 16/35/35 17/37/37
f 25/36/36 17/37/37 18/39/39
f 26/38/38 18/39/39 19/41/41
f 27/40/40 19/41/41 20/43/43
f 20/43/43 29/45/45 28/42/42
f 20/43/43 21/44/44 29/45/45
f 28/42/42 27/40/40 20/43/43
f 27/40/40 26/38/38 19/41/41
f 26/38/38 25/36/36 18/39/39
f 25/36/36 24/34/34 17/37/37
f 24/34/34 22/30/30 16/35/35
s 4
f 30/46/46 31/47/47 22/49/49
f 31/47/47 23/48/48 22/49/49
f 30/46/46 22/49/49 24/51/51
f 32/50/50 24/51/51 25/53/53
f 33/52/52 25/53/53 26/55/55
f 34/54/54 26/55/55 27/57/57
f 35/56/56 27/57/57 28/59/59
f 28/59/59 37/61/61 36/58/58
f 28/59/59 29/60/60 37/61/61
f 36/58/58 35/56/56 28/59/59
f 35/56/56 34/54/54 27/57/57
f 34/54/54 33/52/52 26/55/55
f 33/52/52 32/50/50 25/53/53
f 32/50/50 30/46/46 24/51/51
s 5
f 38/62/62 39/63/63 30/65/65
f 39/63/63 31/64/64 30/65/65
f 38/62/62 30/65/65 32/67/67
f 40/66/66 32/67/67 33/69/69
f 41/68/68 33/69/69 34/71/71
f 42/70/70 34/71/71 35/73/73
f 43/72/72 35/73/73 36/75/75
f 36/75/75 45/77/77 44/74/74
f 36/75/75 37/76/76 45/77/77
f 44/74/74 43/72/72 36/75/75
f 43/72/72 42/70/70 35/73/73
f 42/70/70 41/68/68 34/71/71
f 41/68/68 40/66/66 33/69/69
f 40/66/66 38/62/62 32/67/67
