mtllib Terrain_Water_Corner_Outer_1x1.mtl
o object1
g object1
v 1.50000000 0.00000000 -1.50000000
v 1.50000000 0.00000000 0.50000000
v -0.50000000 0.00000000 0.50000000
v -0.50000000 0.00000000 -1.50000000
vt 0.00000000 0.00000000
vt 1.00000000 0.00000000
vt 1.00000000 1.00000000
vt 0.00000000 1.00000000
vn 0.00000000 1.00000000 0.00000000
vn 0.00000000 1.00000000 0.00000000
vn 0.00000000 1.00000000 0.00000000
vn 0.00000000 1.00000000 0.00000000
s 1
usemtl Water
f 4/4/4 3/3/3 2/2/2
f 4/4/4 2/2/2 1/1/1
o object2
g object2
v -0.15877601 0.45000000 0.42211426
v -0.15000000 0.45000000 0.50000000
v -0.50000000 0.50000000 0.50000000
v -0.18466268 0.45000000 0.34813698
v -0.22636245 0.45000000 0.28177422
v -0.28178390 0.45000000 0.22635473
v -0.34814813 0.45000000 0.18465732
v -0.42212633 0.45000000 0.15877326
v -0.50000000 0.45000000 0.15000000
v 0.13370243 0.30000000 0.35535825
v 0.15000000 0.30000000 0.50000000
v 0.08562929 0.30000000 0.21797459
v 0.00819017 0.30000000 0.09473126
v -0.09473126 0.30000000 -0.00819017
v -0.21797459 0.30000000 -0.08562929
v -0.35535825 0.30000000 -0.13370243
v -0.50000000 0.30000000 -0.15000000
v 0.66991217 -0.25000000 0.23296907
v 0.70000000 -0.25000000 0.50000000
v 0.58116177 -0.25000000 -0.02066229
v 0.43819724 -0.25000000 -0.24818844
v 0.24818844 -0.25000000 -0.43819724
v 0.02066229 -0.25000000 -0.58116177
v -0.23296907 -0.25000000 -0.66991217
v -0.50000000 -0.25000000 -0.70000000
v 0.96239021 -0.40000000 0.16621134
v 1.00000000 -0.40000000 0.50000000
v 0.85145222 -0.40000000 -0.15082786
v 0.67274655 -0.40000000 -0.43523555
v 0.43523555 -0.40000000 -0.67274655
v 0.15082786 -0.40000000 -0.85145222
v -0.16621134 -0.40000000 -0.96239021
v -0.50000000 -0.40000000 -1.00000000
vt 0.15223741 1.00000000
vt 0.00000000 1.00000000
vt 0.15223741 0.00000000
vt 0.29490156 0.00000000
vt 0.29490156 1.00000000
vt 0.43220690 0.00000000
vt 0.43220690 1.00000000
vt 0.56778591 0.00000000
vt 0.56778591 1.00000000
vt 0.70509235 0.00000000
vt 0.70509235 1.00000000
vt 0.84775885 0.00000000
vt 0.84775885 1.00000000
vt 0.99995000 0.00000000
vt 0.99995000 1.00000000
vt 0.15223841 1.00000000
vt 0.00000000 1.00000000
vt 0.00000000 0.00000000
vt 0.15223841 0.00000000
vt 0.29490376 0.00000000
vt 0.29490376 1.00000000
vt 0.43221016 0.00000000
vt 0.43221016 1.00000000
vt 0.56778984 0.00000000
vt 0.56778984 1.00000000
vt 0.70509624 0.00000000
vt 0.70509624 1.00000000
vt 0.84776159 0.00000000
vt 0.84776159 1.00000000
vt 1.00000000 0.00000000
vt 1.00000000 1.00000000
vt 0.15223841 1.00000000
vt 0.00000000 1.00000000
vt 0.00000000 0.00000000
vt 0.15223841 0.00000000
vt 0.29490376 0.00000000
vt 0.29490376 1.00000000
vt 0.43221016 0.00000000
vt 0.43221016 1.00000000
vt 0.56778984 0.00000000
vt 0.56778984 1.00000000
vt 0.70509624 0.00000000
vt 0.70509624 1.00000000
vt 0.84776159 0.00000000
vt 0.84776159 1.00000000
vt 1.00000000 0.00000000
vt 1.00000000 1.00000000
vt 0.15223841 1.00000000
vt 0.00000000 1.00000000
vt 0.00000000 0.00000000
vt 0.15223841 0.00000000
vt 0.29490376 0.00000000
vt 0.29490376 1.00000000
vt 0.43221016 0.00000000
vt 0.43221016 1.00000000
vt 0.56778984 0.00000000
vt 0.56778984 1.00000000
vt 0.70509624 0.00000000
vt 0.70509624 1.00000000
vt 0.84776159 0.00000000
vt 0.84776159 1.00000000
vt 1.00000000 0.00000000
vt 1.00000000 1.00000000
vn 0.13787532 0.98994949 -0.03147058
vn 0.14142136 0.98994949 -0.00000000
vn 0.13787532 0.98994949 -0.03147058
vn 0.12741505 0.98994949 -0.06136289
vn 0.11056502 0.98994949 -0.08817809
vn 0.11056502 0.98994949 -0.08817809
vn 0.08817027 0.98994949 -0.11057126
vn 0.06135388 0.98994949 -0.12741939
vn 0.06135388 0.98994949 -0.12741939
vn 0.03146082 0.98994949 -0.13787754
vn -0.00000306 0.98994949 -0.14142136
vn -0.00000000 0.98994949 -0.14142136
vn 0.43600103 0.89442719 -0.09951431
vn 0.44721360 0.89442719 -0.00000000
vn 0.44721360 0.89442719 -0.00000000
vn 0.43600103 0.89442719 -0.09951431
vn 0.40292570 0.89442719 -0.19403835
vn 0.40292570 0.89442719 -0.19403835
vn 0.34964575 0.89442719 -0.27883302
vn 0.34964575 0.89442719 -0.27883302
vn 0.27883302 0.89442719 -0.34964575
vn 0.27883302 0.89442719 -0.34964575
vn 0.19403835 0.89442719 -0.40292570
vn 0.19403835 0.89442719 -0.40292570
vn 0.09951431 0.89442719 -0.43600103
vn 0.09951431 0.89442719 -0.43600103
vn -0.00000000 0.89442719 -0.44721360
vn -0.00000000 0.89442719 -0.44721360
vn 0.68937817 0.70710678 -0.15734594
vn 0.70710678 0.70710678 -0.00000000
vn 0.70710678 0.70710678 -0.00000000
vn 0.68937817 0.70710678 -0.15734594
vn 0.63708147 0.70710678 -0.30680157
vn 0.63708147 0.70710678 -0.30680157
vn 0.55283847 0.70710678 -0.44087371
vn 0.55283847 0.70710678 -0.44087371
vn 0.44087371 0.70710678 -0.55283847
vn 0.44087371 0.70710678 -0.55283847
vn 0.30680157 0.70710678 -0.63708147
vn 0.30680157 0.70710678 -0.63708147
vn 0.15734594 0.70710678 -0.68937817
vn 0.15734594 0.70710678 -0.68937817
vn -0.00000000 0.70710678 -0.70710678
vn -0.00000000 0.70710678 -0.70710678
vn 0.43600103 0.89442719 -0.09951431
vn 0.44721360 0.89442719 -0.00000000
vn 0.44721360 0.89442719 -0.00000000
vn 0.43600103 0.89442719 -0.09951431
vn 0.40292570 0.89442719 -0.19403835
vn 0.40292570 0.89442719 -0.19403835
vn 0.34964575 0.89442719 -0.27883302
vn 0.34964575 0.89442719 -0.27883302
vn 0.27883302 0.89442719 -0.34964575
vn 0.27883302 0.89442719 -0.34964575
vn 0.19403835 0.89442719 -0.40292570
vn 0.19403835 0.89442719 -0.40292570
vn 0.09951431 0.89442719 -0.43600103
vn 0.09951431 0.89442719 -0.43600103
vn -0.00000000 0.89442719 -0.44721360
vn -0.00000000 0.89442719 -0.44721360
s 1
usemtl Grass
f 7/7/7 6/6/6 5/5/5
f 5/5/5 8/9/8 7/8/7
f 8/9/8 9/11/10 7/10/9
f 9/11/10 10/13/11 7/12/9
f 10/13/11 11/15/13 7/14/12
f 11/15/13 12/17/14 7/16/12
f 12/17/14 13/19/16 7/18/15
s 2
f 5/23/20 6/22/19 14/20/17
f 6/22/19 15/21/18 14/20/17
f 16/25/22 8/24/21 5/23/20
f 17/27/24 9/26/23 8/24/21
f 18/29/26 10/28/25 9/26/23
f 19/31/28 11/30/27 10/28/25
f 20/33/30 12/32/29 11/30/27
f 21/35/32 13/34/31 12/32/29
f 20/33/30 21/35/32 12/32/29
f 19/31/28 20/33/30 11/30/27
f 18/29/26 19/31/28 10/28/25
f 17/27/24 18/29/26 9/26/23
f 16/25/22 17/27/24 8/24/21
f 14/20/17 16/25/22 5/23/20
s 3
f 14/39/36 15/38/35 23/37/34
f 24/41/38 16/40/37 14/39/36
f 25/43/40 17/42/39 16/40/37
f 26/45/42 18/44/41 17/42/39
f 27/47/44 19/46/43 18/44/41
f 28/49/46 20/48/45 19/46/43
f 29/51/48 21/50/47 20/48/45
f 28/49/46 29/51/48 20/48/45
f 27/47/44 28/49/46 19/46/43
f 26/45/42 27/47/44 18/44/41
f 25/43/40 26/45/42 17/42/39
f 24/41/38 25/43/40 16/40/37
f 22/36/33 24/41/38 14/39/36
f 14/39/36 23/37/34 22/36/33
s 4
f 22/55/52 23/54/51 31/53/50
f 32/57/54 24/56/53 22/55/52
f 33/59/56 25/58/55 24/56/53
f 34/61/58 26/60/57 25/58/55
f 35/63/60 27/62/59 26/60/57
f 36/65/62 28/64/61 27/62/59
f 37/67/64 29/66/63 28/64/61
f 36/65/62 37/67/64 28/64/61
f 35/63/60 36/65/62 27/62/59
f 34/61/58 35/63/60 26/60/57
f 33/59/56 34/61/58 25/58/55
f 32/57/54 33/59/56 24/56/53
f 30/52/49 32/57/54 22/55/52
f 22/55/52 31/53/50 30/52/49
