mtllib Terrain_Cliff_Corner_Outer_1x1.mtl
o object1
g object1
v 0.23119511 2.00000000 0.33310567
v 0.25000000 2.00000000 0.50000000
v 0.75000000 -0.00000000 0.50000000
v 0.71865851 -0.00000000 0.22184279
v 0.62621018 -0.00000000 -0.04235655
v 0.17572611 2.00000000 0.17458607
v 0.47728879 -0.00000000 -0.27936296
v 0.08637327 2.00000000 0.03238222
v 0.27936296 -0.00000000 -0.47728879
v -0.03238222 2.00000000 -0.08637327
v 0.04235655 -0.00000000 -0.62621018
v -0.17458607 2.00000000 -0.17572611
v -0.22184279 -0.00000000 -0.71865851
v -0.33310567 2.00000000 -0.23119511
v -0.50000000 -0.00000000 -0.75000000
v -0.50000000 2.00000000 -0.25000000
vt 0.15223841 1.00000000
vt 0.00000000 1.00000000
vt 0.00000000 0.00000000
vt 0.15223841 0.00000000
vt 0.29490376 0.00000000
vt 0.29490376 1.00000000
vt 0.43221016 0.00000000
vt 0.43221016 1.00000000
vt 0.56778984 0.00000000
vt 0.56778984 1.00000000
vt 0.70509624 0.00000000
vt 0.70509624 1.00000000
vt 0.84776159 0.00000000
vt 0.84776159 1.00000000
vt 1.00000000 0.00000000
vt 1.00000000 1.00000000
vn 0.94581904 0.24253563 -0.21587685
vn 0.97014250 0.24253563 0.00000000
vn 0.97014250 0.24253563 0.00000000
vn 0.94581904 0.24253563 -0.21587685
vn 0.87406856 0.24253563 -0.42092828
vn 0.87406856 0.24253563 -0.42092828
vn 0.75848812 0.24253563 -0.60487374
vn 0.75848812 0.24253563 -0.60487374
vn 0.60487374 0.24253563 -0.75848812
vn 0.60487374 0.24253563 -0.75848812
vn 0.42092828 0.24253563 -0.87406856
vn 0.42092828 0.24253563 -0.87406856
vn 0.21587685 0.24253563 -0.94581904
vn 0.21587685 0.24253563 -0.94581904
vn 0.00000000 0.24253563 -0.97014250
vn 0.00000000 0.24253563 -0.97014250
s 1
usemtl Rock
f 1/1/1 2/2/2 4/4/4
f 2/2/2 3/3/3 4/4/4
f 5/5/5 6/6/6 1/1/1
f 7/7/7 8/8/8 6/6/6
f 9/9/9 10/10/10 8/8/8
f 11/11/11 12/12/12 10/10/10
f 13/13/13 14/14/14 12/12/12
f 15/15/15 16/16/16 14/14/14
f 13/13/13 15/15/15 14/14/14
f 11/11/11 13/13/13 12/12/12
f 9/9/9 11/11/11 10/10/10
f 7/7/7 9/9/9 8/8/8
f 5/5/5 7/7/7 6/6/6
f 4/4/4 5/5/5 1/1/1
o object2
g object2
v -0.37470757 2.45980762 -0.17700802
v -0.50000000 2.45980762 -0.15000000
v -0.50000000 2.50000000 -0.00000000
v -0.38727997 2.50000000 -0.02854566
v -0.27405411 2.50000000 -0.04201713
v -0.24474226 2.45980762 -0.18718777
v -0.16415292 2.50000000 -0.03569330
v -0.11139007 2.45980762 -0.17326754
v -0.11007237 2.50000000 -0.02192656
v -0.04108775 2.45980762 -0.15176851
v -0.06663803 2.50000000 -0.00213921
v -0.02770492 2.50000000 0.02770492
v 0.07606597 2.45980762 -0.07606597
v 0.01895633 2.45980762 -0.12144395
v 0.00213921 2.50000000 0.06663803
v 0.02192656 2.50000000 0.11007237
v 0.15176851 2.45980762 0.04108775
v 0.12144395 2.45980762 -0.01895633
v 0.03569330 2.50000000 0.16415292
v 0.04201713 2.50000000 0.27405411
v 0.18718777 2.45980762 0.24474226
v 0.17326754 2.45980762 0.11139007
v 0.02854566 2.50000000 0.38727997
v 0.17700802 2.45980762 0.37470757
v 0.00000000 2.50000000 0.50000000
v 0.15000000 2.45980762 0.50000000
v -0.36371507 2.45980762 -0.17861829
v -0.22653856 2.45980762 -0.18692628
v -0.09323539 2.45980762 -0.16886347
v 0.02630498 2.45980762 -0.11669845
v 0.14666273 2.45980762 0.02889070
v 0.18692628 2.45980762 0.22653856
v 0.17861829 2.45980762 0.36371507
v -0.02889070 2.45980762 -0.14666273
v 0.11669845 2.45980762 -0.02630498
v 0.16886347 2.45980762 0.09323539
v -0.50000000 2.50000000 0.50000000
v -0.35360063 2.35000000 -0.28715883
v -0.50000000 2.35000000 -0.25980762
v -0.20306437 2.35000000 -0.29268628
v -0.05176490 2.35000000 -0.26836701
v 0.02392153 2.35000000 -0.24040974
v 0.15203153 2.35000000 -0.15203153
v 0.09058759 2.35000000 -0.20283179
v 0.24040974 2.35000000 -0.02392153
v 0.20283179 2.35000000 -0.09058759
v 0.29268628 2.35000000 0.20306437
v 0.26836701 2.35000000 0.05176490
v 0.28715883 2.35000000 0.35360063
v 0.25980762 2.35000000 0.50000000
v -0.34766741 2.35000000 -0.28783837
v -0.19356367 2.35000000 -0.29214388
v -0.04283419 2.35000000 -0.26572267
v 0.09396084 2.35000000 -0.20051198
v 0.23763538 2.35000000 -0.02983560
v 0.29214388 2.35000000 0.19356367
v 0.28783837 2.35000000 0.34766741
v 0.02983560 2.35000000 -0.23763538
v 0.20051198 2.35000000 -0.09396084
v 0.26572267 2.35000000 0.04283419
v -0.34379503 2.20000000 -0.32754018
v -0.50000000 2.20000000 -0.30000000
v -0.18461403 2.20000000 -0.33075941
v -0.02719824 2.20000000 -0.30193924
v 0.04951805 2.20000000 -0.27174298
v 0.17983686 2.20000000 -0.17983686
v 0.11771560 2.20000000 -0.23186722
v 0.27174298 2.20000000 -0.04951805
v 0.23186722 2.20000000 -0.11771560
v 0.33075941 2.20000000 0.18461403
v 0.30193924 2.20000000 0.02719824
v 0.32754018 2.20000000 0.34379503
v 0.30000000 2.20000000 0.50000000
v -0.35032095 2.20000000 -0.32684089
v -0.19516848 2.20000000 -0.33143762
v -0.03727051 2.20000000 -0.30498916
v 0.04278889 2.20000000 -0.27493986
v 0.23454566 2.20000000 -0.11384383
v 0.30498916 2.20000000 0.03727051
v 0.33143762 2.20000000 0.19516848
v 0.32684089 2.20000000 0.35032095
v 0.11384383 2.20000000 -0.23454566
v 0.27493986 2.20000000 -0.04278889
v -0.36868587 1.40000000 -0.12913947
v -0.50000000 1.40000000 -0.10000000
v -0.23779925 1.40000000 -0.13877721
v -0.11263887 1.40000000 -0.12368436
v -0.05327302 1.40000000 -0.10411767
v 0.04147567 1.40000000 -0.04147567
v -0.00315372 1.40000000 -0.07760125
v 0.10411767 1.40000000 0.05327302
v 0.07760125 1.40000000 0.00315372
v 0.13877721 1.40000000 0.23779925
v 0.12368436 1.40000000 0.11263887
v 0.12913947 1.40000000 0.36868587
v 0.10000000 1.40000000 0.50000000
vt 0.08550249 1.00000000
vt 0.00000000 1.00000000
vt 0.00000000 0.00000000
vt 0.08550249 0.00000000
vt 0.17910972 0.00000000
vt 0.17910972 1.00000000
vt 0.28768854 0.00000000
vt 0.28768854 1.00000000
vt 0.35503023 0.00000000
vt 0.35503023 1.00000000
vt 0.42237192 0.00000000
vt 0.50000000 0.00000000
vt 0.50000000 1.00000000
vt 0.42237192 1.00000000
vt 0.57762808 0.00000000
vt 0.64496977 0.00000000
vt 0.64496977 1.00000000
vt 0.57762808 1.00000000
vt 0.71231146 0.00000000
vt 0.82089028 0.00000000
vt 0.82089028 1.00000000
vt 0.71231146 1.00000000
vt 0.91449751 0.00000000
vt 0.91449751 1.00000000
vt 1.00000000 0.00000000
vt 1.00000000 1.00000000
vt 0.09315331 1.00000000
vt 0.19294917 1.00000000
vt 0.30417949 1.00000000
vt 0.43147870 1.00000000
vt 0.63217090 1.00000000
vt 0.80705083 1.00000000
vt 0.90684669 1.00000000
vt 0.36782910 1.00000000
vt 0.56852130 1.00000000
vt 0.69582051 1.00000000
vt 0.00000000 0.07928890
vt 0.92071110 1.00000000
vt 0.00000000 1.00000000
vt 0.97328059 0.79240922
vt 0.99808286 0.58392620
vt 0.98643588 0.38155425
vt 0.96108511 0.28197276
vt 0.92464909 0.20199560
vt 0.86969464 0.13030536
vt 0.79800440 0.07535091
vt 0.71802724 0.03891489
vt 0.61844575 0.01356412
vt 0.41607380 0.00191714
vt 0.20759078 0.02671941
vt 0.09315329 1.00000000
vt 0.00000000 1.00000000
vt 0.00000000 0.00000000
vt 0.09315329 0.00000000
vt 0.19294918 0.00000000
vt 0.19294918 1.00000000
vt 0.30417950 0.00000000
vt 0.30417950 1.00000000
vt 0.36782909 0.00000000
vt 0.36782909 1.00000000
vt 0.43147869 0.00000000
vt 0.50000000 0.00000000
vt 0.50000000 1.00000000
vt 0.43147869 1.00000000
vt 0.56852131 0.00000000
vt 0.63217091 0.00000000
vt 0.63217091 1.00000000
vt 0.56852131 1.00000000
vt 0.69582050 0.00000000
vt 0.80705082 0.00000000
vt 0.80705082 1.00000000
vt 0.69582050 1.00000000
vt 0.90684671 0.00000000
vt 0.90684671 1.00000000
vt 1.00000000 0.00000000
vt 1.00000000 1.00000000
vt 0.08550246 0.00000000
vt 0.17910972 0.00000000
vt 0.09698266 1.00000000
vt 0.28768854 0.00000000
vt 0.19951783 1.00000000
vt 0.35503023 0.00000000
vt 0.31132656 1.00000000
vt 0.43495400 1.00000000
vt 0.57762808 0.00000000
vt 0.62685972 1.00000000
vt 0.71231146 0.00000000
vt 0.80048217 1.00000000
vt 0.82089028 0.00000000
vt 0.90301734 1.00000000
vt 0.91449754 0.00000000
vt 0.42237192 0.00000000
vt 0.37314028 1.00000000
vt 0.56504600 1.00000000
vt 0.64496977 0.00000000
vt 0.68867344 1.00000000
vt 0.09698267 1.00000000
vt 0.00000000 1.00000000
vt 0.00000000 0.00000000
vt 0.09698267 0.00000000
vt 0.19951784 0.00000000
vt 0.19951784 1.00000000
vt 0.31132655 0.00000000
vt 0.31132655 1.00000000
vt 0.37314027 0.00000000
vt 0.37314027 1.00000000
vt 0.43495400 0.00000000
vt 0.50000000 0.00000000
vt 0.50000000 1.00000000
vt 0.43495400 1.00000000
vt 0.56504600 0.00000000
vt 0.62685973 0.00000000
vt 0.62685973 1.00000000
vt 0.56504600 1.00000000
vt 0.68867345 0.00000000
vt 0.80048216 0.00000000
vt 0.80048216 1.00000000
vt 0.68867345 1.00000000
vt 0.90301733 0.00000000
vt 0.90301733 1.00000000
vt 1.00000000 0.00000000
vt 1.00000000 1.00000000
vt 0.09288934 1.00000000
vt 0.09315331 0.00000000
vt 0.19294917 0.00000000
vt 0.19248674 1.00000000
vt 0.30417949 0.00000000
vt 0.30366071 1.00000000
vt 0.36782910 0.00000000
vt 0.36743865 1.00000000
vt 0.56852130 0.00000000
vt 0.56878340 1.00000000
vt 0.69582051 0.00000000
vt 0.69633929 1.00000000
vt 0.80705083 0.00000000
vt 0.80751326 1.00000000
vt 0.90684669 0.00000000
vt 0.90711066 1.00000000
vt 0.43147870 0.00000000
vt 0.43121660 1.00000000
vt 0.63217090 0.00000000
vt 0.63256135 1.00000000
vt 0.09288932 1.00000000
vt 0.00000000 1.00000000
vt 0.00000000 0.00000000
vt 0.09288932 0.00000000
vt 0.19248674 0.00000000
vt 0.19248674 1.00000000
vt 0.30366071 0.00000000
vt 0.30366071 1.00000000
vt 0.36743865 0.00000000
vt 0.36743865 1.00000000
vt 0.43121659 0.00000000
vt 0.50000000 0.00000000
vt 0.50000000 1.00000000
vt 0.43121659 1.00000000
vt 0.56878341 0.00000000
vt 0.63256135 0.00000000
vt 0.63256135 1.00000000
vt 0.56878341 1.00000000
vt 0.69633929 0.00000000
vt 0.80751326 0.00000000
vt 0.80751326 1.00000000
vt 0.69633929 1.00000000
vt 0.90711068 0.00000000
vt 0.90711068 1.00000000
vt 1.00000000 0.00000000
vt 1.00000000 1.00000000
vt 0.09698266 0.00000000
vt 0.19951783 0.00000000
vt 0.31132656 0.00000000
vt 0.43495400 0.00000000
vt 0.62685972 0.00000000
vt 0.80048217 0.00000000
vt 0.90301734 0.00000000
vt 0.37314028 0.00000000
vt 0.56504600 0.00000000
vt 0.68867344 0.00000000
vn -0.04026217 0.96360474 -0.26428179
vn -0.07131331 0.96346655 -0.25816008
vn -0.08076702 0.96277015 -0.25797349
vn -0.05053916 0.96293142 -0.26496958
vn -0.01086813 0.96312144 -0.26884750
vn 0.00050778 0.96377102 -0.26673051
vn 0.04591359 0.96346534 -0.26386831
vn 0.05786659 0.96402219 -0.25944685
vn 0.08776092 0.96381280 -0.25171991
vn 0.09837474 0.96421248 -0.24620461
vn 0.13386717 0.96422642 -0.22879467
vn 0.18678086 0.96448215 -0.18678086
vn 0.18678086 0.96448215 -0.18678086
vn 0.14062130 0.96438988 -0.22400405
vn 0.22879467 0.96422642 -0.13386717
vn 0.25171991 0.96381280 -0.08776092
vn 0.24620461 0.96421248 -0.09837474
vn 0.22400405 0.96438988 -0.14062130
vn 0.26386831 0.96346534 -0.04591359
vn 0.26884750 0.96312144 0.01086813
vn 0.26673051 0.96377102 -0.00050778
vn 0.25944685 0.96402219 -0.05786659
vn 0.26496958 0.96293142 0.05053916
vn 0.26428179 0.96360474 0.04026217
vn 0.25797349 0.96277015 0.08076702
vn 0.25816008 0.96346655 0.07131331
vn -0.03721084 0.96361745 -0.26468238
vn 0.00720272 0.96379859 -0.26653404
vn 0.06749917 0.96406731 -0.25693983
vn 0.14629329 0.96440897 -0.22025807
vn 0.24271824 0.96424911 -0.10635561
vn 0.26653404 0.96379859 -0.00720272
vn 0.26468238 0.96361745 0.03721084
vn 0.10635561 0.96424911 -0.24271824
vn 0.22025807 0.96440897 -0.14629329
vn 0.25693983 0.96406731 -0.06749917
vn -0.00000000 1.00000000 0.00000000
vn -0.00000000 1.00000000 0.00000000
vn -0.00000000 1.00000000 0.00000000
vn -0.00000000 1.00000000 0.00000000
vn -0.00000000 1.00000000 0.00000000
vn -0.00000000 1.00000000 0.00000000
vn -0.00000000 1.00000000 0.00000000
vn -0.00000000 1.00000000 0.00000000
vn -0.00000000 1.00000000 0.00000000
vn -0.00000000 1.00000000 0.00000000
vn -0.00000000 1.00000000 0.00000000
vn -0.00000000 1.00000000 0.00000000
vn -0.00000000 1.00000000 0.00000000
vn -0.00000000 1.00000000 0.00000000
vn -0.08372215 0.69661200 -0.71254637
vn -0.17623900 0.69603873 -0.69603873
vn -0.19170601 0.69399164 -0.69399164
vn -0.10012873 0.69477831 -0.71222000
vn 0.01940421 0.69572564 -0.71804548
vn 0.03650001 0.69728205 -0.71586695
vn 0.18216162 0.69713717 -0.69340962
vn 0.19766952 0.69817777 -0.68809488
vn 0.28736512 0.69809631 -0.65580701
vn 0.29951064 0.69871297 -0.64968728
vn 0.39568736 0.69894255 -0.59574392
vn 0.50543860 0.69933086 -0.50543860
vn 0.50543860 0.69933086 -0.50543860
vn 0.40238347 0.69914408 -0.59100347
vn 0.59574392 0.69894255 -0.39568736
vn 0.65580701 0.69809631 -0.28736512
vn 0.64968728 0.69871297 -0.29951064
vn 0.59100347 0.69914408 -0.40238347
vn 0.69340962 0.69713717 -0.18216162
vn 0.71804548 0.69572564 -0.01940421
vn 0.71586695 0.69728205 -0.03650001
vn 0.68809488 0.69817777 -0.19766952
vn 0.71222000 0.69477831 0.10012873
vn 0.71254637 0.69661200 0.08372215
vn 0.69399164 0.69399164 0.19170601
vn 0.69603873 0.69603873 0.17623900
vn -0.10833048 0.69471195 -0.71108355
vn 0.00136772 0.69558122 -0.71844617
vn -0.07953343 0.69663595 -0.71300265
vn 0.15612004 0.69689965 -0.69996958
vn 0.04523987 0.69733020 -0.71532087
vn 0.26573778 0.69790277 -0.66506778
vn 0.20886058 0.69823890 -0.68471870
vn 0.40788606 0.69916172 -0.58719831
vn 0.60580016 0.69884135 -0.38029849
vn 0.64558937 0.69875495 -0.30814912
vn 0.69996958 0.69689965 -0.15612004
vn 0.71532087 0.69733020 -0.04523987
vn 0.71844617 0.69558122 -0.00136772
vn 0.71300265 0.69663595 0.07953343
vn 0.71108355 0.69471195 0.10833048
vn 0.38029849 0.69884135 -0.60580016
vn 0.30814912 0.69875495 -0.64558937
vn 0.58719831 0.69916172 -0.40788606
vn 0.66506778 0.69790277 -0.26573778
vn 0.68471870 0.69823890 -0.20886058
vn -0.10006775 0.25216819 -0.96249553
vn -0.23070670 0.25183697 -0.93986837
vn -0.23757293 0.25140898 -0.93827109
vn -0.10728757 0.25180138 -0.96181362
vn 0.06107682 0.25225858 -0.96573041
vn 0.06837398 0.25254849 -0.96516541
vn 0.28227853 0.25285869 -0.92540873
vn 0.28844641 0.25303057 -0.92345774
vn 0.41672341 0.25320036 -0.87305852
vn 0.42132294 0.25329503 -0.87082065
vn 0.55186842 0.25347013 -0.79447727
vn 0.68399414 0.25358241 -0.68399414
vn 0.68399414 0.25358241 -0.68399414
vn 0.55427533 0.25349876 -0.79279079
vn 0.79447727 0.25347013 -0.55186842
vn 0.87305852 0.25320036 -0.41672341
vn 0.87082065 0.25329503 -0.42132294
vn 0.79279079 0.25349876 -0.55427533
vn 0.92540873 0.25285869 -0.28227853
vn 0.96573041 0.25225858 -0.06107682
vn 0.96516541 0.25254849 -0.06837398
vn 0.92345774 0.25303057 -0.28844641
vn 0.96181362 0.25180138 0.10728757
vn 0.96249553 0.25216819 0.10006775
vn 0.93827109 0.25140898 0.23757293
vn 0.93986837 0.25183697 0.23070670
vn -0.10611536 0.25215404 -0.96185127
vn -0.11293480 0.25178563 -0.96117102
vn 0.04927462 0.25222683 -0.96641277
vn 0.05576306 0.25252058 -0.96598335
vn 0.26713431 0.25281827 -0.92990440
vn 0.27235012 0.25299652 -0.92834163
vn 0.40502107 0.25317255 -0.87855654
vn 0.40893480 0.25327216 -0.87671292
vn 0.79960887 0.25345842 -0.54441205
vn 0.79824230 0.25348935 -0.54639946
vn 0.92990440 0.25281827 -0.26713431
vn 0.92834163 0.25299652 -0.27235012
vn 0.96641277 0.25222683 -0.04927462
vn 0.96598335 0.25252058 -0.05576306
vn 0.96117102 0.25178563 0.11293480
vn 0.96185127 0.25215404 0.10611536
vn 0.54441205 0.25345842 -0.79960887
vn 0.54639946 0.25348935 -0.79824230
vn 0.87855654 0.25317255 -0.40502107
vn 0.87671292 0.25327216 -0.40893480
vn -0.14688818 -0.23412786 -0.96104527
vn -0.26888711 -0.23360345 -0.93441380
vn -0.23165990 -0.23593789 -0.94375156
vn -0.10655493 -0.23623741 -0.96583536
vn 0.05599471 -0.23658367 -0.96999627
vn 0.01299528 -0.23476642 -0.97196494
vn 0.27348583 -0.23703329 -0.93221281
vn 0.23340489 -0.23578365 -0.94336007
vn 0.41064380 -0.23729370 -0.88037683
vn 0.37881496 -0.23653753 -0.89473416
vn 0.54868687 -0.23749890 -0.80158405
vn 0.68685970 -0.23758681 -0.68685970
vn 0.68685970 -0.23758681 -0.68685970
vn 0.53101378 -0.23724667 -0.81347304
vn 0.80158405 -0.23749890 -0.54868687
vn 0.88037683 -0.23729370 -0.41064380
vn 0.89473416 -0.23653753 -0.37881496
vn 0.81347304 -0.23724667 -0.53101378
vn 0.93221281 -0.23703329 -0.27348583
vn 0.96999627 -0.23658367 -0.05599471
vn 0.97196494 -0.23476642 -0.01299528
vn 0.94336007 -0.23578365 -0.23340489
vn 0.96583536 -0.23623741 0.10655493
vn 0.96104527 -0.23412786 0.14688818
vn 0.94375156 -0.23593789 0.23165990
vn 0.93441380 -0.23360345 0.26888711
vn -0.10048231 -0.23625078 -0.96648273
vn 0.06865808 -0.23661003 -0.96917582
vn 0.28964958 -0.23706545 -0.92730960
vn 0.55659590 -0.23750779 -0.79610995
vn 0.87446060 -0.23731531 -0.42308404
vn 0.96917582 -0.23661003 -0.06865808
vn 0.96648273 -0.23625078 0.10048231
vn 0.42308404 -0.23731531 -0.87446060
vn 0.79610995 -0.23750779 -0.55659590
vn 0.92730960 -0.23706545 -0.28964958
s 1
usemtl Grass
f 17/17/17 18/18/18 20/20/20
f 20/20/20 21/21/21 43/43/43
f 21/21/21 44/44/44 22/22/22
f 23/23/23 24/24/24 44/44/44
f 25/25/25 45/45/45 24/24/24
f 26/26/26 25/25/25 27/27/27
f 27/27/27 30/30/30 50/50/50
f 28/28/28 46/46/46 30/30/30
f 28/28/28 34/34/34 51/51/51
f 47/47/47 34/34/34 31/31/31
f 31/31/31 32/32/32 33/33/33
f 32/32/32 38/38/38 52/52/52
f 48/48/48 38/38/38 35/35/35
f 36/36/36 37/37/37 48/48/48
f 49/49/49 36/36/36 39/39/39
f 39/39/39 42/42/42 40/40/40
f 39/39/39 41/41/41 42/42/42
f 39/39/39 40/40/40 49/49/49
f 49/49/49 37/37/37 36/36/36
f 48/48/48 35/35/35 36/36/36
f 32/32/32 35/35/35 38/38/38
f 52/52/52 33/33/33 32/32/32
f 31/31/31 33/33/33 47/47/47
f 51/51/51 29/29/29 28/28/28
f 28/28/28 31/31/31 34/34/34
f 28/28/28 29/29/29 46/46/46
f 30/30/30 27/27/27 28/28/28
f 27/27/27 50/50/50 26/26/26
f 25/25/25 26/26/26 45/45/45
f 24/24/24 23/23/23 25/25/25
f 21/21/21 23/23/23 44/44/44
f 21/21/21 22/22/22 43/43/43
f 18/18/18 19/19/19 20/20/20
f 20/20/20 43/43/43 17/17/17
s 2
f 20/66/66 19/53/53 53/55/55
f 21/65/65 53/55/55 36/57/57
f 23/64/64 36/57/57 35/58/58
f 35/58/58 32/59/59 23/64/64
f 32/59/59 28/61/61 25/63/63
f 28/61/61 27/62/62 25/63/63
f 32/59/59 31/60/60 28/61/61
f 32/59/59 25/63/63 23/64/64
f 23/64/64 21/65/65 36/57/57
f 53/55/55 39/56/56 36/57/57
f 53/55/55 41/54/54 39/56/56
f 21/65/65 20/66/66 53/55/55
s 3
f 55/68/68 18/69/69 17/93/93
f 54/67/67 17/93/93 43/70/70
f 67/95/95 54/67/67 22/94/94
f 22/94/94 44/71/71 67/95/95
f 56/72/72 44/71/71 24/96/96
f 24/96/96 45/73/73 68/97/97
f 57/74/74 45/73/73 26/98/98
f 26/98/98 50/75/75 69/99/99
f 58/76/76 50/75/75 30/108/108
f 30/108/108 46/77/77 74/109/109
f 46/77/77 60/80/80 74/109/109
f 29/78/78 70/100/100 60/80/80
f 29/78/78 62/84/84 75/110/110
f 71/102/102 62/84/84 51/81/81
f 51/81/81 34/101/101 71/102/102
f 34/101/101 47/82/82 61/83/83
f 47/82/82 33/111/111 76/112/112
f 33/111/111 64/88/88 76/112/112
f 72/104/104 64/88/88 52/85/85
f 52/85/85 38/103/103 72/104/104
f 38/103/103 48/86/86 63/87/87
f 48/86/86 37/105/105 73/106/106
f 37/105/105 65/90/90 73/106/106
f 49/89/89 40/107/107 65/90/90
f 40/107/107 42/91/91 66/92/92
f 40/107/107 66/92/92 65/90/90
f 37/105/105 49/89/89 65/90/90
f 73/106/106 63/87/87 48/86/86
f 38/103/103 63/87/87 72/104/104
f 33/111/111 52/85/85 64/88/88
f 76/112/112 61/83/83 47/82/82
f 34/101/101 61/83/83 71/102/102
f 75/110/110 59/79/79 29/78/78
f 29/78/78 51/81/81 62/84/84
f 29/78/78 59/79/79 70/100/100
f 60/80/80 46/77/77 29/78/78
f 74/109/109 58/76/76 30/108/108
f 50/75/75 58/76/76 69/99/99
f 69/99/99 57/74/74 26/98/98
f 45/73/73 57/74/74 68/97/97
f 68/97/97 56/72/72 24/96/96
f 44/71/71 56/72/72 67/95/95
f 54/67/67 43/70/70 22/94/94
f 54/67/67 55/68/68 17/93/93
s 4
f 78/114/114 55/115/115 54/140/140
f 90/139/139 54/140/140 67/116/116
f 77/113/113 67/116/116 56/141/141
f 91/142/142 56/141/141 68/117/117
f 79/118/118 68/117/117 57/143/143
f 92/144/144 57/143/143 69/119/119
f 80/120/120 69/119/119 58/145/145
f 93/146/146 58/145/145 74/121/121
f 81/122/122 74/121/121 60/155/155
f 98/156/156 60/155/155 70/123/123
f 70/123/123 59/124/124 83/126/126
f 59/124/124 85/130/130 82/125/125
f 75/127/127 94/148/148 85/130/130
f 62/147/147 84/129/129 94/148/148
f 71/128/128 99/158/158 84/129/129
f 61/157/157 87/134/134 99/158/158
f 76/131/131 95/150/150 87/134/134
f 64/149/149 86/133/133 95/150/150
f 72/132/132 96/152/152 86/133/133
f 63/151/151 88/136/136 96/152/152
f 73/135/135 97/154/154 88/136/136
f 65/153/153 89/138/138 97/154/154
f 65/153/153 66/137/137 89/138/138
f 73/135/135 65/153/153 97/154/154
f 63/151/151 73/135/135 88/136/136
f 72/132/132 63/151/151 96/152/152
f 64/149/149 72/132/132 86/133/133
f 76/131/131 64/149/149 95/150/150
f 61/157/157 76/131/131 87/134/134
f 71/128/128 61/157/157 99/158/158
f 62/147/147 71/128/128 84/129/129
f 75/127/127 62/147/147 94/148/148
f 59/124/124 75/127/127 85/130/130
f 59/124/124 82/125/125 83/126/126
f 70/123/123 83/126/126 98/156/156
f 98/156/156 81/122/122 60/155/155
f 74/121/121 81/122/122 93/146/146
f 93/146/146 80/120/120 58/145/145
f 69/119/119 80/120/120 92/144/144
f 92/144/144 79/118/118 57/143/143
f 68/117/117 79/118/118 91/142/142
f 91/142/142 77/113/113 56/141/141
f 77/113/113 90/139/139 67/116/116
f 90/139/139 78/114/114 54/140/140
s 5
f 100/159/159 101/160/160 78/161/161
f 77/185/185 102/164/164 100/159/159
f 79/186/186 103/166/166 102/164/164
f 104/168/168 103/166/166 80/187/187
f 106/172/172 104/168/168 81/192/192
f 81/192/192 98/169/169 106/172/172
f 105/171/171 106/172/172 83/188/188
f 82/170/170 85/193/193 105/171/171
f 85/193/193 94/173/173 108/176/176
f 84/189/189 107/175/175 108/176/176
f 99/174/174 87/194/194 107/175/175
f 87/194/194 95/177/177 110/180/180
f 86/190/190 109/179/179 110/180/180
f 88/191/191 111/182/182 109/179/179
f 89/183/183 112/184/184 111/182/182
f 97/181/181 89/183/183 111/182/182
f 88/191/191 97/181/181 111/182/182
f 109/179/179 96/178/178 88/191/191
f 86/190/190 96/178/178 109/179/179
f 110/180/180 95/177/177 86/190/190
f 87/194/194 110/180/180 107/175/175
f 84/189/189 99/174/174 107/175/175
f 94/173/173 84/189/189 108/176/176
f 85/193/193 108/176/176 105/171/171
f 83/188/188 82/170/170 105/171/171
f 106/172/172 98/169/169 83/188/188
f 104/168/168 93/167/167 81/192/192
f 80/187/187 93/167/167 104/168/168
f 103/166/166 92/165/165 80/187/187
f 79/186/186 92/165/165 103/166/166
f 102/164/164 91/163/163 79/186/186
f 77/185/185 91/163/163 102/164/164
f 100/159/159 90/162/162 77/185/185
f 100/159/159 78/161/161 90/162/162
