mtllib Terrain_Hill_Corner_Inner_2x2.mtl
o object1
g object1
v 0.00000000 0.50000000 -0.50000000
v 0.50000000 0.50000000 -0.00000000
v 0.50000000 0.50000000 -0.50000000
v 0.01253660 0.50000000 -0.38873711
v 0.04951593 0.50000000 -0.28305738
v 0.10908448 0.50000000 -0.18825482
v 0.18825482 0.50000000 -0.10908448
v 0.28305738 0.50000000 -0.04951593
v 0.38873711 0.50000000 -0.01253660
v -0.50000000 0.75000000 -0.50000000
v -0.47492681 0.75000000 -0.27747423
v -0.40096815 0.75000000 -0.06611476
v -0.28183103 0.75000000 0.12349037
v -0.12349037 0.75000000 0.28183103
v 0.06611476 0.75000000 0.40096815
v 0.27747423 0.75000000 0.47492681
v 0.50000000 0.75000000 0.50000000
v -1.50000000 1.00000000 -0.50000000
v -1.44985362 1.00000000 -0.05494846
v -1.30193629 1.00000000 0.36777048
v -1.06366206 1.00000000 0.74698074
v -0.74698074 1.00000000 1.06366206
v -0.36777048 1.00000000 1.30193629
v 0.05494846 1.00000000 1.44985362
v 0.50000000 1.00000000 1.50000000
v -1.50000000 1.00000000 1.50000000
vt 0.00000000 0.00000000
vt 1.00000000 1.00000000
vt 0.00000000 1.00000000
vt 0.22252076 0.02507205
vt 0.43388296 0.09903075
vt 0.62348957 0.21816833
vt 0.78183167 0.37651043
vt 0.90096925 0.56611704
vt 0.97492795 0.77747924
vt 0.15223841 1.00000000
vt 0.00000000 1.00000000
vt 0.00000000 0.00000000
vt 0.15223841 0.00000000
vt 0.29490376 0.00000000
vt 0.29490376 1.00000000
vt 0.43221016 0.00000000
vt 0.43221016 1.00000000
vt 0.56778984 0.00000000
vt 0.56778984 1.00000000
vt 0.70509624 0.00000000
vt 0.70509624 1.00000000
vt 0.84776159 0.00000000
vt 0.84776159 1.00000000
vt 1.00000000 0.00000000
vt 1.00000000 1.00000000
vt 0.15223841 1.00000000
vt 0.00000000 1.00000000
vt 0.00000000 0.00000000
vt 0.15223841 0.00000000
vt 0.29490376 0.00000000
vt 0.29490376 1.00000000
vt 0.43221016 0.00000000
vt 0.43221016 1.00000000
vt 0.56778984 0.00000000
vt 0.56778984 1.00000000
vt 0.70509624 0.00000000
vt 0.70509624 1.00000000
vt 0.84776159 0.00000000
vt 0.84776159 1.00000000
vt 1.00000000 0.00000000
vt 1.00000000 1.00000000
vt 1.00000000 1.00000000
vt 0.00000000 0.00000000
vt 1.00000000 0.00000000
vt 0.97492795 0.77747924
vt 0.90096925 0.56611704
vt 0.78183167 0.37651043
vt 0.62348957 0.21816833
vt 0.43388296 0.09903075
vt 0.22252076 0.02507205
vn -0.00000000 1.00000000 0.00000000
vn -0.00000000 1.00000000 0.00000000
vn -0.00000000 1.00000000 0.00000000
vn -0.00000000 1.00000000 0.00000000
vn -0.00000000 1.00000000 0.00000000
vn -0.00000000 1.00000000 0.00000000
vn -0.00000000 1.00000000 0.00000000
vn -0.00000000 1.00000000 0.00000000
vn -0.00000000 1.00000000 0.00000000
vn 0.43600103 0.89442719 -0.09951431
vn 0.44721360 0.89442719 0.00000000
vn 0.44721360 0.89442719 0.00000000
vn 0.43600103 0.89442719 -0.09951431
vn 0.40292570 0.89442719 -0.19403835
vn 0.40292570 0.89442719 -0.19403835
vn 0.34964575 0.89442719 -0.27883302
vn 0.34964575 0.89442719 -0.27883302
vn 0.27883302 0.89442719 -0.34964575
vn 0.27883302 0.89442719 -0.34964575
vn 0.19403835 0.89442719 -0.40292570
vn 0.19403835 0.89442719 -0.40292570
vn 0.09951431 0.89442719 -0.43600103
vn 0.09951431 0.89442719 -0.43600103
vn 0.00000000 0.89442719 -0.44721360
vn 0.00000000 0.89442719 -0.44721360
vn 0.23645476 0.97014250 -0.05396921
vn 0.24253563 0.97014250 0.00000000
vn 0.24253563 0.97014250 0.00000000
vn 0.23645476 0.97014250 -0.05396921
vn 0.21851714 0.97014250 -0.10523207
vn 0.21851714 0.97014250 -0.10523207
vn 0.18962203 0.97014250 -0.15121843
vn 0.18962203 0.97014250 -0.15121843
vn 0.15121843 0.97014250 -0.18962203
vn 0.15121843 0.97014250 -0.18962203
vn 0.10523207 0.97014250 -0.21851714
vn 0.10523207 0.97014250 -0.21851714
vn 0.05396921 0.97014250 -0.23645476
vn 0.05396921 0.97014250 -0.23645476
vn 0.00000000 0.97014250 -0.24253563
vn 0.00000000 0.97014250 -0.24253563
vn -0.00000000 1.00000000 0.00000000
vn -0.00000000 1.00000000 0.00000000
vn -0.00000000 1.00000000 0.00000000
vn -0.00000000 1.00000000 0.00000000
vn -0.00000000 1.00000000 0.00000000
vn -0.00000000 1.00000000 0.00000000
vn -0.00000000 1.00000000 0.00000000
vn -0.00000000 1.00000000 0.00000000
vn -0.00000000 1.00000000 0.00000000
s 1
usemtl Grass
f 9/9/9 2/2/2 3/3/3
f 1/1/1 4/4/4 3/3/3
f 4/4/4 5/5/5 3/3/3
f 5/5/5 6/6/6 3/3/3
f 6/6/6 7/7/7 3/3/3
f 7/7/7 8/8/8 3/3/3
f 8/8/8 9/9/9 3/3/3
s 2
f 4/10/10 1/11/11 11/13/13
f 11/13/13 12/14/14 5/15/15
f 12/14/14 6/17/17 5/15/15
f 13/16/16 7/19/19 6/17/17
f 14/18/18 8/21/21 7/19/19
f 15/20/20 9/23/23 8/21/21
f 16/22/22 2/25/25 9/23/23
f 16/22/22 17/24/24 2/25/25
f 15/20/20 16/22/22 9/23/23
f 14/18/18 15/20/20 8/21/21
f 13/16/16 14/18/18 7/19/19
f 12/14/14 13/16/16 6/17/17
f 1/11/11 10/12/12 11/13/13
f 11/13/13 5/15/15 4/10/10
s 3
f 11/26/26 10/27/27 19/29/29
f 19/29/29 20/30/30 12/31/31
f 20/30/30 13/33/33 12/31/31
f 21/32/32 14/35/35 13/33/33
f 22/34/34 15/37/37 14/35/35
f 23/36/36 16/39/39 15/37/37
f 24/38/38 17/41/41 16/39/39
f 24/38/38 25/40/40 17/41/41
f 23/36/36 24/38/38 16/39/39
f 22/34/34 23/36/36 15/37/37
f 21/32/32 22/34/34 14/35/35
f 20/30/30 21/32/32 13/33/33
f 10/27/27 18/28/28 19/29/29
f 19/29/29 12/31/31 11/26/26
s 4
f 26/44/44 25/42/42 24/45/45
f 19/50/50 18/43/43 26/44/44
f 26/44/44 20/49/49 19/50/50
f 26/44/44 21/48/48 20/49/49
f 26/44/44 22/47/47 21/48/48
f 26/44/44 23/46/46 22/47/47
f 26/44/44 24/45/45 23/46/46
