mtllib Terrain_Water_Corner_Outer_2x2.mtl
o object1
g object1
v 1.50000000 0.00000000 -1.50000000
v 1.50000000 0.00000000 1.50000000
v -1.50000000 0.00000000 1.50000000
v -1.50000000 0.00000000 -1.50000000
vt 0.00000000 0.00000000
vt 1.00000000 0.00000000
vt 1.00000000 1.00000000
vt 0.00000000 1.00000000
vn 0.00000000 1.00000000 0.00000000
vn 0.00000000 1.00000000 0.00000000
vn 0.00000000 1.00000000 0.00000000
vn 0.00000000 1.00000000 0.00000000
s 1
usemtl Water
f 4/4/4 3/3/3 2/2/2
f 4/4/4 2/2/2 1/1/1
o object2
g object2
v -0.18384881 0.45000000 1.19959021
v -0.15000000 0.45000000 1.50000000
v -0.50000000 0.50000000 1.50000000
v -0.52507319 0.50000000 1.27747423
v -0.28369300 0.45000000 0.91425493
v -0.59903185 0.50000000 1.06611476
v -0.44452811 0.45000000 0.65828800
v -0.71816897 0.50000000 0.87650963
v -0.65828800 0.45000000 0.44452811
v -0.87650963 0.50000000 0.71816897
v -0.91425493 0.45000000 0.28369300
v -1.06611476 0.50000000 0.59903185
v -1.19959021 0.45000000 0.18384881
v -1.27747423 0.50000000 0.52507319
v -1.50000000 0.50000000 0.50000000
v -1.50000000 0.45000000 0.15000000
v -1.50000000 0.50000000 1.50000000
v 0.10862923 0.30000000 1.13283248
v 0.15000000 0.30000000 1.50000000
v -0.01340256 0.30000000 0.78408935
v -0.20997880 0.30000000 0.47124089
v -0.47124089 0.30000000 0.20997880
v -0.78408935 0.30000000 0.01340256
v -1.13283248 0.30000000 -0.10862923
v -1.50000000 0.30000000 -0.15000000
v 0.64483898 -0.25000000 1.01044330
v 0.70000000 -0.25000000 1.50000000
v 0.48212992 -0.25000000 0.54545247
v 0.22002827 -0.25000000 0.12832119
v -0.12832119 -0.25000000 -0.22002827
v -0.54545247 -0.25000000 -0.48212992
v -1.01044330 -0.25000000 -0.64483898
v -1.50000000 -0.25000000 -0.70000000
v 0.93731702 -0.40000000 0.94368557
v 1.00000000 -0.40000000 1.50000000
v 0.75242036 -0.40000000 0.41528690
v 0.45457758 -0.40000000 -0.05872592
v 0.05872592 -0.40000000 -0.45457758
v -0.41528690 -0.40000000 -0.75242036
v -0.94368557 -0.40000000 -0.93731702
v -1.50000000 -0.40000000 -1.00000000
vt 0.15223841 1.00000000
vt 0.00000000 1.00000000
vt 0.00000000 0.00000000
vt 0.15223841 0.00000000
vt 0.29490376 1.00000000
vt 0.29490376 0.00000000
vt 0.43221016 1.00000000
vt 0.43221016 0.00000000
vt 0.56778984 1.00000000
vt 0.56778984 0.00000000
vt 0.70509624 1.00000000
vt 0.70509624 0.00000000
vt 0.84776159 1.00000000
vt 0.84776159 0.00000000
vt 1.00000000 0.00000000
vt 1.00000000 1.00000000
vt 0.00000000 1.00000000
vt 0.00000000 0.00000000
vt 1.00000000 0.00000000
vt 0.97492795 0.22252076
vt 0.90096925 0.43388296
vt 0.78183167 0.62348957
vt 0.62348957 0.78183167
vt 0.43388296 0.90096925
vt 0.22252076 0.97492795
vt 0.15223841 1.00000000
vt 0.00000000 1.00000000
vt 0.00000000 0.00000000
vt 0.15223841 0.00000000
vt 0.29490376 1.00000000
vt 0.29490376 0.00000000
vt 0.43221016 1.00000000
vt 0.43221016 0.00000000
vt 0.56778984 1.00000000
vt 0.56778984 0.00000000
vt 0.70509624 1.00000000
vt 0.70509624 0.00000000
vt 0.84776159 1.00000000
vt 0.84776159 0.00000000
vt 1.00000000 0.00000000
vt 1.00000000 1.00000000
vt 0.15223841 1.00000000
vt 0.00000000 1.00000000
vt 0.00000000 0.00000000
vt 0.15223841 0.00000000
vt 0.29490376 1.00000000
vt 0.29490376 0.00000000
vt 0.43221016 1.00000000
vt 0.43221016 0.00000000
vt 0.56778984 1.00000000
vt 0.56778984 0.00000000
vt 0.70509624 1.00000000
vt 0.70509624 0.00000000
vt 0.84776159 1.00000000
vt 0.84776159 0.00000000
vt 1.00000000 0.00000000
vt 1.00000000 1.00000000
vt 0.15223841 1.00000000
vt 0.00000000 1.00000000
vt 0.00000000 0.00000000
vt 0.15223841 0.00000000
vt 0.29490376 1.00000000
vt 0.29490376 0.00000000
vt 0.43221016 1.00000000
vt 0.43221016 0.00000000
vt 0.56778984 1.00000000
vt 0.56778984 0.00000000
vt 0.70509624 1.00000000
vt 0.70509624 0.00000000
vt 0.84776159 1.00000000
vt 0.84776159 0.00000000
vt 1.00000000 0.00000000
vt 1.00000000 1.00000000
vn 0.13787563 0.98994949 -0.03146919
vn 0.14142136 0.98994949 -0.00000000
vn 0.14142136 0.98994949 -0.00000000
vn 0.13787563 0.98994949 -0.03146919
vn 0.12741629 0.98994949 -0.06136031
vn 0.12741629 0.98994949 -0.06136031
vn 0.11056769 0.98994949 -0.08817474
vn 0.11056769 0.98994949 -0.08817474
vn 0.08817474 0.98994949 -0.11056769
vn 0.08817474 0.98994949 -0.11056769
vn 0.06136031 0.98994949 -0.12741629
vn 0.06136031 0.98994949 -0.12741629
vn 0.03146919 0.98994949 -0.13787563
vn 0.03146919 0.98994949 -0.13787563
vn -0.00000000 0.98994949 -0.14142136
vn -0.00000000 0.98994949 -0.14142136
vn 0.00000000 1.00000000 0.00000000
vn 0.00000000 1.00000000 0.00000000
vn 0.00000000 1.00000000 0.00000000
vn 0.00000000 1.00000000 0.00000000
vn 0.00000000 1.00000000 0.00000000
vn 0.00000000 1.00000000 0.00000000
vn 0.00000000 1.00000000 0.00000000
vn 0.00000000 1.00000000 0.00000000
vn 0.00000000 1.00000000 0.00000000
vn 0.43600103 0.89442719 -0.09951431
vn 0.44721360 0.89442719 -0.00000000
vn 0.44721360 0.89442719 -0.00000000
vn 0.43600103 0.89442719 -0.09951431
vn 0.40292570 0.89442719 -0.19403835
vn 0.40292570 0.89442719 -0.19403835
vn 0.34964575 0.89442719 -0.27883302
vn 0.34964575 0.89442719 -0.27883302
vn 0.27883302 0.89442719 -0.34964575
vn 0.27883302 0.89442719 -0.34964575
vn 0.19403835 0.89442719 -0.40292570
vn 0.19403835 0.89442719 -0.40292570
vn 0.09951431 0.89442719 -0.43600103
vn 0.09951431 0.89442719 -0.43600103
vn -0.00000000 0.89442719 -0.44721360
vn -0.00000000 0.89442719 -0.44721360
vn 0.68937817 0.70710678 -0.15734594
vn 0.70710678 0.70710678 -0.00000000
vn 0.70710678 0.70710678 -0.00000000
vn 0.68937817 0.70710678 -0.15734594
vn 0.63708147 0.70710678 -0.30680157
vn 0.63708147 0.70710678 -0.30680157
vn 0.55283847 0.70710678 -0.44087371
vn 0.55283847 0.70710678 -0.44087371
vn 0.44087371 0.70710678 -0.55283847
vn 0.44087371 0.70710678 -0.55283847
vn 0.30680157 0.70710678 -0.63708147
vn 0.30680157 0.70710678 -0.63708147
vn 0.15734594 0.70710678 -0.68937817
vn 0.15734594 0.70710678 -0.68937817
vn -0.00000000 0.70710678 -0.70710678
vn -0.00000000 0.70710678 -0.70710678
vn 0.43600103 0.89442719 -0.09951431
vn 0.44721360 0.89442719 -0.00000000
vn 0.44721360 0.89442719 -0.00000000
vn 0.43600103 0.89442719 -0.09951431
vn 0.40292570 0.89442719 -0.19403835
vn 0.40292570 0.89442719 -0.19403835
vn 0.34964575 0.89442719 -0.27883302
vn 0.34964575 0.89442719 -0.27883302
vn 0.27883302 0.89442719 -0.34964575
vn 0.27883302 0.89442719 -0.34964575
vn 0.19403835 0.89442719 -0.40292570
vn 0.19403835 0.89442719 -0.40292570
vn 0.09951431 0.89442719 -0.43600103
vn 0.09951431 0.89442719 -0.43600103
vn -0.00000000 0.89442719 -0.44721360
vn -0.00000000 0.89442719 -0.44721360
s 1
usemtl Grass
f 8/8/8 7/7/7 6/6/6
f 10/10/10 8/8/8 5/5/5
f 12/12/12 10/10/10 9/9/9
f 14/14/14 12/12/12 11/11/11
f 16/16/16 14/14/14 13/13/13
f 18/18/18 16/16/16 15/15/15
f 20/20/20 19/19/19 18/18/18
f 17/17/17 20/20/20 18/18/18
f 18/18/18 15/15/15 17/17/17
f 16/16/16 13/13/13 15/15/15
f 14/14/14 11/11/11 13/13/13
f 12/12/12 9/9/9 11/11/11
f 10/10/10 5/5/5 9/9/9
f 8/8/8 6/6/6 5/5/5
s 2
f 18/29/29 19/21/21 21/22/22
f 21/22/22 7/23/23 8/24/24
f 8/24/24 10/25/25 21/22/22
f 10/25/25 12/26/26 21/22/22
f 12/26/26 14/27/27 21/22/22
f 14/27/27 16/28/28 21/22/22
f 16/28/28 18/29/29 21/22/22
s 3
f 5/33/33 6/32/32 23/31/31
f 9/35/35 5/33/33 22/30/30
f 11/37/37 9/35/35 24/34/34
f 13/39/39 11/37/37 25/36/36
f 15/41/41 13/39/39 26/38/38
f 17/43/43 15/41/41 27/40/40
f 29/45/45 20/44/44 17/43/43
f 28/42/42 29/45/45 17/43/43
f 17/43/43 27/40/40 28/42/42
f 15/41/41 26/38/38 27/40/40
f 13/39/39 25/36/36 26/38/38
f 11/37/37 24/34/34 25/36/36
f 9/35/35 22/30/30 24/34/34
f 5/33/33 23/31/31 22/30/30
s 4
f 22/49/49 23/48/48 31/47/47
f 24/51/51 22/49/49 30/46/46
f 25/53/53 24/51/51 32/50/50
f 26/55/55 25/53/53 33/52/52
f 27/57/57 26/55/55 34/54/54
f 28/59/59 27/57/57 35/56/56
f 37/61/61 29/60/60 28/59/59
f 36/58/58 37/61/61 28/59/59
f 28/59/59 35/56/56 36/58/58
f 27/57/57 34/54/54 35/56/56
f 26/55/55 33/52/52 34/54/54
f 25/53/53 32/50/50 33/52/52
f 24/51/51 30/46/46 32/50/50
f 22/49/49 31/47/47 30/46/46
s 5
f 30/65/65 31/64/64 39/63/63
f 32/67/67 30/65/65 38/62/62
f 33/69/69 32/67/67 40/66/66
f 34/71/71 33/69/69 41/68/68
f 35/73/73 34/71/71 42/70/70
f 36/75/75 35/73/73 43/72/72
f 45/77/77 37/76/76 36/75/75
f 44/74/74 45/77/77 36/75/75
f 36/75/75 43/72/72 44/74/74
f 35/73/73 42/70/70 43/72/72
f 34/71/71 41/68/68 42/70/70
f 33/69/69 40/66/66 41/68/68
f 32/67/67 38/62/62 40/66/66
f 30/65/65 39/63/63 38/62/62
