mtllib Terrain_Hill_Side_1x1.mtl
o object1
g object1
v -0.50000000 1.00000000 -0.50000000
v -0.50000000 1.00000000 0.50000000
v 0.50000000 0.75000000 0.50000000
v 0.50000000 0.75000000 -0.50000000
v 1.00000000 0.50000000 0.50000000
v 1.00000000 0.50000000 -0.50000000
v 1.50000000 0.50000000 -0.50000000
v 1.50000000 0.50000000 0.50000000
vt 0.00000000 0.00000000
vt 1.00000000 0.00000000
vt 1.00000000 1.00000000
vt 0.00000000 1.00000000
vt 0.00000000 0.00000000
vt 1.00000000 0.00000000
vt 1.00000000 1.00000000
vt 0.00000000 1.00000000
vt 0.00000000 0.00000000
vt 1.00000000 0.00000000
vt 1.00000000 1.00000000
vt 0.00000000 1.00000000
vn 0.24253563 0.97014250 -0.00000000
vn 0.24253563 0.97014250 -0.00000000
vn 0.24253563 0.97014250 -0.00000000
vn 0.24253563 0.97014250 -0.00000000
vn 0.44721360 0.89442719 -0.00000000
vn 0.44721360 0.89442719 -0.00000000
vn 0.44721360 0.89442719 -0.00000000
vn 0.44721360 0.89442719 -0.00000000
vn 0.00000000 1.00000000 0.00000000
vn 0.00000000 1.00000000 0.00000000
vn 0.00000000 1.00000000 0.00000000
vn 0.00000000 1.00000000 0.00000000
s 1
usemtl Grass
f 1/1/1 2/2/2 3/3/3
f 1/1/1 3/3/3 4/4/4
s 2
f 4/5/5 3/6/6 5/7/7
f 4/5/5 5/7/7 6/8/8
s 3
f 5/12/12 8/11/11 7/10/10
f 5/12/12 7/10/10 6/9/9
