mtllib Track_Normal_Curve_Outer_4x5.mtl
o object1
g object1
v 2.78671307 0.05000000 0.60324319
v 3.50000000 0.05000000 0.65000000
v 3.50000000 -0.00000000 0.50000000
v 2.80635182 -0.00000000 0.45453375
v 2.08568312 0.05000000 0.46193856
v 2.12538509 -0.00000000 0.31728807
v 1.41091678 0.05000000 0.22283603
v 1.47147974 -0.00000000 0.08560577
v 0.78052312 0.05000000 -0.11894990
v 0.86294193 -0.00000000 -0.24427828
v 0.21962083 0.05000000 -0.56851774
v 0.32456194 -0.00000000 -0.67569692
v -0.23635448 0.05000000 -1.12711032
v -0.10981045 -0.00000000 -1.20764839
v -0.41449376 0.05000000 -1.45227184
v -0.27839216 -0.00000000 -1.51532636
v -0.62381099 0.05000000 -2.14602042
v -0.54147135 0.05000000 -1.78306049
v -0.39807229 -0.00000000 -1.82706917
v -0.47543695 -0.00000000 -2.16804582
v -0.50000000 0.00000000 -2.50000000
v -0.65000000 0.05000000 -2.50000000
v 2.77739487 0.05000000 0.60200445
v 2.06830861 0.05000000 0.45713724
v 1.38806545 0.05000000 0.21267601
v 0.75609951 0.05000000 -0.13513764
v 0.19850229 0.05000000 -0.58937435
v -0.24962214 0.05000000 -1.14815495
v -0.54567232 0.05000000 -1.79688962
v -0.42260580 0.05000000 -1.46995144
v -0.62481176 0.05000000 -2.15282896
v 2.75843896 0.25000000 0.74363533
v 3.50000000 0.25000000 0.79289322
v 2.02999821 0.25000000 0.59479911
v 1.32966129 0.25000000 0.34308862
v 0.67671766 0.25000000 -0.01632245
v 0.09765227 0.25000000 -0.48814323
v -0.37082543 0.25000000 -1.07247110
v -0.55269092 0.25000000 -1.41082576
v -0.76621485 0.25000000 -2.13224725
v -0.68251440 0.25000000 -1.75574641
v -0.79289322 0.25000000 -2.50000000
v 2.74326095 0.25000000 0.74158274
v 2.00178469 0.25000000 0.58686264
v 1.29279646 0.25000000 0.32638791
v 0.63772824 0.25000000 -0.04268990
v 0.06445276 0.25000000 -0.52166272
v -0.39130671 0.25000000 -1.10574422
v -0.68888155 0.25000000 -1.77725143
v -0.76773811 0.25000000 -2.14286899
v 2.69490605 0.45000000 1.09540197
v 3.50000000 0.45000000 1.15000000
v 1.90410681 0.45000000 0.93035106
v 1.14404927 0.45000000 0.65104120
v 0.43597767 0.45000000 0.25196633
v -0.19093408 0.45000000 -0.27205791
v -0.69662898 0.45000000 -0.92053448
v -1.03171819 0.45000000 -1.67730879
v -1.12133214 0.45000000 -2.09290646
v -1.15000000 0.45000000 -2.50000000
v 2.67432585 0.45000000 1.09255270
v 1.86601557 0.45000000 0.91937215
v 1.09464747 0.45000000 0.62808234
v 0.38428856 0.45000000 0.21604166
v -0.23427454 0.45000000 -0.31713117
v -0.72287820 0.45000000 -0.96455507
v -1.03974718 0.45000000 -1.70535604
v -1.12325956 0.45000000 -2.10678914
v 2.62570812 0.50000000 1.43916089
v 3.49514867 0.50000000 1.50000000
v 3.50000000 0.50000000 1.50000000
v 1.76787301 0.50000000 1.25533053
v 0.94543377 0.50000000 0.94468239
v 0.18249033 0.50000000 0.50200969
v -0.48851414 0.50000000 -0.07658650
v -1.02486650 0.50000000 -0.78762971
v -1.37669259 0.50000000 -1.61065672
v -1.47004709 0.50000000 -2.05948076
v -1.50000000 0.50000000 -2.50000000
v -1.50000000 0.50000000 -2.49858617
v -1.50000000 0.50000000 1.50000000
vt 0.11923241 1.00000000
vt 0.00000000 1.00000000
vt 0.00000000 0.00000000
vt 0.11923241 0.00000000
vt 0.23349032 1.00000000
vt 0.23349032 0.00000000
vt 0.34614774 1.00000000
vt 0.34614774 0.00000000
vt 0.46042281 1.00000000
vt 0.46042281 0.00000000
vt 0.57962393 1.00000000
vt 0.57962393 0.00000000
vt 0.70723272 1.00000000
vt 0.70723272 0.00000000
vt 0.77689841 1.00000000
vt 0.77689841 0.00000000
vt 0.92328205 1.00000000
vt 0.84656410 1.00000000
vt 0.84656410 0.00000000
vt 0.92328205 0.00000000
vt 1.00000000 0.00000000
vt 1.00000000 1.00000000
vt 0.12075821 1.00000000
vt 0.23633260 1.00000000
vt 0.35008713 1.00000000
vt 0.46516335 1.00000000
vt 0.58468540 1.00000000
vt 0.71180772 1.00000000
vt 0.84947021 1.00000000
vt 0.78063897 1.00000000
vt 0.92473511 1.00000000
vt 0.12075821 1.00000000
vt 0.00000000 1.00000000
vt 0.00000000 0.00000000
vt 0.12075821 0.00000000
vt 0.23633259 1.00000000
vt 0.23633259 0.00000000
vt 0.35008712 1.00000000
vt 0.35008712 0.00000000
vt 0.46516333 1.00000000
vt 0.46516333 0.00000000
vt 0.58468540 1.00000000
vt 0.58468540 0.00000000
vt 0.71180772 1.00000000
vt 0.71180772 0.00000000
vt 0.78063896 1.00000000
vt 0.78063896 0.00000000
vt 0.92473510 1.00000000
vt 0.84947021 1.00000000
vt 0.84947021 0.00000000
vt 0.92473510 0.00000000
vt 1.00000000 0.00000000
vt 1.00000000 1.00000000
vt 0.11923241 0.00000000
vt 0.12317992 1.00000000
vt 0.23349031 0.00000000
vt 0.24082546 1.00000000
vt 0.34614772 0.00000000
vt 0.35627211 1.00000000
vt 0.46042279 0.00000000
vt 0.47252919 1.00000000
vt 0.57962393 0.00000000
vt 0.59243225 1.00000000
vt 0.70723272 0.00000000
vt 0.71867552 1.00000000
vt 0.77689841 0.00000000
vt 0.85375007 1.00000000
vt 0.92328205 0.00000000
vt 0.84656410 0.00000000
vt 0.92687503 1.00000000
vt 0.12317991 1.00000000
vt 0.00000000 1.00000000
vt 0.00000000 0.00000000
vt 0.12317991 0.00000000
vt 0.24082548 1.00000000
vt 0.24082548 0.00000000
vt 0.35627213 1.00000000
vt 0.35627213 0.00000000
vt 0.47252920 1.00000000
vt 0.47252920 0.00000000
vt 0.59243225 1.00000000
vt 0.59243225 0.00000000
vt 0.71867552 1.00000000
vt 0.71867552 0.00000000
vt 0.85375006 1.00000000
vt 0.85375006 0.00000000
vt 0.92687503 1.00000000
vt 0.92687503 0.00000000
vt 1.00000000 0.00000000
vt 1.00000000 1.00000000
vt 0.12075821 0.00000000
vt 0.12626031 1.00000000
vt 0.23633260 0.00000000
vt 0.24650432 1.00000000
vt 0.35008713 0.00000000
vt 0.36401325 1.00000000
vt 0.46516335 0.00000000
vt 0.48161262 1.00000000
vt 0.58468540 0.00000000
vt 0.60178811 1.00000000
vt 0.71180772 0.00000000
vt 0.72676326 1.00000000
vt 0.78063897 0.00000000
vt 0.84947021 0.00000000
vt 0.85867241 1.00000000
vt 0.92473511 0.00000000
vt 0.92933620 1.00000000
vt 0.12626033 1.00000000
vt 0.00072265 1.00000000
vt 0.00000000 1.00000000
vt 0.00000000 0.00000000
vt 0.12626033 0.00000000
vt 0.24650432 0.00000000
vt 0.24650432 1.00000000
vt 0.36401323 0.00000000
vt 0.36401323 1.00000000
vt 0.48161264 0.00000000
vt 0.48161264 1.00000000
vt 0.60178811 0.00000000
vt 0.60178811 1.00000000
vt 0.72676326 0.00000000
vt 0.72676326 1.00000000
vt 0.85867240 0.00000000
vt 0.85867240 1.00000000
vt 0.92933620 0.00000000
vt 0.92933620 1.00000000
vt 1.00000000 0.00000000
vt 1.00000000 1.00000000
vt 0.99976927 1.00000000
vt 0.12317992 0.00000000
vt 0.24082546 0.00000000
vt 0.35627211 0.00000000
vt 0.47252919 0.00000000
vt 0.59243225 0.00000000
vt 0.71867552 0.00000000
vt 0.85375007 0.00000000
vt 0.92687503 0.00000000
vt 1.00000000 0.00000000
vt 0.00000000 1.00000000
vt 0.00000000 0.00000000
vt 0.82594584 0.01521466
vt 0.65421305 0.06118765
vt 0.48956185 0.13887844
vt 0.33682316 0.24958731
vt 0.20249272 0.39428721
vt 0.09511809 0.57211157
vt 0.02468516 0.77794035
vt 0.00599610 0.89018762
vn 0.04139683 0.94868367 -0.31350533
vn -0.00017662 0.94868328 -0.31622776
vn -0.00018779 0.94868328 -0.31622776
vn 0.04139675 0.94868367 -0.31350534
vn 0.08368749 0.94868332 -0.30495305
vn 0.08368705 0.94868332 -0.30495317
vn 0.12768764 0.94868333 -0.28930227
vn 0.12768845 0.94868333 -0.28930192
vn 0.17374709 0.94868343 -0.26421905
vn 0.17374706 0.94868343 -0.26421907
vn 0.22122811 0.94868333 -0.22596033
vn 0.22122741 0.94868333 -0.22596101
vn 0.26678004 0.94868282 -0.16979199
vn 0.26678032 0.94868282 -0.16979155
vn 0.28694093 0.94868228 -0.13291665
vn 0.28693995 0.94868228 -0.13291876
vn 0.31280095 0.94868324 -0.04642922
vn 0.30231115 0.94868341 -0.09277795
vn 0.30231112 0.94868341 -0.09277807
vn 0.31280080 0.94868324 -0.04643020
vn 0.31622777 0.94868330 0.00003057
vn 0.31622777 0.94868330 0.00003849
vn 0.04194320 0.94868367 -0.31343270
vn 0.08477184 0.94868331 -0.30465343
vn 0.12925940 0.94868335 -0.28860338
vn 0.17566240 0.94868343 -0.26294956
vn 0.22318571 0.94868329 -0.22402715
vn 0.26822561 0.94868286 -0.16749882
vn 0.30283627 0.94868341 -0.09104938
vn 0.28789578 0.94868217 -0.13083642
vn 0.31293123 0.94868323 -0.04554321
vn 0.10792190 0.58133689 -0.80647399
vn -0.00042851 0.58133532 -0.81366397
vn -0.00045446 0.58133531 -0.81366396
vn 0.10792142 0.58133689 -0.80647405
vn 0.21812157 0.58133543 -0.78388271
vn 0.21812063 0.58133543 -0.78388297
vn 0.33258663 0.58133559 -0.74258674
vn 0.33258862 0.58133559 -0.74258585
vn 0.45198591 0.58133590 -0.67657764
vn 0.45198526 0.58133590 -0.67657808
vn 0.57426499 0.58133532 -0.57642776
vn 0.57426385 0.58133532 -0.57642889
vn 0.69015034 0.58133359 -0.43098001
vn 0.69015118 0.58133359 -0.43097865
vn 0.74076163 0.58133078 -0.33664035
vn 0.74075998 0.58133078 -0.33664400
vn 0.80518193 0.58133508 -0.11718183
vn 0.77920795 0.58133581 -0.23427258
vn 0.77920780 0.58133581 -0.23427307
vn 0.80518161 0.58133508 -0.11718406
vn 0.81366404 0.58133537 0.00009904
vn 0.81366404 0.58133537 0.00011621
vn 0.10651559 0.58133689 -0.80666092
vn 0.11015637 0.58133687 -0.80617183
vn 0.21533058 0.58133546 -0.78465395
vn 0.22254181 0.58133539 -0.78263932
vn 0.32854439 0.58133550 -0.74438405
vn 0.33894006 0.58133572 -0.73970833
vn 0.44705708 0.58133589 -0.67984450
vn 0.45964281 0.58133587 -0.67139936
vn 0.56922702 0.58133549 -0.58140318
vn 0.58192235 0.58133499 -0.56869676
vn 0.68643154 0.58133343 -0.43687891
vn 0.69565669 0.58133399 -0.42203384
vn 0.73830363 0.58133124 -0.34199670
vn 0.78115119 0.58133574 -0.22770941
vn 0.80484647 0.58133515 -0.11946381
vn 0.77785669 0.58133584 -0.23872077
vn 0.80566340 0.58133498 -0.11382498
vn 0.06615486 0.87248578 -0.48414058
vn -0.00022165 0.87248495 -0.48864093
vn -0.00025734 0.87248494 -0.48864093
vn 0.06615361 0.87248578 -0.48414075
vn 0.13364704 0.87248498 -0.47000897
vn 0.13364613 0.87248498 -0.47000923
vn 0.20354576 0.87248516 -0.44422828
vn 0.20354830 0.87248516 -0.44422712
vn 0.27603745 0.87248524 -0.40320321
vn 0.27603552 0.87248524 -0.40320453
vn 0.34947063 0.87248477 -0.34152688
vn 0.34947003 0.87248477 -0.34152749
vn 0.41777168 0.87248422 -0.25345237
vn 0.41777298 0.87248422 -0.25345022
vn 0.46911559 0.87248517 -0.13674864
vn 0.46911536 0.87248517 -0.13674943
vn 0.48383681 0.87248476 -0.06835413
vn 0.48383641 0.87248476 -0.06835692
vn 0.48864094 0.87248497 0.00006979
vn 0.48864094 0.87248497 0.00009112
vn 0.06481173 0.87248579 -0.48432219
vn 0.06786540 0.87248576 -0.48390380
vn 0.13099157 0.87248500 -0.47075591
vn 0.13701233 0.87248497 -0.46903902
vn 0.19973282 0.87248509 -0.44595580
vn 0.20832716 0.87248524 -0.44200599
vn 0.27143721 0.87248526 -0.40631430
vn 0.28170826 0.87248518 -0.39926191
vn 0.34487133 0.87248495 -0.34617017
vn 0.35496768 0.87248456 -0.33581043
vn 0.41446636 0.87248401 -0.25882290
vn 0.42159375 0.87248457 -0.24704127
vn 0.44486210 0.87248249 -0.20216831
vn 0.46794832 0.87248521 -0.14069089
vn 0.47041650 0.87248512 -0.13220453
vn 0.48354721 0.87248482 -0.07037285
vn 0.48415871 0.87248470 -0.06603635
vn 0.01964193 0.98994957 -0.14005016
vn 0.00005515 0.98994948 -0.14142143
vn -0.00005516 0.98994949 -0.14142136
vn -0.00006415 0.98994949 -0.14142136
vn 0.01964144 0.98994957 -0.14005023
vn 0.03965380 0.98994949 -0.13574821
vn 0.03965380 0.98994949 -0.13574821
vn 0.06029356 0.98994952 -0.12792434
vn 0.06029312 0.98994952 -0.12792454
vn 0.08153135 0.98994951 -0.11555345
vn 0.08153201 0.98994951 -0.11555299
vn 0.10273399 0.98994945 -0.09718954
vn 0.10273395 0.98994945 -0.09718958
vn 0.12201676 0.98994945 -0.07149816
vn 0.12201649 0.98994945 -0.07149861
vn 0.13614686 0.98994951 -0.03826233
vn 0.13614690 0.98994951 -0.03826217
vn 0.14012416 0.98994947 -0.01911210
vn 0.14012424 0.98994947 -0.01911151
vn 0.14142136 0.98994949 0.00002637
vn 0.14142136 0.98994949 0.00003111
vn 0.14142133 0.98994950 -0.00003110
vn 0.01914638 0.98994957 -0.14011875
vn 0.03867982 0.98994949 -0.13602893
vn 0.05890974 0.98994951 -0.12856752
vn 0.07989011 0.98994952 -0.11669413
vn 0.10114302 0.98994947 -0.09884396
vn 0.12091063 0.98994942 -0.07335367
vn 0.13577034 0.98994951 -0.03957747
vn 0.14003099 0.98994947 -0.01978290
vn 0.00000000 1.00000000 0.00000000
vn 0.00000000 1.00000000 0.00000000
vn 0.00000000 1.00000000 0.00000000
vn 0.00000000 1.00000000 0.00000000
vn 0.00000000 1.00000000 0.00000000
vn 0.00000000 1.00000000 0.00000000
vn 0.00000000 1.00000000 0.00000000
vn 0.00000000 1.00000000 0.00000000
vn 0.00000000 1.00000000 0.00000000
vn 0.00000000 1.00000000 0.00000000
vn 0.00000000 1.00000000 0.00000000
s 1
usemtl Dirt
f 1/1/1 2/2/2 4/4/4
f 2/2/2 3/3/3 4/4/4
f 23/23/23 1/1/1 6/6/6
f 24/24/24 5/5/5 6/6/6
f 8/8/8 7/7/7 24/24/24
f 25/25/25 7/7/7 8/8/8
f 10/10/10 9/9/9 25/25/25
f 26/26/26 10/10/10 12/12/12
f 27/27/27 12/12/12 14/14/14
f 28/28/28 13/13/13 14/14/14
f 16/16/16 15/15/15 28/28/28
f 30/30/30 15/15/15 16/16/16
f 19/19/19 18/18/18 30/30/30
f 29/29/29 18/18/18 19/19/19
f 20/20/20 17/17/17 29/29/29
f 21/21/21 31/31/31 17/17/17
f 21/21/21 22/22/22 31/31/31
f 17/17/17 20/20/20 21/21/21
f 19/19/19 20/20/20 29/29/29
f 16/16/16 19/19/19 30/30/30
f 14/14/14 16/16/16 28/28/28
f 13/13/13 27/27/27 14/14/14
f 27/27/27 11/11/11 12/12/12
f 12/12/12 11/11/11 26/26/26
f 26/26/26 9/9/9 10/10/10
f 8/8/8 10/10/10 25/25/25
f 6/6/6 8/8/8 24/24/24
f 6/6/6 5/5/5 23/23/23
f 1/1/1 4/4/4 6/6/6
s 2
usemtl Grass
f 33/33/33 2/34/34 1/54/54
f 32/32/32 1/54/54 23/35/35
f 43/55/55 32/32/32 5/56/56
f 43/55/55 5/56/56 24/37/37
f 34/36/36 24/37/37 7/58/58
f 7/58/58 25/39/39 44/57/57
f 35/38/38 25/39/39 9/60/60
f 9/60/60 26/41/41 45/59/59
f 46/61/61 26/41/41 11/62/62
f 37/42/42 11/62/62 27/43/43
f 47/63/63 27/43/43 13/64/64
f 38/44/44 13/64/64 28/45/45
f 48/65/65 38/44/44 15/66/66
f 15/66/66 30/47/47 48/65/65
f 39/46/46 30/47/47 18/69/69
f 41/49/49 18/69/69 29/50/50
f 49/67/67 41/49/49 17/68/68
f 17/68/68 31/51/51 49/67/67
f 40/48/48 31/51/51 22/52/52
f 22/52/52 42/53/53 50/70/70
f 22/52/52 50/70/70 40/48/48
f 31/51/51 40/48/48 49/67/67
f 41/49/49 29/50/50 17/68/68
f 41/49/49 39/46/46 18/69/69
f 30/47/47 39/46/46 48/65/65
f 38/44/44 28/45/45 15/66/66
f 38/44/44 47/63/63 13/64/64
f 47/63/63 37/42/42 27/43/43
f 37/42/42 46/61/61 11/62/62
f 46/61/61 36/40/40 26/41/41
f 26/41/41 36/40/40 45/59/59
f 45/59/59 35/38/38 9/60/60
f 25/39/39 35/38/38 44/57/57
f 44/57/57 34/36/36 7/58/58
f 24/37/37 34/36/36 43/55/55
f 32/32/32 23/35/35 5/56/56
f 32/32/32 33/33/33 1/54/54
s 3
f 52/72/72 33/73/73 32/91/91
f 51/71/71 32/91/91 43/74/74
f 61/92/92 51/71/71 34/93/93
f 61/92/92 34/93/93 44/76/76
f 53/75/75 44/76/76 35/95/95
f 62/94/94 35/95/95 45/78/78
f 54/77/77 45/78/78 36/97/97
f 36/97/97 46/80/80 63/96/96
f 55/79/79 46/80/80 37/99/99
f 37/99/99 47/82/82 64/98/98
f 56/81/81 47/82/82 38/101/101
f 38/101/101 48/84/84 65/100/100
f 57/83/83 48/84/84 39/103/103
f 66/102/102 57/83/83 41/104/104
f 41/104/104 49/86/86 66/102/102
f 58/85/85 49/86/86 40/106/106
f 40/106/106 50/88/88 67/105/105
f 59/87/87 50/88/88 42/89/89
f 42/89/89 60/90/90 68/107/107
f 42/89/89 68/107/107 59/87/87
f 50/88/88 59/87/87 67/105/105
f 67/105/105 58/85/85 40/106/106
f 49/86/86 58/85/85 66/102/102
f 57/83/83 39/103/103 41/104/104
f 48/84/84 57/83/83 65/100/100
f 65/100/100 56/81/81 38/101/101
f 47/82/82 56/81/81 64/98/98
f 64/98/98 55/79/79 37/99/99
f 46/80/80 55/79/79 63/96/96
f 63/96/96 54/77/77 36/97/97
f 45/78/78 54/77/77 62/94/94
f 62/94/94 53/75/75 35/95/95
f 44/76/76 53/75/75 61/92/92
f 51/71/71 43/74/74 34/93/93
f 51/71/71 52/72/72 32/91/91
s 4
f 71/110/110 52/111/111 51/130/130
f 70/109/109 51/130/130 61/112/112
f 69/108/108 61/112/112 53/131/131
f 53/131/131 62/113/113 72/114/114
f 73/116/116 72/114/114 54/132/132
f 55/133/133 74/118/118 73/116/116
f 56/134/134 75/120/120 74/118/118
f 76/122/122 75/120/120 57/135/135
f 77/124/124 76/122/122 58/136/136
f 78/126/126 77/124/124 59/137/137
f 80/129/129 78/126/126 60/127/127
f 60/127/127 79/128/128 80/129/129
f 78/126/126 68/125/125 60/127/127
f 59/137/137 68/125/125 78/126/126
f 77/124/124 67/123/123 59/137/137
f 58/136/136 67/123/123 77/124/124
f 76/122/122 66/121/121 58/136/136
f 57/135/135 66/121/121 76/122/122
f 75/120/120 65/119/119 57/135/135
f 56/134/134 65/119/119 75/120/120
f 74/118/118 64/117/117 56/134/134
f 55/133/133 64/117/117 74/118/118
f 73/116/116 63/115/115 55/133/133
f 54/132/132 63/115/115 73/116/116
f 72/114/114 62/113/113 54/132/132
f 72/114/114 69/108/108 53/131/131
f 61/112/112 69/108/108 70/109/109
f 70/109/109 71/110/110 51/130/130
s 5
f 78/148/148 80/139/139 81/140/140
f 70/138/138 69/141/141 81/140/140
f 69/141/141 72/142/142 81/140/140
f 72/142/142 73/143/143 81/140/140
f 73/143/143 74/144/144 81/140/140
f 74/144/144 75/145/145 81/140/140
f 75/145/145 76/146/146 81/140/140
f 76/146/146 77/147/147 81/140/140
f 77/147/147 78/148/148 81/140/140
