mtllib Track_Normal_Curve_Outer_5x6.mtl
o object1
g object1
v 3.42957823 0.50000000 1.42032395
v 4.49964008 0.50000000 1.50000000
v 4.50000000 0.50000000 1.50000000
v 4.50000000 0.45000000 1.15000000
v 3.48152929 0.45000000 1.07420066
v 2.38256797 0.50000000 1.18033932
v 2.48696178 0.45000000 0.84627056
v 1.38507832 0.50000000 0.77751801
v 1.54258496 0.45000000 0.46496114
v 0.46868235 0.50000000 0.20941014
v 0.67939595 0.45000000 -0.07005343
v -0.32698644 0.50000000 -0.52296115
v -0.06506505 0.45000000 -0.75511766
v -0.95365304 0.50000000 -1.40871821
v -0.64691146 0.45000000 -1.57726727
v -1.35909336 0.50000000 -2.41873892
v -1.02067775 0.45000000 -2.50803194
v -1.15000000 0.45000000 -3.50000000
v -1.50000000 0.50000000 -3.50000000
v -1.50000000 0.50000000 -3.49915255
v 3.49855249 0.45000000 1.07673353
v 2.51815738 0.45000000 0.85593192
v 1.58244963 0.45000000 0.48486550
v 0.72022774 0.45000000 -0.03957262
v -0.03170474 0.45000000 -0.71786839
v -0.62724868 0.45000000 -1.54188402
v -1.01479469 0.45000000 -2.48598691
v -1.11729198 0.45000000 -2.99888970
v -1.50000000 0.50000000 1.50000000
v 4.50000000 0.25000000 0.79289322
v 3.55066217 0.25000000 0.72344881
v 2.62294823 0.25000000 0.51454628
v 1.74077777 0.25000000 0.16477557
v 0.93251831 0.25000000 -0.32672774
v 0.23305719 0.25000000 -0.95750563
v -0.31590946 0.25000000 -1.71678981
v -0.67003667 0.25000000 -2.57907670
v -0.76320740 0.25000000 -3.04525270
v -0.79289322 0.25000000 -3.50000000
v 3.56313271 0.25000000 0.72527568
v 2.64591597 0.25000000 0.52154637
v 1.77025562 0.25000000 0.17925066
v 0.96294223 0.25000000 -0.30441374
v 0.25816158 0.25000000 -0.92999772
v -0.30095258 0.25000000 -1.69040600
v -0.66551868 0.25000000 -2.56249737
v -0.76212876 0.25000000 -3.03708902
v 4.50000000 0.05000000 0.65000000
v 3.58370728 0.05000000 0.58387130
v 2.68730996 0.05000000 0.38478008
v 1.83286157 0.05000000 0.05080231
v 1.04703046 0.05000000 -0.41994580
v 0.36330237 0.05000000 -1.02676473
v -0.17691205 0.05000000 -1.76134410
v -0.52774515 0.05000000 -2.60040158
v -0.62048859 0.05000000 -3.05597190
v -0.65000000 0.05000000 -3.50000000
v 3.59130746 0.05000000 0.58497237
v 2.70133869 0.05000000 0.38900686
v 1.85096443 0.05000000 0.05958574
v 1.06583647 0.05000000 -0.40632736
v 0.37897204 0.05000000 -1.00982844
v -0.16746908 0.05000000 -1.74492797
v -0.52486461 0.05000000 -2.58999265
v -0.61980148 0.05000000 -3.05084791
v 4.50000000 -0.00000000 0.50000000
v 3.61272429 -0.00000000 0.43650902
v 2.74443993 -0.00000000 0.24533260
v 1.91619150 -0.00000000 -0.07548994
v 1.15353435 -0.00000000 -0.52801998
v 0.48880144 -0.00000000 -1.11199245
v -0.03762898 -0.00000000 -1.82003660
v -0.38036311 -0.00000000 -2.63023098
v -0.47114733 -0.00000000 -3.07089718
v -0.50000000 -0.00000000 -3.50000000
vt 0.12663463 1.00000000
vt 0.00004388 1.00000000
vt 0.00000000 1.00000000
vt 0.00000000 0.00000000
vt 0.12663463 0.00000000
vt 0.24711453 1.00000000
vt 0.24711453 0.00000000
vt 0.36467720 1.00000000
vt 0.36467720 0.00000000
vt 0.48212616 1.00000000
vt 0.48212616 0.00000000
vt 0.60199688 1.00000000
vt 0.60199688 0.00000000
vt 0.72666851 1.00000000
vt 0.72666851 0.00000000
vt 0.85848787 1.00000000
vt 0.85848787 0.00000000
vt 1.00000000 0.00000000
vt 1.00000000 1.00000000
vt 0.99988585 1.00000000
vt 0.12456477 0.00000000
vt 0.24332027 0.00000000
vt 0.35955573 0.00000000
vt 0.47619473 0.00000000
vt 0.59597707 0.00000000
vt 0.72153685 0.00000000
vt 0.85539512 0.00000000
vt 0.92769756 0.00000000
vt 0.00000000 0.00000000
vt 1.00000000 1.00000000
vt 0.00000000 1.00000000
vt 0.82164985 0.98406285
vt 0.64713697 0.93605834
vt 0.48087525 0.85547912
vt 0.32813144 0.74183649
vt 0.19551304 0.59533790
vt 0.09106234 0.41815568
vt 0.02348552 0.21611786
vt 0.12456476 1.00000000
vt 0.00000000 1.00000000
vt 0.00000000 0.00000000
vt 0.12456476 0.00000000
vt 0.24332028 0.00000000
vt 0.24332028 1.00000000
vt 0.35955573 0.00000000
vt 0.35955573 1.00000000
vt 0.47619472 0.00000000
vt 0.47619472 1.00000000
vt 0.59597707 0.00000000
vt 0.59597707 1.00000000
vt 0.72153685 0.00000000
vt 0.72153685 1.00000000
vt 0.85539512 0.00000000
vt 0.85539512 1.00000000
vt 0.92769756 0.00000000
vt 0.92769756 1.00000000
vt 1.00000000 0.00000000
vt 1.00000000 1.00000000
vt 0.12295971 0.00000000
vt 0.24036757 0.00000000
vt 0.12663461 1.00000000
vt 0.35554181 0.00000000
vt 0.24711454 1.00000000
vt 0.47149798 0.00000000
vt 0.36467719 1.00000000
vt 0.59114526 0.00000000
vt 0.48212614 1.00000000
vt 0.71735441 0.00000000
vt 0.60199688 1.00000000
vt 0.85283956 0.00000000
vt 0.72666851 1.00000000
vt 0.92641978 0.00000000
vt 0.85848788 1.00000000
vt 0.12295970 1.00000000
vt 0.00000000 1.00000000
vt 0.00000000 0.00000000
vt 0.12295970 0.00000000
vt 0.24036758 0.00000000
vt 0.24036758 1.00000000
vt 0.35554183 0.00000000
vt 0.35554183 1.00000000
vt 0.47149800 0.00000000
vt 0.47149800 1.00000000
vt 0.59114526 0.00000000
vt 0.59114526 1.00000000
vt 0.71735441 0.00000000
vt 0.71735441 1.00000000
vt 0.85283956 0.00000000
vt 0.85283956 1.00000000
vt 0.92641978 0.00000000
vt 0.92641978 1.00000000
vt 1.00000000 0.00000000
vt 1.00000000 1.00000000
vt 0.12195954 0.00000000
vt 0.23852090 0.00000000
vt 0.12456477 1.00000000
vt 0.35301932 0.00000000
vt 0.24332027 1.00000000
vt 0.46852439 0.00000000
vt 0.35955573 1.00000000
vt 0.58805749 0.00000000
vt 0.47619473 1.00000000
vt 0.71465034 0.00000000
vt 0.59597707 1.00000000
vt 0.85116980 0.00000000
vt 0.72153685 1.00000000
vt 0.92558490 0.00000000
vt 0.85539512 1.00000000
vt 0.92769756 1.00000000
vt 0.12195953 1.00000000
vt 0.00000000 1.00000000
vt 0.00000000 0.00000000
vt 0.12195953 0.00000000
vt 0.23852088 0.00000000
vt 0.23852088 1.00000000
vt 0.35301930 0.00000000
vt 0.35301930 1.00000000
vt 0.46852438 0.00000000
vt 0.46852438 1.00000000
vt 0.58805749 0.00000000
vt 0.58805749 1.00000000
vt 0.71465035 0.00000000
vt 0.71465035 1.00000000
vt 0.85116980 0.00000000
vt 0.85116980 1.00000000
vt 0.92558490 0.00000000
vt 0.92558490 1.00000000
vt 1.00000000 0.00000000
vt 1.00000000 1.00000000
vt 0.12295971 1.00000000
vt 0.24036757 1.00000000
vt 0.35554181 1.00000000
vt 0.47149798 1.00000000
vt 0.59114526 1.00000000
vt 0.71735441 1.00000000
vt 0.85283956 1.00000000
vt 0.92641978 1.00000000
vn 0.02098955 0.98994951 -0.13985492
vn 0.00000352 0.98994949 -0.14142136
vn -0.00000352 0.98994949 -0.14142136
vn -0.00000399 0.98994949 -0.14142136
vn 0.02098947 0.98994951 -0.13985494
vn 0.04217973 0.98994949 -0.13498470
vn 0.04217964 0.98994949 -0.13498473
vn 0.06364483 0.98994950 -0.12629059
vn 0.06364512 0.98994950 -0.12629045
vn 0.08513370 0.98994950 -0.11292580
vn 0.08513331 0.98994950 -0.11292609
vn 0.10583823 0.98994945 -0.09379955
vn 0.10583818 0.98994945 -0.09379961
vn 0.12393816 0.98994943 -0.06811362
vn 0.12393840 0.98994943 -0.06811318
vn 0.13674494 0.98994936 -0.03607050
vn 0.13674466 0.98994936 -0.03607156
vn 0.14142136 0.98994949 0.00001245
vn 0.14142136 0.98994949 0.00001436
vn 0.14142135 0.98994949 -0.00001436
vn 0.02063553 0.98994951 -0.13990759
vn 0.04149563 0.98994950 -0.13519656
vn 0.06270353 0.98994950 -0.12676060
vn 0.08406377 0.98994950 -0.11372452
vn 0.10485652 0.98994947 -0.09489555
vn 0.12329363 0.98994941 -0.06927375
vn 0.13653503 0.98994938 -0.03685658
vn 0.14022440 0.98994951 -0.01836010
vn -0.00000000 1.00000000 0.00000000
vn -0.00000000 1.00000000 0.00000000
vn -0.00000000 1.00000000 0.00000000
vn -0.00000000 1.00000000 0.00000000
vn -0.00000000 1.00000000 0.00000000
vn -0.00000000 1.00000000 0.00000000
vn -0.00000000 1.00000000 0.00000000
vn -0.00000000 1.00000000 0.00000000
vn -0.00000000 1.00000000 0.00000000
vn -0.00000000 1.00000000 0.00000000
vn 0.07130018 0.87248518 -0.48341068
vn -0.00001377 0.87248497 -0.48864094
vn -0.00001560 0.87248497 -0.48864094
vn 0.07130003 0.87248518 -0.48341070
vn 0.14337538 0.87248499 -0.46713321
vn 0.14337627 0.87248499 -0.46713294
vn 0.21665560 0.87248506 -0.43798422
vn 0.21665410 0.87248506 -0.43798496
vn 0.29045698 0.87248505 -0.39294347
vn 0.29045827 0.87248505 -0.39294252
vn 0.36230105 0.87248467 -0.32788480
vn 0.36230153 0.87248467 -0.32788427
vn 0.42600632 0.87248406 -0.23935367
vn 0.42600537 0.87248406 -0.23935535
vn 0.47175574 0.87248379 -0.12735210
vn 0.47175707 0.87248379 -0.12734718
vn 0.48450520 0.87248511 -0.06343853
vn 0.48450526 0.87248511 -0.06343807
vn 0.48864094 0.87248497 0.00003493
vn 0.48864094 0.87248497 0.00004301
vn 0.07035276 0.87248518 -0.48354947
vn 0.14153903 0.87248501 -0.46769286
vn 0.07252308 0.87248518 -0.48322873
vn 0.21410551 0.87248503 -0.43923649
vn 0.14573964 0.87248498 -0.46640103
vn 0.28752653 0.87248504 -0.39509283
vn 0.21990748 0.87248509 -0.43636049
vn 0.35955572 0.87248481 -0.33089265
vn 0.29415377 0.87248506 -0.39018378
vn 0.42416623 0.87248392 -0.24260012
vn 0.36569329 0.87248451 -0.32409750
vn 0.47114503 0.87248396 -0.12959204
vn 0.42823328 0.87248427 -0.23534539
vn 0.48435542 0.87248511 -0.06457211
vn 0.47248128 0.87248359 -0.12463476
vn 0.11714844 0.58133576 -0.80518630
vn -0.00002597 0.58133537 -0.81366405
vn -0.00002728 0.58133537 -0.81366405
vn 0.11714843 0.58133576 -0.80518630
vn 0.23568394 0.58133544 -0.77878250
vn 0.23568479 0.58133544 -0.77878224
vn 0.35652065 0.58133549 -0.73139734
vn 0.35651943 0.58133549 -0.73139794
vn 0.47877630 0.58133550 -0.65789231
vn 0.47877700 0.58133550 -0.65789180
vn 0.59871612 0.58133507 -0.55098871
vn 0.59871664 0.58133507 -0.55098814
vn 0.70630261 0.58133343 -0.40396542
vn 0.70630199 0.58133343 -0.40396650
vn 0.78452791 0.58133351 -0.21579461
vn 0.78452898 0.58133351 -0.21579070
vn 0.80652818 0.58133563 -0.10752295
vn 0.80652820 0.58133563 -0.10752275
vn 0.81366405 0.58133537 0.00005197
vn 0.81366405 0.58133537 0.00005816
vn 0.11616623 0.58133576 -0.80532859
vn 0.23377380 0.58133546 -0.77935800
vn 0.11872583 0.58133576 -0.80495522
vn 0.35385156 0.58133546 -0.73269240
vn 0.23874257 0.58133541 -0.77785032
vn 0.47568356 0.58133548 -0.66013196
vn 0.36076573 0.58133553 -0.72931275
vn 0.59577709 0.58133521 -0.55416517
vn 0.48365667 0.58133552 -0.65431280
vn 0.70430219 0.58133330 -0.40744328
vn 0.60328788 0.58133482 -0.54597945
vn 0.78385370 0.58133372 -0.21823033
vn 0.70936623 0.58133369 -0.39856078
vn 0.80636277 0.58133563 -0.10875644
vn 0.78554564 0.58133319 -0.21206078
vn 0.80677760 0.58133562 -0.10563517
vn 0.04514758 0.94868339 -0.31298804
vn -0.00001060 0.94868330 -0.31622777
vn -0.00001116 0.94868330 -0.31622777
vn 0.04514760 0.94868339 -0.31298804
vn 0.09085497 0.94868332 -0.30289492
vn 0.09085538 0.94868332 -0.30289480
vn 0.13752372 0.94868332 -0.28475812
vn 0.13752318 0.94868332 -0.28475838
vn 0.18487254 0.94868332 -0.25655817
vn 0.18487277 0.94868332 -0.25655800
vn 0.23154652 0.94868326 -0.21537476
vn 0.23154680 0.94868326 -0.21537446
vn 0.27372572 0.94868279 -0.15835152
vn 0.27372548 0.94868279 -0.15835192
vn 0.30464232 0.94868289 -0.08481644
vn 0.30464281 0.94868289 -0.08481468
vn 0.31339003 0.94868336 -0.04226784
vn 0.31339003 0.94868336 -0.04226781
vn 0.31622777 0.94868330 0.00001744
vn 0.31622777 0.94868330 0.00002020
vn 0.04552932 0.94868339 -0.31293274
vn 0.09159775 0.94868332 -0.30267114
vn 0.13856051 0.94868333 -0.28425505
vn 0.18607474 0.94868333 -0.25568757
vn 0.23268909 0.94868322 -0.21413998
vn 0.27450289 0.94868282 -0.15700023
vn 0.30490494 0.94868284 -0.08386807
vn 0.31345432 0.94868336 -0.04178841
s 1
usemtl Grass
f 3/3/3 4/4/4 21/21/21
f 2/2/2 21/21/21 5/5/5
f 1/1/1 5/5/5 22/22/22
f 6/6/6 22/22/22 7/7/7
f 8/8/8 6/6/6 23/23/23
f 10/10/10 8/8/8 24/24/24
f 12/12/12 10/10/10 25/25/25
f 14/14/14 12/12/12 26/26/26
f 16/16/16 14/14/14 27/27/27
f 20/20/20 16/16/16 28/28/28
f 28/28/28 18/18/18 19/19/19
f 28/28/28 19/19/19 20/20/20
f 16/16/16 17/17/17 28/28/28
f 16/16/16 27/27/27 17/17/17
f 14/14/14 15/15/15 27/27/27
f 14/14/14 26/26/26 15/15/15
f 12/12/12 13/13/13 26/26/26
f 12/12/12 25/25/25 13/13/13
f 10/10/10 11/11/11 25/25/25
f 10/10/10 24/24/24 11/11/11
f 8/8/8 9/9/9 24/24/24
f 8/8/8 23/23/23 9/9/9
f 6/6/6 7/7/7 23/23/23
f 6/6/6 1/1/1 22/22/22
f 5/5/5 1/1/1 2/2/2
f 2/2/2 3/3/3 21/21/21
s 2
f 16/38/38 20/29/29 29/31/31
f 29/31/31 2/30/30 1/32/32
f 1/32/32 6/33/33 29/31/31
f 6/33/33 8/34/34 29/31/31
f 8/34/34 10/35/35 29/31/31
f 10/35/35 12/36/36 29/31/31
f 12/36/36 14/37/37 29/31/31
f 14/37/37 16/38/38 29/31/31
s 3
f 4/40/40 30/41/41 40/59/59
f 21/39/39 40/59/59 31/42/42
f 5/61/61 21/39/39 41/60/60
f 41/60/60 32/43/43 5/61/61
f 22/44/44 32/43/43 42/62/62
f 42/62/62 33/45/45 7/63/63
f 23/46/46 33/45/45 43/64/64
f 43/64/64 34/47/47 9/65/65
f 24/48/48 34/47/47 44/66/66
f 44/66/66 35/49/49 11/67/67
f 25/50/50 35/49/49 45/68/68
f 45/68/68 36/51/51 13/69/69
f 26/52/52 36/51/51 46/70/70
f 46/70/70 37/53/53 15/71/71
f 27/54/54 37/53/53 47/72/72
f 47/72/72 38/55/55 17/73/73
f 38/55/55 39/57/57 28/56/56
f 39/57/57 18/58/58 28/56/56
f 38/55/55 28/56/56 17/73/73
f 47/72/72 17/73/73 27/54/54
f 37/53/53 27/54/54 15/71/71
f 46/70/70 15/71/71 26/52/52
f 36/51/51 26/52/52 13/69/69
f 45/68/68 13/69/69 25/50/50
f 35/49/49 25/50/50 11/67/67
f 44/66/66 11/67/67 24/48/48
f 34/47/47 24/48/48 9/65/65
f 43/64/64 9/65/65 23/46/46
f 33/45/45 23/46/46 7/63/63
f 7/63/63 22/44/44 42/62/62
f 32/43/43 22/44/44 5/61/61
f 21/39/39 31/42/42 41/60/60
f 21/39/39 4/40/40 40/59/59
s 4
f 30/75/75 48/76/76 58/94/94
f 40/74/74 58/94/94 49/77/77
f 31/96/96 40/74/74 59/95/95
f 59/95/95 50/78/78 31/96/96
f 41/79/79 50/78/78 60/97/97
f 60/97/97 51/80/80 32/98/98
f 42/81/81 51/80/80 61/99/99
f 61/99/99 52/82/82 33/100/100
f 43/83/83 52/82/82 62/101/101
f 62/101/101 53/84/84 34/102/102
f 44/85/85 53/84/84 63/103/103
f 63/103/103 54/86/86 35/104/104
f 45/87/87 54/86/86 64/105/105
f 64/105/105 55/88/88 36/106/106
f 46/89/89 55/88/88 65/107/107
f 65/107/107 56/90/90 37/108/108
f 47/91/91 56/90/90 57/92/92
f 57/92/92 39/93/93 38/109/109
f 57/92/92 38/109/109 47/91/91
f 56/90/90 47/91/91 37/108/108
f 65/107/107 37/108/108 46/89/89
f 55/88/88 46/89/89 36/106/106
f 64/105/105 36/106/106 45/87/87
f 54/86/86 45/87/87 35/104/104
f 63/103/103 35/104/104 44/85/85
f 53/84/84 44/85/85 34/102/102
f 62/101/101 34/102/102 43/83/83
f 52/82/82 43/83/83 33/100/100
f 61/99/99 33/100/100 42/81/81
f 51/80/80 42/81/81 32/98/98
f 60/97/97 32/98/98 41/79/79
f 50/78/78 41/79/79 31/96/96
f 40/74/74 49/77/77 59/95/95
f 40/74/74 30/75/75 58/94/94
s 5
usemtl Dirt
f 58/110/110 48/111/111 67/113/113
f 67/113/113 68/114/114 49/130/130
f 68/114/114 50/131/131 59/115/115
f 69/116/116 60/117/117 50/131/131
f 69/116/116 51/132/132 60/117/117
f 70/118/118 61/119/119 51/132/132
f 70/118/118 52/133/133 61/119/119
f 71/120/120 62/121/121 52/133/133
f 71/120/120 53/134/134 62/121/121
f 72/122/122 63/123/123 53/134/134
f 72/122/122 54/135/135 63/123/123
f 73/124/124 64/125/125 54/135/135
f 73/124/124 55/136/136 64/125/125
f 74/126/126 65/127/127 55/136/136
f 75/128/128 56/137/137 65/127/127
f 75/128/128 57/129/129 56/137/137
f 65/127/127 74/126/126 75/128/128
f 73/124/124 74/126/126 55/136/136
f 72/122/122 73/124/124 54/135/135
f 71/120/120 72/122/122 53/134/134
f 70/118/118 71/120/120 52/133/133
f 69/116/116 70/118/118 51/132/132
f 68/114/114 69/116/116 50/131/131
f 68/114/114 59/115/115 49/130/130
f 48/111/111 66/112/112 67/113/113
f 67/113/113 49/130/130 58/110/110
