mtllib Track_Normal_Esse_2x4.mtl
o object1
g object1
v 1.81026989 0.05000000 -0.40207560
v 2.50000000 0.05000000 -0.35000000
v 2.50000000 -0.00000000 -0.50000000
v 1.81047833 -0.00000000 -0.55385991
v 1.13734718 -0.00000000 -0.71334526
v 1.13614549 0.05000000 -0.55720374
v 0.48740674 -0.00000000 -0.95138623
v 0.48486941 0.05000000 -0.79143721
v -0.15392232 -0.00000000 -1.21211336
v -0.15642499 0.05000000 -1.05245896
v -0.81371915 -0.00000000 -1.42021258
v -0.81441880 0.05000000 -1.26586832
v -1.49805360 -0.00000000 -1.50000000
v -1.50000000 -0.00000000 -1.50000000
v -1.50000000 0.05000000 -1.35000000
v 1.81031137 0.05000000 -0.40206924
v 1.13617318 0.05000000 -0.55719533
v 0.48489630 0.05000000 -0.79142639
v -0.15631770 0.05000000 -1.05241720
v 1.81011284 0.25000000 -0.25747644
v 2.50000000 0.25000000 -0.20710678
v 1.13502848 0.25000000 -0.40845175
v 0.48247922 0.25000000 -0.63905561
v -0.15870199 0.25000000 -0.90032650
v -0.81508478 0.25000000 -1.11883630
v -1.50000000 0.25000000 -1.20710678
v 1.90812627 0.25000000 -0.24399959
v 1.32569898 0.25000000 -0.35571845
v 0.75960987 0.25000000 -0.53302000
v 0.20770547 0.25000000 -0.75101333
v -0.34338941 0.25000000 -0.97086622
v -0.91137664 0.25000000 -1.14135319
v 1.90778580 0.45000000 0.11626141
v 2.50000000 0.45000000 0.15000000
v 1.32371903 0.45000000 0.01277759
v 0.75478606 0.45000000 -0.15535634
v 0.20114733 0.45000000 -0.36893412
v -0.34833866 0.45000000 -0.59336974
v -0.91253274 0.45000000 -0.77614836
v -1.50000000 0.45000000 -0.85000000
v 1.90775003 0.45000000 0.11625726
v 1.32368696 0.45000000 0.01276993
v 0.75476112 0.45000000 -0.15536504
v 0.20105225 0.45000000 -0.36897330
v 1.90741622 0.50000000 0.46934907
v 2.49684420 0.50000000 0.50000000
v 2.50000000 0.50000000 0.50000000
v 1.32174631 0.50000000 0.37393305
v 0.75003352 0.50000000 0.21478320
v 0.19462644 0.50000000 0.00550299
v -0.35319005 0.50000000 -0.22338634
v -0.91366583 0.50000000 -0.41821165
v -1.50000000 0.50000000 -0.50000000
v -1.50000000 0.50000000 0.50000000
vt 0.16666008 1.00000000
vt 0.00000000 1.00000000
vt 0.00000000 0.00000000
vt 0.16666008 0.00000000
vt 0.33332776 0.00000000
vt 0.33332776 1.00000000
vt 0.49999739 0.00000000
vt 0.49999739 1.00000000
vt 0.66668737 0.00000000
vt 0.66668737 1.00000000
vt 0.83333672 0.00000000
vt 0.83333672 1.00000000
vt 0.99953147 0.00000000
vt 1.00000000 0.00000000
vt 1.00000000 1.00000000
vt 0.16664997 1.00000000
vt 0.33332079 1.00000000
vt 0.49999041 1.00000000
vt 0.66665965 1.00000000
vt 0.16664997 1.00000000
vt 0.00000000 1.00000000
vt 0.00000000 0.00000000
vt 0.16664997 0.00000000
vt 0.33332079 0.00000000
vt 0.33332079 1.00000000
vt 0.49999041 0.00000000
vt 0.49999041 1.00000000
vt 0.66665965 0.00000000
vt 0.66665965 1.00000000
vt 0.83333079 0.00000000
vt 0.83333079 1.00000000
vt 1.00000000 0.00000000
vt 1.00000000 1.00000000
vt 0.14283421 1.00000000
vt 0.16666008 0.00000000
vt 0.28569293 1.00000000
vt 0.33332776 0.00000000
vt 0.42856018 1.00000000
vt 0.49999739 0.00000000
vt 0.57140246 1.00000000
vt 0.66668737 0.00000000
vt 0.71424895 1.00000000
vt 0.85714302 1.00000000
vt 0.14283421 1.00000000
vt 0.00000000 1.00000000
vt 0.00000000 0.00000000
vt 0.14283421 0.00000000
vt 0.28569289 0.00000000
vt 0.28569289 1.00000000
vt 0.42856017 0.00000000
vt 0.42856017 1.00000000
vt 0.57140241 0.00000000
vt 0.57140241 1.00000000
vt 0.71424898 0.00000000
vt 0.71424898 1.00000000
vt 0.85714303 0.00000000
vt 0.85714303 1.00000000
vt 1.00000000 0.00000000
vt 1.00000000 1.00000000
vt 0.16664997 0.00000000
vt 0.14284293 1.00000000
vt 0.33332079 0.00000000
vt 0.28570086 1.00000000
vt 0.49999041 0.00000000
vt 0.42856653 1.00000000
vt 0.66665965 0.00000000
vt 0.57142722 1.00000000
vt 0.83333079 0.00000000
vt 0.14284287 1.00000000
vt 0.00075928 1.00000000
vt 0.00000000 1.00000000
vt 0.00000000 0.00000000
vt 0.14284287 0.00000000
vt 0.28570083 1.00000000
vt 0.28570083 0.00000000
vt 0.42856653 1.00000000
vt 0.42856653 0.00000000
vt 0.57142716 1.00000000
vt 0.57142716 0.00000000
vt 0.71425258 1.00000000
vt 0.71425258 0.00000000
vt 0.85714498 1.00000000
vt 0.85714498 0.00000000
vt 1.00000000 0.00000000
vt 1.00000000 1.00000000
vt 0.14283426 0.00000000
vt 0.28569293 0.00000000
vt 0.42856018 0.00000000
vt 0.57140247 0.00000000
vt 0.99990338 0.00000000
vt 0.00000000 1.00000000
vt 0.00000000 0.00000000
vt 0.03064796 0.85252666
vt 0.12605477 0.70599356
vt 0.28518923 0.56295253
vt 0.49444773 0.42399203
vt 0.72331660 0.28692876
vt 0.91812293 0.14669928
vn 0.04792994 0.94872188 -0.31245722
vn -0.00023761 0.94868327 -0.31622776
vn -0.00026463 0.94868326 -0.31622775
vn 0.04952654 0.94864855 -0.31243087
vn 0.09439237 0.94832120 -0.30294716
vn 0.09205654 0.94852428 -0.30303016
vn 0.11965431 0.94813471 -0.29448841
vn 0.11847537 0.94826435 -0.29454763
vn 0.11334554 0.94865153 -0.29531857
vn 0.11491823 0.94848611 -0.29524211
vn 0.07029390 0.94906698 -0.30713294
vn 0.07347789 0.94885297 -0.30704893
vn 0.00010700 0.94868323 -0.31622795
vn -0.00010700 0.94868329 -0.31622776
vn -0.00013066 0.94868329 -0.31622776
vn 0.04792700 0.94872188 -0.31245766
vn 0.09205495 0.94852430 -0.30303060
vn 0.11847481 0.94826435 -0.29454785
vn 0.11492182 0.94848603 -0.29524095
vn 0.11948450 0.58176617 -0.80453190
vn -0.00054517 0.58133529 -0.81366393
vn -0.00061138 0.58133527 -0.81366390
vn 0.12334588 0.58149196 -0.80414731
vn 0.23663751 0.58069123 -0.77897393
vn 0.23119358 0.58145281 -0.78003984
vn 0.30408577 0.57964206 -0.75600723
vn 0.30142594 0.58013381 -0.75669489
vn 0.29535254 0.58053649 -0.75877814
vn 0.29892946 0.57988965 -0.75787147
vn 0.18925687 0.58202474 -0.79084072
vn 0.19685209 0.58115629 -0.78962436
vn -0.00033619 0.58133534 -0.81366400
vn -0.00039416 0.58133533 -0.81366398
vn 0.10211680 0.58170877 -0.80696163
vn 0.12335346 0.58149195 -0.80414615
vn 0.20202674 0.58169537 -0.78791859
vn 0.23664157 0.58069117 -0.77897274
vn 0.27855336 0.58070221 -0.76497906
vn 0.30408721 0.57964204 -0.75600666
vn 0.31091572 0.57978274 -0.75311579
vn 0.29534344 0.58053679 -0.75878145
vn 0.28090456 0.58018605 -0.76451080
vn 0.17338003 0.58128979 -0.79501041
vn 0.05620400 0.87294716 -0.48456617
vn -0.00022807 0.87248495 -0.48864093
vn -0.00032740 0.87248493 -0.48864092
vn 0.06130044 0.87268696 -0.48441690
vn 0.12127788 0.87267971 -0.47299238
vn 0.11300022 0.87351921 -0.47349250
vn 0.16740005 0.87214190 -0.45972354
vn 0.16044722 0.87312634 -0.46033367
vn 0.18703775 0.87164241 -0.45305230
vn 0.18668254 0.87169978 -0.45308842
vn 0.16890893 0.87186169 -0.45970313
vn 0.17740897 0.87058699 -0.45891650
vn 0.10412752 0.87246030 -0.47746255
vn 0.11545840 0.87137755 -0.47683386
vn -0.00023671 0.87248495 -0.48864093
vn -0.00032367 0.87248493 -0.48864092
vn 0.07172170 0.87271799 -0.48292785
vn 0.05620753 0.87294720 -0.48456568
vn 0.13882395 0.87254853 -0.46838764
vn 0.11300322 0.87351922 -0.47349176
vn 0.18125893 0.87183330 -0.45502955
vn 0.16044896 0.87312629 -0.46033315
vn 0.17980601 0.87170056 -0.45585954
vn 0.18668451 0.87169950 -0.45308815
vn 0.11824160 0.87238801 -0.47429747
vn 0.01481356 0.99001545 -0.14017835
vn 0.00003786 0.98994946 -0.14142157
vn -0.00003785 0.98994949 -0.14142136
vn -0.00006601 0.98994949 -0.14142136
vn 0.01625956 0.98999339 -0.14017386
vn 0.03031267 0.99011947 -0.13691084
vn 0.03266965 0.99004763 -0.13688823
vn 0.04440463 0.99009713 -0.13317619
vn 0.04640552 0.99001038 -0.13313891
vn 0.05397090 0.98988007 -0.13124248
vn 0.05407441 0.98987475 -0.13124000
vn 0.05395808 0.98964161 -0.13303388
vn 0.05144760 0.98976857 -0.13308391
vn 0.03673771 0.98973128 -0.13813881
vn 0.03345425 0.98984406 -0.13816492
vn -0.00009368 0.98994949 -0.14142136
vn -0.00011833 0.98994949 -0.14142136
vn 0.01625855 0.98999339 -0.14017401
vn 0.03266879 0.99004763 -0.13688844
vn 0.04640502 0.99001039 -0.13313905
vn 0.05407383 0.98987478 -0.13124004
vn 0.00000000 1.00000000 0.00000000
vn 0.00000000 1.00000000 0.00000000
vn 0.00000000 1.00000000 0.00000000
vn 0.00000000 1.00000000 0.00000000
vn 0.00000000 1.00000000 0.00000000
vn 0.00000000 1.00000000 0.00000000
vn 0.00000000 1.00000000 0.00000000
vn 0.00000000 1.00000000 0.00000000
vn 0.00000000 1.00000000 0.00000000
s 1
usemtl Dirt
f 16/16/16 2/2/2 3/3/3
f 1/1/1 16/16/16 4/4/4
f 17/17/17 4/4/4 5/5/5
f 18/18/18 5/5/5 7/7/7
f 7/7/7 10/10/10 19/19/19
f 9/9/9 12/12/12 10/10/10
f 15/15/15 12/12/12 11/11/11
f 13/13/13 14/14/14 15/15/15
f 15/15/15 11/11/11 13/13/13
f 9/9/9 11/11/11 12/12/12
f 19/19/19 8/8/8 7/7/7
f 7/7/7 9/9/9 10/10/10
f 7/7/7 8/8/8 18/18/18
f 18/18/18 6/6/6 5/5/5
f 5/5/5 6/6/6 17/17/17
f 17/17/17 1/1/1 4/4/4
f 16/16/16 3/3/3 4/4/4
s 2
usemtl Grass
f 16/23/23 20/20/20 27/34/34
f 27/34/34 21/21/21 2/22/22
f 16/23/23 1/35/35 28/36/36
f 17/24/24 22/25/25 28/36/36
f 17/24/24 6/37/37 29/38/38
f 18/26/26 23/27/27 29/38/38
f 18/26/26 8/39/39 30/40/40
f 19/28/28 24/29/29 30/40/40
f 19/28/28 10/41/41 31/42/42
f 12/30/30 25/31/31 31/42/42
f 12/30/30 15/32/32 32/43/43
f 15/32/32 26/33/33 32/43/43
f 32/43/43 25/31/31 12/30/30
f 10/41/41 12/30/30 31/42/42
f 31/42/42 24/29/29 19/28/28
f 8/39/39 19/28/28 30/40/40
f 30/40/40 23/27/27 18/26/26
f 6/37/37 18/26/26 29/38/38
f 29/38/38 22/25/25 17/24/24
f 1/35/35 17/24/24 28/36/36
f 28/36/36 20/20/20 16/23/23
f 27/34/34 2/22/22 16/23/23
s 3
f 33/44/44 34/45/45 21/46/46
f 20/60/60 41/61/61 33/44/44
f 20/60/60 35/49/49 41/61/61
f 22/62/62 42/63/63 35/49/49
f 22/62/62 36/51/51 42/63/63
f 23/64/64 43/65/65 36/51/51
f 23/64/64 37/53/53 43/65/65
f 30/52/52 44/67/67 37/53/53
f 30/52/52 38/55/55 44/67/67
f 31/54/54 39/57/57 38/55/55
f 32/56/56 40/59/59 39/57/57
f 32/56/56 26/58/58 40/59/59
f 25/68/68 32/56/56 39/57/57
f 31/54/54 25/68/68 39/57/57
f 24/66/66 31/54/54 38/55/55
f 30/52/52 24/66/66 38/55/55
f 23/64/64 30/52/52 37/53/53
f 36/51/51 29/50/50 23/64/64
f 22/62/62 29/50/50 36/51/51
f 35/49/49 28/48/48 22/62/62
f 20/60/60 28/48/48 35/49/49
f 33/44/44 27/47/47 20/60/60
f 33/44/44 21/46/46 27/47/47
s 4
f 41/73/73 45/69/69 46/70/70
f 46/70/70 47/71/71 33/86/86
f 47/71/71 34/72/72 33/86/86
f 48/74/74 41/73/73 35/87/87
f 49/76/76 48/74/74 42/75/75
f 50/78/78 49/76/76 43/77/77
f 51/80/80 50/78/78 44/79/79
f 52/82/82 51/80/80 38/81/81
f 39/83/83 53/85/85 52/82/82
f 39/83/83 40/84/84 53/85/85
f 52/82/82 38/81/81 39/83/83
f 51/80/80 44/79/79 38/81/81
f 50/78/78 37/89/89 44/79/79
f 50/78/78 43/77/77 37/89/89
f 49/76/76 36/88/88 43/77/77
f 49/76/76 42/75/75 36/88/88
f 48/74/74 35/87/87 42/75/75
f 48/74/74 45/69/69 41/73/73
f 33/86/86 41/73/73 46/70/70
s 5
f 52/98/98 53/90/90 54/92/92
f 54/92/92 46/91/91 45/93/93
f 45/93/93 48/94/94 54/92/92
f 48/94/94 49/95/95 54/92/92
f 49/95/95 50/96/96 54/92/92
f 50/96/96 51/97/97 54/92/92
f 51/97/97 52/98/98 54/92/92
