mtllib Track_Normal_Curve_Inner_3x3.mtl
o object1
g object1
v 0.50000000 0.50000000 1.50000000
v -1.50000000 0.50000000 -0.50000000
v -1.50000000 0.50000000 1.50000000
v 0.44984912 0.50000000 1.05492874
v 0.30191877 0.50000000 0.63219314
v 0.06362426 0.50000000 0.25297187
v -0.25308246 0.50000000 -0.06371246
v -0.63232049 0.50000000 -0.30198009
v -1.05506674 0.50000000 -0.44988061
v 0.85000000 0.45000000 1.50000000
v 0.79107271 0.45000000 0.97704127
v 0.61725455 0.45000000 0.48032693
v 0.33725851 0.45000000 0.03474195
v -0.03487189 0.45000000 -0.33736214
v -0.48047657 0.45000000 -0.61732661
v -0.97720342 0.45000000 -0.79110972
v -1.50000000 0.45000000 -0.85000000
v 1.20710678 0.25000000 1.50000000
v 1.13922488 0.25000000 0.89757229
v 0.93899326 0.25000000 0.32537708
v 0.61644892 0.25000000 -0.18791916
v 0.18776947 0.25000000 -0.61656830
v -0.32554945 0.25000000 -0.93907627
v -0.89775908 0.25000000 -1.13926751
v -1.50000000 0.25000000 -1.20710678
v 1.35000000 0.05000000 1.50000000
v 1.27853499 0.05000000 0.86577346
v 1.06773424 0.05000000 0.26337522
v 0.72816458 0.05000000 -0.27701509
v 0.27685750 0.05000000 -0.72829025
v -0.26355669 0.05000000 -1.06782163
v -0.86597011 0.05000000 -1.27857987
v -1.50000000 0.05000000 -1.35000000
v 1.50000000 -0.00000000 1.50000000
v 1.42477367 -0.00000000 0.83239312
v 1.20287815 -0.00000000 0.19828970
v 0.84543640 -0.00000000 -0.37054220
v 0.37037631 -0.00000000 -0.84556868
v -0.19848073 -0.00000000 -1.20297014
v -0.83260011 -0.00000000 -1.42482092
v -1.50000000 -0.00000000 -1.50000000
vt 1.00000000 1.00000000
vt 0.00000000 0.00000000
vt 1.00000000 0.00000000
vt 0.77746938 0.97492570
vt 0.56609884 0.90096048
vt 0.37648674 0.78181277
vt 0.21814314 0.62345798
vt 0.09900884 0.43383745
vt 0.02505855 0.22246162
vt 0.15223741 1.00000000
vt 0.00000000 1.00000000
vt 0.00000000 0.00000000
vt 0.15223741 0.00000000
vt 0.29490156 1.00000000
vt 0.29490156 0.00000000
vt 0.43220690 1.00000000
vt 0.43220690 0.00000000
vt 0.56778591 1.00000000
vt 0.56778591 0.00000000
vt 0.70509235 1.00000000
vt 0.70509235 0.00000000
vt 0.84775885 1.00000000
vt 0.84775885 0.00000000
vt 0.99995000 0.00000000
vt 0.99995000 1.00000000
vt 0.15223741 1.00000000
vt 0.00000000 1.00000000
vt 0.00000000 0.00000000
vt 0.15223741 0.00000000
vt 0.29490156 1.00000000
vt 0.29490156 0.00000000
vt 0.43220690 1.00000000
vt 0.43220690 0.00000000
vt 0.56778591 1.00000000
vt 0.56778591 0.00000000
vt 0.70509235 1.00000000
vt 0.70509235 0.00000000
vt 0.84775885 1.00000000
vt 0.84775885 0.00000000
vt 0.99995000 0.00000000
vt 0.99995000 1.00000000
vt 0.15223741 1.00000000
vt 0.00000000 1.00000000
vt 0.00000000 0.00000000
vt 0.15223741 0.00000000
vt 0.29490156 1.00000000
vt 0.29490156 0.00000000
vt 0.43220690 1.00000000
vt 0.43220690 0.00000000
vt 0.56778591 1.00000000
vt 0.56778591 0.00000000
vt 0.70509235 1.00000000
vt 0.70509235 0.00000000
vt 0.84775885 1.00000000
vt 0.84775885 0.00000000
vt 0.99995000 0.00000000
vt 0.99995000 1.00000000
vt 0.15223741 1.00000000
vt 0.00000000 1.00000000
vt 0.00000000 0.00000000
vt 0.15223741 0.00000000
vt 0.29490156 1.00000000
vt 0.29490156 0.00000000
vt 0.43220690 1.00000000
vt 0.43220690 0.00000000
vt 0.56778591 1.00000000
vt 0.56778591 0.00000000
vt 0.70509235 1.00000000
vt 0.70509235 0.00000000
vt 0.84775885 1.00000000
vt 0.84775885 0.00000000
vt 0.99995000 0.00000000
vt 0.99995000 1.00000000
vn 0.00000000 1.00000000 -0.00000000
vn 0.00000000 1.00000000 -0.00000000
vn 0.00000000 1.00000000 -0.00000000
vn 0.00000000 1.00000000 -0.00000000
vn 0.00000000 1.00000000 -0.00000000
vn 0.00000000 1.00000000 -0.00000000
vn 0.00000000 1.00000000 -0.00000000
vn 0.00000000 1.00000000 -0.00000000
vn 0.00000000 1.00000000 -0.00000000
vn 0.13787532 0.98994949 -0.03147058
vn 0.14142136 0.98994949 0.00000000
vn 0.14142136 0.98994949 0.00000000
vn 0.13787532 0.98994949 -0.03147058
vn 0.12741505 0.98994949 -0.06136289
vn 0.12741505 0.98994949 -0.06136289
vn 0.11056502 0.98994949 -0.08817809
vn 0.11056502 0.98994949 -0.08817809
vn 0.08817027 0.98994949 -0.11057126
vn 0.08817027 0.98994949 -0.11057126
vn 0.06135388 0.98994949 -0.12741939
vn 0.06135388 0.98994949 -0.12741939
vn 0.03146082 0.98994949 -0.13787754
vn 0.03146082 0.98994949 -0.13787754
vn 0.00000000 0.98994949 -0.14142136
vn 0.00000000 0.98994949 -0.14142136
vn 0.47638862 0.87248497 -0.10873757
vn 0.48864094 0.87248497 0.00000000
vn 0.48864094 0.87248497 0.00000000
vn 0.47638862 0.87248497 -0.10873757
vn 0.44024618 0.87248497 -0.21202186
vn 0.44024618 0.87248497 -0.21202186
vn 0.38202573 0.87248497 -0.30467411
vn 0.38202573 0.87248497 -0.30467411
vn 0.30464710 0.87248497 -0.38204727
vn 0.30464710 0.87248497 -0.38204727
vn 0.21199073 0.87248497 -0.44026117
vn 0.21199073 0.87248497 -0.44026117
vn 0.10870386 0.87248497 -0.47639631
vn 0.10870386 0.87248497 -0.47639631
vn -0.00000000 0.87248497 -0.48864094
vn 0.00000000 0.87248497 -0.48864094
vn 0.79326199 0.58133537 -0.18106516
vn 0.81366405 0.58133537 0.00000000
vn 0.81366405 0.58133537 0.00000000
vn 0.79326199 0.58133537 -0.18106516
vn 0.73307916 0.58133537 -0.35304976
vn 0.73307916 0.58133537 -0.35304976
vn 0.63613294 0.58133537 -0.50733033
vn 0.63613294 0.58133537 -0.50733033
vn 0.50728535 0.58133537 -0.63616881
vn 0.50728535 0.58133537 -0.63616881
vn 0.35299792 0.58133537 -0.73310412
vn 0.35299792 0.58133537 -0.73310412
vn 0.18100902 0.58133537 -0.79327481
vn 0.18100902 0.58133537 -0.79327481
vn -0.00000000 0.58133537 -0.81366405
vn -0.00000000 0.58133537 -0.81366405
vn 0.30829858 0.94868330 -0.07037036
vn 0.31622777 0.94868330 0.00000000
vn 0.31622777 0.94868330 0.00000000
vn 0.30829858 0.94868330 -0.07037036
vn 0.28490872 0.94868330 -0.13721159
vn 0.28490872 0.94868330 -0.13721159
vn 0.24723090 0.94868330 -0.19717221
vn 0.24723090 0.94868330 -0.19717221
vn 0.19715473 0.94868330 -0.24724485
vn 0.19715473 0.94868330 -0.24724485
vn 0.13719144 0.94868330 -0.28491842
vn 0.13719144 0.94868330 -0.28491842
vn 0.07034854 0.94868330 -0.30830356
vn 0.07034854 0.94868330 -0.30830356
vn 0.00000000 0.94868330 -0.31622777
vn 0.00000000 0.94868330 -0.31622777
s 1
usemtl Grass
f 9/9/9 2/2/2 3/3/3
f 1/1/1 4/4/4 3/3/3
f 4/4/4 5/5/5 3/3/3
f 5/5/5 6/6/6 3/3/3
f 6/6/6 7/7/7 3/3/3
f 7/7/7 8/8/8 3/3/3
f 8/8/8 9/9/9 3/3/3
s 2
f 4/10/10 1/11/11 10/12/12
f 5/14/14 4/10/10 11/13/13
f 6/16/16 5/14/14 12/15/15
f 7/18/18 6/16/16 13/17/17
f 8/20/20 7/18/18 14/19/19
f 9/22/22 8/20/20 15/21/21
f 17/24/24 2/25/25 9/22/22
f 16/23/23 17/24/24 9/22/22
f 9/22/22 15/21/21 16/23/23
f 8/20/20 14/19/19 15/21/21
f 7/18/18 13/17/17 14/19/19
f 6/16/16 12/15/15 13/17/17
f 5/14/14 11/13/13 12/15/15
f 4/10/10 10/12/12 11/13/13
s 3
f 11/26/26 10/27/27 18/28/28
f 12/30/30 11/26/26 19/29/29
f 13/32/32 12/30/30 20/31/31
f 14/34/34 13/32/32 21/33/33
f 15/36/36 14/34/34 22/35/35
f 16/38/38 15/36/36 23/37/37
f 25/40/40 17/41/41 16/38/38
f 24/39/39 25/40/40 16/38/38
f 16/38/38 23/37/37 24/39/39
f 15/36/36 22/35/35 23/37/37
f 14/34/34 21/33/33 22/35/35
f 13/32/32 20/31/31 21/33/33
f 12/30/30 19/29/29 20/31/31
f 11/26/26 18/28/28 19/29/29
s 4
f 19/42/42 18/43/43 26/44/44
f 20/46/46 19/42/42 27/45/45
f 21/48/48 20/46/46 28/47/47
f 22/50/50 21/48/48 29/49/49
f 23/52/52 22/50/50 30/51/51
f 24/54/54 23/52/52 31/53/53
f 33/56/56 25/57/57 24/54/54
f 32/55/55 33/56/56 24/54/54
f 24/54/54 31/53/53 32/55/55
f 23/52/52 30/51/51 31/53/53
f 22/50/50 29/49/49 30/51/51
f 21/48/48 28/47/47 29/49/49
f 20/46/46 27/45/45 28/47/47
f 19/42/42 26/44/44 27/45/45
s 5
usemtl Dirt
f 27/58/58 26/59/59 34/60/60
f 28/62/62 27/58/58 35/61/61
f 29/64/64 28/62/62 36/63/63
f 30/66/66 29/64/64 37/65/65
f 31/68/68 30/66/66 38/67/67
f 32/70/70 31/68/68 39/69/69
f 41/72/72 33/73/73 32/70/70
f 40/71/71 41/72/72 32/70/70
f 32/70/70 39/69/69 40/71/71
f 31/68/68 38/67/67 39/69/69
f 30/66/66 37/65/65 38/67/67
f 29/64/64 36/63/63 37/65/65
f 28/62/62 35/61/61 36/63/63
f 27/58/58 34/60/60 35/61/61
