mtllib Track_Normal_Curve_Y_3x3.mtl
o object1
g object1
v 0.31886284 0.25000000 0.20710678
v -0.50000000 0.25000000 0.20710678
v -0.50000000 0.05000000 0.35000000
v 0.52515823 0.05000000 0.35000000
v -0.12678511 0.45000000 -0.15000000
v -0.50000000 0.45000000 -0.15000000
v -0.06308494 0.41914699 -0.09491090
v -0.50000000 0.50000000 -0.50000000
v -0.15000000 0.45000000 -0.50000000
v 0.20710678 0.25000000 -0.50000000
v 0.23521926 0.25000000 -0.14205093
v 0.25429276 0.25000000 -0.03722757
v 0.35000000 0.05000000 -0.50000000
v 0.39424739 0.05000000 -0.06605766
v 0.38266406 0.05000000 -0.12665228
v 0.47966249 0.05000000 0.23534777
v 0.50000000 -0.00000000 -0.50000000
v 0.53038589 -0.00000000 -0.15269570
v 0.62061687 -0.00000000 0.18404610
v 0.76794919 -0.00000000 0.50000000
v -0.50000000 -0.00000000 0.50000000
vt 0.79876727 1.00000000
vt 0.00000000 1.00000000
vt 0.00000000 0.00000000
vt 1.00000000 0.00000000
vt 0.45577217 1.00000000
vt 0.00000000 1.00000000
vt 0.00000000 0.00000000
vt 1.00000000 0.00000000
vt 0.53352830 0.84580326
vt 1.00000000 0.00000000
vt 0.00000000 1.00000000
vt 0.00000000 0.00000000
vt 1.00000000 0.00000000
vt 0.00000000 1.00000000
vt 0.00000000 0.00000000
vt 0.51276421 0.84581967
vt 0.43519205 1.00000000
vt 0.00000000 1.00000000
vt 0.00000000 0.00000000
vt 0.51276421 0.00000000
vt 1.00000000 0.00000000
vt 0.65952352 0.00000000
vt 0.51527354 1.00000000
vt 0.00000000 1.00000000
vt 0.00000000 0.00000000
vt 0.51527354 0.00000000
vt 1.00000000 0.00000000
vt 0.78128150 1.00000000
vt 0.44467890 0.00000000
vt 0.40061319 1.00000000
vt 0.86549095 0.00000000
vt 0.35006027 1.00000000
vt 0.00000000 1.00000000
vt 0.00000000 0.00000000
vt 0.35006027 0.00000000
vt 0.68133199 0.00000000
vt 0.68133199 1.00000000
vt 1.00000000 0.00000000
vt 0.78722026 1.00000000
vt 0.40563377 1.00000000
vt 0.80851681 1.00000000
vt 0.00000000 1.00000000
vt 0.00000000 0.00000000
vt 1.00000000 0.00000000
vn 0.00000000 0.58133537 0.81366405
vn 0.00000000 0.58133537 0.81366405
vn 0.00000000 0.58133537 0.81366405
vn 0.00000000 0.58133537 0.81366405
vn 0.00000000 0.87248497 0.48864094
vn 0.00000000 0.87248497 0.48864094
vn 0.00000000 0.87248497 0.48864094
vn 0.00000000 0.87248497 0.48864094
vn 0.00000000 0.87248497 0.48864094
vn 0.00000000 0.98994949 0.14142136
vn 0.00000000 0.98994949 0.14142136
vn 0.00000000 0.98994949 0.14142136
vn 0.14018246 0.98994949 -0.01867829
vn 0.14142136 0.98994949 -0.00000000
vn 0.14142136 0.98994949 -0.00000000
vn 0.48265015 0.87248497 -0.07628108
vn 0.48436028 0.87248497 -0.06453748
vn 0.48864094 0.87248497 -0.00000000
vn 0.48864094 0.87248497 -0.00000000
vn 0.48265015 0.87248497 -0.07628108
vn 0.46482449 0.87248497 -0.15069229
vn 0.47858523 0.87248497 -0.09862126
vn 0.79691969 0.58133537 -0.16421993
vn 0.81366405 0.58133537 0.00000000
vn 0.81366405 0.58133537 0.00000000
vn 0.79691969 0.58133537 -0.16421993
vn 0.74737570 0.58133537 -0.32168114
vn 0.77400591 0.58133537 -0.25092637
vn 0.80130302 0.58133537 -0.14128927
vn 0.80368844 0.58133537 -0.12702000
vn 0.76459463 0.58133537 -0.27828804
vn 0.31142369 0.94868330 -0.05491160
vn 0.31622777 0.94868330 -0.00000000
vn 0.31622777 0.94868330 -0.00000000
vn 0.31142369 0.94868330 -0.05491160
vn 0.29715711 0.94868330 -0.10815569
vn 0.29715711 0.94868330 -0.10815569
vn 0.27386128 0.94868330 -0.15811388
vn 0.29046502 0.94868330 -0.12502028
vn 0.30972013 0.94868330 -0.06382352
vn 0.00000000 0.94868330 0.31622777
vn 0.00000000 0.94868330 0.31622777
vn 0.00000000 0.94868330 0.31622777
vn 0.00000000 0.94868330 0.31622777
s 1
usemtl Grass
f 1/1/1 2/2/2 3/3/3
f 1/1/1 3/3/3 4/4/4
s 2
f 5/5/5 6/6/6 2/7/7
f 2/7/7 1/8/8 7/9/9
f 5/5/5 2/7/7 7/9/9
s 3
f 5/10/10 8/11/11 6/12/12
s 4
f 9/15/15 8/14/14 5/13/13
s 5
f 7/16/16 11/20/20 10/19/19
f 10/19/19 9/18/18 5/17/17
f 7/16/16 1/21/21 12/22/22
f 12/22/22 11/20/20 7/16/16
f 10/19/19 5/17/17 7/16/16
s 6
f 12/23/23 14/26/26 15/29/29
f 15/29/29 13/25/25 11/30/30
f 13/25/25 10/24/24 11/30/30
f 1/28/28 16/31/31 14/26/26
f 1/28/28 4/27/27 16/31/31
f 14/26/26 12/23/23 1/28/28
f 11/30/30 12/23/23 15/29/29
s 7
usemtl Dirt
f 18/35/35 17/34/34 15/32/32
f 17/34/34 13/33/33 15/32/32
f 14/40/40 19/36/36 18/35/35
f 4/39/39 20/38/38 19/36/36
f 16/37/37 4/39/39 19/36/36
f 14/40/40 16/37/37 19/36/36
f 18/35/35 15/32/32 14/40/40
s 8
f 4/41/41 3/42/42 21/43/43
f 4/41/41 21/43/43 20/44/44
