mtllib Track_Curbed_Curve_Outer_6x6.mtl
o object1
g object1
v 3.50000000 -0.00000000 1.50000000
v 3.50000000 0.05000000 1.55000000
v 3.62500000 0.05000000 1.55000000
v 3.75000000 -0.00000000 1.50000000
v 3.75000000 0.00000000 1.75000000
v 3.62500000 0.05000000 1.65000000
v 2.84736904 0.00000000 1.45722431
v 2.84084273 0.05000000 1.50679655
v 2.20590477 0.00000000 1.32962913
v 2.19296382 0.05000000 1.37792542
v 1.58658284 0.00000000 1.11939766
v 1.56744867 0.05000000 1.16559164
v 1.00000000 0.00000000 0.83012702
v 0.97500000 0.05000000 0.87342829
v 0.45619285 0.00000000 0.46676670
v 0.42575478 0.05000000 0.50643437
v -0.03553391 0.00000000 0.03553391
v -0.07088924 0.05000000 0.07088924
v -0.46676670 0.00000000 -0.45619285
v -0.50643437 0.05000000 -0.42575478
v -0.83012702 -0.00000000 -1.00000000
v -0.87342829 0.05000000 -0.97500000
v -1.11939766 0.00000000 -1.58658284
v -1.16559164 0.05000000 -1.56744867
v -1.32962913 0.00000000 -2.20590477
v -1.37792542 0.05000000 -2.19296382
v -1.45722431 -0.00000000 -2.84736904
v -1.50679655 0.05000000 -2.84084273
v -1.50000000 -0.00000000 -3.50000000
v -1.55000000 0.05000000 -3.50000000
v -1.55000000 0.05000000 -3.62500000
v -1.50000000 -0.00000000 -3.75000000
v -1.75000000 0.00000000 -3.75000000
v -1.65000000 0.05000000 -3.62500000
v -1.65000000 0.05000000 -3.50000000
v -1.60594104 0.05000000 -2.82779011
v -1.66018349 0.25000000 -2.32219485
v -1.79289322 0.25000000 -3.50000000
v -1.52087044 0.05000000 -2.35398080
v -1.47451801 0.05000000 -2.16708192
v -1.25797959 0.05000000 -1.52918032
v -1.13997910 0.05000000 -1.26547680
v -1.26872819 0.25000000 -1.20349176
v -0.96003083 0.05000000 -0.92500000
v -0.58576970 0.05000000 -0.36487864
v -0.52643010 0.05000000 -0.28902497
v -0.63814816 0.25000000 -0.19993206
v -0.14159992 0.05000000 0.14159992
v 0.28902497 0.05000000 0.52643010
v 0.19993206 0.25000000 0.63814816
v 1.20349176 0.25000000 1.26872819
v 0.36487864 0.05000000 0.58576970
v 0.92500000 0.05000000 0.96003083
v 1.26547680 0.05000000 1.13997910
v 2.32219485 0.25000000 1.66018349
v 1.52918032 0.05000000 1.25797959
v 2.16708192 0.05000000 1.47451801
v 2.35398080 0.05000000 1.52087044
v 2.82779011 0.05000000 1.60594104
v 3.50000000 0.05000000 1.65000000
v 3.50000000 0.25000000 1.79289322
v -2.00833647 0.45000000 -2.24272939
v -2.15000000 0.45000000 -3.50000000
v -1.59047002 0.45000000 -1.04854840
v -0.91734532 0.45000000 0.02272058
v -0.02272058 0.45000000 0.91734532
v 1.04854840 0.45000000 1.59047002
v 2.24272939 0.45000000 2.00833647
v 3.50000000 0.45000000 2.15000000
v -2.34956085 0.50000000 -2.16484537
v -2.50000000 0.50000000 -3.50000000
v -1.90580887 0.50000000 -0.89668856
v -1.19098619 0.50000000 0.24094221
v -0.24094221 0.50000000 1.19098619
v 0.89668856 0.50000000 1.90580887
v 2.16484537 0.50000000 2.34956085
v 3.50000000 0.50000000 2.50000000
v -2.50000000 0.50000000 2.50000000
vt 0.00000000 1.00000000
vt 0.00000000 0.00000000
vt 0.50000000 0.00000000
vt 1.00000000 1.00000000
vt 0.00000000 0.00000000
vt 1.00000000 0.00000000
vt 0.80000000 1.00000000
vt 0.40000000 1.00000000
vt 0.00000000 1.00000000
vt 0.00000000 0.00000000
vt 1.00000000 0.00000000
vt 1.00000000 1.00000000
vt 1.00000000 0.00000000
vt 1.00000000 1.00000000
vt 0.00037964 1.00000000
vt 0.00037964 0.00000000
vt 1.00000000 0.00000000
vt 1.00000000 1.00000000
vt 0.00000000 1.00000000
vt 0.00000000 0.00000000
vt 1.00000000 0.00000000
vt 1.00000000 1.00000000
vt 0.00000000 1.00000000
vt 0.00000000 0.00000000
vt 1.00000000 0.00000000
vt 1.00000000 1.00000000
vt 0.00000000 1.00000000
vt 0.00000000 0.00000000
vt 1.00000000 0.00000000
vt 1.00000000 1.00000000
vt 0.00000000 1.00000000
vt 0.00000000 0.00000000
vt 1.00000000 0.00000000
vt 1.00000000 1.00000000
vt 0.00000000 1.00000000
vt 0.00000000 0.00000000
vt 1.00000000 0.00000000
vt 1.00000000 1.00000000
vt 0.00000000 1.00000000
vt 0.00000000 0.00000000
vt 1.00000000 0.00000000
vt 1.00000000 1.00000000
vt 0.00000000 1.00000000
vt 0.00000000 0.00000000
vt 1.00000000 0.00000000
vt 1.00000000 1.00000000
vt 0.00000000 1.00000000
vt 0.00000000 0.00000000
vt 1.00000000 0.00000000
vt 1.00000000 1.00000000
vt 0.00000000 1.00000000
vt 0.00000000 0.00000000
vt 1.00000000 0.00000000
vt 1.00000000 1.00000000
vt 0.00047450 1.00000000
vt 0.00047450 0.00000000
vt 0.00000000 1.00000000
vt 0.00000000 0.00000000
vt 0.50000000 0.00000000
vt 1.00000000 1.00000000
vt 0.00000000 0.00000000
vt 1.00000000 0.00000000
vt 0.80000000 1.00000000
vt 0.40000000 1.00000000
vt 0.00000000 1.00000000
vt 0.00000000 0.00000000
vt 1.00000000 0.00000000
vt 1.00000000 1.00000000
vt 1.00000000 0.30169280
vt 1.00000000 1.00000000
vt 0.00000000 0.69233308
vt 0.01941748 0.00000000
vt 0.15223841 1.00000000
vt 0.00000000 1.00000000
vt 0.00000000 0.00000000
vt 0.09024246 0.00000000
vt 0.15223841 0.00000000
vt 0.17655671 0.00000000
vt 0.25989153 0.00000000
vt 0.29490376 0.00000000
vt 0.29490376 1.00000000
vt 0.34108138 0.00000000
vt 0.42088204 0.00000000
vt 0.43221016 0.00000000
vt 0.43221016 1.00000000
vt 0.50000000 0.00000000
vt 0.56778984 0.00000000
vt 0.56778984 1.00000000
vt 0.70509624 1.00000000
vt 0.57911796 0.00000000
vt 0.65891862 0.00000000
vt 0.70509624 0.00000000
vt 0.84776159 1.00000000
vt 0.74010847 0.00000000
vt 0.82344329 0.00000000
vt 0.84776159 0.00000000
vt 0.90975754 0.00000000
vt 1.00000000 0.00000000
vt 1.00000000 1.00000000
vt 0.15223841 1.00000000
vt 0.00000000 1.00000000
vt 0.00000000 0.00000000
vt 0.15223841 0.00000000
vt 0.29490376 1.00000000
vt 0.29490376 0.00000000
vt 0.43221016 1.00000000
vt 0.43221016 0.00000000
vt 0.56778984 1.00000000
vt 0.56778984 0.00000000
vt 0.70509624 1.00000000
vt 0.70509624 0.00000000
vt 0.84776159 1.00000000
vt 0.84776159 0.00000000
vt 1.00000000 0.00000000
vt 1.00000000 1.00000000
vt 0.15223841 1.00000000
vt 0.00000000 1.00000000
vt 0.00000000 0.00000000
vt 0.15223841 0.00000000
vt 0.29490376 1.00000000
vt 0.29490376 0.00000000
vt 0.43221016 1.00000000
vt 0.43221016 0.00000000
vt 0.56778984 1.00000000
vt 0.56778984 0.00000000
vt 0.70509624 1.00000000
vt 0.70509624 0.00000000
vt 0.84776159 1.00000000
vt 0.84776159 0.00000000
vt 1.00000000 0.00000000
vt 1.00000000 1.00000000
vt 0.00000000 0.00000000
vt 1.00000000 1.00000000
vt 0.00000000 1.00000000
vt 0.02507205 0.22252076
vt 0.09903075 0.43388296
vt 0.21816833 0.62348957
vt 0.37651043 0.78183167
vt 0.56611704 0.90096925
vt 0.77747924 0.97492795
vt 1.00000000 0.56518554
vt 0.98062722 1.00000000
vt 0.00000000 0.42362267
vt 0.03841408 0.00000000
vt 0.27745183 0.62694623
vt 1.00000000 0.68732814
vt 0.96100851 1.00000000
vt 0.00000000 0.29906141
vt 0.05765184 0.00000000
vt 1.00000000 0.75975129
vt 0.94043362 1.00000000
vt 0.00000000 0.22520413
vt 0.07782723 0.00000000
vt 0.53000788 0.69318023
vt 1.00000000 0.80907580
vt 0.91804909 1.00000000
vt 0.00000000 0.17490289
vt 0.09977710 0.00000000
vt 1.00000000 0.84591504
vt 0.89270179 1.00000000
vt 0.00000000 0.13733417
vt 0.12463222 0.00000000
vt 0.75901132 0.88475653
vt 1.00000000 0.87536778
vt 0.86266583 1.00000000
vt 0.00000000 0.10729821
vt 0.15408496 0.00000000
vt 0.11524347 0.24098868
vt 1.00000000 0.90022290
vt 0.82509711 1.00000000
vt 0.00000000 0.08195091
vt 0.19092420 0.00000000
vt 1.00000000 0.92217277
vt 0.77479587 1.00000000
vt 0.00000000 0.05956638
vt 0.24024871 0.00000000
vt 0.30681977 0.46999212
vt 1.00000000 0.94234816
vt 0.70093859 1.00000000
vt 0.00000000 0.03899149
vt 0.31267186 0.00000000
vt 1.00000000 0.96158592
vt 0.57637733 1.00000000
vt 0.00000000 0.01937278
vt 0.43481446 0.00000000
vt 0.37305377 0.72254817
vt 0.00000000 0.00000000
vt 0.69830720 0.00000000
vt 1.00000000 0.98058252
vt 0.30766692 1.00000000
vt 0.00000000 1.00000000
vt 0.00000000 0.00000000
vt 1.00000000 0.00000000
vt 1.00000000 1.00000000
vn -0.00000000 0.70710678 -0.70710678
vn -0.00000000 0.70710678 -0.70710678
vn -0.00000000 0.70710678 -0.70710678
vn -0.00000000 0.70710678 -0.70710678
vn 0.37139068 0.92847669 0.00000000
vn 0.37139068 0.92847669 0.00000000
vn 0.37139068 0.92847669 0.00000000
vn 0.37139068 0.92847669 0.00000000
vn 0.09229596 0.70710678 -0.70105738
vn 0.09229596 0.70710678 -0.70105738
vn 0.18301270 0.70710678 -0.68301270
vn 0.18301270 0.70710678 -0.68301270
vn 0.27059805 0.70710678 -0.65328148
vn 0.27059805 0.70710678 -0.65328148
vn 0.35355339 0.70710678 -0.61237244
vn 0.35355339 0.70710678 -0.61237244
vn 0.43045933 0.70710678 -0.56098553
vn 0.43045933 0.70710678 -0.56098553
vn 0.50000000 0.70710678 -0.50000000
vn 0.50000000 0.70710678 -0.50000000
vn 0.56098553 0.70710678 -0.43045933
vn 0.56098553 0.70710678 -0.43045933
vn 0.61237244 0.70710678 -0.35355339
vn 0.61237244 0.70710678 -0.35355339
vn 0.65328148 0.70710678 -0.27059805
vn 0.65328148 0.70710678 -0.27059805
vn 0.68301270 0.70710678 -0.18301270
vn 0.68301270 0.70710678 -0.18301270
vn 0.70105738 0.70710678 -0.09229596
vn 0.70105738 0.70710678 -0.09229596
vn 0.70710678 0.70710678 -0.00000000
vn 0.70710678 0.70710678 -0.00000000
vn 0.70710678 0.70710678 0.00000000
vn 0.70710678 0.70710678 0.00000000
vn -0.00000000 0.92847669 -0.37139068
vn -0.00000000 0.92847669 -0.37139068
vn -0.00000000 0.92847669 -0.37139068
vn -0.00000000 0.92847669 -0.37139068
vn -0.00000000 1.00000000 0.00000000
vn -0.00000000 1.00000000 0.00000000
vn -0.00000000 1.00000000 0.00000000
vn -0.00000000 1.00000000 0.00000000
vn -0.00000000 1.00000000 0.00000000
vn -0.00000000 1.00000000 0.00000000
vn 0.79326382 0.58133537 -0.18105714
vn 0.81366405 0.58133537 -0.00000000
vn 0.81366405 0.58133537 -0.00000000
vn 0.80670304 0.58133537 -0.10620447
vn 0.79326382 0.58133537 -0.18105714
vn 0.78593912 0.58133537 -0.21059175
vn 0.75172756 0.58133537 -0.31137575
vn 0.73308629 0.58133537 -0.35303495
vn 0.73308629 0.58133537 -0.35303495
vn 0.70465374 0.58133537 -0.40683202
vn 0.64552309 0.58133537 -0.49532729
vn 0.63614831 0.58133537 -0.50731105
vn 0.63614831 0.58133537 -0.50731105
vn 0.57534737 0.58133537 -0.57534737
vn 0.50731105 0.58133537 -0.63614831
vn 0.50731105 0.58133537 -0.63614831
vn 0.35303495 0.58133537 -0.73308629
vn 0.49532729 0.58133537 -0.64552309
vn 0.40683202 0.58133537 -0.70465374
vn 0.35303495 0.58133537 -0.73308629
vn 0.18105714 0.58133537 -0.79326382
vn 0.31137575 0.58133537 -0.75172756
vn 0.21059175 0.58133537 -0.78593912
vn 0.18105714 0.58133537 -0.79326382
vn 0.10620447 0.58133537 -0.80670304
vn -0.00000000 0.58133537 -0.81366405
vn -0.00000000 0.58133537 -0.81366405
vn 0.47638971 0.87248497 -0.10873275
vn 0.48864094 0.87248497 -0.00000000
vn 0.48864094 0.87248497 -0.00000000
vn 0.47638971 0.87248497 -0.10873275
vn 0.44025047 0.87248497 -0.21201297
vn 0.44025047 0.87248497 -0.21201297
vn 0.38203496 0.87248497 -0.30466254
vn 0.38203496 0.87248497 -0.30466254
vn 0.30466254 0.87248497 -0.38203496
vn 0.30466254 0.87248497 -0.38203496
vn 0.21201297 0.87248497 -0.44025047
vn 0.21201297 0.87248497 -0.44025047
vn 0.10873275 0.87248497 -0.47638971
vn 0.10873275 0.87248497 -0.47638971
vn -0.00000000 0.87248497 -0.48864094
vn -0.00000000 0.87248497 -0.48864094
vn 0.13787563 0.98994949 -0.03146919
vn 0.14142136 0.98994949 -0.00000000
vn 0.14142136 0.98994949 -0.00000000
vn 0.13787563 0.98994949 -0.03146919
vn 0.12741629 0.98994949 -0.06136031
vn 0.12741629 0.98994949 -0.06136031
vn 0.11056769 0.98994949 -0.08817474
vn 0.11056769 0.98994949 -0.08817474
vn 0.08817474 0.98994949 -0.11056769
vn 0.08817474 0.98994949 -0.11056769
vn 0.06136031 0.98994949 -0.12741629
vn 0.06136031 0.98994949 -0.12741629
vn 0.03146919 0.98994949 -0.13787563
vn 0.03146919 0.98994949 -0.13787563
vn -0.00000000 0.98994949 -0.14142136
vn -0.00000000 0.98994949 -0.14142136
vn 0.00000000 1.00000000 0.00000000
vn 0.00000000 1.00000000 0.00000000
vn 0.00000000 1.00000000 0.00000000
vn 0.00000000 1.00000000 0.00000000
vn 0.00000000 1.00000000 0.00000000
vn 0.00000000 1.00000000 0.00000000
vn 0.00000000 1.00000000 0.00000000
vn 0.00000000 1.00000000 0.00000000
vn 0.00000000 1.00000000 0.00000000
vn -0.00000000 1.00000000 0.00000000
vn -0.00000000 1.00000000 0.00000000
vn -0.00000000 1.00000000 0.00000000
vn -0.00000000 1.00000000 0.00000000
vn -0.00000000 1.00000000 0.00000000
vn -0.00000000 1.00000000 0.00000000
vn -0.00000000 1.00000000 0.00000000
vn -0.00000000 1.00000000 0.00000000
vn -0.00000000 1.00000000 0.00000000
vn -0.00000000 1.00000000 0.00000000
vn -0.00000000 1.00000000 0.00000000
vn -0.00000000 1.00000000 0.00000000
vn -0.00000000 1.00000000 0.00000000
vn -0.00000000 1.00000000 0.00000000
vn -0.00000000 1.00000000 0.00000000
vn -0.00000000 1.00000000 0.00000000
vn -0.00000000 1.00000000 0.00000000
vn -0.00000000 1.00000000 0.00000000
vn -0.00000000 1.00000000 0.00000000
vn -0.00000000 1.00000000 0.00000000
vn -0.00000000 1.00000000 0.00000000
vn -0.00000000 1.00000000 0.00000000
vn -0.00000000 1.00000000 0.00000000
vn -0.00000000 1.00000000 0.00000000
vn -0.00000000 1.00000000 0.00000000
vn -0.00000000 1.00000000 0.00000000
vn -0.00000000 1.00000000 0.00000000
vn -0.00000000 1.00000000 0.00000000
vn -0.00000000 1.00000000 0.00000000
vn -0.00000000 1.00000000 0.00000000
s 1
usemtl Red
f 1/1/1 2/2/2 3/3/3
f 10/14/12 8/15/10 7/16/9
f 14/22/16 12/23/14 11/24/13
f 17/29/19 16/31/18 15/32/17
f 22/38/24 20/39/22 19/40/21
f 26/46/28 24/47/26 23/48/25
f 30/54/32 28/55/30 27/56/29
f 29/53/31 30/54/32 27/56/29
f 25/45/27 26/46/28 23/48/25
f 21/37/23 22/38/24 19/40/21
f 17/29/19 18/30/20 16/31/18
f 13/21/15 14/22/16 11/24/13
f 9/13/11 10/14/12 7/16/9
f 1/1/1 3/3/3 4/4/4
usemtl Off_White
f 2/9/2 7/11/9 8/12/10
f 12/18/14 10/19/12 9/20/11
f 16/26/18 14/27/16 13/28/15
f 19/33/21 18/35/20 17/36/19
f 24/42/26 22/43/24 21/44/23
f 28/50/30 26/51/28 25/52/27
f 31/59/33 30/58/32 29/57/31
f 32/60/34 31/59/33 29/57/31
f 27/49/29 28/50/30 25/52/27
f 23/41/25 24/42/26 21/44/23
f 19/33/21 20/34/22 18/35/20
f 15/25/17 16/26/18 13/28/15
f 11/17/13 12/18/14 9/20/11
f 2/9/2 1/10/1 7/11/9
s 2
usemtl Red
f 5/5/5 4/6/6 6/8/8
f 4/6/6 3/7/7 6/8/8
s 3
usemtl Off_White
f 34/64/38 31/63/37 32/62/36
f 34/64/38 32/62/36 33/61/35
s 4
usemtl Red
f 60/192/139 6/193/141 3/194/142
f 30/69/39 35/70/40 36/71/43
f 49/168/128 16/167/127 18/164/124
f 10/182/135 58/186/138 8/185/137
f 41/148/116 24/149/117 26/146/114
f 14/173/130 53/174/129 54/177/133
f 22/155/119 44/156/118 45/157/121
f 54/177/133 56/175/131 12/176/132
f 2/191/140 60/192/139 3/194/142
f 58/186/138 59/184/136 8/185/137
f 10/182/135 57/183/134 58/186/138
f 14/173/130 54/177/133 12/176/132
f 49/168/128 52/166/126 16/167/127
f 18/164/124 48/165/123 49/168/128
f 45/157/121 20/158/122 22/155/119
f 26/146/114 40/147/113 41/148/116
f 36/71/43 28/72/44 30/69/39
usemtl Off_White
f 31/68/42 34/67/41 35/66/40
f 60/187/139 2/188/140 59/190/136
f 28/141/44 36/142/43 39/145/115
f 39/145/115 40/143/113 26/144/114
f 12/178/132 56/179/131 57/180/134
f 24/150/117 42/154/120 22/153/119
f 53/171/129 14/172/130 16/169/127
f 20/159/122 45/160/121 46/163/125
f 46/163/125 48/161/123 18/162/124
f 18/162/124 20/159/122 46/163/125
f 16/169/127 52/170/126 53/171/129
f 42/154/120 44/152/118 22/153/119
f 24/150/117 41/151/116 42/154/120
f 57/180/134 10/181/135 12/178/132
f 28/141/44 39/145/115 26/144/114
f 2/188/140 8/189/137 59/190/136
f 31/68/42 35/66/40 30/65/39
s 5
usemtl Grass
f 37/73/45 39/77/49 36/76/48
f 36/76/48 35/75/47 38/74/46
f 37/73/45 43/81/53 41/79/51
f 43/81/53 47/85/57 44/82/54
f 47/85/57 50/88/60 48/86/58
f 53/91/63 50/88/60 51/89/61
f 56/94/66 51/89/61 55/93/65
f 55/93/65 61/99/71 59/97/69
f 61/99/71 60/98/70 59/97/69
f 59/97/69 58/96/68 55/93/65
f 55/93/65 58/96/68 57/95/67
f 55/93/65 57/95/67 56/94/66
f 56/94/66 54/92/64 51/89/61
f 51/89/61 54/92/64 53/91/63
f 53/91/63 52/90/62 50/88/60
f 52/90/62 49/87/59 50/88/60
f 50/88/60 49/87/59 48/86/58
f 48/86/58 46/84/56 47/85/57
f 47/85/57 45/83/55 44/82/54
f 47/85/57 46/84/56 45/83/55
f 44/82/54 42/80/52 43/81/53
f 43/81/53 42/80/52 41/79/51
f 41/79/51 40/78/50 37/73/45
f 40/78/50 39/77/49 37/73/45
f 36/76/48 38/74/46 37/73/45
s 6
f 37/103/75 38/102/74 62/100/72
f 38/102/74 63/101/73 62/100/72
f 37/103/75 62/100/72 64/104/76
f 43/105/77 64/104/76 65/106/78
f 47/107/79 65/106/78 66/108/80
f 50/109/81 66/108/80 67/110/82
f 51/111/83 67/110/82 68/112/84
f 68/112/84 61/114/86 55/113/85
f 68/112/84 69/115/87 61/114/86
f 55/113/85 51/111/83 68/112/84
f 51/111/83 50/109/81 67/110/82
f 50/109/81 47/107/79 66/108/80
f 47/107/79 43/105/77 65/106/78
f 43/105/77 37/103/75 64/104/76
s 7
f 62/119/91 63/118/90 70/116/88
f 63/118/90 71/117/89 70/116/88
f 62/119/91 70/116/88 72/120/92
f 64/121/93 72/120/92 73/122/94
f 65/123/95 73/122/94 74/124/96
f 66/125/97 74/124/96 75/126/98
f 67/127/99 75/126/98 76/128/100
f 76/128/100 69/130/102 68/129/101
f 76/128/100 77/131/103 69/130/102
f 68/129/101 67/127/99 76/128/100
f 67/127/99 66/125/97 75/126/98
f 66/125/97 65/123/95 74/124/96
f 65/123/95 64/121/93 73/122/94
f 64/121/93 62/119/91 72/120/92
s 8
f 78/134/106 77/132/104 76/135/107
f 70/140/112 71/133/105 78/134/106
f 78/134/106 72/139/111 70/140/112
f 78/134/106 73/138/110 72/139/111
f 78/134/106 74/137/109 73/138/110
f 78/134/106 75/136/108 74/137/109
f 78/134/106 76/135/107 75/136/108
