mtllib Track_Normal_Curve_Inner_3x4.mtl
o object1
g object1
v -1.00536851 0.50000000 -0.47263222
v -1.50000000 0.50000000 -0.50000000
v -1.50000000 0.45000000 -0.85000000
v -0.93748685 0.45000000 -0.81653768
v -0.38321545 0.45000000 -0.71518002
v -0.51698371 0.50000000 -0.38958302
v 0.15321313 0.45000000 -0.54306483
v -0.04224066 0.50000000 -0.24800891
v 0.65905097 0.45000000 -0.29544864
v 0.40872088 0.50000000 -0.04298190
v 1.11572355 0.45000000 0.03366296
v 0.82040859 0.50000000 0.23232880
v 1.49492619 0.45000000 0.44907003
v 1.16760739 0.50000000 0.58497218
v 1.64302881 0.45000000 0.68860539
v 1.30517381 0.50000000 0.79102055
v 1.75539225 0.45000000 0.94684212
v 1.82590356 0.45000000 1.21944697
v 1.47713106 0.50000000 1.25356585
v 1.41051744 0.50000000 1.01516865
v 1.85000000 0.45000000 1.50000000
v 1.50000000 0.50000000 1.50000000
v -0.93754798 0.45000000 -0.81654500
v -0.38332224 0.45000000 -0.71520658
v 0.15309075 0.45000000 -0.54311366
v 0.65894998 0.45000000 -0.29550847
v 1.11567651 0.45000000 0.03362168
v 1.75540622 0.45000000 0.94688240
v 1.64304062 0.45000000 0.68862781
v -1.50000000 0.25000000 -1.20710678
v -0.86829546 0.25000000 -1.16743485
v -0.24685059 0.25000000 -1.04741973
v 0.35249923 0.25000000 -0.84416944
v 0.91435233 0.25000000 -0.55311185
v 1.41698345 0.25000000 -0.16908474
v 1.82888782 0.25000000 0.31040371
v 1.98775660 0.25000000 0.58413622
v 2.10728458 0.25000000 0.87717377
v 2.18175807 0.25000000 1.18463773
v 2.20710678 0.25000000 1.50000000
v -0.86818834 0.25000000 -1.16742129
v -0.24666396 0.25000000 -1.04737068
v 0.35271381 0.25000000 -0.84407888
v 0.91452839 0.25000000 -0.55300135
v 1.41706725 0.25000000 -0.16900665
v 1.98773722 0.25000000 0.58409697
v 2.18175216 0.25000000 1.18460110
v 2.10726165 0.25000000 0.87710319
v -1.50000000 0.05000000 -1.35000000
v -0.84047286 0.05000000 -1.30782601
v -0.19204802 0.05000000 -1.18029989
v 0.43251423 0.05000000 -0.96453827
v 1.01673221 0.05000000 -0.65607265
v 1.53763552 0.05000000 -0.25011355
v 1.96251279 0.05000000 0.25490700
v 2.12567188 0.05000000 0.54228364
v 2.24806225 0.05000000 0.84920661
v 2.32414345 0.05000000 1.17066664
v 2.35000000 0.05000000 1.50000000
v -0.84037062 0.05000000 -1.30781283
v -0.19187008 0.05000000 -1.18025225
v 0.43271827 0.05000000 -0.96445052
v 1.01689911 0.05000000 -0.65596585
v 1.53771434 0.05000000 -0.25003859
v 2.12565368 0.05000000 0.54224594
v 2.32413793 0.05000000 1.17063162
v 2.24804080 0.05000000 0.84913904
v -1.50000000 -0.00000000 -1.50000000
v -0.81127222 -0.00000000 -1.45519975
v -0.13453015 -0.00000000 -1.31978976
v 0.51649601 -0.00000000 -1.09089568
v 1.12419251 -0.00000000 -0.76415717
v 1.66428180 -0.00000000 -0.33517519
v 2.10278747 -0.00000000 0.19665570
v 2.27044803 -0.00000000 0.49835119
v 2.39584360 -0.00000000 0.81985188
v 2.47361092 -0.00000000 1.15600256
v 2.50000000 -0.00000000 1.49816715
v 2.50000000 -0.00000000 1.50000000
v -1.50000000 0.50000000 1.50000000
vt 0.12496242 1.00000000
vt 0.00000000 1.00000000
vt 0.00000000 0.00000000
vt 0.12496242 0.00000000
vt 0.24993318 0.00000000
vt 0.24993318 1.00000000
vt 0.37491838 0.00000000
vt 0.37491838 1.00000000
vt 0.49992589 0.00000000
vt 0.49992589 1.00000000
vt 0.62495900 0.00000000
vt 0.62495900 1.00000000
vt 0.75000804 0.00000000
vt 0.75000804 1.00000000
vt 0.81251878 0.00000000
vt 0.81251878 1.00000000
vt 0.87502952 0.00000000
vt 0.93751476 0.00000000
vt 0.93751476 1.00000000
vt 0.87502952 1.00000000
vt 1.00000000 0.00000000
vt 1.00000000 1.00000000
vt 0.12494877 0.00000000
vt 0.24990879 0.00000000
vt 0.37488917 0.00000000
vt 0.49989986 0.00000000
vt 0.62494512 0.00000000
vt 0.87503897 0.00000000
vt 0.81252440 0.00000000
vt 0.12494877 1.00000000
vt 0.00000000 1.00000000
vt 0.00000000 0.00000000
vt 0.12494877 0.00000000
vt 0.24990879 0.00000000
vt 0.24990879 1.00000000
vt 0.37488917 0.00000000
vt 0.37488917 1.00000000
vt 0.49989985 0.00000000
vt 0.49989985 1.00000000
vt 0.62494512 0.00000000
vt 0.62494512 1.00000000
vt 0.75000983 0.00000000
vt 0.75000983 1.00000000
vt 0.81252440 0.00000000
vt 0.81252440 1.00000000
vt 0.87503897 0.00000000
vt 0.93751948 0.00000000
vt 0.93751948 1.00000000
vt 0.87503897 1.00000000
vt 1.00000000 0.00000000
vt 1.00000000 1.00000000
vt 0.12496242 1.00000000
vt 0.12497008 0.00000000
vt 0.24993318 1.00000000
vt 0.24994686 0.00000000
vt 0.37491838 1.00000000
vt 0.37493513 0.00000000
vt 0.49992589 1.00000000
vt 0.49994088 0.00000000
vt 0.62495901 1.00000000
vt 0.62496773 0.00000000
vt 0.81251878 1.00000000
vt 0.81251576 0.00000000
vt 0.93751216 0.00000000
vt 0.87502951 1.00000000
vt 0.87502432 0.00000000
vt 0.12497008 1.00000000
vt 0.00000000 1.00000000
vt 0.00000000 0.00000000
vt 0.12497008 0.00000000
vt 0.24994686 0.00000000
vt 0.24994686 1.00000000
vt 0.37493513 0.00000000
vt 0.37493513 1.00000000
vt 0.49994088 0.00000000
vt 0.49994088 1.00000000
vt 0.62496773 0.00000000
vt 0.62496773 1.00000000
vt 0.75000719 0.00000000
vt 0.75000719 1.00000000
vt 0.81251576 0.00000000
vt 0.81251576 1.00000000
vt 0.87502432 0.00000000
vt 0.93751216 0.00000000
vt 0.93751216 1.00000000
vt 0.87502432 1.00000000
vt 1.00000000 0.00000000
vt 1.00000000 1.00000000
vt 0.12494877 1.00000000
vt 0.24990879 1.00000000
vt 0.12498955 0.00000000
vt 0.37488917 1.00000000
vt 0.24998167 0.00000000
vt 0.49989986 1.00000000
vt 0.37497711 0.00000000
vt 0.62494512 1.00000000
vt 0.49997833 0.00000000
vt 0.62498830 0.00000000
vt 0.81250784 0.00000000
vt 0.87503897 1.00000000
vt 0.93750546 0.00000000
vt 0.81252440 1.00000000
vt 0.87501093 0.00000000
vt 0.93751948 1.00000000
vt 0.12498955 1.00000000
vt 0.00000000 1.00000000
vt 0.00000000 0.00000000
vt 0.12498955 0.00000000
vt 0.24998167 0.00000000
vt 0.24998167 1.00000000
vt 0.37497711 0.00000000
vt 0.37497711 1.00000000
vt 0.49997833 0.00000000
vt 0.49997833 1.00000000
vt 0.62498830 0.00000000
vt 0.62498830 1.00000000
vt 0.75000476 0.00000000
vt 0.75000476 1.00000000
vt 0.81250784 0.00000000
vt 0.81250784 1.00000000
vt 0.87501093 0.00000000
vt 0.93750546 0.00000000
vt 0.93750546 1.00000000
vt 0.87501093 1.00000000
vt 0.99966836 0.00000000
vt 1.00000000 0.00000000
vt 1.00000000 1.00000000
vt 0.12497008 1.00000000
vt 0.24994686 1.00000000
vt 0.37493513 1.00000000
vt 0.49994088 1.00000000
vt 0.62496773 1.00000000
vt 0.87502432 1.00000000
vt 0.81251576 1.00000000
vt 0.93751216 1.00000000
vt 0.00000000 0.00000000
vt 0.99996987 1.00000000
vt 0.00000000 1.00000000
vt 0.99234713 0.87678292
vt 0.97014325 0.75758432
vt 0.93502977 0.64551027
vt 0.88917567 0.54248609
vt 0.77344623 0.36616440
vt 0.63622113 0.22850905
vt 0.48590514 0.12599555
vt 0.32766223 0.05520849
vt 0.16487220 0.01368389
vn 0.01569526 0.98991025 -0.14082385
vn 0.00002832 0.98994949 -0.14142136
vn 0.00002533 0.98994949 -0.14142136
vn 0.01685085 0.98992340 -0.14059767
vn 0.03430348 0.98985024 -0.13791219
vn 0.03209436 0.98979858 -0.13881185
vn 0.05293183 0.98974743 -0.13265840
vn 0.04990544 0.98963647 -0.13464436
vn 0.07314504 0.98964892 -0.12346989
vn 0.06972667 0.98947148 -0.12682419
vn 0.09484430 0.98960783 -0.10807824
vn 0.09169183 0.98938833 -0.11270910
vn 0.11658818 0.98967977 -0.08331351
vn 0.11447525 0.98949114 -0.08833291
vn 0.12631635 0.98975807 -0.06650668
vn 0.12491869 0.98961974 -0.07104985
vn 0.13428078 0.98984816 -0.04657561
vn 0.13956267 0.98992122 -0.02404655
vn 0.13937312 0.98989980 -0.02595218
vn 0.13357830 0.98977281 -0.05006620
vn 0.14142136 0.98994949 0.00009135
vn 0.14142136 0.98994949 0.00011598
vn 0.01684898 0.98992341 -0.14059785
vn 0.03429998 0.98985026 -0.13791293
vn 0.05292729 0.98974745 -0.13266002
vn 0.07314066 0.98964894 -0.12347235
vn 0.09484184 0.98960783 -0.10808040
vn 0.13428180 0.98984818 -0.04657237
vn 0.12631716 0.98975808 -0.06650502
vn 0.05820006 0.87221063 -0.48565561
vn 0.00008750 0.87248497 -0.48864094
vn 0.00007925 0.87248497 -0.48864094
vn 0.06138935 0.87231056 -0.48508313
vn 0.12449538 0.87183130 -0.47372048
vn 0.11838401 0.87144255 -0.47599696
vn 0.19088705 0.87118867 -0.45231895
vn 0.18246823 0.87036621 -0.45734889
vn 0.26150098 0.87062953 -0.41667908
vn 0.25188161 0.86933823 -0.42521371
vn 0.33553317 0.87047983 -0.36011436
vn 0.32646880 0.86891022 -0.37203918
vn 0.40793465 0.87099487 -0.27378323
vn 0.40164298 0.86965965 -0.28701046
vn 0.43978364 0.87145562 -0.21715308
vn 0.43553262 0.87047730 -0.22930461
vn 0.46563473 0.87195454 -0.15125997
vn 0.48266680 0.87233982 -0.07782030
vn 0.48206919 0.87218768 -0.08305389
vn 0.46345374 0.87142070 -0.16073764
vn 0.48864093 0.87248495 0.00024767
vn 0.48864092 0.87248493 0.00031562
vn 0.05820650 0.87221057 -0.48565495
vn 0.06139993 0.87231050 -0.48508189
vn 0.11839607 0.87144236 -0.47599431
vn 0.12451501 0.87183112 -0.47371565
vn 0.18248380 0.87036595 -0.45734317
vn 0.19091223 0.87118843 -0.45230878
vn 0.25189663 0.86933805 -0.42520518
vn 0.26152481 0.87062939 -0.41666442
vn 0.32647726 0.86891023 -0.37203172
vn 0.33554666 0.87047986 -0.36010172
vn 0.43552979 0.87047722 -0.22931029
vn 0.43977959 0.87145555 -0.21716156
vn 0.48266542 0.87233979 -0.07782922
vn 0.46345013 0.87142057 -0.16074878
vn 0.46562960 0.87195443 -0.15127639
vn 0.10220432 0.58101321 -0.80745150
vn 0.00013196 0.58133537 -0.81366404
vn 0.00012727 0.58133537 -0.81366404
vn 0.10402147 0.58107226 -0.80717691
vn 0.21057415 0.58035790 -0.78666590
vn 0.20706228 0.58012979 -0.78776560
vn 0.32197858 0.57942696 -0.74872838
vn 0.31706535 0.57894947 -0.75119044
vn 0.43960029 0.57866680 -0.68694710
vn 0.43384904 0.57792648 -0.69121342
vn 0.56208804 0.57854282 -0.59105434
vn 0.55647804 0.57765344 -0.59720071
vn 0.68129693 0.57934592 -0.44742909
vn 0.67722739 0.57859484 -0.45452291
vn 0.73359014 0.57998908 -0.35420075
vn 0.73077619 0.57943947 -0.36085462
vn 0.77598620 0.58065675 -0.24633951
vn 0.80388665 0.58115282 -0.12660037
vn 0.80347689 0.58106727 -0.12955969
vn 0.77451233 0.58035679 -0.25162797
vn 0.81366399 0.58133533 0.00037380
vn 0.81366398 0.58133532 0.00041241
vn 0.10218673 0.58101332 -0.80745365
vn 0.20702970 0.58013012 -0.78777392
vn 0.10403783 0.58107218 -0.80717486
vn 0.31702369 0.57894990 -0.75120769
vn 0.21060439 0.58035765 -0.78665799
vn 0.43380963 0.57792673 -0.69123794
vn 0.32201703 0.57942666 -0.74871208
vn 0.55645564 0.57765339 -0.59722164
vn 0.43963640 0.57866664 -0.68692412
vn 0.56210829 0.57854287 -0.59103504
vn 0.73358406 0.57998899 -0.35421349
vn 0.77452104 0.58035699 -0.25160071
vn 0.80388459 0.58115278 -0.12661365
vn 0.73078302 0.57943960 -0.36084058
vn 0.77597851 0.58065662 -0.24636406
vn 0.80347924 0.58106733 -0.12954485
vn 0.04044950 0.94861838 -0.31382638
vn 0.00004946 0.94868330 -0.31622777
vn 0.00004771 0.94868330 -0.31622777
vn 0.04112641 0.94863196 -0.31369735
vn 0.08325651 0.94849427 -0.30565825
vn 0.08196770 0.94844178 -0.30616905
vn 0.12725653 0.94832079 -0.29067760
vn 0.12550056 0.94821084 -0.29179756
vn 0.17350649 0.94819181 -0.26613492
vn 0.17153147 0.94802161 -0.26801489
vn 0.22118015 0.94819409 -0.22805110
vn 0.21935569 0.94799073 -0.23064399
vn 0.26679436 0.94836085 -0.17155893
vn 0.26555422 0.94819076 -0.17439965
vn 0.28649666 0.94847423 -0.13533769
vn 0.28566653 0.94835044 -0.13793503
vn 0.30230358 0.94858297 -0.09382373
vn 0.31262572 0.94865738 -0.04810755
vn 0.31251034 0.94863827 -0.04922109
vn 0.30188061 0.94851574 -0.09584355
vn 0.31622782 0.94868327 -0.00013082
vn 0.31622776 0.94868329 0.00013083
vn 0.31622776 0.94868329 0.00014528
vn 0.04044313 0.94861840 -0.31382714
vn 0.08195590 0.94844184 -0.30617202
vn 0.12548551 0.94821091 -0.29180378
vn 0.17151734 0.94802165 -0.26802379
vn 0.21934781 0.94799072 -0.23065154
vn 0.30188355 0.94851577 -0.09583398
vn 0.28566886 0.94835046 -0.13793005
vn 0.31251113 0.94863828 -0.04921592
vn -0.00000000 1.00000000 0.00000000
vn -0.00000000 1.00000000 0.00000000
vn -0.00000000 1.00000000 0.00000000
vn -0.00000000 1.00000000 0.00000000
vn -0.00000000 1.00000000 0.00000000
vn -0.00000000 1.00000000 0.00000000
vn -0.00000000 1.00000000 0.00000000
vn -0.00000000 1.00000000 0.00000000
vn -0.00000000 1.00000000 0.00000000
vn -0.00000000 1.00000000 0.00000000
vn -0.00000000 1.00000000 0.00000000
vn -0.00000000 1.00000000 0.00000000
s 1
usemtl Grass
f 3/3/3 2/2/2 1/1/1
f 4/4/4 1/1/1 6/6/6
f 5/5/5 6/6/6 8/8/8
f 7/7/7 8/8/8 10/10/10
f 9/9/9 10/10/10 12/12/12
f 12/12/12 14/14/14 11/11/11
f 14/14/14 16/16/16 13/13/13
f 15/15/15 16/16/16 20/20/20
f 20/20/20 17/17/17 29/29/29
f 19/19/19 28/28/28 17/17/17
f 19/19/19 22/22/22 18/18/18
f 22/22/22 21/21/21 18/18/18
f 19/19/19 18/18/18 28/28/28
f 17/17/17 20/20/20 19/19/19
f 20/20/20 29/29/29 15/15/15
f 16/16/16 15/15/15 13/13/13
f 14/14/14 13/13/13 11/11/11
f 12/12/12 11/11/11 27/27/27
f 27/27/27 9/9/9 12/12/12
f 10/10/10 9/9/9 26/26/26
f 26/26/26 7/7/7 10/10/10
f 8/8/8 7/7/7 25/25/25
f 25/25/25 5/5/5 8/8/8
f 6/6/6 5/5/5 24/24/24
f 24/24/24 4/4/4 6/6/6
f 4/4/4 23/23/23 1/1/1
f 23/23/23 3/3/3 1/1/1
s 2
f 31/33/33 30/32/32 23/30/30
f 30/32/32 3/31/31 23/30/30
f 4/52/52 41/53/53 31/33/33
f 4/52/52 32/34/34 41/53/53
f 5/54/54 42/55/55 32/34/34
f 25/37/37 33/36/36 42/55/55
f 7/56/56 43/57/57 33/36/36
f 26/39/39 34/38/38 43/57/57
f 9/58/58 44/59/59 34/38/38
f 27/41/41 35/40/40 44/59/59
f 11/60/60 45/61/61 35/40/40
f 13/43/43 36/42/42 45/61/61
f 46/63/63 36/42/42 15/62/62
f 29/45/45 37/44/44 46/63/63
f 48/66/66 37/44/44 17/65/65
f 28/49/49 38/46/46 48/66/66
f 47/64/64 38/46/46 18/48/48
f 18/48/48 21/51/51 39/47/47
f 21/51/51 40/50/50 39/47/47
f 18/48/48 39/47/47 47/64/64
f 38/46/46 28/49/49 18/48/48
f 48/66/66 17/65/65 28/49/49
f 37/44/44 29/45/45 17/65/65
f 46/63/63 15/62/62 29/45/45
f 36/42/42 13/43/43 15/62/62
f 11/60/60 13/43/43 45/61/61
f 35/40/40 27/41/41 11/60/60
f 9/58/58 27/41/41 44/59/59
f 34/38/38 26/39/39 9/58/58
f 7/56/56 26/39/39 43/57/57
f 33/36/36 25/37/37 7/56/56
f 5/54/54 25/37/37 42/55/55
f 32/34/34 24/35/35 5/54/54
f 4/52/52 24/35/35 32/34/34
f 31/33/33 23/30/30 4/52/52
s 3
f 49/69/69 30/68/68 31/89/89
f 50/70/70 31/89/89 41/67/67
f 60/91/91 50/70/70 32/90/90
f 32/90/90 42/72/72 60/91/91
f 51/71/71 42/72/72 33/92/92
f 33/92/92 43/74/74 61/93/93
f 52/73/73 43/74/74 34/94/94
f 34/94/94 44/76/76 62/95/95
f 53/75/75 44/76/76 35/96/96
f 35/96/96 45/78/78 63/97/97
f 54/77/77 45/78/78 36/80/80
f 55/79/79 36/80/80 46/82/82
f 67/103/103 46/82/82 37/102/102
f 37/102/102 48/86/86 57/83/83
f 48/86/86 38/100/100 66/101/101
f 38/100/100 58/84/84 66/101/101
f 47/85/85 39/104/104 58/84/84
f 39/104/104 40/88/88 59/87/87
f 39/104/104 59/87/87 58/84/84
f 38/100/100 47/85/85 58/84/84
f 66/101/101 57/83/83 48/86/86
f 37/102/102 57/83/83 67/103/103
f 67/103/103 56/81/81 46/82/82
f 46/82/82 56/81/81 65/99/99
f 65/99/99 55/79/79 46/82/82
f 36/80/80 55/79/79 64/98/98
f 36/80/80 64/98/98 54/77/77
f 45/78/78 54/77/77 63/97/97
f 35/96/96 63/97/97 53/75/75
f 44/76/76 53/75/75 62/95/95
f 34/94/94 62/95/95 52/73/73
f 43/74/74 52/73/73 61/93/93
f 61/93/93 51/71/71 33/92/92
f 42/72/72 51/71/71 60/91/91
f 50/70/70 41/67/67 32/90/90
f 50/70/70 49/69/69 31/89/89
s 4
usemtl Dirt
f 68/107/107 49/106/106 50/128/128
f 69/108/108 50/128/128 60/105/105
f 70/109/109 69/108/108 51/129/129
f 71/111/111 70/109/109 52/130/130
f 72/113/113 71/111/111 53/131/131
f 73/115/115 72/113/113 54/132/132
f 55/118/118 74/117/117 73/115/115
f 65/120/120 75/119/119 74/117/117
f 56/134/134 67/124/124 75/119/119
f 67/124/124 57/133/133 76/121/121
f 66/123/123 77/122/122 76/121/121
f 78/125/125 66/123/123 58/135/135
f 58/135/135 59/127/127 79/126/126
f 58/135/135 79/126/126 78/125/125
f 78/125/125 77/122/122 66/123/123
f 57/133/133 66/123/123 76/121/121
f 67/124/124 76/121/121 75/119/119
f 65/120/120 56/134/134 75/119/119
f 55/118/118 65/120/120 74/117/117
f 64/116/116 55/118/118 73/115/115
f 54/132/132 64/116/116 73/115/115
f 72/113/113 63/114/114 54/132/132
f 53/131/131 63/114/114 72/113/113
f 71/111/111 62/112/112 53/131/131
f 52/130/130 62/112/112 71/111/111
f 70/109/109 61/110/110 52/130/130
f 51/129/129 61/110/110 70/109/109
f 69/108/108 60/105/105 51/129/129
f 69/108/108 68/107/107 50/128/128
s 5
usemtl Grass
f 1/147/147 2/136/136 80/138/138
f 12/143/143 80/138/138 22/137/137
f 22/137/137 20/140/140 14/142/142
f 20/140/140 16/141/141 14/142/142
f 22/137/137 19/139/139 20/140/140
f 22/137/137 14/142/142 12/143/143
f 12/143/143 10/144/144 80/138/138
f 10/144/144 8/145/145 80/138/138
f 8/145/145 6/146/146 80/138/138
f 6/146/146 1/147/147 80/138/138
