mtllib Track_Curbed_Curve_Outer_3x3.mtl
o object1
g object1
v 0.98977217 0.25000000 0.73540307
v 1.50000000 0.25000000 0.79289322
v 1.50000000 0.05000000 0.65000000
v 1.02156634 0.05000000 0.59609189
v 0.94353905 0.05000000 0.57674053
v 0.56714040 0.05000000 0.43707846
v 0.50514748 0.25000000 0.56582375
v 0.07040316 0.25000000 0.29265507
v 0.42500000 0.05000000 0.36195462
v 0.15949564 0.05000000 0.18093666
v -0.29265507 0.25000000 -0.07040316
v -0.02027958 0.05000000 0.02027958
v -0.18093666 0.05000000 -0.15949564
v -0.56582375 0.25000000 -0.50514748
v -0.36195462 0.05000000 -0.42500000
v -0.43707846 0.05000000 -0.56714040
v -0.73540307 0.25000000 -0.98977217
v -0.57674053 0.05000000 -0.94353905
v -0.59609189 0.05000000 -1.02156634
v -0.65000000 0.05000000 -1.50000000
v -0.79289322 0.25000000 -1.50000000
v 0.47500000 0.05000000 0.27535208
v 0.96942096 0.05000000 0.48014794
v 0.71549640 0.05000000 0.39395198
v 0.73463063 0.00000000 0.34775803
v 0.50000000 0.00000000 0.23205081
v 0.98236191 0.00000000 0.43185165
v 0.28247693 0.00000000 0.08670652
v 0.08578644 0.00000000 -0.08578644
v 0.05043110 0.05000000 -0.05043110
v 0.25203885 0.05000000 0.12637418
v -0.08670652 0.00000000 -0.28247693
v -0.23205081 0.00000000 -0.50000000
v -0.27535208 0.05000000 -0.47500000
v -0.12637418 0.05000000 -0.25203885
v -0.34775803 0.00000000 -0.73463063
v -0.43185165 0.00000000 -0.98236191
v -0.48014794 0.05000000 -0.96942096
v -0.39395198 0.05000000 -0.71549640
v -0.48288972 0.00000000 -1.23894762
v -0.50000000 -0.00000000 -1.50000000
v -0.55000000 0.05000000 -1.50000000
v -0.53246197 0.05000000 -1.23242131
v -0.55000000 0.05000000 -1.62500000
v -0.50000000 -0.00000000 -1.75000000
v -0.75000000 0.00000000 -1.75000000
v -0.65000000 0.05000000 -1.62500000
v 1.23894762 0.00000000 0.48288972
v 1.23242131 0.05000000 0.53246197
v 1.50000000 0.05000000 0.55000000
v 1.50000000 -0.00000000 0.50000000
v 1.62500000 0.05000000 0.55000000
v 1.75000000 -0.00000000 0.50000000
v 1.75000000 0.00000000 0.75000000
v 1.62500000 0.05000000 0.65000000
v 0.91030671 0.45000000 1.08355604
v 1.50000000 0.45000000 1.15000000
v 0.35020411 0.45000000 0.88756558
v -0.15224948 0.45000000 0.57185223
v -0.57185223 0.45000000 0.15224948
v -0.88756558 0.45000000 -0.35020411
v -1.08355604 0.45000000 -0.91030671
v -1.15000000 0.45000000 -1.50000000
v 0.83242269 0.50000000 1.42478042
v 1.50000000 0.50000000 1.50000000
v 0.19834428 0.50000000 1.20290444
v -0.37047110 0.50000000 0.84549309
v -0.84549309 0.50000000 0.37047110
v -1.20290444 0.50000000 -0.19834428
v -1.42478042 0.50000000 -0.83242269
v -1.50000000 0.50000000 -1.50000000
v -1.50000000 0.50000000 1.50000000
vt 0.15223841 1.00000000
vt 0.00000000 1.00000000
vt 0.00000000 0.00000000
vt 0.15223841 0.00000000
vt 0.17655671 0.00000000
vt 0.29490376 0.00000000
vt 0.29490376 1.00000000
vt 0.43221016 1.00000000
vt 0.34108138 0.00000000
vt 0.43221016 0.00000000
vt 0.56778984 1.00000000
vt 0.50000000 0.00000000
vt 0.56778984 0.00000000
vt 0.70509624 1.00000000
vt 0.65891862 0.00000000
vt 0.70509624 0.00000000
vt 0.84776159 1.00000000
vt 0.82344329 0.00000000
vt 0.84776159 0.00000000
vt 1.00000000 0.00000000
vt 1.00000000 1.00000000
vt 0.71265475 0.00000000
vt 1.00000000 0.09184070
vt 0.32049199 1.00000000
vt 0.00000000 0.95245976
vt 0.60648173 0.53359652
vt 0.46337753 0.26110618
vt 0.49348552 1.00000000
vt 0.00000000 1.00000000
vt 0.00000000 0.00000000
vt 0.49348552 0.00000000
vt 1.00000000 0.00000000
vt 1.00000000 1.00000000
vt 0.49785257 1.00000000
vt 0.00000000 1.00000000
vt 0.00000000 0.00000000
vt 0.49785257 0.00000000
vt 1.00000000 0.00000000
vt 1.00000000 1.00000000
vt 0.50214743 1.00000000
vt 0.00000000 1.00000000
vt 0.00000000 0.00000000
vt 0.50214743 0.00000000
vt 1.00000000 0.00000000
vt 1.00000000 1.00000000
vt 0.50651448 1.00000000
vt 0.00000000 1.00000000
vt 0.00000000 0.00000000
vt 0.50651448 0.00000000
vt 1.00000000 0.00000000
vt 1.00000000 1.00000000
vt 0.50000000 1.00000000
vt 0.00000000 1.00000000
vt 0.00000000 0.00000000
vt 0.50000000 0.00000000
vt 1.00000000 0.00000000
vt 1.00000000 1.00000000
vt 0.00000000 1.00000000
vt 0.00000000 0.00000000
vt 0.50000000 0.00000000
vt 1.00000000 1.00000000
vt 0.00000000 0.00000000
vt 1.00000000 0.00000000
vt 0.80000000 1.00000000
vt 0.40000000 1.00000000
vt 0.00000000 1.00000000
vt 0.00000000 0.00000000
vt 1.00000000 0.00000000
vt 1.00000000 1.00000000
vt 0.50000000 1.00000000
vt 0.00000000 1.00000000
vt 0.00000000 0.00000000
vt 0.50000000 0.00000000
vt 1.00000000 0.00000000
vt 1.00000000 1.00000000
vt 0.00000000 1.00000000
vt 0.00000000 0.00000000
vt 0.50000000 0.00000000
vt 1.00000000 1.00000000
vt 0.00000000 0.00000000
vt 1.00000000 0.00000000
vt 0.80000000 1.00000000
vt 0.40000000 1.00000000
vt 0.00000000 1.00000000
vt 0.00000000 0.00000000
vt 1.00000000 0.00000000
vt 1.00000000 1.00000000
vt 0.58874766 1.00000000
vt 0.00000000 1.00000000
vt 0.43131343 0.00000000
vt 1.00000000 0.04651163
vt 0.31736397 0.14024565
vt 0.69200242 0.51914201
vt 0.15223841 1.00000000
vt 0.00000000 1.00000000
vt 0.00000000 0.00000000
vt 0.15223841 0.00000000
vt 0.29490376 1.00000000
vt 0.29490376 0.00000000
vt 0.43221016 1.00000000
vt 0.43221016 0.00000000
vt 0.56778984 1.00000000
vt 0.56778984 0.00000000
vt 0.70509624 1.00000000
vt 0.70509624 0.00000000
vt 0.84776159 1.00000000
vt 0.84776159 0.00000000
vt 1.00000000 0.00000000
vt 1.00000000 1.00000000
vt 0.15223841 1.00000000
vt 0.00000000 1.00000000
vt 0.00000000 0.00000000
vt 0.15223841 0.00000000
vt 0.29490376 1.00000000
vt 0.29490376 0.00000000
vt 0.43221016 1.00000000
vt 0.43221016 0.00000000
vt 0.56778984 1.00000000
vt 0.56778984 0.00000000
vt 0.70509624 1.00000000
vt 0.70509624 0.00000000
vt 0.84776159 1.00000000
vt 0.84776159 0.00000000
vt 1.00000000 0.00000000
vt 1.00000000 1.00000000
vt 1.00000000 0.00000000
vt 0.00000000 1.00000000
vt 0.00000000 0.00000000
vt 0.77747924 0.02507205
vt 0.56611704 0.09903075
vt 0.37651043 0.21816833
vt 0.21816833 0.37651043
vt 0.09903075 0.56611704
vt 0.02507205 0.77747924
vt 1.00000000 0.00000000
vt 1.00000000 0.58874766
vt 0.04651163 1.00000000
vt 0.00000000 0.43131343
vt 0.51914201 0.69200242
vt 0.14024565 0.31736397
vt 0.95245976 0.00000000
vt 1.00000000 0.32049199
vt 0.09184070 1.00000000
vt 0.00000000 0.71265475
vt 0.53359652 0.60648173
vt 0.26110618 0.46337753
vt 0.89904692 0.00000000
vt 1.00000000 0.21000373
vt 0.14276922 1.00000000
vt 0.00000000 0.82853267
vt 0.54982866 0.57126148
vt 0.36298096 0.43894947
vt 0.82853267 0.00000000
vt 1.00000000 0.14276922
vt 0.21000373 1.00000000
vt 0.00000000 0.89904692
vt 0.57126148 0.54982866
vt 0.43894947 0.36298096
vn 0.18105714 0.58133537 -0.79326382
vn -0.00000000 0.58133537 -0.81366405
vn -0.00000000 0.58133537 -0.81366405
vn 0.18105714 0.58133537 -0.79326382
vn 0.21059175 0.58133537 -0.78593912
vn 0.35303495 0.58133537 -0.73308629
vn 0.35303495 0.58133537 -0.73308629
vn 0.50731105 0.58133537 -0.63614831
vn 0.40683202 0.58133537 -0.70465374
vn 0.50731105 0.58133537 -0.63614831
vn 0.63614831 0.58133537 -0.50731105
vn 0.57534737 0.58133537 -0.57534737
vn 0.63614831 0.58133537 -0.50731105
vn 0.73308629 0.58133537 -0.35303495
vn 0.70465374 0.58133537 -0.40683202
vn 0.73308629 0.58133537 -0.35303495
vn 0.79326382 0.58133537 -0.18105714
vn 0.78593912 0.58133537 -0.21059175
vn 0.79326382 0.58133537 -0.18105714
vn 0.81366405 0.58133537 -0.00000000
vn 0.81366405 0.58133537 -0.00000000
vn -0.00000000 1.00000000 -0.00000000
vn -0.00000000 1.00000000 -0.00000000
vn -0.00000000 1.00000000 -0.00000000
vn -0.00000000 1.00000000 -0.00000000
vn -0.00000000 1.00000000 -0.00000000
vn -0.00000000 1.00000000 -0.00000000
vn 0.27059733 0.70710678 -0.65328178
vn 0.35355339 0.70710678 -0.61237244
vn 0.35355339 0.70710678 -0.61237244
vn 0.27059733 0.70710678 -0.65328178
vn 0.18301270 0.70710678 -0.68301270
vn 0.18301270 0.70710678 -0.68301270
vn 0.43045926 0.70710678 -0.56098559
vn 0.50000000 0.70710678 -0.50000000
vn 0.50000000 0.70710678 -0.50000000
vn 0.43045926 0.70710678 -0.56098559
vn 0.56098559 0.70710678 -0.43045926
vn 0.61237244 0.70710678 -0.35355339
vn 0.61237244 0.70710678 -0.35355339
vn 0.56098559 0.70710678 -0.43045926
vn 0.65328178 0.70710678 -0.27059733
vn 0.68301270 0.70710678 -0.18301270
vn 0.68301270 0.70710678 -0.18301270
vn 0.65328178 0.70710678 -0.27059733
vn 0.70105738 0.70710678 -0.09229596
vn 0.70710678 0.70710678 -0.00000000
vn 0.70710678 0.70710678 -0.00000000
vn 0.70105738 0.70710678 -0.09229596
vn 0.70710678 0.70710678 0.00000000
vn 0.70710678 0.70710678 0.00000000
vn -0.00000000 0.92847669 -0.37139068
vn -0.00000000 0.92847669 -0.37139068
vn -0.00000000 0.92847669 -0.37139068
vn -0.00000000 0.92847669 -0.37139068
vn -0.00000000 1.00000000 0.00000000
vn -0.00000000 1.00000000 0.00000000
vn -0.00000000 1.00000000 0.00000000
vn -0.00000000 1.00000000 0.00000000
vn 0.09229596 0.70710678 -0.70105738
vn 0.09229596 0.70710678 -0.70105738
vn 0.00000000 0.70710678 -0.70710678
vn 0.00000000 0.70710678 -0.70710678
vn -0.00000000 0.70710678 -0.70710678
vn -0.00000000 0.70710678 -0.70710678
vn 0.37139068 0.92847669 0.00000000
vn 0.37139068 0.92847669 0.00000000
vn 0.37139068 0.92847669 0.00000000
vn 0.37139068 0.92847669 0.00000000
vn -0.00000000 1.00000000 0.00000000
vn -0.00000000 1.00000000 0.00000000
vn -0.00000000 1.00000000 0.00000000
vn -0.00000000 1.00000000 0.00000000
vn -0.00000000 1.00000000 -0.00000000
vn -0.00000000 1.00000000 -0.00000000
vn 0.10873275 0.87248497 -0.47638971
vn 0.00000000 0.87248497 -0.48864094
vn 0.00000000 0.87248497 -0.48864094
vn 0.10873275 0.87248497 -0.47638971
vn 0.21201297 0.87248497 -0.44025047
vn 0.21201297 0.87248497 -0.44025047
vn 0.30466254 0.87248497 -0.38203496
vn 0.30466254 0.87248497 -0.38203496
vn 0.38203496 0.87248497 -0.30466254
vn 0.38203496 0.87248497 -0.30466254
vn 0.44025047 0.87248497 -0.21201297
vn 0.44025047 0.87248497 -0.21201297
vn 0.47638971 0.87248497 -0.10873275
vn 0.47638971 0.87248497 -0.10873275
vn 0.48864094 0.87248497 -0.00000000
vn 0.48864094 0.87248497 -0.00000000
vn 0.03146919 0.98994949 -0.13787563
vn 0.00000000 0.98994949 -0.14142136
vn 0.00000000 0.98994949 -0.14142136
vn 0.03146919 0.98994949 -0.13787563
vn 0.06136031 0.98994949 -0.12741629
vn 0.06136031 0.98994949 -0.12741629
vn 0.08817474 0.98994949 -0.11056769
vn 0.08817474 0.98994949 -0.11056769
vn 0.11056769 0.98994949 -0.08817474
vn 0.11056769 0.98994949 -0.08817474
vn 0.12741629 0.98994949 -0.06136031
vn 0.12741629 0.98994949 -0.06136031
vn 0.13787563 0.98994949 -0.03146919
vn 0.13787563 0.98994949 -0.03146919
vn 0.14142136 0.98994949 -0.00000000
vn 0.14142136 0.98994949 -0.00000000
vn 0.00000000 1.00000000 0.00000000
vn 0.00000000 1.00000000 0.00000000
vn 0.00000000 1.00000000 0.00000000
vn 0.00000000 1.00000000 0.00000000
vn 0.00000000 1.00000000 0.00000000
vn 0.00000000 1.00000000 0.00000000
vn 0.00000000 1.00000000 0.00000000
vn 0.00000000 1.00000000 0.00000000
vn 0.00000000 1.00000000 0.00000000
vn -0.00000000 1.00000000 -0.00000000
vn -0.00000000 1.00000000 -0.00000000
vn -0.00000000 1.00000000 -0.00000000
vn -0.00000000 1.00000000 -0.00000000
vn -0.00000000 1.00000000 -0.00000000
vn -0.00000000 1.00000000 -0.00000000
vn -0.00000000 1.00000000 -0.00000000
vn -0.00000000 1.00000000 -0.00000000
vn -0.00000000 1.00000000 -0.00000000
vn -0.00000000 1.00000000 -0.00000000
vn -0.00000000 1.00000000 -0.00000000
vn -0.00000000 1.00000000 -0.00000000
vn -0.00000000 1.00000000 -0.00000000
vn -0.00000000 1.00000000 -0.00000000
s 1
usemtl Grass
f 1/1/1 2/2/2 3/3/3
f 5/5/5 7/7/7 1/1/1
f 8/8/8 7/7/7 9/9/9
f 11/11/11 8/8/8 12/12/12
f 14/14/14 11/11/11 15/15/15
f 17/17/17 14/14/14 18/18/18
f 20/20/20 21/21/21 17/17/17
f 19/19/19 20/20/20 17/17/17
f 18/18/18 19/19/19 17/17/17
f 14/14/14 16/16/16 18/18/18
f 15/15/15 16/16/16 14/14/14
f 11/11/11 13/13/13 15/15/15
f 12/12/12 13/13/13 11/11/11
f 8/8/8 10/10/10 12/12/12
f 9/9/9 10/10/10 8/8/8
f 7/7/7 6/6/6 9/9/9
f 5/5/5 6/6/6 7/7/7
f 1/1/1 4/4/4 5/5/5
f 1/1/1 3/3/3 4/4/4
s 2
usemtl Red
f 22/23/23 9/22/22 6/27/27
f 5/25/25 24/26/26 6/27/27
f 50/84/70 55/86/72 52/87/73
f 50/84/70 3/85/71 55/86/72
f 5/25/25 23/24/24 24/26/26
f 13/152/128 30/149/125 35/151/127
f 35/151/127 34/148/121 15/147/122
f 19/140/120 38/137/117 43/139/119
f 43/139/119 42/136/56 20/135/57
f 43/139/119 20/135/57 19/140/120
f 19/140/120 18/138/118 38/137/117
f 35/151/127 15/147/122 13/152/128
f 13/152/128 12/150/126 30/149/125
f 24/26/26 22/23/23 6/27/27
usemtl Off_White
f 23/91/24 5/90/25 4/92/74
f 4/92/74 3/89/71 49/93/75
f 3/89/71 50/88/70 49/93/75
f 49/93/75 23/91/24 4/92/74
f 9/156/22 31/157/129 10/158/130
f 30/154/125 12/153/126 10/158/130
f 16/146/124 34/143/121 39/145/123
f 39/145/123 38/142/117 18/141/118
f 44/69/59 47/68/58 20/67/57
f 44/69/59 20/67/57 42/66/56
f 39/145/123 18/141/118 16/146/124
f 16/146/124 15/144/122 34/143/121
f 31/157/129 30/154/125 10/158/130
f 9/156/22 22/155/23 31/157/129
s 3
usemtl Red
f 25/28/28 26/29/29 24/31/31
f 24/31/31 23/32/32 27/33/33
f 51/76/63 52/78/64 53/79/65
f 51/76/63 50/77/62 52/78/64
f 35/43/41 29/45/35 32/40/38
f 33/41/39 34/42/40 35/43/41
f 43/55/49 37/57/43 40/52/46
f 40/52/46 41/53/47 42/54/48
f 40/52/46 42/54/48 43/55/49
f 43/55/49 38/56/44 37/57/43
f 32/40/38 33/41/39 35/43/41
f 35/43/41 30/44/36 29/45/35
f 26/29/29 22/30/30 24/31/31
f 24/31/31 27/33/33 25/28/28
usemtl Off_White
f 48/70/60 27/71/33 49/73/61
f 50/74/62 51/75/63 48/70/60
f 49/73/61 50/74/62 48/70/60
f 27/71/33 23/72/32 49/73/61
f 31/37/37 26/39/29 28/34/34
f 29/35/35 30/36/36 31/37/37
f 39/49/45 33/51/39 36/46/42
f 37/47/43 38/48/44 39/49/45
f 44/60/50 42/59/48 41/58/47
f 45/61/51 44/60/50 41/58/47
f 36/46/42 37/47/43 39/49/45
f 39/49/45 34/50/40 33/51/39
f 28/34/34 29/35/35 31/37/37
f 31/37/37 22/38/30 26/39/29
s 4
f 47/65/55 44/64/54 45/63/53
f 47/65/55 45/63/53 46/62/52
s 5
usemtl Red
f 54/80/66 53/81/67 55/83/69
f 53/81/67 52/82/68 55/83/69
s 6
usemtl Grass
f 56/94/76 57/95/77 2/96/78
f 58/98/80 56/94/76 1/97/79
f 59/100/82 58/98/80 7/99/81
f 60/102/84 59/100/82 8/101/83
f 61/104/86 60/102/84 11/103/85
f 62/106/88 61/104/86 14/105/87
f 17/107/89 63/109/91 62/106/88
f 17/107/89 21/108/90 63/109/91
f 62/106/88 14/105/87 17/107/89
f 61/104/86 11/103/85 14/105/87
f 60/102/84 8/101/83 11/103/85
f 59/100/82 7/99/81 8/101/83
f 58/98/80 1/97/79 7/99/81
f 56/94/76 2/96/78 1/97/79
s 7
f 64/110/92 65/111/93 57/112/94
f 66/114/96 64/110/92 56/113/95
f 67/116/98 66/114/96 58/115/97
f 68/118/100 67/116/98 59/117/99
f 69/120/102 68/118/100 60/119/101
f 70/122/104 69/120/102 61/121/103
f 62/123/105 71/125/107 70/122/104
f 62/123/105 63/124/106 71/125/107
f 70/122/104 61/121/103 62/123/105
f 69/120/102 60/119/101 61/121/103
f 68/118/100 59/117/99 60/119/101
f 67/116/98 58/115/97 59/117/99
f 66/114/96 56/113/95 58/115/97
f 64/110/92 57/112/94 56/113/95
s 8
f 70/134/116 71/127/109 72/128/110
f 65/126/108 64/129/111 72/128/110
f 64/129/111 66/130/112 72/128/110
f 66/130/112 67/131/113 72/128/110
f 67/131/113 68/132/114 72/128/110
f 68/132/114 69/133/115 72/128/110
f 69/133/115 70/134/116 72/128/110
