mtllib Track_Angled_Curve_Outer_3x5.mtl
o object1
g object1
v -0.41500662 0.50000000 -0.57363432
v -1.20710678 0.50000000 0.08578644
v -0.95961941 0.45000000 0.33327381
v -0.21681185 0.45000000 -0.28515811
v 0.62679999 0.45000000 -0.75377144
v 0.48710908 0.50000000 -1.07468646
v 1.54384072 0.45000000 -1.04855985
v 1.47092694 0.50000000 -1.39087927
v 2.50000000 0.45000000 -1.15000000
v 2.50000000 0.50000000 -1.50000000
v 2.49889814 0.50000000 -1.50000000
v -0.22071153 0.45000000 -0.28247621
v 0.62079399 0.45000000 -0.75115219
v 1.53897989 0.45000000 -1.04752186
v -0.70710678 0.25000000 0.58578644
v -0.01822345 0.25000000 0.01167258
v 0.76375599 0.25000000 -0.42391050
v 1.61374378 0.25000000 -0.69833052
v 2.50000000 0.25000000 -0.79289322
v -0.02111572 0.25000000 0.01366517
v 0.75929051 0.25000000 -0.42195668
v 1.61011917 0.25000000 -0.69755290
v -1.81317280 0.45000000 1.18682720
v -1.56066017 0.25000000 1.43933983
v -0.60606602 0.05000000 0.68682720
v -1.45961941 0.05000000 1.54038059
v -0.50000000 -0.00000000 0.79289322
v -1.35355339 0.00000000 1.64644661
v 0.05820883 0.05000000 0.13253858
v 0.14340965 -0.00000000 0.25599206
v 0.81387111 0.05000000 -0.28986255
v 0.87416104 -0.00000000 -0.15251217
v 1.63790395 0.05000000 -0.55736807
v 1.66951369 -0.00000000 -0.41073709
v 2.50000000 -0.00000000 -0.50000000
v 2.50000000 0.05000000 -0.65000000
v 0.05999388 0.05000000 0.13130722
v 0.81663493 0.05000000 -0.29107471
v 1.64015465 0.05000000 -0.55785258
v -2.50000000 0.50000000 0.50000000
v -2.50000000 0.50000000 -0.50000000
v -1.50000000 0.50000000 -0.50000000
v -1.50000000 0.50000000 -1.50000000
v -2.06066017 0.50000000 0.93933983
vt 0.24899210 1.00000000
vt 0.00000000 1.00000000
vt 0.00000000 0.00000000
vt 0.24899210 0.00000000
vt 0.49540894 0.00000000
vt 0.49540894 1.00000000
vt 0.74414887 0.00000000
vt 0.74414887 1.00000000
vt 1.00000000 0.00000000
vt 1.00000000 1.00000000
vt 0.99972273 1.00000000
vt 0.24778381 0.00000000
vt 0.49373502 0.00000000
vt 0.74285298 0.00000000
vt 0.24778377 1.00000000
vt 0.00000000 1.00000000
vt 0.00000000 0.00000000
vt 0.24778377 0.00000000
vt 0.49373498 1.00000000
vt 0.49373498 0.00000000
vt 0.74285296 1.00000000
vt 0.74285296 0.00000000
vt 1.00000000 0.00000000
vt 1.00000000 1.00000000
vt 0.24682071 0.00000000
vt 0.24899212 1.00000000
vt 0.49239260 0.00000000
vt 0.49540899 1.00000000
vt 0.74180691 0.00000000
vt 0.74414891 1.00000000
vt 1.00000000 1.00000000
vt 0.00000000 1.00000000
vt 0.00000000 0.00000000
vt 1.00000000 0.00000000
vt 1.00000000 1.00000000
vt 0.00000000 1.00000000
vt 0.00000000 0.00000000
vt 1.00000000 0.00000000
vt 1.00000000 1.00000000
vt 0.00000000 1.00000000
vt 0.00000000 0.00000000
vt 1.00000000 0.00000000
vt 0.24620784 1.00000000
vt 0.00000000 1.00000000
vt 0.00000000 0.00000000
vt 0.24620784 0.00000000
vt 0.49153463 1.00000000
vt 0.49153463 0.00000000
vt 0.74113512 1.00000000
vt 0.74113512 0.00000000
vt 1.00000000 0.00000000
vt 1.00000000 1.00000000
vt 0.24682071 1.00000000
vt 0.49239260 1.00000000
vt 0.74180691 1.00000000
vt 0.24682066 1.00000000
vt 0.00000000 1.00000000
vt 0.00000000 0.00000000
vt 0.24682066 0.00000000
vt 0.49239258 1.00000000
vt 0.49239258 0.00000000
vt 0.74180689 1.00000000
vt 0.74180689 0.00000000
vt 1.00000000 0.00000000
vt 1.00000000 1.00000000
vt 0.24620789 0.00000000
vt 0.24778381 1.00000000
vt 0.49153464 0.00000000
vt 0.49373502 1.00000000
vt 0.74113513 0.00000000
vt 0.74285298 1.00000000
vt 0.00000000 0.81989396
vt 0.00000000 0.40994698
vt 0.20004408 0.40994698
vt 0.20004408 0.00000000
vt 1.00000000 0.00000000
vt 0.25863564 0.65008836
vt 0.08788733 1.00000000
vt 0.41709027 0.37976127
vt 0.59755441 0.17435519
vt 0.79436417 0.04473208
vt 1.00000000 1.00000000
vt 0.00000000 1.00000000
vt 0.00000000 0.00000000
vt 1.00000000 0.00000000
vn 0.08008400 0.98994947 0.11656158
vn 0.10000790 0.98994949 0.09999210
vn 0.10000822 0.98994949 0.09999178
vn 0.08008400 0.98994947 0.11656158
vn 0.05644592 0.98994949 0.12966826
vn 0.05644581 0.98994949 0.12966830
vn 0.02945988 0.98994941 0.13831946
vn 0.02945987 0.98994941 0.13831946
vn -0.00001568 0.98994949 0.14142136
vn -0.00001619 0.98994949 0.14142136
vn 0.00001619 0.98994949 0.14142135
vn 0.08019047 0.98994947 0.11648836
vn 0.05661878 0.98994949 0.12959287
vn 0.02960593 0.98994941 0.13828827
vn 0.27707510 0.87248471 0.40249201
vn 0.34554972 0.87248497 0.34549293
vn 0.34555098 0.87248497 0.34549167
vn 0.27707504 0.87248471 0.40249205
vn 0.19562998 0.87248498 0.44777101
vn 0.19563041 0.87248498 0.44777082
vn 0.10229473 0.87248414 0.47781505
vn 0.10229478 0.87248414 0.47781504
vn -0.00005205 0.87248497 0.48864094
vn -0.00005416 0.87248497 0.48864094
vn 0.27736800 0.87248471 0.40229022
vn 0.27670720 0.87248471 0.40274502
vn 0.19610894 0.87248497 0.44756145
vn 0.19503267 0.87248498 0.44803150
vn 0.10270204 0.87248414 0.47772766
vn 0.10179006 0.87248413 0.47792282
vn 0.34552132 0.87248497 0.34552132
vn 0.34552132 0.87248497 0.34552132
vn 0.57534737 0.58133537 0.57534737
vn 0.57534737 0.58133537 0.57534737
vn 0.57534737 0.58133537 0.57534737
vn 0.57534737 0.58133537 0.57534737
vn 0.22360680 0.94868330 0.22360680
vn 0.22360680 0.94868330 0.22360680
vn 0.22360680 0.94868330 0.22360680
vn 0.22360680 0.94868330 0.22360680
vn 0.17962143 0.94868318 0.26026212
vn 0.17962140 0.94868318 0.26026214
vn 0.12711134 0.94868330 0.28955605
vn 0.12711148 0.94868330 0.28955599
vn 0.06663372 0.94868292 0.30912888
vn 0.06663374 0.94868292 0.30912888
vn -0.00003237 0.94868330 0.31622777
vn -0.00003307 0.94868330 0.31622777
vn 0.17950086 0.94868318 0.26034529
vn 0.12691355 0.94868330 0.28964280
vn 0.06646448 0.94868292 0.30916532
vn 0.46186114 0.58133489 0.66987614
vn 0.46186108 0.58133489 0.66987618
vn 0.32655225 0.58133538 0.74526023
vn 0.32655258 0.58133538 0.74526008
vn 0.17101478 0.58133383 0.79549036
vn 0.17101483 0.58133383 0.79549035
vn -0.00008509 0.58133537 0.81366404
vn -0.00008667 0.58133537 0.81366404
vn 0.46217128 0.58133489 0.66966220
vn 0.46137327 0.58133489 0.67021225
vn 0.32706149 0.58133537 0.74503689
vn 0.32575540 0.58133538 0.74560888
vn 0.17145027 0.58133384 0.79539661
vn 0.17033660 0.58133383 0.79563586
vn 0.00000000 1.00000000 -0.00000000
vn 0.00000000 1.00000000 -0.00000000
vn 0.00000000 1.00000000 -0.00000000
vn 0.00000000 1.00000000 -0.00000000
vn 0.00000000 1.00000000 -0.00000000
vn 0.00000000 1.00000000 -0.00000000
vn 0.00000000 1.00000000 -0.00000000
vn 0.00000000 1.00000000 -0.00000000
vn 0.00000000 1.00000000 -0.00000000
vn 0.00000000 1.00000000 -0.00000000
vn 0.10000000 0.98994949 0.10000000
vn 0.10000000 0.98994949 0.10000000
s 1
usemtl Grass
f 2/2/2 3/3/3 12/12/12
f 1/1/1 12/12/12 4/4/4
f 6/6/6 1/1/1 13/13/13
f 8/8/8 6/6/6 14/14/14
f 11/11/11 8/8/8 9/9/9
f 9/9/9 10/10/10 11/11/11
f 8/8/8 7/7/7 9/9/9
f 14/14/14 7/7/7 8/8/8
f 6/6/6 5/5/5 14/14/14
f 13/13/13 5/5/5 6/6/6
f 1/1/1 4/4/4 13/13/13
f 23/85/77 3/84/3 44/82/76
f 3/84/3 2/83/2 44/82/76
f 1/1/1 2/2/2 12/12/12
s 2
f 3/16/16 15/17/17 20/25/25
f 12/15/15 20/25/25 16/18/18
f 4/26/26 12/15/15 21/27/27
f 4/26/26 21/27/27 17/20/20
f 13/19/19 17/20/20 22/29/29
f 22/29/29 18/22/22 5/28/28
f 14/21/21 18/22/22 19/23/23
f 19/23/23 9/24/24 7/30/30
f 19/23/23 7/30/30 14/21/21
f 18/22/22 14/21/21 5/28/28
f 5/28/28 13/19/19 22/29/29
f 17/20/20 13/19/19 4/26/26
f 12/15/15 16/18/18 21/27/27
f 24/34/32 15/33/17 23/31/31
f 15/33/17 3/32/16 23/31/31
f 12/15/15 3/16/16 20/25/25
s 3
f 26/38/36 25/37/35 24/35/33
f 15/57/34 25/58/35 29/66/60
f 20/56/52 29/66/60 37/59/53
f 16/67/61 20/56/52 31/68/62
f 31/68/62 38/61/55 16/67/61
f 21/60/54 38/61/55 33/70/64
f 33/70/64 39/63/57 17/69/63
f 22/62/56 39/63/57 36/64/58
f 36/64/58 19/65/59 18/71/65
f 36/64/58 18/71/65 22/62/56
f 39/63/57 22/62/56 17/69/63
f 17/69/63 21/60/54 33/70/64
f 38/61/55 21/60/54 16/67/61
f 20/56/52 37/59/53 31/68/62
f 20/56/52 15/57/34 29/66/60
f 25/37/35 15/36/34 24/35/33
s 4
usemtl Dirt
f 28/42/40 27/41/39 26/39/37
f 25/44/38 27/45/39 30/46/42
f 29/43/41 30/46/42 32/48/44
f 31/47/43 32/48/44 34/50/46
f 33/49/45 34/50/46 35/51/47
f 35/51/47 36/52/48 39/55/51
f 35/51/47 39/55/51 33/49/45
f 34/50/46 33/49/45 38/54/50
f 38/54/50 31/47/43 34/50/46
f 32/48/44 31/47/43 37/53/49
f 37/53/49 29/43/41 32/48/44
f 29/43/41 25/44/38 30/46/42
f 27/41/39 25/40/38 26/39/37
s 5
usemtl Grass
f 41/73/67 40/72/66 44/78/72
f 42/74/68 44/78/72 2/77/71
f 43/75/69 42/74/68 1/79/73
f 8/81/75 11/76/70 43/75/69
f 43/75/69 6/80/74 8/81/75
f 43/75/69 1/79/73 6/80/74
f 42/74/68 2/77/71 1/79/73
f 42/74/68 41/73/67 44/78/72
