mtllib Track_Normal_Curve_Y_6x6.mtl
o object1
g object1
v -1.50000000 0.05000000 0.35000000
v -1.50000000 -0.00000000 0.50000000
v 1.50000000 -0.00000000 0.50000000
v 1.07947372 0.05000000 0.35000000
v -1.50000000 0.25000000 0.20710678
v 0.72215962 0.25000000 0.20710678
v -1.50000000 0.45000000 -0.15000000
v -0.04972527 0.45000000 -0.15000000
v -1.50000000 0.50000000 -0.50000000
v -0.69615242 0.50000000 -0.50000000
v -1.50000000 0.50000000 -3.50000000
v -1.08705590 0.50000000 -1.31257998
v -1.39586380 0.50000000 -2.38699054
v -1.15000000 0.45000000 -3.50000000
v -1.05193220 0.45000000 -2.45188317
v -0.76115109 0.45000000 -1.44019681
v -0.28774477 0.45000000 -0.50000000
v -1.03639368 0.45000000 -2.37268236
v -0.70015097 0.45000000 -1.29071734
v -0.79289322 0.25000000 -3.50000000
v -0.68646629 0.25000000 -2.44392895
v -0.37147520 0.25000000 -1.43035075
v 0.13941304 0.25000000 -0.50000000
v -0.67539439 0.25000000 -2.39094116
v -0.32812114 0.25000000 -1.33113743
v 0.23351088 0.25000000 -0.36762243
v -0.65000000 0.05000000 -3.50000000
v -0.53567535 0.05000000 -2.42089215
v -0.19777417 0.05000000 -1.38968773
v 0.34869551 0.05000000 -0.45218586
v -0.51223322 0.05000000 -2.31677638
v -0.10629797 0.05000000 -1.19684585
v 0.54608045 0.05000000 -0.20014846
v -0.50000000 -0.00000000 -3.50000000
v -0.36624362 -0.00000000 -2.35122976
v 0.02786166 -0.00000000 -1.26393680
v 0.66124090 -0.00000000 -0.29626335
vt 0.00000000 1.00000000
vt 0.00000000 0.00000000
vt 1.00000000 0.00000000
vt 0.85982457 1.00000000
vt 0.00000000 1.00000000
vt 0.00000000 0.00000000
vt 1.00000000 0.00000000
vt 0.86147790 1.00000000
vt 0.00000000 1.00000000
vt 0.00000000 0.00000000
vt 1.00000000 0.00000000
vt 0.65264202 1.00000000
vt 0.00000000 1.00000000
vt 0.00000000 0.00000000
vt 1.00000000 0.00000000
vt 0.55427262 1.00000000
vt 0.00000000 1.00000000
vt 0.00000000 0.00000000
vt 1.00000000 1.00000000
vt 0.27086990 0.48630502
vt 0.62900054 0.87045540
vt 0.35068841 1.00000000
vt 0.00000000 1.00000000
vt 0.00000000 0.00000000
vt 0.35068841 0.00000000
vt 0.68169724 1.00000000
vt 0.68169724 0.00000000
vt 1.00000000 0.00000000
vt 0.93902884 1.00000000
vt 0.37664048 0.00000000
vt 0.73111234 0.00000000
vt 0.35135148 1.00000000
vt 0.00000000 1.00000000
vt 0.00000000 0.00000000
vt 0.35135148 0.00000000
vt 0.68202272 1.00000000
vt 0.68202272 0.00000000
vt 1.00000000 0.00000000
vt 0.93285627 1.00000000
vt 0.32714181 1.00000000
vt 0.36861363 0.00000000
vt 0.63592555 1.00000000
vt 0.71486442 0.00000000
vt 0.00000000 1.00000000
vt 0.32674002 0.00000000
vt 1.00000000 0.00000000
vt 1.00000000 0.00000000
vt 0.34816497 1.00000000
vt 0.00000000 1.00000000
vt 0.19946690 0.00000000
vt 0.34176906 0.00000000
vt 0.26796496 1.00000000
vt 0.00000000 1.00000000
vt 0.00000000 0.00000000
vt 0.26796496 0.00000000
vt 0.51967316 0.00000000
vt 0.51967316 1.00000000
vt 0.76177537 1.00000000
vt 0.72695347 1.00000000
vt 0.76177537 0.00000000
vt 1.00000000 0.00000000
vt 0.92284718 1.00000000
vt 0.25541618 1.00000000
vt 0.49579879 1.00000000
vt 0.29327671 0.00000000
vt 0.56777594 0.00000000
vt 0.83209479 0.00000000
vt 0.26816124 1.00000000
vt 0.00000000 1.00000000
vt 0.00000000 0.00000000
vt 0.26816124 0.00000000
vt 0.51915304 0.00000000
vt 0.51915304 1.00000000
vt 0.76083631 0.00000000
vt 0.76083631 1.00000000
vt 1.00000000 0.00000000
vt 0.91436252 1.00000000
vt 0.24501712 1.00000000
vt 0.47516966 1.00000000
vt 0.69653887 1.00000000
vn 0.00000000 0.94868330 0.31622777
vn 0.00000000 0.94868330 0.31622777
vn 0.00000000 0.94868330 0.31622777
vn 0.00000000 0.94868330 0.31622777
vn 0.00000000 0.58133537 0.81366405
vn 0.00000000 0.58133537 0.81366405
vn 0.00000000 0.58133537 0.81366405
vn 0.00000000 0.58133537 0.81366405
vn 0.00000000 0.87248497 0.48864094
vn 0.00000000 0.87248497 0.48864094
vn 0.00000000 0.87248497 0.48864094
vn 0.00000000 0.87248497 0.48864094
vn 0.00000000 0.98994949 0.14142136
vn 0.00000000 0.98994949 0.14142136
vn 0.00000000 0.98994949 0.14142136
vn 0.00000000 0.98994949 0.14142136
vn 0.00000000 1.00000000 0.00000000
vn 0.00000000 1.00000000 0.00000000
vn 0.00000000 1.00000000 0.00000000
vn 0.00000000 1.00000000 0.00000000
vn 0.00000000 1.00000000 0.00000000
vn 0.13896689 0.98994949 -0.02623362
vn 0.14142136 0.98994949 -0.00000000
vn 0.14142136 0.98994949 -0.00000000
vn 0.13896689 0.98994949 -0.02623362
vn 0.13168844 0.98994949 -0.05155729
vn 0.13168844 0.98994949 -0.05155729
vn 0.11983882 0.98994949 -0.07509099
vn 0.12247449 0.98994949 -0.07071068
vn 0.13857782 0.98994949 -0.02821682
vn 0.13016156 0.98994949 -0.05529890
vn 0.47881590 0.87248497 -0.09749515
vn 0.48864094 0.87248497 -0.00000000
vn 0.48864094 0.87248497 -0.00000000
vn 0.47881590 0.87248497 -0.09749515
vn 0.44973595 0.87248497 -0.19106949
vn 0.44973595 0.87248497 -0.19106949
vn 0.40257025 0.87248497 -0.27696059
vn 0.41406869 0.87248497 -0.25945537
vn 0.48016025 0.87248497 -0.09064273
vn 0.47779374 0.87248497 -0.10238707
vn 0.45501165 0.87248497 -0.17814143
vn 0.44573342 0.87248497 -0.20022909
vn 0.11388112 0.98994949 -0.08385160
vn 0.34877097 0.87248497 -0.34224083
vn 0.39348355 0.87248497 -0.28972516
vn 0.39388328 0.87248497 -0.28918148
vn 0.79560175 0.58133537 -0.17049057
vn 0.81366405 0.58133537 -0.00000000
vn 0.81366405 0.58133537 -0.00000000
vn 0.79560175 0.58133537 -0.17049057
vn 0.74221627 0.58133537 -0.33341293
vn 0.74221627 0.58133537 -0.33341293
vn 0.65587764 0.58133537 -0.48153266
vn 0.67034280 0.58133537 -0.46118296
vn 0.65587764 0.58133537 -0.48153266
vn 0.54041927 0.58133537 -0.60827312
vn 0.58075853 0.58133537 -0.56988482
vn 0.79730381 0.58133537 -0.16234476
vn 0.74888111 0.58133537 -0.31816076
vn 0.79189801 0.58133537 -0.18694042
vn 0.72776368 0.58133537 -0.36388077
vn 0.62469217 0.58133537 -0.52135293
vn 0.30776847 0.94868330 -0.07265376
vn 0.31622777 0.94868330 -0.00000000
vn 0.31622777 0.94868330 -0.00000000
vn 0.30776847 0.94868330 -0.07265376
vn 0.28284288 0.94868330 -0.14142102
vn 0.28284288 0.94868330 -0.14142102
vn 0.24278448 0.94868330 -0.20262205
vn 0.24278448 0.94868330 -0.20262205
vn 0.18973666 0.94868330 -0.25298221
vn 0.21003211 0.94868330 -0.23640328
vn 0.30920792 0.94868330 -0.06626058
vn 0.28845983 0.94868330 -0.12957980
vn 0.25490461 0.94868330 -0.18714604
s 1
usemtl Dirt
f 1/1/1 2/2/2 4/4/4
f 2/2/2 3/3/3 4/4/4
s 2
usemtl Grass
f 5/5/5 1/6/6 6/8/8
f 1/6/6 4/7/7 6/8/8
s 3
f 7/9/9 5/10/10 8/12/12
f 5/10/10 6/11/11 8/12/12
s 4
f 9/13/13 7/14/14 10/16/16
f 7/14/14 8/15/15 10/16/16
s 5
f 9/17/17 10/18/18 12/20/20
f 9/17/17 13/21/21 11/19/19
f 9/17/17 12/20/20 13/21/21
s 6
f 15/25/25 14/24/24 13/22/22
f 18/30/30 13/22/22 12/26/26
f 19/31/31 12/26/26 10/29/29
f 8/46/44 17/45/28 10/44/29
f 10/29/29 17/28/28 19/31/31
f 19/31/31 16/27/27 12/26/26
f 12/26/26 16/27/27 18/30/30
f 14/24/24 11/23/23 13/22/22
f 18/30/30 15/25/25 13/22/22
s 7
f 15/40/40 18/32/32 21/35/35
f 24/41/41 21/35/35 16/42/42
f 16/42/42 19/36/36 22/37/37
f 25/43/43 19/36/36 17/39/39
f 26/51/47 17/49/39 8/48/46
f 8/48/46 6/47/45 26/51/47
f 26/51/47 23/50/38 17/49/39
f 17/39/39 23/38/38 25/43/43
f 25/43/43 22/37/37 19/36/36
f 16/42/42 22/37/37 24/41/41
f 21/35/35 18/32/32 16/42/42
f 21/35/35 20/34/34 15/40/40
f 20/34/34 14/33/33 15/40/40
s 8
f 21/63/59 24/52/48 28/55/51
f 24/52/48 22/64/60 31/65/61
f 22/64/60 29/56/52 31/65/61
f 32/66/62 29/56/52 25/57/53
f 32/66/62 25/57/53 23/59/55
f 23/59/55 26/58/54 30/60/56
f 33/67/63 26/58/54 6/62/58
f 6/62/58 4/61/57 33/67/63
f 33/67/63 30/60/56 26/58/54
f 23/59/55 30/60/56 32/66/62
f 22/64/60 25/57/53 29/56/52
f 31/65/61 28/55/51 24/52/48
f 28/55/51 27/54/50 21/63/59
f 27/54/50 20/53/49 21/63/59
s 9
usemtl Dirt
f 28/78/74 31/68/64 35/71/67
f 29/79/75 36/72/68 35/71/67
f 30/80/76 37/74/70 36/72/68
f 4/77/73 3/76/72 37/74/70
f 33/75/71 4/77/73 37/74/70
f 30/80/76 33/75/71 37/74/70
f 36/72/68 32/73/69 30/80/76
f 29/79/75 32/73/69 36/72/68
f 31/68/64 29/79/75 35/71/67
f 35/71/67 34/70/66 28/78/74
f 34/70/66 27/69/65 28/78/74
