mtllib Track_Normal_Curve_Inner_1x1.mtl
o object1
g object1
v -0.34265052 0.25000000 -0.18937736
v -0.50000000 0.25000000 -0.20710678
v -0.50000000 0.05000000 -0.35000000
v -0.31085309 0.05000000 -0.32868779
v -0.19319680 0.25000000 -0.13708069
v -0.13119755 0.05000000 -0.26582292
v -0.05912573 0.25000000 -0.05283802
v 0.02996681 0.05000000 -0.16455638
v 0.05283802 0.25000000 0.05912573
v 0.16455638 0.05000000 -0.02996681
v 0.13708069 0.25000000 0.19319680
v 0.26582292 0.05000000 0.13119755
v 0.18937736 0.25000000 0.34265052
v 0.32868779 0.05000000 0.31085309
v 0.35000000 0.05000000 0.50000000
v 0.20710678 0.25000000 0.50000000
v -0.42211598 0.45000000 0.15877562
v -0.50000000 0.45000000 0.15000000
v -0.34814017 0.45000000 0.18466115
v -0.28177837 0.45000000 0.22635914
v -0.22635914 0.45000000 0.28177837
v -0.18466115 0.45000000 0.34814017
v -0.15877562 0.45000000 0.42211598
v -0.15000000 0.45000000 0.50000000
v -0.50000000 0.50000000 0.50000000
v -0.50000000 -0.00000000 -0.50000000
v -0.27747423 -0.00000000 -0.47492681
v -0.06611476 -0.00000000 -0.40096815
v 0.12349037 -0.00000000 -0.28183103
v 0.28183103 -0.00000000 -0.12349037
v 0.40096815 -0.00000000 0.06611476
v 0.47492681 -0.00000000 0.27747423
v 0.50000000 -0.00000000 0.50000000
vt 0.15223841 1.00000000
vt 0.00000000 1.00000000
vt 0.00000000 0.00000000
vt 0.15223841 0.00000000
vt 0.29490376 1.00000000
vt 0.29490376 0.00000000
vt 0.43221016 1.00000000
vt 0.43221016 0.00000000
vt 0.56778984 1.00000000
vt 0.56778984 0.00000000
vt 0.70509624 1.00000000
vt 0.70509624 0.00000000
vt 0.84776159 1.00000000
vt 0.84776159 0.00000000
vt 1.00000000 0.00000000
vt 1.00000000 1.00000000
vt 0.15223841 1.00000000
vt 0.00000000 1.00000000
vt 0.00000000 0.00000000
vt 0.15223841 0.00000000
vt 0.29490376 1.00000000
vt 0.29490376 0.00000000
vt 0.43221016 1.00000000
vt 0.43221016 0.00000000
vt 0.56778984 1.00000000
vt 0.56778984 0.00000000
vt 0.70509624 1.00000000
vt 0.70509624 0.00000000
vt 0.84776159 1.00000000
vt 0.84776159 0.00000000
vt 1.00000000 0.00000000
vt 1.00000000 1.00000000
vt 0.15223841 1.00000000
vt 0.00000000 1.00000000
vt 0.00000000 0.00000000
vt 0.15223841 0.00000000
vt 0.29490376 1.00000000
vt 0.29490376 0.00000000
vt 0.43221016 1.00000000
vt 0.43221016 0.00000000
vt 0.56778984 1.00000000
vt 0.56778984 0.00000000
vt 0.70509624 1.00000000
vt 0.70509624 0.00000000
vt 0.84776159 1.00000000
vt 0.84776159 0.00000000
vt 1.00000000 0.00000000
vt 0.15223841 1.00000000
vt 0.00000000 1.00000000
vt 0.00000000 0.00000000
vt 0.15223841 0.00000000
vt 0.29490376 1.00000000
vt 0.29490376 0.00000000
vt 0.43221016 1.00000000
vt 0.43221016 0.00000000
vt 0.56778984 1.00000000
vt 0.56778984 0.00000000
vt 0.70509624 1.00000000
vt 0.70509624 0.00000000
vt 0.84776159 1.00000000
vt 0.84776159 0.00000000
vt 1.00000000 0.00000000
vt 1.00000000 1.00000000
vn 0.18105714 0.58133537 -0.79326382
vn -0.00000000 0.58133537 -0.81366405
vn -0.00000000 0.58133537 -0.81366405
vn 0.18105714 0.58133537 -0.79326382
vn 0.35303495 0.58133537 -0.73308629
vn 0.35303495 0.58133537 -0.73308629
vn 0.50731105 0.58133537 -0.63614831
vn 0.50731105 0.58133537 -0.63614831
vn 0.63614831 0.58133537 -0.50731105
vn 0.63614831 0.58133537 -0.50731105
vn 0.73308629 0.58133537 -0.35303495
vn 0.73308629 0.58133537 -0.35303495
vn 0.79326382 0.58133537 -0.18105714
vn 0.79326382 0.58133537 -0.18105714
vn 0.81366405 0.58133537 0.00000000
vn 0.81366405 0.58133537 0.00000000
vn 0.10873275 0.87248497 -0.47638971
vn -0.00000000 0.87248497 -0.48864094
vn -0.00000000 0.87248497 -0.48864094
vn 0.10873275 0.87248497 -0.47638971
vn 0.21201297 0.87248497 -0.44025047
vn 0.21201297 0.87248497 -0.44025047
vn 0.30466254 0.87248497 -0.38203496
vn 0.30466254 0.87248497 -0.38203496
vn 0.38203496 0.87248497 -0.30466254
vn 0.38203496 0.87248497 -0.30466254
vn 0.44025047 0.87248497 -0.21201297
vn 0.44025047 0.87248497 -0.21201297
vn 0.47638971 0.87248497 -0.10873275
vn 0.47638971 0.87248497 -0.10873275
vn 0.48864094 0.87248497 0.00000000
vn 0.48864094 0.87248497 0.00000000
vn 0.03146919 0.98994949 -0.13787563
vn -0.00000000 0.98994949 -0.14142136
vn 0.03146919 0.98994949 -0.13787563
vn 0.06136031 0.98994949 -0.12741629
vn 0.08817474 0.98994949 -0.11056769
vn 0.08817474 0.98994949 -0.11056769
vn 0.11056769 0.98994949 -0.08817474
vn 0.12741629 0.98994949 -0.06136031
vn 0.12741629 0.98994949 -0.06136031
vn 0.13787563 0.98994949 -0.03146919
vn 0.14142136 0.98994949 0.00000000
vn 0.07036724 0.94868330 -0.30829929
vn -0.00000000 0.94868330 -0.31622777
vn -0.00000000 0.94868330 -0.31622777
vn 0.07036724 0.94868330 -0.30829929
vn 0.13720583 0.94868330 -0.28491149
vn 0.13720583 0.94868330 -0.28491149
vn 0.19716472 0.94868330 -0.24723688
vn 0.19716472 0.94868330 -0.24723688
vn 0.24723688 0.94868330 -0.19716472
vn 0.24723688 0.94868330 -0.19716472
vn 0.28491149 0.94868330 -0.13720583
vn 0.28491149 0.94868330 -0.13720583
vn 0.30829929 0.94868330 -0.07036724
vn 0.30829929 0.94868330 -0.07036724
vn 0.31622777 0.94868330 0.00000000
vn 0.31622777 0.94868330 0.00000000
s 1
usemtl Grass
f 4/4/4 3/3/3 1/1/1
f 3/3/3 2/2/2 1/1/1
f 4/4/4 1/1/1 5/5/5
f 6/6/6 5/5/5 7/7/7
f 8/8/8 7/7/7 9/9/9
f 10/10/10 9/9/9 11/11/11
f 12/12/12 11/11/11 13/13/13
f 13/13/13 15/15/15 14/14/14
f 13/13/13 16/16/16 15/15/15
f 14/14/14 12/12/12 13/13/13
f 12/12/12 10/10/10 11/11/11
f 10/10/10 8/8/8 9/9/9
f 8/8/8 6/6/6 7/7/7
f 6/6/6 4/4/4 5/5/5
s 2
f 1/20/20 2/19/19 17/17/17
f 2/19/19 18/18/18 17/17/17
f 1/20/20 17/17/17 19/21/21
f 5/22/22 19/21/21 20/23/23
f 7/24/24 20/23/23 21/25/25
f 9/26/26 21/25/25 22/27/27
f 11/28/28 22/27/27 23/29/29
f 23/29/29 16/31/31 13/30/30
f 23/29/29 24/32/32 16/31/31
f 13/30/30 11/28/28 23/29/29
f 11/28/28 9/26/26 22/27/27
f 9/26/26 7/24/24 21/25/25
f 7/24/24 5/22/22 20/23/23
f 5/22/22 1/20/20 19/21/21
s 3
f 17/36/35 18/35/34 25/34/33
f 20/40/38 19/38/36 25/37/33
f 21/42/39 20/40/38 25/39/37
f 22/44/41 21/42/39 25/41/37
f 23/46/42 22/44/41 25/43/40
f 25/45/40 24/47/43 23/46/42
f 19/38/36 17/36/35 25/33/33
s 4
usemtl Dirt
f 27/51/47 26/50/46 4/48/44
f 26/50/46 3/49/45 4/48/44
f 27/51/47 4/48/44 6/52/48
f 28/53/49 6/52/48 8/54/50
f 29/55/51 8/54/50 10/56/52
f 30/57/53 10/56/52 12/58/54
f 31/59/55 12/58/54 14/60/56
f 14/60/56 33/62/58 32/61/57
f 14/60/56 15/63/59 33/62/58
f 32/61/57 31/59/55 14/60/56
f 31/59/55 30/57/53 12/58/54
f 30/57/53 29/55/51 10/56/52
f 29/55/51 28/53/49 8/54/50
f 28/53/49 27/51/47 6/52/48
