mtllib Track_Normal_Curve_Inner_4x4.mtl
o object1
g object1
v 1.25345955 0.05000000 1.64323783
v 1.35000000 0.05000000 2.50000000
v 1.50000000 -0.00000000 2.50000000
v 1.39969823 -0.00000000 1.60985749
v 0.96869363 0.05000000 0.82947179
v 1.10383754 -0.00000000 0.76438627
v 0.50997671 0.05000000 0.09947085
v 0.62724853 -0.00000000 0.00594374
v -0.09968373 0.05000000 -0.51014648
v -0.00616492 -0.00000000 -0.62742491
v -0.82971694 0.05000000 -0.96881168
v -0.76464097 -0.00000000 -1.10396019
v -1.64350348 0.05000000 -1.25352017
v -1.61013348 -0.00000000 -1.39976122
v -2.50000000 -0.00000000 -1.50000000
v -2.50000000 0.05000000 -1.35000000
v 1.11414944 0.25000000 1.67503666
v 1.20710678 0.25000000 2.50000000
v 0.83995264 0.25000000 0.89147364
v 0.39826106 0.25000000 0.18856678
v -0.18877176 0.25000000 -0.39842452
v -0.89170969 0.25000000 -0.84006631
v -1.67529245 0.25000000 -1.11420782
v -2.50000000 0.25000000 -1.20710678
v 0.76599727 0.45000000 1.75450565
v 0.85000000 0.45000000 2.50000000
v 0.51821394 0.45000000 1.04642350
v 0.11907064 0.45000000 0.41122788
v -0.41141312 0.45000000 -0.11921836
v -1.04663681 0.45000000 -0.51831666
v -1.75473679 0.45000000 -0.76605002
v -2.50000000 0.45000000 -0.85000000
v 0.42477367 0.50000000 1.83239312
v 0.50000000 0.50000000 2.50000000
v 0.20287815 0.50000000 1.19828970
v -0.15456360 0.50000000 0.62945780
v -0.62962369 0.50000000 0.15443132
v -1.19848073 0.50000000 -0.20297014
v -1.83260011 0.50000000 -0.42482092
v -2.50000000 0.50000000 -0.50000000
v -2.50000000 0.50000000 2.50000000
vt 0.15223741 1.00000000
vt 0.00000000 1.00000000
vt 0.00000000 0.00000000
vt 0.15223741 0.00000000
vt 0.29490156 1.00000000
vt 0.29490156 0.00000000
vt 0.43220690 1.00000000
vt 0.43220690 0.00000000
vt 0.56778591 1.00000000
vt 0.56778591 0.00000000
vt 0.70509235 1.00000000
vt 0.70509235 0.00000000
vt 0.84775885 1.00000000
vt 0.84775885 0.00000000
vt 0.99995000 0.00000000
vt 0.99995000 1.00000000
vt 0.15223741 1.00000000
vt 0.00000000 1.00000000
vt 0.00000000 0.00000000
vt 0.15223741 0.00000000
vt 0.29490156 1.00000000
vt 0.29490156 0.00000000
vt 0.43220690 1.00000000
vt 0.43220690 0.00000000
vt 0.56778591 1.00000000
vt 0.56778591 0.00000000
vt 0.70509235 1.00000000
vt 0.70509235 0.00000000
vt 0.84775885 1.00000000
vt 0.84775885 0.00000000
vt 0.99995000 0.00000000
vt 0.99995000 1.00000000
vt 0.15223741 1.00000000
vt 0.00000000 1.00000000
vt 0.00000000 0.00000000
vt 0.15223741 0.00000000
vt 0.29490156 1.00000000
vt 0.29490156 0.00000000
vt 0.43220690 1.00000000
vt 0.43220690 0.00000000
vt 0.56778591 1.00000000
vt 0.56778591 0.00000000
vt 0.70509235 1.00000000
vt 0.70509235 0.00000000
vt 0.84775885 1.00000000
vt 0.84775885 0.00000000
vt 0.99995000 0.00000000
vt 0.99995000 1.00000000
vt 0.15223741 1.00000000
vt 0.00000000 1.00000000
vt 0.00000000 0.00000000
vt 0.15223741 0.00000000
vt 0.29490156 1.00000000
vt 0.29490156 0.00000000
vt 0.43220690 1.00000000
vt 0.43220690 0.00000000
vt 0.56778591 1.00000000
vt 0.56778591 0.00000000
vt 0.70509235 1.00000000
vt 0.70509235 0.00000000
vt 0.84775885 1.00000000
vt 0.84775885 0.00000000
vt 0.99995000 0.00000000
vt 0.99995000 1.00000000
vt 0.00000000 1.00000000
vt 1.00000000 0.00000000
vt 1.00000000 1.00000000
vt 0.77746938 0.02507430
vt 0.56609884 0.09903952
vt 0.37648674 0.21818723
vt 0.21814314 0.37654202
vt 0.09900884 0.56616255
vt 0.02505855 0.77753838
vn 0.30829858 0.94868330 -0.07037036
vn 0.31622777 0.94868330 0.00000000
vn 0.31622777 0.94868330 0.00000000
vn 0.30829858 0.94868330 -0.07037036
vn 0.28490872 0.94868330 -0.13721159
vn 0.28490872 0.94868330 -0.13721159
vn 0.24723090 0.94868330 -0.19717221
vn 0.24723090 0.94868330 -0.19717221
vn 0.19715473 0.94868330 -0.24724485
vn 0.19715473 0.94868330 -0.24724485
vn 0.13719144 0.94868330 -0.28491842
vn 0.13719144 0.94868330 -0.28491842
vn 0.07034854 0.94868330 -0.30830356
vn 0.07034854 0.94868330 -0.30830356
vn 0.00000000 0.94868330 -0.31622777
vn 0.00000000 0.94868330 -0.31622777
vn 0.79326199 0.58133537 -0.18106516
vn 0.81366405 0.58133537 0.00000000
vn 0.81366405 0.58133537 0.00000000
vn 0.79326199 0.58133537 -0.18106516
vn 0.73307916 0.58133537 -0.35304976
vn 0.73307916 0.58133537 -0.35304976
vn 0.63613294 0.58133537 -0.50733033
vn 0.63613294 0.58133537 -0.50733033
vn 0.50728535 0.58133537 -0.63616881
vn 0.50728535 0.58133537 -0.63616881
vn 0.35299792 0.58133537 -0.73310412
vn 0.35299792 0.58133537 -0.73310412
vn 0.18100902 0.58133537 -0.79327481
vn 0.18100902 0.58133537 -0.79327481
vn -0.00000000 0.58133537 -0.81366405
vn 0.00000000 0.58133537 -0.81366405
vn 0.47638862 0.87248497 -0.10873757
vn 0.48864094 0.87248497 0.00000000
vn 0.48864094 0.87248497 0.00000000
vn 0.47638862 0.87248497 -0.10873757
vn 0.44024618 0.87248497 -0.21202186
vn 0.44024618 0.87248497 -0.21202186
vn 0.38202573 0.87248497 -0.30467411
vn 0.38202573 0.87248497 -0.30467411
vn 0.30464710 0.87248497 -0.38204727
vn 0.30464710 0.87248497 -0.38204727
vn 0.21199073 0.87248497 -0.44026117
vn 0.21199073 0.87248497 -0.44026117
vn 0.10870386 0.87248497 -0.47639631
vn 0.10870386 0.87248497 -0.47639631
vn -0.00000000 0.87248497 -0.48864094
vn -0.00000000 0.87248497 -0.48864094
vn 0.13787532 0.98994949 -0.03147058
vn 0.14142136 0.98994949 0.00000000
vn 0.14142136 0.98994949 0.00000000
vn 0.13787532 0.98994949 -0.03147058
vn 0.12741505 0.98994949 -0.06136289
vn 0.12741505 0.98994949 -0.06136289
vn 0.11056502 0.98994949 -0.08817809
vn 0.11056502 0.98994949 -0.08817809
vn 0.08817027 0.98994949 -0.11057126
vn 0.08817027 0.98994949 -0.11057126
vn 0.06135388 0.98994949 -0.12741939
vn 0.06135388 0.98994949 -0.12741939
vn 0.03146082 0.98994949 -0.13787754
vn 0.03146082 0.98994949 -0.13787754
vn -0.00000000 0.98994949 -0.14142136
vn -0.00000000 0.98994949 -0.14142136
vn -0.00000000 1.00000000 -0.00000000
vn -0.00000000 1.00000000 -0.00000000
vn -0.00000000 1.00000000 -0.00000000
vn -0.00000000 1.00000000 -0.00000000
vn -0.00000000 1.00000000 -0.00000000
vn -0.00000000 1.00000000 -0.00000000
vn -0.00000000 1.00000000 -0.00000000
vn -0.00000000 1.00000000 -0.00000000
vn -0.00000000 1.00000000 -0.00000000
s 1
usemtl Dirt
f 1/1/1 2/2/2 3/3/3
f 5/5/5 1/1/1 4/4/4
f 7/7/7 5/5/5 6/6/6
f 9/9/9 7/7/7 8/8/8
f 11/11/11 9/9/9 10/10/10
f 13/13/13 11/11/11 12/12/12
f 15/15/15 16/16/16 13/13/13
f 14/14/14 15/15/15 13/13/13
f 13/13/13 12/12/12 14/14/14
f 11/11/11 10/10/10 12/12/12
f 9/9/9 8/8/8 10/10/10
f 7/7/7 6/6/6 8/8/8
f 5/5/5 4/4/4 6/6/6
f 1/1/1 3/3/3 4/4/4
s 2
usemtl Grass
f 17/17/17 18/18/18 2/19/19
f 19/21/21 17/17/17 1/20/20
f 20/23/23 19/21/21 5/22/22
f 21/25/25 20/23/23 7/24/24
f 22/27/27 21/25/25 9/26/26
f 23/29/29 22/27/27 11/28/28
f 16/31/31 24/32/32 23/29/29
f 13/30/30 16/31/31 23/29/29
f 23/29/29 11/28/28 13/30/30
f 22/27/27 9/26/26 11/28/28
f 21/25/25 7/24/24 9/26/26
f 20/23/23 5/22/22 7/24/24
f 19/21/21 1/20/20 5/22/22
f 17/17/17 2/19/19 1/20/20
s 3
f 25/33/33 26/34/34 18/35/35
f 27/37/37 25/33/33 17/36/36
f 28/39/39 27/37/37 19/38/38
f 29/41/41 28/39/39 20/40/40
f 30/43/43 29/41/41 21/42/42
f 31/45/45 30/43/43 22/44/44
f 24/47/47 32/48/48 31/45/45
f 23/46/46 24/47/47 31/45/45
f 31/45/45 22/44/44 23/46/46
f 30/43/43 21/42/42 22/44/44
f 29/41/41 20/40/40 21/42/42
f 28/39/39 19/38/38 20/40/40
f 27/37/37 17/36/36 19/38/38
f 25/33/33 18/35/35 17/36/36
s 4
f 33/49/49 34/50/50 26/51/51
f 35/53/53 33/49/49 25/52/52
f 36/55/55 35/53/53 27/54/54
f 37/57/57 36/55/55 28/56/56
f 38/59/59 37/57/57 29/58/58
f 39/61/61 38/59/59 30/60/60
f 32/63/63 40/64/64 39/61/61
f 31/62/62 32/63/63 39/61/61
f 39/61/61 30/60/60 31/62/62
f 38/59/59 29/58/58 30/60/60
f 37/57/57 28/56/56 29/58/58
f 36/55/55 27/54/54 28/56/56
f 35/53/53 25/52/52 27/54/54
f 33/49/49 26/51/51 25/52/52
s 5
f 39/73/73 40/65/65 41/67/67
f 41/67/67 34/66/66 33/68/68
f 33/68/68 35/69/69 41/67/67
f 35/69/69 36/70/70 41/67/67
f 36/70/70 37/71/71 41/67/67
f 37/71/71 38/72/72 41/67/67
f 38/72/72 39/73/73 41/67/67
