mtllib Track_Curbed_Straight_1x1.mtl
o object1
g object1
v -0.50000000 0.05000000 -0.45000000
v -0.00000000 0.05000000 -0.45000000
v -0.00000000 0.05000000 -0.35000000
v -0.50000000 0.05000000 -0.35000000
v 0.50000000 0.05000000 -0.35000000
v 0.50000000 0.25000000 -0.20710678
v -0.50000000 0.25000000 -0.20710678
v 0.50000000 0.45000000 0.15000000
v -0.50000000 0.45000000 0.15000000
v 0.50000000 0.50000000 0.50000000
v -0.50000000 0.50000000 0.50000000
v 0.50000000 0.05000000 -0.45000000
v -0.00000000 0.00000000 -0.50000000
v 0.50000000 0.00000000 -0.50000000
v -0.50000000 -0.00000000 -0.50000000
vt 1.00000000 1.00000000
vt 0.00000000 1.00000000
vt 0.00000000 0.00000000
vt 1.00000000 0.00000000
vt 1.00000000 0.00000000
vt 1.00000000 1.00000000
vt 0.00000000 1.00000000
vt 0.00000000 0.00000000
vt 0.50000000 0.00000000
vt 0.00000000 0.00000000
vt 1.00000000 0.00000000
vt 1.00000000 1.00000000
vt 0.00000000 1.00000000
vt 0.00000000 0.00000000
vt 1.00000000 0.00000000
vt 1.00000000 1.00000000
vt 0.00000000 1.00000000
vt 1.00000000 1.00000000
vt 0.00000000 1.00000000
vt 0.00000000 0.00000000
vt 1.00000000 0.00000000
vt 1.00000000 1.00000000
vt 0.00000000 1.00000000
vt 0.00000000 0.00000000
vt 1.00000000 0.00000000
vt 1.00000000 1.00000000
vt 0.00000000 1.00000000
vt 0.00000000 0.00000000
vt 1.00000000 0.00000000
vn -0.00000000 1.00000000 0.00000000
vn -0.00000000 1.00000000 0.00000000
vn -0.00000000 1.00000000 0.00000000
vn -0.00000000 1.00000000 0.00000000
vn 0.00000000 0.58133537 -0.81366405
vn 0.00000000 0.58133537 -0.81366405
vn 0.00000000 0.58133537 -0.81366405
vn 0.00000000 0.58133537 -0.81366405
vn 0.00000000 0.58133537 -0.81366405
vn 0.00000000 0.87248497 -0.48864094
vn 0.00000000 0.87248497 -0.48864094
vn 0.00000000 0.87248497 -0.48864094
vn 0.00000000 0.87248497 -0.48864094
vn 0.00000000 0.98994949 -0.14142136
vn 0.00000000 0.98994949 -0.14142136
vn 0.00000000 0.98994949 -0.14142136
vn 0.00000000 0.98994949 -0.14142136
vn -0.00000000 1.00000000 0.00000000
vn -0.00000000 1.00000000 0.00000000
vn -0.00000000 0.70710678 -0.70710678
vn -0.00000000 0.70710678 -0.70710678
vn -0.00000000 0.70710678 -0.70710678
vn -0.00000000 0.70710678 -0.70710678
vn -0.00000000 0.70710678 -0.70710678
vn -0.00000000 0.70710678 -0.70710678
s 1
usemtl Red
f 4/4/4 3/3/3 2/2/2
f 4/4/4 2/2/2 1/1/1
usemtl Off_White
f 5/20/19 12/19/18 2/18/2
f 3/21/3 5/20/19 2/18/2
s 2
usemtl Grass
f 3/9/9 4/8/8 7/7/7
f 3/9/9 7/7/7 6/6/6
f 6/6/6 5/5/5 3/9/9
s 3
f 9/13/13 8/12/12 6/11/11
f 9/13/13 6/11/11 7/10/10
s 4
f 11/17/17 10/16/16 8/15/15
f 11/17/17 8/15/15 9/14/14
s 5
usemtl Red
f 1/29/25 13/27/20 15/26/24
f 1/29/25 2/28/23 13/27/20
usemtl Off_White
f 2/25/23 12/24/22 13/22/20
f 12/24/22 14/23/21 13/22/20
