mtllib Track_Normal_Esse_2x2.mtl
o object1
g object1
v 1.17573077 0.05000000 -0.38431098
v 1.50000000 0.05000000 -0.35000000
v 1.50000000 -0.00000000 -0.50000000
v 1.17628258 -0.00000000 -0.53613194
v 0.86780390 -0.00000000 -0.64133636
v 0.86556231 0.05000000 -0.48491428
v 0.58314946 -0.00000000 -0.80068877
v 0.57805348 0.05000000 -0.63910145
v 0.32012302 -0.00000000 -0.99391039
v 0.31227817 0.05000000 -0.82875061
v 0.06775403 -0.00000000 -1.20089893
v 0.05910430 0.05000000 -1.03520668
v -0.19448145 -0.00000000 -1.39506840
v -0.20004543 0.05000000 -1.23371184
v -0.34035337 -0.00000000 -1.46865519
v -0.34252522 0.05000000 -1.31260212
v -0.41878383 -0.00000000 -1.49153882
v -0.41933174 0.05000000 -1.33907912
v -0.49987547 -0.00000000 -1.50000000
v -0.50000000 -0.00000000 -1.50000000
v -0.50000000 0.05000000 -1.35000000
v 1.17598762 0.05000000 -0.38425578
v 0.86591693 0.05000000 -0.48476008
v 0.57842289 0.05000000 -0.63886702
v 0.31274495 0.05000000 -0.82838560
v 0.05976693 0.05000000 -1.03465965
v -0.19925325 0.05000000 -1.23318914
v -0.34209127 0.05000000 -1.31241574
v -0.41910279 0.05000000 -1.33902106
v -0.45913888 0.05000000 -1.34699863
v 1.17546268 0.25000000 -0.23963056
v 1.50000000 0.25000000 -0.20710678
v 0.86378423 0.25000000 -0.33575503
v 0.57357229 0.25000000 -0.48494141
v 0.30527552 0.25000000 -0.67105468
v 0.05152476 0.25000000 -0.87681420
v -0.20456890 0.25000000 -1.07945512
v -0.34417027 0.25000000 -1.16373764
v -0.41962820 0.25000000 -1.19377465
v -0.45921836 0.25000000 -1.20333599
v -0.50000000 0.25000000 -1.20710678
v 1.17565381 0.25000000 -0.23959163
v 0.86404945 0.25000000 -0.33564507
v 0.57384946 0.25000000 -0.48477186
v 0.30562905 0.25000000 -0.67078337
v 0.05201299 0.25000000 -0.87640724
v -0.20396903 0.25000000 -1.07903386
v -0.34384254 0.25000000 -1.16357891
v -0.41945388 0.25000000 -1.19372191
v -0.45912824 0.25000000 -1.20332016
v 1.17434317 0.45000000 0.12183860
v 1.50000000 0.45000000 0.15000000
v 0.85872452 0.45000000 0.03672476
v 0.56173458 0.45000000 -0.10010489
v 0.28696935 0.45000000 -0.27760217
v 0.03141010 0.45000000 -0.48192730
v -0.21728705 0.45000000 -0.69479453
v -0.34905751 0.45000000 -0.79197904
v -0.42077357 0.45000000 -0.83071481
v -0.45932821 0.45000000 -0.84428302
v -0.50000000 0.45000000 -0.85000000
v 1.17407850 0.45000000 0.12179190
v 0.85835158 0.45000000 0.03658828
v 0.56134102 0.45000000 -0.10032420
v 0.28649382 0.45000000 -0.27795050
v 0.03073312 0.45000000 -0.48250519
v -0.21797199 0.45000000 -0.69535209
v -0.34942871 0.45000000 -0.79221333
v -0.42097524 0.45000000 -0.83080163
v -0.47949643 0.45000000 -0.84844722
v -0.45943497 0.45000000 -0.84431109
v 1.17279184 0.50000000 0.47603598
v 1.49979776 0.50000000 0.50000000
v 1.50000000 0.50000000 0.50000000
v 0.85312572 0.50000000 0.40156253
v 0.54945742 0.50000000 0.27670254
v 0.26819560 0.50000000 0.10741471
v 0.01054355 0.50000000 -0.09588636
v -0.23099099 0.50000000 -0.31881135
v -0.35451765 0.50000000 -0.42805146
v -0.42226046 0.50000000 -0.47504151
v -0.45962913 0.50000000 -0.49242794
v -0.47949180 0.50000000 -0.49790978
v -0.50000000 0.50000000 -0.50000000
v -0.50000000 0.50000000 0.50000000
vt 0.14277982 1.00000000
vt 0.00000000 1.00000000
vt 0.00000000 0.00000000
vt 0.14277982 0.00000000
vt 0.28560121 0.00000000
vt 0.28560121 1.00000000
vt 0.42844517 0.00000000
vt 0.42844517 1.00000000
vt 0.57127152 0.00000000
vt 0.57127152 1.00000000
vt 0.71404562 0.00000000
vt 0.71404562 1.00000000
vt 0.85692482 0.00000000
vt 0.85692482 1.00000000
vt 0.92846241 0.00000000
vt 0.92846241 1.00000000
vt 0.96423120 0.00000000
vt 0.96423120 1.00000000
vt 0.99994557 0.00000000
vt 1.00000000 0.00000000
vt 1.00000000 1.00000000
vt 0.14266500 1.00000000
vt 0.28543207 1.00000000
vt 0.42825381 1.00000000
vt 0.57101257 1.00000000
vt 0.71366994 1.00000000
vt 0.85650949 1.00000000
vt 0.92825475 1.00000000
vt 0.96412737 1.00000000
vt 0.98206369 1.00000000
vt 0.14266498 1.00000000
vt 0.00000000 1.00000000
vt 0.00000000 0.00000000
vt 0.14266498 0.00000000
vt 0.28543208 0.00000000
vt 0.28543208 1.00000000
vt 0.42825382 0.00000000
vt 0.42825382 1.00000000
vt 0.57101257 0.00000000
vt 0.57101257 1.00000000
vt 0.71366997 0.00000000
vt 0.71366997 1.00000000
vt 0.85650949 0.00000000
vt 0.85650949 1.00000000
vt 0.92825475 0.00000000
vt 0.92825475 1.00000000
vt 0.96412737 0.00000000
vt 0.96412737 1.00000000
vt 0.98206369 0.00000000
vt 0.98206369 1.00000000
vt 1.00000000 0.00000000
vt 1.00000000 1.00000000
vt 0.14257979 1.00000000
vt 0.14277984 0.00000000
vt 0.28530654 1.00000000
vt 0.28560121 0.00000000
vt 0.42811176 1.00000000
vt 0.42844516 0.00000000
vt 0.57081795 1.00000000
vt 0.57127151 0.00000000
vt 0.71339235 1.00000000
vt 0.71404559 0.00000000
vt 0.85618828 1.00000000
vt 0.85692482 0.00000000
vt 0.92809415 1.00000000
vt 0.92846241 0.00000000
vt 0.96404707 1.00000000
vt 0.96423120 0.00000000
vt 0.98202354 1.00000000
vt 0.14257978 1.00000000
vt 0.00000000 1.00000000
vt 0.00000000 0.00000000
vt 0.14257978 0.00000000
vt 0.28530655 0.00000000
vt 0.28530655 1.00000000
vt 0.42811177 0.00000000
vt 0.42811177 1.00000000
vt 0.57081795 0.00000000
vt 0.57081795 1.00000000
vt 0.71339236 0.00000000
vt 0.71339236 1.00000000
vt 0.85618830 0.00000000
vt 0.85618830 1.00000000
vt 0.92809415 0.00000000
vt 0.92809415 1.00000000
vt 0.96404708 0.00000000
vt 0.96404708 1.00000000
vt 0.98202354 0.00000000
vt 0.98202354 1.00000000
vt 1.00000000 0.00000000
vt 1.00000000 1.00000000
vt 0.14266500 0.00000000
vt 0.14269692 1.00000000
vt 0.28543207 0.00000000
vt 0.28547979 1.00000000
vt 0.42825381 0.00000000
vt 0.42830829 1.00000000
vt 0.57101256 0.00000000
vt 0.57107483 1.00000000
vt 0.71366996 0.00000000
vt 0.71378008 1.00000000
vt 0.85650947 0.00000000
vt 0.85657497 1.00000000
vt 0.92825475 0.00000000
vt 0.92828748 1.00000000
vt 0.96412737 0.00000000
vt 0.96414374 1.00000000
vt 0.98206369 0.00000000
vt 0.99103594 1.00000000
vt 0.98207187 1.00000000
vt 0.14269691 1.00000000
vt 0.00008789 1.00000000
vt 0.00000000 1.00000000
vt 0.00000000 0.00000000
vt 0.14269691 0.00000000
vt 0.28547979 1.00000000
vt 0.28547979 0.00000000
vt 0.42830830 1.00000000
vt 0.42830830 0.00000000
vt 0.57107484 1.00000000
vt 0.57107484 0.00000000
vt 0.71378012 1.00000000
vt 0.71378012 0.00000000
vt 0.85657497 1.00000000
vt 0.85657497 0.00000000
vt 0.92828749 1.00000000
vt 0.92828749 0.00000000
vt 0.96414374 1.00000000
vt 0.96414374 0.00000000
vt 0.98207187 1.00000000
vt 0.98207187 0.00000000
vt 0.99103594 1.00000000
vt 0.99103594 0.00000000
vt 1.00000000 0.00000000
vt 1.00000000 1.00000000
vt 0.14257979 0.00000000
vt 0.28530654 0.00000000
vt 0.42811176 0.00000000
vt 0.57081795 0.00000000
vt 0.71339232 0.00000000
vt 0.85618830 0.00000000
vt 0.92809414 0.00000000
vt 0.96404707 0.00000000
vt 0.98202354 0.00000000
vt 1.00000000 0.00000000
vt 0.00000000 1.00000000
vt 0.00000000 0.00000000
vt 0.02396403 0.83648049
vt 0.09843746 0.67663130
vt 0.22329746 0.52478178
vt 0.39258552 0.38413648
vt 0.59588812 0.25529658
vt 0.81880984 0.13451891
vt 0.92805141 0.07274856
vt 0.97504152 0.03887369
vt 0.99242794 0.02018747
vt 0.99790979 0.01025513
vn 0.06705913 0.94775072 -0.31188402
vn -0.00006307 0.94868330 -0.31622777
vn -0.00007184 0.94868330 -0.31622777
vn 0.07068007 0.94751721 -0.31179396
vn 0.13681203 0.94413182 -0.29982925
vn 0.13056117 0.94490918 -0.30016731
vn 0.18777495 0.93997487 -0.28493476
vn 0.18120724 0.94109522 -0.28548856
vn 0.21791235 0.93692377 -0.27329115
vn 0.21405950 0.93769047 -0.27370627
vn 0.22152072 0.93671342 -0.27110245
vn 0.22359941 0.93628797 -0.27086553
vn 0.17642661 0.94191197 -0.28578923
vn 0.18778295 0.94001147 -0.28480871
vn 0.11313549 0.94665464 -0.30173722
vn 0.12912100 0.94486126 -0.30094013
vn 0.06342377 0.94835957 -0.31079182
vn 0.07862594 0.94734714 -0.31040516
vn 0.00005303 0.94868333 -0.31622765
vn -0.00005304 0.94868330 -0.31622777
vn 0.00007525 0.94868330 -0.31622777
vn 0.06700518 0.94775228 -0.31189087
vn 0.13049240 0.94491337 -0.30018404
vn 0.18115047 0.94110037 -0.28550762
vn 0.21401806 0.93769548 -0.27372149
vn 0.22361645 0.93628688 -0.27085524
vn 0.18801230 0.93998834 -0.28473373
vn 0.12936247 0.94484566 -0.30088540
vn 0.07880329 0.94734092 -0.31037916
vn 0.04445899 0.94825923 -0.31436894
vn 0.16288945 0.57842645 -0.79930587
vn -0.00014083 0.58133537 -0.81366404
vn -0.00016229 0.58133537 -0.81366404
vn 0.17146372 0.57758928 -0.79811704
vn 0.32851804 0.56653452 -0.75572120
vn 0.31496119 0.56919410 -0.75948504
vn 0.44655269 0.55249653 -0.70380272
vn 0.43375555 0.55612931 -0.70892617
vn 0.51815985 0.54067405 -0.66270803
vn 0.51124528 0.54308364 -0.66609941
vn 0.53749025 0.53596467 -0.65103464
vn 0.54109924 0.53462267 -0.64914575
vn 0.46071388 0.54856473 -0.69772448
vn 0.48292680 0.54168734 -0.68800911
vn 0.32554893 0.56627738 -0.75719734
vn 0.36130008 0.55871527 -0.74652495
vn 0.20117086 0.57595355 -0.79234323
vn 0.23753976 0.57121030 -0.78568038
vn 0.11410811 0.57962142 -0.80685708
vn 0.14113123 0.57759976 -0.80402767
vn 0.00019362 0.58133536 -0.81366403
vn 0.00050688 0.58133530 -0.81366394
vn 0.16279259 0.57843013 -0.79932294
vn 0.17160024 0.57758305 -0.79809221
vn 0.31484032 0.56920440 -0.75952743
vn 0.32868340 0.56651861 -0.75566123
vn 0.43365730 0.55614295 -0.70897558
vn 0.44668022 0.55247817 -0.70373621
vn 0.51116890 0.54309976 -0.66614488
vn 0.51824671 0.54065710 -0.66265394
vn 0.54110076 0.53462974 -0.64913866
vn 0.53745230 0.53596828 -0.65106300
vn 0.48325904 0.54163567 -0.68781647
vn 0.46020855 0.54864580 -0.69799418
vn 0.36172233 0.55866389 -0.74635891
vn 0.32496987 0.56633659 -0.75740177
vn 0.23790270 0.57118079 -0.78559201
vn 0.20072544 0.57597818 -0.79243829
vn 0.14138925 0.57758655 -0.80399182
vn 0.08503443 0.87193410 -0.48218261
vn -0.00005248 0.87248497 -0.48864094
vn -0.00008458 0.87248497 -0.48864094
vn 0.09807717 0.87090486 -0.48156577
vn 0.19162220 0.86578531 -0.46227344
vn 0.16989764 0.86917405 -0.46440420
vn 0.26779010 0.85826374 -0.43780340
vn 0.24572169 0.86318550 -0.44105740
vn 0.32028082 0.85041829 -0.41738343
vn 0.30743940 0.85396278 -0.41979589
vn 0.34226739 0.84513672 -0.41060559
vn 0.34922232 0.84299223 -0.40915506
vn 0.30328981 0.84951606 -0.43166857
vn 0.34517287 0.83736074 -0.42388994
vn 0.22274394 0.85974104 -0.45959818
vn 0.28494609 0.84572046 -0.45117915
vn 0.14447938 0.86689525 -0.47709363
vn 0.20334257 0.85787649 -0.47191072
vn 0.08526156 0.87044321 -0.48482892
vn 0.12701370 0.86655888 -0.48264192
vn 0.00030440 0.87248493 -0.48864092
vn 0.00077153 0.87248471 -0.48864080
vn 0.09813594 0.87090285 -0.48155744
vn 0.08510561 0.87193295 -0.48217213
vn 0.19169795 0.86577950 -0.46225291
vn 0.16999623 0.86916888 -0.46437779
vn 0.26785483 0.85825572 -0.43777953
vn 0.24581732 0.86317489 -0.44102489
vn 0.32033445 0.85040838 -0.41736246
vn 0.30753554 0.85394373 -0.41976422
vn 0.34226915 0.84513225 -0.41061333
vn 0.34929606 0.84296369 -0.40915093
vn 0.30306381 0.84954797 -0.43176449
vn 0.34501851 0.83737323 -0.42399092
vn 0.22247122 0.85977102 -0.45967418
vn 0.28464912 0.84576725 -0.45127889
vn 0.14425429 0.86691177 -0.47713172
vn 0.20302078 0.85791974 -0.47197063
vn 0.08510473 0.87045045 -0.48484349
vn 0.07094505 0.87060463 -0.48684122
vn 0.12675175 0.86658269 -0.48266805
vn 0.02096239 0.98997832 -0.13965497
vn 0.00000613 0.98994949 -0.14142136
vn -0.00000613 0.98994949 -0.14142136
vn -0.00001519 0.98994949 -0.14142136
vn 0.02464536 0.98989698 -0.13963011
vn 0.04320691 0.98990390 -0.13499419
vn 0.04937183 0.98963268 -0.13486876
vn 0.06542680 0.98946338 -0.12915706
vn 0.07184601 0.98905152 -0.12890011
vn 0.08684396 0.98845883 -0.12412603
vn 0.09077206 0.98813454 -0.12389743
vn 0.10663971 0.98677877 -0.12204768
vn 0.10432190 0.98700785 -0.12219835
vn 0.11856403 0.98483306 -0.12667443
vn 0.10367037 0.98641864 -0.12739982
vn 0.10621525 0.98530003 -0.13379898
vn 0.08475745 0.98729934 -0.13437332
vn 0.07837686 0.98726034 -0.13847050
vn 0.05966985 0.98853281 -0.13871693
vn 0.04928044 0.98885604 -0.14048195
vn 0.03691293 0.98938328 -0.14056370
vn 0.02763492 0.98960169 -0.14115528
vn 0.02057337 0.98977026 -0.14117924
vn 0.00022329 0.98994947 -0.14142135
vn 0.00035460 0.98994943 -0.14142135
vn 0.02462472 0.98989709 -0.13963297
vn 0.04934293 0.98963318 -0.13487570
vn 0.07181725 0.98905256 -0.12890816
vn 0.09074183 0.98813646 -0.12390426
vn 0.10429666 0.98701084 -0.12219582
vn 0.10371816 0.98641731 -0.12737121
vn 0.08485016 0.98729450 -0.13435040
vn 0.05976719 0.98852851 -0.13870571
vn 0.03699015 0.98938098 -0.14055962
vn 0.00000000 1.00000000 0.00000000
vn 0.00000000 1.00000000 0.00000000
vn 0.00000000 1.00000000 0.00000000
vn 0.00000000 1.00000000 0.00000000
vn 0.00000000 1.00000000 0.00000000
vn 0.00000000 1.00000000 0.00000000
vn 0.00000000 1.00000000 0.00000000
vn 0.00000000 1.00000000 0.00000000
vn 0.00000000 1.00000000 0.00000000
vn 0.00000000 1.00000000 0.00000000
vn 0.00000000 1.00000000 0.00000000
vn 0.00000000 1.00000000 0.00000000
vn 0.00000000 1.00000000 0.00000000
s 1
usemtl Dirt
f 22/22/22 2/2/2 3/3/3
f 1/1/1 22/22/22 4/4/4
f 23/23/23 4/4/4 5/5/5
f 24/24/24 5/5/5 7/7/7
f 25/25/25 7/7/7 9/9/9
f 26/26/26 9/9/9 11/11/11
f 11/11/11 14/14/14 27/27/27
f 28/28/28 14/14/14 13/13/13
f 13/13/13 15/15/15 16/16/16
f 15/15/15 18/18/18 29/29/29
f 30/30/30 18/18/18 17/17/17
f 19/19/19 20/20/20 30/30/30
f 30/30/30 17/17/17 19/19/19
f 20/20/20 21/21/21 30/30/30
f 29/29/29 16/16/16 15/15/15
f 15/15/15 17/17/17 18/18/18
f 13/13/13 16/16/16 28/28/28
f 27/27/27 12/12/12 11/11/11
f 11/11/11 13/13/13 14/14/14
f 11/11/11 12/12/12 26/26/26
f 26/26/26 10/10/10 9/9/9
f 9/9/9 10/10/10 25/25/25
f 25/25/25 8/8/8 7/7/7
f 7/7/7 8/8/8 24/24/24
f 24/24/24 6/6/6 5/5/5
f 5/5/5 6/6/6 23/23/23
f 23/23/23 1/1/1 4/4/4
f 22/22/22 3/3/3 4/4/4
s 2
usemtl Grass
f 42/53/53 32/32/32 2/33/33
f 31/31/31 42/53/53 22/34/34
f 43/55/55 22/34/34 1/54/54
f 1/54/54 23/35/35 33/36/36
f 23/35/35 6/56/56 44/57/57
f 6/56/56 34/38/38 44/57/57
f 45/59/59 34/38/38 24/37/37
f 24/37/37 8/58/58 45/59/59
f 8/58/58 25/39/39 35/40/40
f 46/61/61 25/39/39 10/60/60
f 10/60/60 26/41/41 36/42/42
f 26/41/41 12/62/62 47/63/63
f 12/62/62 37/44/44 47/63/63
f 48/65/65 37/44/44 27/43/43
f 27/43/43 14/64/64 48/65/65
f 14/64/64 28/45/45 38/46/46
f 28/45/45 16/66/66 49/67/67
f 16/66/66 39/48/48 49/67/67
f 18/68/68 50/69/69 39/48/48
f 30/49/49 40/50/50 50/69/69
f 30/49/49 41/52/52 40/50/50
f 30/49/49 21/51/51 41/52/52
f 18/68/68 30/49/49 50/69/69
f 39/48/48 29/47/47 18/68/68
f 16/66/66 29/47/47 39/48/48
f 49/67/67 38/46/46 28/45/45
f 14/64/64 38/46/46 48/65/65
f 12/62/62 27/43/43 37/44/44
f 47/63/63 36/42/42 26/41/41
f 10/60/60 36/42/42 46/61/61
f 46/61/61 35/40/40 25/39/39
f 8/58/58 35/40/40 45/59/59
f 6/56/56 24/37/37 34/38/38
f 44/57/57 33/36/36 23/35/35
f 1/54/54 33/36/36 43/55/55
f 43/55/55 31/31/31 22/34/34
f 42/53/53 2/33/33 22/34/34
s 3
f 51/70/70 52/71/71 32/72/72
f 42/73/73 62/93/93 51/70/70
f 31/92/92 53/75/75 62/93/93
f 43/74/74 63/95/95 53/75/75
f 33/94/94 54/77/77 63/95/95
f 44/76/76 64/97/97 54/77/77
f 34/96/96 55/79/79 64/97/97
f 45/78/78 65/99/99 55/79/79
f 35/98/98 56/81/81 65/99/99
f 46/80/80 66/101/101 56/81/81
f 36/100/100 57/83/83 66/101/101
f 47/82/82 67/103/103 57/83/83
f 37/102/102 58/85/85 67/103/103
f 48/84/84 68/105/105 58/85/85
f 38/104/104 59/87/87 68/105/105
f 69/107/107 59/87/87 49/86/86
f 39/106/106 60/89/89 69/107/107
f 71/110/110 60/89/89 50/88/88
f 70/109/109 71/110/110 40/108/108
f 40/108/108 41/90/90 61/91/91
f 61/91/91 70/109/109 40/108/108
f 71/110/110 50/88/88 40/108/108
f 39/106/106 50/88/88 60/89/89
f 69/107/107 49/86/86 39/106/106
f 38/104/104 49/86/86 59/87/87
f 48/84/84 38/104/104 68/105/105
f 37/102/102 48/84/84 58/85/85
f 47/82/82 37/102/102 67/103/103
f 36/100/100 47/82/82 57/83/83
f 46/80/80 36/100/100 66/101/101
f 35/98/98 46/80/80 56/81/81
f 45/78/78 35/98/98 65/99/99
f 34/96/96 45/78/78 55/79/79
f 44/76/76 34/96/96 64/97/97
f 33/94/94 44/76/76 54/77/77
f 43/74/74 33/94/94 63/95/95
f 31/92/92 43/74/74 53/75/75
f 42/73/73 31/92/92 62/93/93
f 51/70/70 32/72/72 42/73/73
s 4
f 74/113/113 52/114/114 51/136/136
f 73/112/112 51/136/136 62/115/115
f 75/116/116 62/115/115 53/137/137
f 76/118/118 75/116/116 63/117/117
f 77/120/120 76/118/118 64/119/119
f 78/122/122 77/120/120 65/121/121
f 79/124/124 78/122/122 66/123/123
f 80/126/126 79/124/124 67/125/125
f 81/128/128 80/126/126 68/127/127
f 82/130/130 81/128/128 69/129/129
f 83/132/132 82/130/130 71/131/131
f 70/133/133 84/135/135 83/132/132
f 70/133/133 61/134/134 84/135/135
f 83/132/132 71/131/131 70/133/133
f 69/129/129 60/144/144 82/130/130
f 60/144/144 71/131/131 82/130/130
f 81/128/128 59/143/143 69/129/129
f 81/128/128 68/127/127 59/143/143
f 80/126/126 58/142/142 68/127/127
f 80/126/126 67/125/125 58/142/142
f 79/124/124 57/141/141 67/125/125
f 79/124/124 66/123/123 57/141/141
f 78/122/122 56/140/140 66/123/123
f 78/122/122 65/121/121 56/140/140
f 77/120/120 55/139/139 65/121/121
f 77/120/120 64/119/119 55/139/139
f 76/118/118 54/138/138 64/119/119
f 76/118/118 63/117/117 54/138/138
f 75/116/116 53/137/137 63/117/117
f 75/116/116 72/111/111 62/115/115
f 62/115/115 72/111/111 73/112/112
f 73/112/112 74/113/113 51/136/136
s 5
f 82/156/156 83/157/157 84/145/145
f 79/153/153 84/145/145 85/147/147
f 85/147/147 73/146/146 72/148/148
f 72/148/148 75/149/149 85/147/147
f 75/149/149 76/150/150 85/147/147
f 76/150/150 77/151/151 85/147/147
f 77/151/151 78/152/152 85/147/147
f 78/152/152 79/153/153 85/147/147
f 79/153/153 80/154/154 84/145/145
f 80/154/154 81/155/155 84/145/145
f 81/155/155 82/156/156 84/145/145
