mtllib Track_Normal_Curve_Inner_4x5.mtl
o object1
g object1
v -1.67372572 0.25000000 -1.14950738
v -2.50000000 0.25000000 -1.20710678
v -2.50000000 0.05000000 -1.35000000
v -1.64593168 0.05000000 -1.28981434
v -0.80923637 0.05000000 -1.10838258
v -0.86391856 0.25000000 -0.97581173
v -0.00937941 0.05000000 -0.80337216
v -0.08907980 0.25000000 -0.68359598
v 0.72973044 0.05000000 -0.37185173
v 0.62793904 0.25000000 -0.26968889
v 1.37718497 0.05000000 0.18744068
v 1.25733016 0.25000000 0.26768385
v 1.89320986 0.05000000 0.86928484
v 1.76034473 0.25000000 0.92433988
v 2.23141236 0.05000000 1.65410943
v 2.09094521 0.25000000 1.68197245
v 2.32004377 0.05000000 2.07293546
v 2.17775238 0.25000000 2.08691507
v 2.35000000 0.05000000 2.50000000
v 2.20710678 0.25000000 2.50000000
v -1.67376707 0.25000000 -1.14951319
v -0.86398780 0.25000000 -0.97583196
v -1.64588932 0.05000000 -1.28980832
v -0.08915326 0.25000000 -0.68363050
v -0.80916551 0.05000000 -1.10836165
v 0.62788788 0.25000000 -0.26972473
v -0.00930440 0.05000000 -0.80333652
v 0.72978268 0.05000000 -0.37181471
v 1.95012993 0.25000000 1.29251044
v 2.23140310 0.05000000 1.65407681
v 2.09095434 0.25000000 1.68200423
v -2.50000000 -0.00000000 -1.50000000
v -1.61671150 -0.00000000 -1.43709316
v -0.75176135 -0.00000000 -1.24752497
v 0.07436230 -0.00000000 -0.92906820
v 0.83663826 -0.00000000 -0.47905704
v 1.50299283 -0.00000000 0.10319855
v 2.03268894 -0.00000000 0.81150132
v 2.37885617 -0.00000000 1.62482687
v 2.46941325 -0.00000000 2.05826901
v 2.50000000 -0.00000000 2.50000000
v -1.74322414 0.45000000 -0.79886913
v -2.50000000 0.45000000 -0.85000000
v -1.00063928 0.45000000 -0.64451974
v -0.28832801 0.45000000 -0.38429215
v 0.37350314 0.45000000 -0.01440417
v 0.95783521 0.45000000 0.46825919
v 1.42827137 0.45000000 1.06188132
v 1.60687636 0.45000000 1.39647101
v 1.82214393 0.45000000 2.12181117
v 1.73990667 0.45000000 1.75162289
v 1.85000000 0.45000000 2.50000000
v -1.74319432 0.45000000 -0.79886507
v -1.00058937 0.45000000 -0.64450561
v -0.28827523 0.45000000 -0.38426813
v 0.37354054 0.45000000 -0.01437881
v -1.81127180 0.50000000 -0.45519967
v -2.50000000 0.50000000 -0.50000000
v -1.13452572 0.50000000 -0.31978855
v -0.48349065 0.50000000 -0.09088977
v 0.12421535 0.50000000 0.23585772
v 0.66430734 0.50000000 0.66484968
v 1.10280154 0.50000000 1.19667758
v 1.27045430 0.50000000 1.49836428
v 1.47361138 0.50000000 2.15600574
v 1.39584550 0.50000000 1.81985799
v 1.50000000 0.50000000 2.50000000
v -2.50000000 0.50000000 2.50000000
vt 0.12498810 1.00000000
vt 0.00000000 1.00000000
vt 0.00000000 0.00000000
vt 0.12498810 0.00000000
vt 0.24998290 0.00000000
vt 0.24998290 1.00000000
vt 0.37498232 0.00000000
vt 0.37498232 1.00000000
vt 0.49998879 0.00000000
vt 0.49998879 1.00000000
vt 0.62499856 0.00000000
vt 0.62499856 1.00000000
vt 0.75000983 0.00000000
vt 0.75000983 1.00000000
vt 0.87501085 0.00000000
vt 0.87501085 1.00000000
vt 0.93750542 0.00000000
vt 0.93750542 1.00000000
vt 1.00000000 0.00000000
vt 1.00000000 1.00000000
vt 0.12498181 1.00000000
vt 0.24997202 1.00000000
vt 0.12499434 0.00000000
vt 0.37497008 1.00000000
vt 0.24999367 0.00000000
vt 0.49997937 1.00000000
vt 0.37499443 0.00000000
vt 0.49999813 0.00000000
vt 0.81251449 1.00000000
vt 0.87500590 0.00000000
vt 0.87501584 1.00000000
vt 0.12499434 1.00000000
vt 0.00000000 1.00000000
vt 0.00000000 0.00000000
vt 0.12499434 0.00000000
vt 0.24999367 0.00000000
vt 0.24999367 1.00000000
vt 0.37499443 0.00000000
vt 0.37499443 1.00000000
vt 0.49999813 0.00000000
vt 0.49999813 1.00000000
vt 0.62500177 0.00000000
vt 0.62500177 1.00000000
vt 0.75000651 0.00000000
vt 0.75000651 1.00000000
vt 0.87500590 0.00000000
vt 0.87500590 1.00000000
vt 0.93750295 0.00000000
vt 0.93750295 1.00000000
vt 1.00000000 0.00000000
vt 1.00000000 1.00000000
vt 0.12498810 1.00000000
vt 0.24998290 1.00000000
vt 0.37498232 1.00000000
vt 0.49998879 1.00000000
vt 0.87501085 1.00000000
vt 0.12498181 1.00000000
vt 0.00000000 1.00000000
vt 0.00000000 0.00000000
vt 0.12498181 0.00000000
vt 0.24997202 0.00000000
vt 0.24997202 1.00000000
vt 0.37497008 0.00000000
vt 0.37497008 1.00000000
vt 0.49997937 0.00000000
vt 0.49997937 1.00000000
vt 0.62499525 0.00000000
vt 0.62499525 1.00000000
vt 0.75001315 0.00000000
vt 0.75001315 1.00000000
vt 0.81251449 0.00000000
vt 0.81251449 1.00000000
vt 0.87501584 0.00000000
vt 0.93750792 0.00000000
vt 0.93750792 1.00000000
vt 0.87501584 1.00000000
vt 1.00000000 0.00000000
vt 1.00000000 1.00000000
vt 0.12498676 1.00000000
vt 0.12498810 0.00000000
vt 0.24998056 1.00000000
vt 0.24998290 0.00000000
vt 0.37497962 1.00000000
vt 0.37498232 0.00000000
vt 0.49998682 1.00000000
vt 0.49998879 0.00000000
vt 0.87501085 0.00000000
vt 0.12498676 1.00000000
vt 0.00000000 1.00000000
vt 0.00000000 0.00000000
vt 0.12498676 0.00000000
vt 0.24998056 0.00000000
vt 0.24998056 1.00000000
vt 0.37497962 0.00000000
vt 0.37497962 1.00000000
vt 0.49998681 0.00000000
vt 0.49998681 1.00000000
vt 0.62499751 0.00000000
vt 0.62499751 1.00000000
vt 0.75001039 0.00000000
vt 0.75001039 1.00000000
vt 0.81251114 0.00000000
vt 0.81251114 1.00000000
vt 0.87501188 0.00000000
vt 0.93750594 0.00000000
vt 0.93750594 1.00000000
vt 0.87501188 1.00000000
vt 1.00000000 0.00000000
vt 1.00000000 1.00000000
vt 0.12498181 0.00000000
vt 0.24997202 0.00000000
vt 0.37497008 0.00000000
vt 0.49997937 0.00000000
vt 0.00001599 1.00000000
vt 1.00000000 0.00000000
vt 1.00000000 1.00000000
vt 0.00661304 0.88533525
vt 0.02605420 0.77328600
vt 0.05740150 0.66612142
vt 0.09931402 0.56555919
vt 0.20893581 0.38828323
vt 0.34395665 0.24528591
vt 0.49588072 0.13637008
vt 0.65863689 0.06007048
vt 0.82782070 0.01493344
vn 0.11325634 0.58111014 -0.80590570
vn 0.00008986 0.58133537 -0.81366404
vn 0.00008448 0.58133537 -0.81366404
vn 0.11446836 0.58114221 -0.80571132
vn 0.23062776 0.58062727 -0.78082188
vn 0.22832561 0.58050588 -0.78158834
vn 0.34965817 0.57998004 -0.73577328
vn 0.34653752 0.57973511 -0.73744081
vn 0.47125830 0.57949437 -0.66490743
vn 0.46778203 0.57913571 -0.66766893
vn 0.59185835 0.57947702 -0.56027679
vn 0.58870193 0.57907996 -0.56400039
vn 0.70181360 0.58006090 -0.41350578
vn 0.69972776 0.57975912 -0.41744512
vn 0.78302544 0.58091419 -0.22228329
vn 0.78233759 0.58080573 -0.22497245
vn 0.80580949 0.58122271 -0.11336329
vn 0.80562415 0.58119284 -0.11482428
vn 0.81366402 0.58133536 0.00024004
vn 0.81366402 0.58133536 0.00025391
vn 0.11325060 0.58111017 -0.80590649
vn 0.22831547 0.58050595 -0.78159125
vn 0.11447411 0.58114219 -0.80571051
vn 0.34652577 0.57973518 -0.73744628
vn 0.23063789 0.58062721 -0.78081893
vn 0.46777283 0.57913574 -0.66767535
vn 0.34966985 0.57997998 -0.73576777
vn 0.47126742 0.57949435 -0.66490099
vn 0.74601897 0.58027957 -0.32669760
vn 0.78302310 0.58091416 -0.22229163
vn 0.78234000 0.58080576 -0.22496396
vn 0.04450253 0.94863566 -0.31322501
vn 0.00003283 0.94868330 -0.31622777
vn 0.00003078 0.94868330 -0.31622777
vn 0.04496309 0.94864322 -0.31313634
vn 0.09059280 0.94853710 -0.30343090
vn 0.08972942 0.94850847 -0.30377675
vn 0.13731157 0.94840603 -0.28578234
vn 0.13616748 0.94834821 -0.28652067
vn 0.18488347 0.94831226 -0.25791850
vn 0.18365011 0.94822766 -0.25910797
vn 0.23172451 0.94831672 -0.21679286
vn 0.23065071 0.94822336 -0.21834083
vn 0.27394245 0.94843883 -0.15943440
vn 0.27326496 0.94836826 -0.16100899
vn 0.30472142 0.94860459 -0.08540605
vn 0.30450656 0.94857938 -0.08644606
vn 0.31328364 0.94866245 -0.04350775
vn 0.31322642 0.94865552 -0.04406723
vn 0.31622776 0.94868329 0.00008800
vn 0.31622776 0.94868329 0.00009329
vn 0.04450029 0.94863566 -0.31322532
vn 0.08972547 0.94850848 -0.30377787
vn 0.13616291 0.94834822 -0.28652279
vn 0.18364655 0.94822767 -0.25911047
vn 0.30450746 0.94857938 -0.08644281
vn 0.06598116 0.87231146 -0.48447828
vn 0.00006308 0.87248497 -0.48864094
vn 0.00005396 0.87248497 -0.48864094
vn 0.06802880 0.87236303 -0.48410209
vn 0.13723861 0.87203541 -0.46980827
vn 0.13338183 0.87183934 -0.47128066
vn 0.20847062 0.87161653 -0.44364921
vn 0.20331901 0.87121832 -0.44681094
vn 0.28159886 0.87129003 -0.40194001
vn 0.27598355 0.87070274 -0.40707470
vn 0.35441796 0.87125961 -0.33955060
vn 0.34946339 0.87060562 -0.34629638
vn 0.42094818 0.87162957 -0.25112650
vn 0.41777932 0.87113107 -0.25805250
vn 0.44853776 0.87191249 -0.19642424
vn 0.44648313 0.87156706 -0.20254300
vn 0.47010325 0.87219806 -0.13517944
vn 0.48388885 0.87240781 -0.06896512
vn 0.48361757 0.87235850 -0.07144716
vn 0.46908767 0.87201888 -0.13978491
vn 0.48864094 0.87248496 0.00015248
vn 0.48864094 0.87248496 0.00017597
vn 0.06598380 0.87231145 -0.48447794
vn 0.06803225 0.87236302 -0.48410162
vn 0.13338651 0.87183930 -0.47127941
vn 0.13724471 0.87203537 -0.46980655
vn 0.20332447 0.87121827 -0.44680855
vn 0.20847770 0.87161649 -0.44364596
vn 0.27598793 0.87070272 -0.40707178
vn 0.28160440 0.87129001 -0.40193616
vn 0.47010182 0.87219804 -0.13518456
vn 0.01840397 0.98992676 -0.14037911
vn 0.00002136 0.98994949 -0.14142136
vn 0.00001826 0.98994949 -0.14142136
vn 0.01910036 0.98993300 -0.14024207
vn 0.03863062 0.98988807 -0.13648916
vn 0.03732356 0.98986424 -0.13702462
vn 0.05892408 0.98982887 -0.12948656
vn 0.05719024 0.98978006 -0.13063195
vn 0.08002557 0.98977963 -0.11803469
vn 0.07815773 0.98970696 -0.11988120
vn 0.10134127 0.98977035 -0.10042211
vn 0.09972261 0.98968874 -0.10281826
vn 0.12108450 0.98982054 -0.07479197
vn 0.12007331 0.98975805 -0.07721017
vn 0.12934441 0.98986213 -0.05867702
vn 0.12869677 0.98981880 -0.06079387
vn 0.13582843 0.98990516 -0.04047725
vn 0.13998601 0.98993747 -0.02068147
vn 0.13990203 0.98993129 -0.02152824
vn 0.13551171 0.98988269 -0.04205751
vn 0.14142136 0.98994949 0.00005093
vn 0.14142136 0.98994949 0.00005893
vn 0.01909960 0.98993300 -0.14024216
vn 0.03862926 0.98988807 -0.13648952
vn 0.05892250 0.98982887 -0.12948724
vn 0.08002430 0.98977963 -0.11803554
vn 0.00000000 1.00000000 0.00000000
vn 0.00000000 1.00000000 0.00000000
vn 0.00000000 1.00000000 0.00000000
vn 0.00000000 1.00000000 0.00000000
vn 0.00000000 1.00000000 0.00000000
vn 0.00000000 1.00000000 0.00000000
vn 0.00000000 1.00000000 0.00000000
vn 0.00000000 1.00000000 0.00000000
vn 0.00000000 1.00000000 0.00000000
vn 0.00000000 1.00000000 0.00000000
vn 0.00000000 1.00000000 0.00000000
vn 0.00000000 1.00000000 0.00000000
s 1
usemtl Grass
f 3/3/3 2/2/2 21/21/21
f 4/4/4 21/21/21 1/1/1
f 23/23/23 4/4/4 22/22/22
f 22/22/22 6/6/6 23/23/23
f 5/5/5 6/6/6 24/24/24
f 24/24/24 8/8/8 25/25/25
f 7/7/7 8/8/8 26/26/26
f 26/26/26 10/10/10 27/27/27
f 9/9/9 10/10/10 12/12/12
f 12/12/12 14/14/14 11/11/11
f 13/13/13 14/14/14 29/29/29
f 29/29/29 15/15/15 30/30/30
f 16/16/16 31/31/31 15/15/15
f 31/31/31 18/18/18 15/15/15
f 18/18/18 20/20/20 17/17/17
f 20/20/20 19/19/19 17/17/17
f 18/18/18 17/17/17 15/15/15
f 29/29/29 16/16/16 15/15/15
f 30/30/30 13/13/13 29/29/29
f 14/14/14 13/13/13 11/11/11
f 12/12/12 11/11/11 28/28/28
f 12/12/12 28/28/28 9/9/9
f 10/10/10 9/9/9 27/27/27
f 26/26/26 27/27/27 7/7/7
f 8/8/8 7/7/7 25/25/25
f 25/25/25 5/5/5 24/24/24
f 6/6/6 5/5/5 23/23/23
f 4/4/4 1/1/1 22/22/22
f 4/4/4 3/3/3 21/21/21
s 2
usemtl Dirt
f 32/34/34 3/33/33 4/52/52
f 33/35/35 4/52/52 23/32/32
f 34/36/36 33/35/35 5/53/53
f 35/38/38 34/36/36 7/54/54
f 36/40/40 35/38/38 9/55/55
f 11/43/43 37/42/42 36/40/40
f 13/45/45 38/44/44 37/42/42
f 30/47/47 39/46/46 38/44/44
f 15/56/56 17/49/49 39/46/46
f 17/49/49 19/51/51 40/48/48
f 19/51/51 41/50/50 40/48/48
f 17/49/49 40/48/48 39/46/46
f 30/47/47 15/56/56 39/46/46
f 13/45/45 30/47/47 38/44/44
f 11/43/43 13/45/45 37/42/42
f 28/41/41 11/43/43 36/40/40
f 9/55/55 28/41/41 36/40/40
f 35/38/38 27/39/39 9/55/55
f 7/54/54 27/39/39 35/38/38
f 34/36/36 25/37/37 7/54/54
f 5/53/53 25/37/37 34/36/36
f 33/35/35 23/32/32 5/53/53
f 33/35/35 32/34/34 4/52/52
s 3
usemtl Grass
f 21/60/60 2/59/59 42/57/57
f 2/59/59 43/58/58 42/57/57
f 53/79/79 1/80/80 21/60/60
f 53/79/79 22/61/61 1/80/80
f 54/81/81 6/82/82 22/61/61
f 45/64/64 24/63/63 6/82/82
f 55/83/83 8/84/84 24/63/63
f 46/66/66 26/65/65 8/84/84
f 56/85/85 10/86/86 26/65/65
f 47/68/68 12/67/67 10/86/86
f 48/70/70 14/69/69 12/67/67
f 49/72/72 29/71/71 14/69/69
f 16/87/87 29/71/71 51/76/76
f 51/76/76 50/75/75 31/73/73
f 50/75/75 52/78/78 18/74/74
f 52/78/78 20/77/77 18/74/74
f 50/75/75 18/74/74 31/73/73
f 51/76/76 31/73/73 16/87/87
f 29/71/71 49/72/72 51/76/76
f 48/70/70 49/72/72 14/69/69
f 47/68/68 48/70/70 12/67/67
f 56/85/85 47/68/68 10/86/86
f 26/65/65 46/66/66 56/85/85
f 55/83/83 46/66/66 8/84/84
f 24/63/63 45/64/64 55/83/83
f 54/81/81 45/64/64 6/82/82
f 22/61/61 44/62/62 54/81/81
f 53/79/79 44/62/62 22/61/61
f 21/60/60 42/57/57 53/79/79
s 4
f 43/90/90 58/89/89 57/88/88
f 53/91/91 57/88/88 59/93/93
f 54/92/92 59/93/93 60/95/95
f 55/94/94 60/95/95 61/97/97
f 61/97/97 62/99/99 56/96/96
f 62/99/99 63/101/101 47/98/98
f 63/101/101 64/103/103 48/100/100
f 64/103/103 66/107/107 49/102/102
f 66/107/107 51/104/104 49/102/102
f 65/106/106 50/105/105 51/104/104
f 67/109/109 52/108/108 50/105/105
f 65/106/106 67/109/109 50/105/105
f 66/107/107 65/106/106 51/104/104
f 64/103/103 49/102/102 48/100/100
f 63/101/101 48/100/100 47/98/98
f 62/99/99 47/98/98 56/96/96
f 61/97/97 56/96/96 46/113/113
f 46/113/113 55/94/94 61/97/97
f 60/95/95 55/94/94 45/112/112
f 45/112/112 54/92/92 60/95/95
f 59/93/93 54/92/92 44/111/111
f 44/111/111 53/91/91 59/93/93
f 53/91/91 42/110/110 57/88/88
f 42/110/110 43/90/90 57/88/88
s 5
f 57/125/125 58/115/115 68/116/116
f 63/120/120 68/116/116 67/114/114
f 67/114/114 65/117/117 66/118/118
f 67/114/114 66/118/118 63/120/120
f 66/118/118 64/119/119 63/120/120
f 63/120/120 62/121/121 68/116/116
f 62/121/121 61/122/122 68/116/116
f 61/122/122 60/123/123 68/116/116
f 60/123/123 59/124/124 68/116/116
f 59/124/124 57/125/125 68/116/116
