mtllib Track_Normal_Curve_Outer_3x4.mtl
o object1
g object1
v 1.95369068 0.25000000 0.76152702
v 2.50000000 0.25000000 0.79289322
v 2.50000000 0.05000000 0.65000000
v 1.97010367 0.05000000 0.61957889
v 1.41447441 0.25000000 0.66633597
v 1.44785574 0.05000000 0.52739650
v 0.89075085 0.25000000 0.50383731
v 0.94222983 0.05000000 0.37053914
v 0.39415626 0.25000000 0.26813443
v 0.46540841 0.05000000 0.14427265
v -0.05754217 0.25000000 -0.04877333
v 0.03539246 0.05000000 -0.15731672
v -0.43580932 0.25000000 -0.45449701
v -0.32027905 0.05000000 -0.53858691
v -0.58769582 0.25000000 -0.69708915
v -0.46141832 0.05000000 -0.76396117
v -0.76977319 0.25000000 -1.22631236
v -0.69751321 0.25000000 -0.94746660
v -0.56267953 0.05000000 -0.99477846
v -0.62889205 0.05000000 -1.25020671
v -0.65000000 0.05000000 -1.50000000
v -0.79289322 0.25000000 -1.50000000
v 1.98213313 0.05000000 0.62095359
v 1.93425938 0.25000000 0.75923925
v 1.47061393 0.05000000 0.53279722
v 1.37787177 0.25000000 0.65737531
v 0.97301861 0.05000000 0.38227494
v 0.84173201 0.25000000 0.48452039
v 0.49976675 0.05000000 0.16375267
v 0.34033472 0.25000000 0.23648804
v 0.06698409 0.05000000 -0.13071243
v -0.10571476 0.25000000 -0.09103727
v -0.29884336 0.05000000 -0.50968601
v -0.46730815 0.25000000 -0.49896355
v -0.44790442 0.05000000 -0.73892497
v -0.70783571 0.25000000 -0.97776777
v -0.62714260 0.05000000 -1.24009858
v -0.60729077 0.25000000 -0.73512415
v -0.55536788 0.05000000 -0.97438014
v -0.77225625 0.25000000 -1.24137565
v 2.50000000 -0.00000000 0.50000000
v 1.99896466 -0.00000000 0.47190023
v 1.50485029 -0.00000000 0.38675648
v 1.02582894 -0.00000000 0.24187882
v 0.57293578 -0.00000000 0.03280833
v 0.16268877 -0.00000000 -0.24621445
v -0.17917161 -0.00000000 -0.60012121
v -0.31648558 -0.00000000 -0.81123435
v -0.41450496 -0.00000000 -1.02593290
v -0.47942765 -0.00000000 -1.26618072
v -0.50000000 -0.00000000 -1.50000000
v 1.89175852 0.45000000 1.11380954
v 2.50000000 0.45000000 1.15000000
v 1.29144593 0.45000000 1.00386608
v 0.70854256 0.45000000 0.81586041
v 0.15637264 0.45000000 0.54256646
v -0.34448570 0.45000000 0.17450666
v -0.76137171 0.45000000 -0.29635149
v -0.92655781 0.45000000 -0.57515869
v -1.12486979 0.45000000 -1.18490917
v -1.04690647 0.45000000 -0.86571176
v -1.15000000 0.45000000 -1.50000000
v 1.86563415 0.45000000 1.11060918
v 1.24248540 0.45000000 0.99137362
v 0.64365417 0.45000000 0.78913928
v 0.08636632 0.45000000 0.49938183
v -0.40554654 0.45000000 0.11801306
v -0.79995139 0.45000000 -0.35408631
v -1.05911676 0.45000000 -0.90388155
v -0.95033451 0.45000000 -0.62409314
v -1.12783381 0.45000000 -1.20401125
v 1.82216214 0.50000000 1.45790048
v 2.49720231 0.50000000 1.50000000
v 2.50000000 0.50000000 1.50000000
v 1.15411643 0.50000000 1.33003409
v 0.50764946 0.50000000 1.11163480
v -0.10087169 0.50000000 0.79508825
v -0.64687812 0.50000000 0.37150654
v -1.09374555 0.50000000 -0.16386170
v -1.26698268 0.50000000 -0.47499858
v -1.47394598 0.50000000 -1.15199541
v -1.39348090 0.50000000 -0.80043709
v -1.50000000 0.50000000 -1.50000000
v -1.50000000 0.50000000 -1.49809882
v -1.50000000 0.50000000 1.50000000
vt 0.11753323 1.00000000
vt 0.00000000 1.00000000
vt 0.00000000 0.00000000
vt 0.11753323 0.00000000
vt 0.23037898 1.00000000
vt 0.23037898 0.00000000
vt 0.34196542 1.00000000
vt 0.34196542 0.00000000
vt 0.45562025 1.00000000
vt 0.45562025 0.00000000
vt 0.57482371 1.00000000
vt 0.57482371 0.00000000
vt 0.70324339 1.00000000
vt 0.70324339 0.00000000
vt 0.77374071 1.00000000
vt 0.77374071 0.00000000
vt 0.92211902 1.00000000
vt 0.84423804 1.00000000
vt 0.84423804 0.00000000
vt 0.92211902 0.00000000
vt 1.00000000 0.00000000
vt 1.00000000 1.00000000
vt 0.11492204 0.00000000
vt 0.12162393 1.00000000
vt 0.22545208 0.00000000
vt 0.23805083 1.00000000
vt 0.33499210 0.00000000
vt 0.35272092 1.00000000
vt 0.44695846 0.00000000
vt 0.46876883 1.00000000
vt 0.56515725 0.00000000
vt 0.58912984 1.00000000
vt 0.69400011 0.00000000
vt 0.71640907 1.00000000
vt 0.76601810 0.00000000
vt 0.85269815 1.00000000
vt 0.91901805 0.00000000
vt 0.78455361 1.00000000
vt 0.83803610 0.00000000
vt 0.92634908 1.00000000
vt 0.11492205 1.00000000
vt 0.00000000 1.00000000
vt 0.00000000 0.00000000
vt 0.11492205 0.00000000
vt 0.22545208 1.00000000
vt 0.22545208 0.00000000
vt 0.33499211 1.00000000
vt 0.33499211 0.00000000
vt 0.44695844 1.00000000
vt 0.44695844 0.00000000
vt 0.56515728 1.00000000
vt 0.56515728 0.00000000
vt 0.69400011 1.00000000
vt 0.69400011 0.00000000
vt 0.76601810 1.00000000
vt 0.76601810 0.00000000
vt 0.91901805 1.00000000
vt 0.83803609 1.00000000
vt 0.83803609 0.00000000
vt 0.91901805 0.00000000
vt 1.00000000 0.00000000
vt 1.00000000 1.00000000
vt 0.11753322 1.00000000
vt 0.23037897 1.00000000
vt 0.34196543 1.00000000
vt 0.45562027 1.00000000
vt 0.57482371 1.00000000
vt 0.70324339 1.00000000
vt 0.84423804 1.00000000
vt 0.77374072 1.00000000
vt 0.92211902 1.00000000
vt 0.12162392 1.00000000
vt 0.00000000 1.00000000
vt 0.00000000 0.00000000
vt 0.12162392 0.00000000
vt 0.23805082 1.00000000
vt 0.23805082 0.00000000
vt 0.35272091 1.00000000
vt 0.35272091 0.00000000
vt 0.46876883 1.00000000
vt 0.46876883 0.00000000
vt 0.58912985 1.00000000
vt 0.58912985 0.00000000
vt 0.71640907 1.00000000
vt 0.71640907 0.00000000
vt 0.78455361 1.00000000
vt 0.78455361 0.00000000
vt 0.92634907 1.00000000
vt 0.85269815 1.00000000
vt 0.85269815 0.00000000
vt 0.92634907 0.00000000
vt 1.00000000 0.00000000
vt 1.00000000 1.00000000
vt 0.11753322 0.00000000
vt 0.12672988 1.00000000
vt 0.23037897 0.00000000
vt 0.24754485 1.00000000
vt 0.34196543 0.00000000
vt 0.36584100 1.00000000
vt 0.45562027 0.00000000
vt 0.48444037 1.00000000
vt 0.57482371 0.00000000
vt 0.60557802 1.00000000
vt 0.70324339 0.00000000
vt 0.73083491 1.00000000
vt 0.77374072 0.00000000
vt 0.86153034 1.00000000
vt 0.92211902 0.00000000
vt 0.79618263 1.00000000
vt 0.84423804 0.00000000
vt 0.93076517 1.00000000
vt 0.12672990 1.00000000
vt 0.00053986 1.00000000
vt 0.00000000 1.00000000
vt 0.00000000 0.00000000
vt 0.12672990 0.00000000
vt 0.24754484 0.00000000
vt 0.24754484 1.00000000
vt 0.36584102 0.00000000
vt 0.36584102 1.00000000
vt 0.48444037 0.00000000
vt 0.48444037 1.00000000
vt 0.60557802 0.00000000
vt 0.60557802 1.00000000
vt 0.73083492 0.00000000
vt 0.73083492 1.00000000
vt 0.79618263 0.00000000
vt 0.79618263 1.00000000
vt 0.86153034 0.00000000
vt 0.93076517 0.00000000
vt 0.93076517 1.00000000
vt 0.86153034 1.00000000
vt 1.00000000 0.00000000
vt 1.00000000 1.00000000
vt 0.99961588 1.00000000
vt 0.12162393 0.00000000
vt 0.23805083 0.00000000
vt 0.35272092 0.00000000
vt 0.46876883 0.00000000
vt 0.58912984 0.00000000
vt 0.71640907 0.00000000
vt 0.78455361 0.00000000
vt 0.92634908 0.00000000
vt 0.85269815 0.00000000
vt 1.00000000 0.00000000
vt 0.00000000 1.00000000
vt 0.00000000 0.00000000
vt 0.83112561 0.01404144
vt 0.66399630 0.05669026
vt 0.50226381 0.12953707
vt 0.35002499 0.23512120
vt 0.21342922 0.37640370
vt 0.10163415 0.55497340
vt 0.05829483 0.65875110
vt 0.02664793 0.76730068
vt 0.00651782 0.88456122
vn 0.09345335 0.58133714 -0.80827817
vn -0.00035566 0.58133534 -0.81366400
vn -0.00039052 0.58133533 -0.81366399
vn 0.09345351 0.58133714 -0.80827815
vn 0.19005974 0.58133552 -0.79115504
vn 0.19005822 0.58133552 -0.79115541
vn 0.29314675 0.58133554 -0.75902172
vn 0.29314952 0.58133554 -0.75902065
vn 0.40571176 0.58133667 -0.70529826
vn 0.40571251 0.58133667 -0.70529783
vn 0.52916121 0.58133577 -0.61809153
vn 0.52915713 0.58133577 -0.61809503
vn 0.65785640 0.58133426 -0.47882714
vn 0.65785811 0.58133426 -0.47882480
vn 0.71909625 0.58132974 -0.38073129
vn 0.71909066 0.58132974 -0.38074185
vn 0.80221133 0.58133502 -0.13603888
vn 0.76776896 0.58133594 -0.26940554
vn 0.76776888 0.58133594 -0.26940577
vn 0.80221038 0.58133502 -0.13604448
vn 0.81366404 0.58133537 0.00014728
vn 0.81366403 0.58133536 0.00019320
vn 0.09130864 0.58133713 -0.80852327
vn 0.09682245 0.58133713 -0.80788152
vn 0.18568617 0.58133560 -0.79219289
vn 0.19690187 0.58133541 -0.78948008
vn 0.28646737 0.58133539 -0.76156787
vn 0.30349049 0.58133595 -0.75494506
vn 0.39691297 0.58133647 -0.71028726
vn 0.41913265 0.58133657 -0.69740635
vn 0.51909063 0.58133625 -0.62657249
vn 0.54405507 0.58133521 -0.60502352
vn 0.64916932 0.58133411 -0.49054036
vn 0.66999562 0.58133503 -0.46168762
vn 0.71291264 0.58133161 -0.39218508
vn 0.77257112 0.58133580 -0.25530874
vn 0.80127116 0.58133525 -0.14147033
vn 0.72747760 0.58132803 -0.36446407
vn 0.76409153 0.58133580 -0.27966555
vn 0.80343221 0.58133464 -0.12863405
vn 0.03548670 0.94868373 -0.31422901
vn -0.00015178 0.94868329 -0.31622776
vn -0.00016693 0.94868328 -0.31622776
vn 0.03548707 0.94868373 -0.31422897
vn 0.07216627 0.94868335 -0.30788297
vn 0.07216567 0.94868335 -0.30788311
vn 0.11133457 0.94868330 -0.29598076
vn 0.11133499 0.94868330 -0.29598060
vn 0.15425862 0.94868357 -0.27605029
vn 0.15425983 0.94868357 -0.27604962
vn 0.20174256 0.94868351 -0.24351495
vn 0.20174061 0.94868351 -0.24351657
vn 0.25229792 0.94868299 -0.19064719
vn 0.25229841 0.94868299 -0.19064655
vn 0.27707260 0.94868237 -0.15242223
vn 0.27706916 0.94868237 -0.15242848
vn 0.31141137 0.94868327 -0.05498197
vn 0.29696139 0.94868340 -0.10869100
vn 0.29696183 0.94868340 -0.10868980
vn 0.31141099 0.94868327 -0.05498410
vn 0.31622777 0.94868330 0.00003439
vn 0.31622777 0.94868330 0.00005724
vn 0.03632029 0.94868373 -0.31413374
vn 0.07386546 0.94868333 -0.30747979
vn 0.11393154 0.94868334 -0.29499072
vn 0.15767850 0.94868362 -0.27411108
vn 0.20565500 0.94868339 -0.24022039
vn 0.25567473 0.94868302 -0.18609393
vn 0.29839051 0.94868344 -0.10470355
vn 0.27947444 0.94868191 -0.14797524
vn 0.31177649 0.94868321 -0.05287325
vn 0.05814719 0.87248592 -0.48516721
vn -0.00016635 0.87248496 -0.48864094
vn -0.00021359 0.87248495 -0.48864093
vn 0.05814601 0.87248592 -0.48516735
vn 0.11824983 0.87248499 -0.47411699
vn 0.11824820 0.87248499 -0.47411739
vn 0.18225467 0.87248529 -0.45337916
vn 0.18225922 0.87248529 -0.45337733
vn 0.25171039 0.87248562 -0.41882063
vn 0.25170720 0.87248562 -0.41882254
vn 0.32672898 0.87248488 -0.36334323
vn 0.32672899 0.87248488 -0.36334322
vn 0.40236001 0.87248478 -0.27726652
vn 0.40236191 0.87248478 -0.27726377
vn 0.43688835 0.87248100 -0.21887320
vn 0.43688573 0.87248100 -0.21887843
vn 0.48249777 0.87248458 -0.07724356
vn 0.46396307 0.87248520 -0.15332267
vn 0.46396262 0.87248520 -0.15332403
vn 0.48249666 0.87248458 -0.07725045
vn 0.48864094 0.87248497 0.00011602
vn 0.48864094 0.87248496 0.00016756
vn 0.05612272 0.87248593 -0.48540554
vn 0.06068250 0.87248588 -0.48485671
vn 0.11413918 0.87248505 -0.47512322
vn 0.12336887 0.87248496 -0.47281086
vn 0.17604745 0.87248506 -0.45582574
vn 0.18987922 0.87248552 -0.45023871
vn 0.24364737 0.87248568 -0.42356193
vn 0.26138180 0.87248528 -0.41285469
vn 0.31778437 0.87248519 -0.37119091
vn 0.33693863 0.87248487 -0.35389620
vn 0.39507210 0.87248437 -0.28755705
vn 0.41014944 0.87248532 -0.26560647
vn 0.43185151 0.87248192 -0.22864725
vn 0.46681304 0.87248509 -0.14441384
vn 0.48176327 0.87248478 -0.08169735
vn 0.44208384 0.87248093 -0.20817996
vn 0.46107864 0.87248528 -0.16178975
vn 0.48321850 0.87248437 -0.07260106
vn 0.01756325 0.98994958 -0.14032591
vn 0.00003647 0.98994948 -0.14142142
vn -0.00003647 0.98994949 -0.14142136
vn -0.00004814 0.98994949 -0.14142136
vn 0.01756258 0.98994958 -0.14032600
vn 0.03570514 0.98994949 -0.13683985
vn 0.03570503 0.98994949 -0.13683988
vn 0.05495439 0.98994955 -0.13030699
vn 0.05495381 0.98994955 -0.13030724
vn 0.07564850 0.98994952 -0.11948743
vn 0.07564977 0.98994952 -0.11948663
vn 0.09751603 0.98994948 -0.10242385
vn 0.09751538 0.98994948 -0.10242447
vn 0.11870448 0.98994953 -0.07687120
vn 0.11870455 0.98994953 -0.07687109
vn 0.12794745 0.98994911 -0.06025123
vn 0.12794707 0.98994911 -0.06025203
vn 0.13510396 0.98994950 -0.04179592
vn 0.13985209 0.98994944 -0.02101205
vn 0.13985227 0.98994944 -0.02101086
vn 0.13510400 0.98994950 -0.04179579
vn 0.14142136 0.98994949 0.00004850
vn 0.14142136 0.98994949 0.00005869
vn 0.14142126 0.98994951 -0.00005868
vn 0.01682881 0.98994958 -0.14041586
vn 0.03422360 0.98994950 -0.13721786
vn 0.05274772 0.98994952 -0.13121593
vn 0.07284940 0.98994956 -0.12121404
vn 0.09456117 0.98994948 -0.10515799
vn 0.11645015 0.98994948 -0.08024586
vn 0.12644377 0.98994912 -0.06334605
vn 0.13964347 0.98994946 -0.02235567
vn 0.13427911 0.98994952 -0.04437429
vn 0.00000000 1.00000000 0.00000000
vn 0.00000000 1.00000000 0.00000000
vn 0.00000000 1.00000000 0.00000000
vn 0.00000000 1.00000000 0.00000000
vn 0.00000000 1.00000000 0.00000000
vn 0.00000000 1.00000000 0.00000000
vn 0.00000000 1.00000000 0.00000000
vn 0.00000000 1.00000000 0.00000000
vn 0.00000000 1.00000000 0.00000000
vn 0.00000000 1.00000000 0.00000000
vn 0.00000000 1.00000000 0.00000000
vn 0.00000000 1.00000000 0.00000000
s 1
usemtl Grass
f 2/2/2 3/3/3 23/23/23
f 1/1/1 23/23/23 4/4/4
f 24/24/24 1/1/1 25/25/25
f 24/24/24 25/25/25 6/6/6
f 5/5/5 6/6/6 27/27/27
f 27/27/27 8/8/8 26/26/26
f 28/28/28 8/8/8 29/29/29
f 9/9/9 29/29/29 10/10/10
f 30/30/30 10/10/10 31/31/31
f 11/11/11 31/31/31 12/12/12
f 32/32/32 12/12/12 33/33/33
f 13/13/13 33/33/33 14/14/14
f 34/34/34 14/14/14 35/35/35
f 15/15/15 35/35/35 16/16/16
f 38/38/38 15/15/15 39/39/39
f 39/39/39 19/19/19 38/38/38
f 18/18/18 19/19/19 37/37/37
f 37/37/37 20/20/20 36/36/36
f 20/20/20 40/40/40 17/17/17
f 21/21/21 22/22/22 40/40/40
f 20/20/20 21/21/21 40/40/40
f 20/20/20 17/17/17 36/36/36
f 36/36/36 18/18/18 37/37/37
f 19/19/19 18/18/18 38/38/38
f 15/15/15 16/16/16 39/39/39
f 15/15/15 34/34/34 35/35/35
f 34/34/34 13/13/13 14/14/14
f 13/13/13 32/32/32 33/33/33
f 32/32/32 11/11/11 12/12/12
f 11/11/11 30/30/30 31/31/31
f 30/30/30 9/9/9 10/10/10
f 9/9/9 28/28/28 29/29/29
f 28/28/28 7/7/7 8/8/8
f 8/8/8 7/7/7 26/26/26
f 26/26/26 5/5/5 27/27/27
f 6/6/6 5/5/5 24/24/24
f 1/1/1 4/4/4 25/25/25
f 1/1/1 2/2/2 23/23/23
s 2
usemtl Dirt
f 23/41/41 3/42/42 42/44/44
f 42/44/44 43/46/46 4/63/63
f 6/64/64 25/45/45 43/46/46
f 44/48/48 27/47/47 6/64/64
f 8/65/65 44/48/48 45/50/50
f 10/66/66 45/50/50 46/52/52
f 12/67/67 46/52/52 47/54/54
f 14/68/68 47/54/54 48/56/56
f 16/70/70 48/56/56 49/59/59
f 19/69/69 39/58/58 49/59/59
f 50/60/60 37/57/57 19/69/69
f 51/61/61 20/71/71 37/57/57
f 51/61/61 21/62/62 20/71/71
f 37/57/57 50/60/60 51/61/61
f 49/59/59 50/60/60 19/69/69
f 49/59/59 39/58/58 16/70/70
f 16/70/70 35/55/55 48/56/56
f 48/56/56 35/55/55 14/68/68
f 14/68/68 33/53/53 47/54/54
f 47/54/54 33/53/53 12/67/67
f 12/67/67 31/51/51 46/52/52
f 46/52/52 31/51/51 10/66/66
f 10/66/66 29/49/49 45/50/50
f 45/50/50 29/49/49 8/65/65
f 8/65/65 27/47/47 44/48/48
f 43/46/46 44/48/48 6/64/64
f 43/46/46 25/45/45 4/63/63
f 3/42/42 41/43/43 42/44/44
f 4/63/63 23/41/41 42/44/44
s 3
usemtl Grass
f 53/73/73 2/74/74 1/94/94
f 52/72/72 1/94/94 24/75/75
f 63/95/95 52/72/72 5/96/96
f 63/95/95 5/96/96 26/77/77
f 54/76/76 26/77/77 7/98/98
f 64/97/97 7/98/98 28/79/79
f 55/78/78 28/79/79 9/100/100
f 9/100/100 30/81/81 65/99/99
f 66/101/101 30/81/81 11/102/102
f 57/82/82 11/102/102 32/83/83
f 67/103/103 32/83/83 13/104/104
f 58/84/84 13/104/104 34/85/85
f 68/105/105 58/84/84 15/106/106
f 15/106/106 38/87/87 68/105/105
f 59/86/86 38/87/87 18/110/110
f 18/110/110 36/90/90 70/109/109
f 36/90/90 61/89/89 70/109/109
f 69/107/107 61/89/89 17/108/108
f 17/108/108 40/91/91 69/107/107
f 60/88/88 40/91/91 22/92/92
f 22/92/92 62/93/93 71/111/111
f 22/92/92 71/111/111 60/88/88
f 40/91/91 60/88/88 69/107/107
f 61/89/89 36/90/90 17/108/108
f 70/109/109 59/86/86 18/110/110
f 38/87/87 59/86/86 68/105/105
f 58/84/84 34/85/85 15/106/106
f 58/84/84 67/103/103 13/104/104
f 67/103/103 57/82/82 32/83/83
f 57/82/82 66/101/101 11/102/102
f 66/101/101 56/80/80 30/81/81
f 30/81/81 56/80/80 65/99/99
f 65/99/99 55/78/78 9/100/100
f 28/79/79 55/78/78 64/97/97
f 64/97/97 54/76/76 7/98/98
f 26/77/77 54/76/76 63/95/95
f 52/72/72 24/75/75 5/96/96
f 52/72/72 53/73/73 1/94/94
s 4
f 74/114/114 53/115/115 52/136/136
f 73/113/113 52/136/136 63/116/116
f 72/112/112 63/116/116 54/137/137
f 54/137/137 64/117/117 75/118/118
f 55/138/138 76/120/120 75/118/118
f 56/139/139 77/122/122 76/120/120
f 57/140/140 78/124/124 77/122/122
f 58/141/141 79/126/126 78/124/124
f 80/128/128 79/126/126 59/142/142
f 82/132/132 80/128/128 61/144/144
f 61/144/144 69/129/129 82/132/132
f 81/131/131 82/132/132 60/143/143
f 84/135/135 81/131/131 62/133/133
f 62/133/133 83/134/134 84/135/135
f 81/131/131 71/130/130 62/133/133
f 60/143/143 71/130/130 81/131/131
f 82/132/132 69/129/129 60/143/143
f 80/128/128 70/127/127 61/144/144
f 59/142/142 70/127/127 80/128/128
f 79/126/126 68/125/125 59/142/142
f 58/141/141 68/125/125 79/126/126
f 78/124/124 67/123/123 58/141/141
f 57/140/140 67/123/123 78/124/124
f 77/122/122 66/121/121 57/140/140
f 56/139/139 66/121/121 77/122/122
f 76/120/120 65/119/119 56/139/139
f 55/138/138 65/119/119 76/120/120
f 75/118/118 64/117/117 55/138/138
f 75/118/118 72/112/112 54/137/137
f 63/116/116 72/112/112 73/113/113
f 73/113/113 74/114/114 52/136/136
s 5
f 81/156/156 84/146/146 85/147/147
f 73/145/145 72/148/148 85/147/147
f 72/148/148 75/149/149 85/147/147
f 75/149/149 76/150/150 85/147/147
f 76/150/150 77/151/151 85/147/147
f 77/151/151 78/152/152 85/147/147
f 78/152/152 79/153/153 85/147/147
f 79/153/153 80/154/154 85/147/147
f 80/154/154 82/155/155 85/147/147
f 82/155/155 81/156/156 85/147/147
